<?xml version="1.0" encoding="UTF-8" standalone="no"?>
<!-- Created with Inkscape (http://www.inkscape.org/) -->

<svg
   xmlns:dc="http://purl.org/dc/elements/1.1/"
   xmlns:cc="http://creativecommons.org/ns#"
   xmlns:rdf="http://www.w3.org/1999/02/22-rdf-syntax-ns#"
   xmlns:svg="http://www.w3.org/2000/svg"
   xmlns="http://www.w3.org/2000/svg"
   xmlns:xlink="http://www.w3.org/1999/xlink"
   xmlns:sodipodi="http://sodipodi.sourceforge.net/DTD/sodipodi-0.dtd"
   xmlns:inkscape="http://www.inkscape.org/namespaces/inkscape"
   id="svg2"
   version="1.1"
   inkscape:version="0.47 r22583"
   width="256"
   height="171.8889"
   sodipodi:docname="albumview.svg">
  <metadata
     id="metadata8">
    <rdf:RDF>
      <cc:Work
         rdf:about="">
        <dc:format>image/svg+xml</dc:format>
        <dc:type
           rdf:resource="http://purl.org/dc/dcmitype/StillImage" />
        <dc:title />
      </cc:Work>
    </rdf:RDF>
  </metadata>
  <defs
     id="defs6">
    <inkscape:perspective
       sodipodi:type="inkscape:persp3d"
       inkscape:vp_x="0 : 0.5 : 1"
       inkscape:vp_y="0 : 1000 : 0"
       inkscape:vp_z="1 : 0.5 : 1"
       inkscape:persp3d-origin="0.5 : 0.33333333 : 1"
       id="perspective10" />
    <inkscape:perspective
       id="perspective2878"
       inkscape:persp3d-origin="0.5 : 0.33333333 : 1"
       inkscape:vp_z="1 : 0.5 : 1"
       inkscape:vp_y="0 : 1000 : 0"
       inkscape:vp_x="0 : 0.5 : 1"
       sodipodi:type="inkscape:persp3d" />
    <linearGradient
       inkscape:collect="always"
       xlink:href="#XMLID_3_"
       id="linearGradient2845"
       gradientUnits="userSpaceOnUse"
       gradientTransform="matrix(73.9988,463.3261,463.3261,-73.9988,-196680.39,145166.65)"
       x1="-240.13229"
       y1="462.42581"
       x2="-238.00459"
       y2="462.42581" />
    <linearGradient
       gradientTransform="matrix(73.9988,463.3261,463.3261,-73.9988,-196680.39,145166.65)"
       gradientUnits="userSpaceOnUse"
       id="XMLID_3_"
       x1="-240.13229"
       x2="-238.00459"
       y1="462.42581"
       y2="462.42581">
      <stop
         id="stop12"
         offset="0"
         style="stop-color:#FFFFFF" />
      <stop
         id="stop14"
         offset="1"
         style="stop-color:#000000" />
    </linearGradient>
    <linearGradient
       inkscape:collect="always"
       xlink:href="#XMLID_4_"
       id="linearGradient2847"
       gradientUnits="userSpaceOnUse"
       gradientTransform="matrix(0,-63.167,-63.167,0,29750.892,-15010.52)"
       x1="-239.1089"
       y1="473.16409"
       x2="-237.0498"
       y2="473.16409" />
    <linearGradient
       gradientTransform="matrix(0,-63.167,-63.167,0,29750.892,-15010.52)"
       gradientUnits="userSpaceOnUse"
       id="XMLID_4_"
       x1="-239.1089"
       x2="-237.0498"
       y1="473.16409"
       y2="473.16409">
      <stop
         id="stop31"
         offset="0"
         style="stop-color:#FFFFFF" />
      <stop
         id="stop33"
         offset="1"
         style="stop-color:#000000" />
    </linearGradient>
    <linearGradient
       y2="473.16409"
       x2="-237.0498"
       y1="473.16409"
       x1="-239.1089"
       gradientTransform="matrix(0,-63.167,-63.167,0,29750.892,-15010.52)"
       gradientUnits="userSpaceOnUse"
       id="linearGradient2896"
       xlink:href="#XMLID_4_"
       inkscape:collect="always" />
    <linearGradient
       inkscape:collect="always"
       xlink:href="#XMLID_4_"
       id="linearGradient3651"
       gradientUnits="userSpaceOnUse"
       gradientTransform="matrix(0,-41.608651,-41.608651,0,19502.219,-9859.7671)"
       x1="-239.1089"
       y1="473.16409"
       x2="-237.0498"
       y2="473.16409" />
    <linearGradient
       inkscape:collect="always"
       xlink:href="#XMLID_3_"
       id="linearGradient3656"
       gradientUnits="userSpaceOnUse"
       gradientTransform="matrix(48.743652,305.19692,305.19692,-48.743652,-129650.03,95650.324)"
       x1="-240.13229"
       y1="462.42581"
       x2="-238.00459"
       y2="462.42581" />
    <linearGradient
       inkscape:collect="always"
       xlink:href="#XMLID_3_"
       id="linearGradient3669"
       gradientUnits="userSpaceOnUse"
       gradientTransform="matrix(48.743652,305.19692,305.19692,-48.743652,-129650.03,95650.324)"
       x1="-240.13229"
       y1="462.42581"
       x2="-238.00459"
       y2="462.42581" />
    <linearGradient
       inkscape:collect="always"
       xlink:href="#XMLID_4_"
       id="linearGradient3671"
       gradientUnits="userSpaceOnUse"
       gradientTransform="matrix(0,-41.608651,-41.608651,0,19502.219,-9859.7671)"
       x1="-239.1089"
       y1="473.16409"
       x2="-237.0498"
       y2="473.16409" />
  </defs>
  <sodipodi:namedview
     pagecolor="#ffffff"
     bordercolor="#666666"
     borderopacity="1"
     objecttolerance="10"
     gridtolerance="10"
     guidetolerance="10"
     inkscape:pageopacity="0"
     inkscape:pageshadow="2"
     inkscape:window-width="1680"
     inkscape:window-height="994"
     id="namedview4"
     showgrid="false"
     inkscape:zoom="1.84375"
     inkscape:cx="60.473759"
     inkscape:cy="79.718641"
     inkscape:window-x="0"
     inkscape:window-y="0"
     inkscape:window-maximized="1"
     inkscape:current-layer="g3662" />
  <path
     style="fill:#aab859;fill-opacity:1;stroke:none"
     d="M 12.582981,139.96634 C 4.2059893,126.67292 4.7752457,121.05478 17.078791,95.596294 41.275942,45.527479 75.090904,12.56771 111.11496,3.9383357 136.03325,-2.0307065 175.32074,3.0699902 212.4942,17.100409 c 23.45732,8.853514 33.45726,15.40692 33.45726,21.925997 0,6.114914 -19.25246,44.686343 -29.40878,58.919141 C 204.74102,114.48411 174.67729,153.14227 161.11937,160.2959 79.565879,119.13321 287.59938,197.47069 12.582981,139.96634 z M 121.18516,139.69198 C 157.3041,131.71162 185.46097,110.50344 210.24055,72.614066 221.44779,55.47755 222.86405,50.7744 218.32682,45.760833 213.60701,40.54549 193.5758,34.754354 171.62056,32.257792 150.7149,29.880574 131.43836,32.403579 103.80024,41.134474 79.753512,48.73083 52.970462,69.370311 33.321216,95.446821 16.558968,117.692 16.400506,121.79033 31.995032,129.74606 c 22.583271,11.52113 62.110857,15.92901 89.190128,9.94592 z"
     id="path2818"
     sodipodi:nodetypes="cssssscccssssssc" />
  <g
     id="g3662"
     transform="matrix(1.1025541,0,0,1.1025541,324.64212,14.264059)">
    <path
       d="m -185.39559,22.453722 c -23.57848,0 -43.26201,19.686827 -43.26201,43.262669 0,23.577159 19.68353,43.264639 43.26201,43.264639 23.57848,0 43.26596,-19.686821 43.26596,-43.264639 0,-23.577818 -19.68748,-43.262669 -43.26596,-43.262669 m 0.002,48.058727 c -6.18395,0 -6.18395,-9.588822 0,-9.588822 6.18396,6.58e-4 6.18396,9.588822 0,9.588822"
       id="path5"
       style="fill:#7590ae;fill-opacity:1" />
    <path
       d="m -229.45703,66.168501 c 0,23.932205 20.03198,43.966829 43.96353,43.966829 23.93286,0 43.96749,-20.033307 43.96749,-43.966829 0,-23.932863 -20.03595,-43.964852 -43.96749,-43.964852 -23.93155,0 -43.96353,20.033306 -43.96353,43.964852 m 1.40305,0 c 0,-23.166785 19.39304,-42.561144 42.56048,-42.561144 23.16876,0 42.56378,19.391725 42.56378,42.561144 0,23.170077 -19.39436,42.563119 -42.56378,42.563119 -23.16876,-5e-4 -42.56048,-19.395676 -42.56048,-42.563119"
       id="path16"
       style="fill:url(#linearGradient3669)" />
    <path
       d="m -185.11959,52.393345 c -18.24755,0 -18.24623,28.296807 0,28.296807 18.24755,6.58e-4 18.24952,-28.296807 0,-28.296807 m 0,18.943144 c -6.18396,0 -6.18396,-9.588822 0,-9.588822 6.18396,6.58e-4 6.18396,9.588822 0,9.588822"
       id="path26"
       style="fill:#adadad" />
    <path
       d="m -185.11959,54.146828 c -15.98554,0 -15.98423,24.789183 0,24.789183 15.98554,6.58e-4 15.98752,-24.789183 0,-24.789183 m 0,17.189661 c -6.18396,0 -6.18396,-9.588822 0,-9.588822 6.18396,6.58e-4 6.18396,9.588822 0,9.588822"
       id="path28"
       style="fill:#f7f7f7" />
    <path
       d="m -190.98845,66.54109 c 0,7.088364 10.99253,7.088364 10.99253,0 0,-7.085729 -10.99253,-7.085729 -10.99253,0 m 1.40305,0 c 0,-5.275598 8.18577,-5.275598 8.18577,0 0,5.27955 -8.18577,5.27955 -8.18577,0"
       id="path35"
       style="fill:url(#linearGradient3671)" />
  </g>
  <path
     sodipodi:nodetypes="csssscc"
     id="path3604"
     d="M 14.670253,142.57542 C 6.2932585,129.28201 6.8625152,123.66387 19.166061,98.205377 43.363212,48.136568 77.178173,15.176801 113.20224,6.5474269 c 24.91828,-5.96904225 64.20578,-0.868346 101.37923,13.1620691 23.45732,8.853515 33.45726,15.406923 33.45726,21.926002 0,6.114911 -19.25246,44.686341 -29.40878,58.919132 -71.06501,90.00789 -65.12508,66.84406 -203.959697,42.02079 z"
     style="fill:none;stroke:#688c35;stroke-width:8.85134029;stroke-miterlimit:4;stroke-opacity:1;stroke-dasharray:none" />
</svg>
