<?xml version="1.0" encoding="UTF-8" standalone="no"?>
<!-- Created with Inkscape (http://www.inkscape.org/) -->
<svg
   xmlns:dc="http://purl.org/dc/elements/1.1/"
   xmlns:cc="http://creativecommons.org/ns#"
   xmlns:rdf="http://www.w3.org/1999/02/22-rdf-syntax-ns#"
   xmlns:svg="http://www.w3.org/2000/svg"
   xmlns="http://www.w3.org/2000/svg"
   xmlns:xlink="http://www.w3.org/1999/xlink"
   xmlns:sodipodi="http://sodipodi.sourceforge.net/DTD/sodipodi-0.dtd"
   xmlns:inkscape="http://www.inkscape.org/namespaces/inkscape"
   width="48"
   height="48"
   id="svg2"
   sodipodi:version="0.32"
   inkscape:version="0.46"
   version="1.0"
   sodipodi:docname="gmpc48.svg"
   inkscape:output_extension="org.inkscape.output.svg.inkscape"
   inkscape:export-filename="C:\Users\Cube\Pictures\Inkscape-Files\gmpc\gmpc48.png"
   inkscape:export-xdpi="90"
   inkscape:export-ydpi="90">
  <defs
     id="defs4">
    <linearGradient
       id="linearGradient6341">
      <stop
         style="stop-color:#204a87;stop-opacity:1;"
         offset="0"
         id="stop6343" />
      <stop
         style="stop-color:#204a87;stop-opacity:1;"
         offset="1"
         id="stop6345" />
    </linearGradient>
    <linearGradient
       id="linearGradient6335">
      <stop
         id="stop6337"
         offset="0"
         style="stop-color:#bcd2e9;stop-opacity:1;" />
      <stop
         id="stop6339"
         offset="1"
         style="stop-color:#3669a2;stop-opacity:1;" />
    </linearGradient>
    <linearGradient
       id="linearGradient6321"
       inkscape:collect="always">
      <stop
         id="stop6323"
         offset="0"
         style="stop-color:#729fcf;stop-opacity:1;" />
      <stop
         id="stop6325"
         offset="1"
         style="stop-color:#729fcf;stop-opacity:0;" />
    </linearGradient>
    <inkscape:perspective
       sodipodi:type="inkscape:persp3d"
       inkscape:vp_x="0 : 526.18109 : 1"
       inkscape:vp_y="0 : 1000 : 0"
       inkscape:vp_z="744.09448 : 526.18109 : 1"
       inkscape:persp3d-origin="372.04724 : 350.78739 : 1"
       id="perspective10" />
    <inkscape:perspective
       id="perspective5482"
       inkscape:persp3d-origin="372.04724 : 350.78739 : 1"
       inkscape:vp_z="744.09448 : 526.18109 : 1"
       inkscape:vp_y="0 : 1000 : 0"
       inkscape:vp_x="0 : 526.18109 : 1"
       sodipodi:type="inkscape:persp3d" />
    <linearGradient
       inkscape:collect="always"
       xlink:href="#linearGradient6321"
       id="linearGradient6319"
       x1="2"
       y1="14.5"
       x2="23"
       y2="14.5"
       gradientUnits="userSpaceOnUse" />
    <linearGradient
       inkscape:collect="always"
       xlink:href="#linearGradient6335"
       id="linearGradient6333"
       x1="3.0606601"
       y1="9.6828346"
       x2="22.292892"
       y2="15.074524"
       gradientUnits="userSpaceOnUse"
       spreadMethod="pad" />
    <linearGradient
       inkscape:collect="always"
       xlink:href="#linearGradient6341"
       id="linearGradient6347"
       x1="2.0000001"
       y1="14.5"
       x2="23"
       y2="14.5"
       gradientUnits="userSpaceOnUse" />
    <filter
       inkscape:collect="always"
       id="filter6355"
       x="-0.44146032"
       width="1.8829206"
       y="-0.52423413"
       height="2.0484683">
      <feGaussianBlur
         inkscape:collect="always"
         stdDeviation="1.5290162"
         id="feGaussianBlur6357" />
    </filter>
    <filter
       inkscape:collect="always"
       id="filter6361"
       x="-0.14922636"
       width="1.2984527"
       y="-0.6127059"
       height="2.2254118">
      <feGaussianBlur
         inkscape:collect="always"
         stdDeviation="1.9180272"
         id="feGaussianBlur6363" />
    </filter>
    <linearGradient
       inkscape:collect="always"
       xlink:href="#linearGradient6335"
       id="linearGradient6366"
       gradientUnits="userSpaceOnUse"
       spreadMethod="pad"
       x1="3.0606601"
       y1="9.6828346"
       x2="22.292892"
       y2="15.074524"
       gradientTransform="translate(-4.9038086e-7,-2.0000007)" />
    <linearGradient
       inkscape:collect="always"
       xlink:href="#linearGradient6341"
       id="linearGradient6368"
       gradientUnits="userSpaceOnUse"
       x1="2.0000001"
       y1="14.5"
       x2="23"
       y2="14.5"
       gradientTransform="translate(-4.9038086e-7,-2.0000007)" />
    <filter
       inkscape:collect="always"
       id="filter6376"
       x="-0.24"
       width="1.48"
       y="-0.24"
       height="1.48">
      <feGaussianBlur
         inkscape:collect="always"
         stdDeviation="2.1"
         id="feGaussianBlur6378" />
    </filter>
  </defs>
  <sodipodi:namedview
     id="base"
     pagecolor="#ffffff"
     bordercolor="#666666"
     borderopacity="1.0"
     gridtolerance="10000"
     guidetolerance="10"
     objecttolerance="10"
     inkscape:pageopacity="0.0"
     inkscape:pageshadow="2"
     inkscape:zoom="1"
     inkscape:cx="44.423905"
     inkscape:cy="7.0159087"
     inkscape:document-units="px"
     inkscape:current-layer="layer1"
     showgrid="false"
     inkscape:window-width="1264"
     inkscape:window-height="974"
     inkscape:window-x="0"
     inkscape:window-y="14"
     inkscape:snap-nodes="false"
     inkscape:snap-bbox="true">
    <inkscape:grid
       type="xygrid"
       id="grid2383"
       visible="true"
       enabled="true" />
  </sodipodi:namedview>
  <metadata
     id="metadata7">
    <rdf:RDF>
      <cc:Work
         rdf:about="">
        <dc:format>image/svg+xml</dc:format>
        <dc:type
           rdf:resource="http://purl.org/dc/dcmitype/StillImage" />
        <dc:creator>
          <cc:Agent>
            <dc:title>Jakub Szypulka</dc:title>
          </cc:Agent>
        </dc:creator>
        <dc:publisher>
          <cc:Agent>
            <dc:title>Jakub Szypulka</dc:title>
          </cc:Agent>
        </dc:publisher>
        <dc:rights>
          <cc:Agent>
            <dc:title>Jakub Szypulka</dc:title>
          </cc:Agent>
        </dc:rights>
      </cc:Work>
    </rdf:RDF>
  </metadata>
  <g
     inkscape:groupmode="layer"
     id="layer2"
     inkscape:label="original"
     style="display:inline" />
  <g
     inkscape:groupmode="layer"
     id="layer3"
     inkscape:label="glow"
     style="display:none">
    <path
       id="path6374"
       d="M 11.53125,2.4999993 L 9.9999995,8.1249993 L 4.0312495,6.4999993 L 3.4999995,8.4687493 L 9.4687495,10.093749 L 8.6562495,13.031249 L 3.0312495,11.499999 L 2.4999995,13.468749 L 8.1249995,14.999999 L 6.4999995,20.968749 L 8.4687495,21.499999 L 10.09375,15.531249 L 13.03125,16.343749 L 11.5,21.968749 L 13.46875,22.499999 L 15,16.874999 L 20.96875,18.499999 L 21.5,16.531249 L 15.53125,14.906249 L 16.34375,11.968749 L 21.96875,13.499999 L 22.5,11.531249 L 16.875,9.9999993 L 18.5,4.0312493 L 16.53125,3.4999993 L 14.90625,9.4687493 L 11.96875,8.6562493 L 13.5,3.0312493 L 11.53125,2.4999993 z M 11.4375,10.624999 L 14.375,11.437499 L 13.5625,14.374999 L 10.625,13.562499 L 11.4375,10.624999 z"
       style="opacity:0.5;fill:url(#linearGradient6366);fill-opacity:1;fill-rule:evenodd;stroke:url(#linearGradient6368);stroke-width:0.99999982px;stroke-linecap:butt;stroke-linejoin:miter;marker:none;marker-start:none;marker-mid:none;marker-end:none;stroke-miterlimit:4;stroke-dasharray:none;stroke-dashoffset:0;stroke-opacity:1;visibility:visible;display:inline;overflow:visible;filter:url(#filter6376);enable-background:accumulate" />
  </g>
  <g
     inkscape:label="Layer 1"
     inkscape:groupmode="layer"
     id="layer1"
     style="display:inline">
    <path
       sodipodi:type="arc"
       style="opacity:0.2;fill:#000000;fill-opacity:1;fill-rule:evenodd;stroke:none;stroke-width:1px;stroke-linecap:butt;stroke-linejoin:miter;marker:none;marker-start:none;marker-mid:none;marker-end:none;stroke-miterlimit:4;stroke-dasharray:none;stroke-dashoffset:0;stroke-opacity:1;visibility:visible;display:inline;overflow:visible;filter:url(#filter6361);enable-background:accumulate"
       id="path6359"
       sodipodi:cx="19.312855"
       sodipodi:cy="41.680233"
       sodipodi:rx="15.423767"
       sodipodi:ry="3.7565048"
       d="M 34.736622,41.680233 A 15.423767,3.7565048 0 1 1 3.8890877,41.680233 A 15.423767,3.7565048 0 1 1 34.736622,41.680233 z"
       transform="matrix(1.1346126,0,0,0.6655124,3.5873912,14.761288)" />
    <path
       style="opacity:1;fill:#729fcf;fill-opacity:1;fill-rule:evenodd;stroke:#204a87;stroke-width:0.99999994px;stroke-linecap:butt;stroke-linejoin:miter;marker:none;marker-start:none;marker-mid:none;marker-end:none;stroke-miterlimit:4;stroke-dasharray:none;stroke-dashoffset:0;stroke-opacity:1;visibility:visible;display:inline;overflow:visible;enable-background:accumulate"
       d="M 27.462011,4.4999994 C 34.43639,7.6022706 44.594494,8.1536353 43.404149,15.599172 C 41.010451,12.383239 36.094312,12.998021 32.375683,10.521222 C 32.613765,21.456561 36.345111,33.014049 35.479877,39.746948 C 8.2954774,52.298594 6.3966284,17.265527 29.396281,27.610175 L 27.462011,4.4999994 z"
       id="path5490"
       sodipodi:nodetypes="cccccc" />
    <path
       sodipodi:type="inkscape:offset"
       inkscape:radius="-0.91756213"
       inkscape:original="M 27.46875 6.5 L 29.40625 29.625 C 6.4065979 19.280352 8.2843504 54.301647 35.46875 41.75 C 36.333984 35.017101 32.613082 23.466589 32.375 12.53125 C 36.093629 15.008049 41.012553 14.377817 43.40625 17.59375 C 44.596595 10.148213 34.443129 9.6022713 27.46875 6.5 z "
       style="opacity:0.5;fill:none;fill-opacity:1;fill-rule:evenodd;stroke:#ffffff;stroke-width:0.99999994px;stroke-linecap:butt;stroke-linejoin:miter;marker:none;marker-start:none;marker-mid:none;marker-end:none;stroke-miterlimit:4;stroke-dasharray:none;stroke-dashoffset:0;stroke-opacity:1;visibility:visible;display:inline;overflow:visible;enable-background:accumulate"
       id="path5537"
       d="M 28.5,7.84375 L 30.3125,29.5625 C 30.335117,29.88252 30.188963,30.191117 29.927042,30.376378 C 29.665121,30.56164 29.325465,30.596664 29.03125,30.46875 C 23.453713,27.960118 19.610699,28.262947 17.3125,29.6875 C 15.014301,31.112053 14.087951,33.742854 14.53125,36.375 C 14.974549,39.007146 16.777044,41.595872 20.125,42.84375 C 23.377097,44.055899 28.201854,43.941436 34.5625,41.125 C 34.857874,38.010875 34.25077,33.740459 33.4375,28.875 C 32.586633,23.784613 31.589902,18.127138 31.46875,12.5625 C 31.46711,12.227633 31.648011,11.918461 31.940741,11.755833 C 32.233471,11.593206 32.591545,11.602947 32.875,11.78125 C 34.549074,12.89627 36.593245,13.341662 38.625,13.90625 C 39.979503,14.282642 41.287907,14.849972 42.46875,15.65625 C 42.347977,14.919546 42.123182,14.277906 41.6875,13.71875 C 40.937443,12.756123 39.684384,11.945672 38.125,11.25 C 35.403989,10.036104 31.781454,9.1107426 28.5,7.84375 z"
       transform="translate(-4.9038086e-7,-2.0000007)" />
    <path
       sodipodi:type="arc"
       style="opacity:0.4;fill:#ffffff;fill-opacity:1;fill-rule:evenodd;stroke:none;stroke-width:1px;stroke-linecap:butt;stroke-linejoin:miter;marker:none;marker-start:none;marker-mid:none;marker-end:none;stroke-miterlimit:4;stroke-dasharray:none;stroke-dashoffset:0;stroke-opacity:1;visibility:visible;display:inline;overflow:visible;filter:url(#filter6355);enable-background:accumulate"
       id="path6349"
       sodipodi:cx="12.09375"
       sodipodi:cy="37.9375"
       sodipodi:rx="4.15625"
       sodipodi:ry="3.5"
       d="M 16.25,37.9375 A 4.15625,3.5 0 1 1 7.9375,37.9375 A 4.15625,3.5 0 1 1 16.25,37.9375 z"
       transform="matrix(1.443609,0,0,1.5714286,2.541353,-29.116072)" />
    <path
       style="fill:url(#linearGradient6366);fill-opacity:1;fill-rule:evenodd;stroke:url(#linearGradient6368);stroke-width:0.99999982px;stroke-linecap:butt;stroke-linejoin:miter;marker:none;marker-start:none;marker-mid:none;marker-end:none;stroke-miterlimit:4;stroke-dasharray:none;stroke-dashoffset:0;stroke-opacity:1;visibility:visible;display:inline;overflow:visible;enable-background:accumulate"
       d="M 11.53125,2.4999993 L 9.9999995,8.1249993 L 4.0312495,6.4999993 L 3.4999995,8.4687493 L 9.4687495,10.093749 L 8.6562495,13.031249 L 3.0312495,11.499999 L 2.4999995,13.468749 L 8.1249995,14.999999 L 6.4999995,20.968749 L 8.4687495,21.499999 L 10.09375,15.531249 L 13.03125,16.343749 L 11.5,21.968749 L 13.46875,22.499999 L 15,16.874999 L 20.96875,18.499999 L 21.5,16.531249 L 15.53125,14.906249 L 16.34375,11.968749 L 21.96875,13.499999 L 22.5,11.531249 L 16.875,9.9999993 L 18.5,4.0312493 L 16.53125,3.4999993 L 14.90625,9.4687493 L 11.96875,8.6562493 L 13.5,3.0312493 L 11.53125,2.4999993 z M 11.4375,10.624999 L 14.375,11.437499 L 13.5625,14.374999 L 10.625,13.562499 L 11.4375,10.624999 z"
       id="rect5504" />
  </g>
</svg>
