<?xml version="1.0" encoding="UTF-8" standalone="no"?>
<!-- Created with Inkscape (http://www.inkscape.org/) -->

<svg
   xmlns:dc="http://purl.org/dc/elements/1.1/"
   xmlns:cc="http://creativecommons.org/ns#"
   xmlns:rdf="http://www.w3.org/1999/02/22-rdf-syntax-ns#"
   xmlns:svg="http://www.w3.org/2000/svg"
   xmlns="http://www.w3.org/2000/svg"
   xmlns:sodipodi="http://sodipodi.sourceforge.net/DTD/sodipodi-0.dtd"
   xmlns:inkscape="http://www.inkscape.org/namespaces/inkscape"
   id="svg2"
   version="1.1"
   inkscape:version="0.47pre4 r22446"
   width="116.22461"
   height="175.43025"
   sodipodi:docname="Database.png"
   inkscape:export-filename="/home/zeltak/ThemeDB/2)PNG Database/$Workshop/Gmpc/bar/dbtst.png"
   inkscape:export-xdpi="479.94"
   inkscape:export-ydpi="479.94">
  <metadata
     id="metadata8">
    <rdf:RDF>
      <cc:Work
         rdf:about="">
        <dc:format>image/svg+xml</dc:format>
        <dc:type
           rdf:resource="http://purl.org/dc/dcmitype/StillImage" />
        <dc:title></dc:title>
      </cc:Work>
    </rdf:RDF>
  </metadata>
  <defs
     id="defs6">
    <inkscape:perspective
       sodipodi:type="inkscape:persp3d"
       inkscape:vp_x="0 : 0.5 : 1"
       inkscape:vp_y="0 : 1000 : 0"
       inkscape:vp_z="1 : 0.5 : 1"
       inkscape:persp3d-origin="0.5 : 0.33333333 : 1"
       id="perspective10" />
    <inkscape:perspective
       id="perspective2854"
       inkscape:persp3d-origin="0.5 : 0.33333333 : 1"
       inkscape:vp_z="1 : 0.5 : 1"
       inkscape:vp_y="0 : 1000 : 0"
       inkscape:vp_x="0 : 0.5 : 1"
       sodipodi:type="inkscape:persp3d" />
    <inkscape:perspective
       id="perspective2886"
       inkscape:persp3d-origin="0.5 : 0.33333333 : 1"
       inkscape:vp_z="1 : 0.5 : 1"
       inkscape:vp_y="0 : 1000 : 0"
       inkscape:vp_x="0 : 0.5 : 1"
       sodipodi:type="inkscape:persp3d" />
    <inkscape:perspective
       id="perspective15777"
       inkscape:persp3d-origin="0.5 : 0.33333333 : 1"
       inkscape:vp_z="1 : 0.5 : 1"
       inkscape:vp_y="0 : 1000 : 0"
       inkscape:vp_x="0 : 0.5 : 1"
       sodipodi:type="inkscape:persp3d" />
  </defs>
  <sodipodi:namedview
     pagecolor="#ffffff"
     bordercolor="#666666"
     borderopacity="1"
     objecttolerance="10"
     gridtolerance="10"
     guidetolerance="10"
     inkscape:pageopacity="0"
     inkscape:pageshadow="2"
     inkscape:window-width="1680"
     inkscape:window-height="994"
     id="namedview4"
     showgrid="false"
     inkscape:zoom="1.84375"
     inkscape:cx="-34.863462"
     inkscape:cy="83.140121"
     inkscape:window-x="0"
     inkscape:window-y="0"
     inkscape:window-maximized="1"
     inkscape:current-layer="svg2" />
  <path
     style="fill:#666666"
     d="m 41.272131,175.09533 c -25.83129,-1.44646 -41.05149963,-6.6198 -41.27073963,-14.02793 -0.0595,-2.01038 1.80337963,-12.74064 2.88817963,-16.636 0.25714,-0.92339 1.38932,-0.52601 3.85112,1.3517 4.40059,3.35649 15.7022,6.86825 28.81017,8.9522 5.59186,0.88902 10.36676,1.81613 10.61087,2.06025 0.24412,0.24411 0.3384,3.35261 0.20952,6.90777 -0.22895,6.31524 -0.16953,6.482 2.58327,7.24994 4.4293,1.23563 26.33805,0.80802 31.31761,-0.61124 2.474995,-0.70542 5.962495,-1.96839 7.749995,-2.8066 3.203634,-1.50228 3.250004,-1.62209 3.250004,-8.39754 0,-6.85244 0.0115,-6.88081 3.75,-9.25635 2.0625,-1.31056 4.60724,-3.3412 5.65499,-4.51254 2.64745,-2.95976 3.59305,-2.66606 3.60688,1.12029 0.007,1.7875 0.65292,5.65845 1.43642,8.60212 1.67019,6.27495 0.94415,9.03388 -3.12885,11.88963 -8.69248,6.09465 -35.064789,9.58445 -61.319439,8.1143 z m 0.5,-24.52322 c -15.99196,-1.32319 -31.85184,-5.35819 -33.91464,-8.62839 -0.72969,-1.1568 -0.70926,-2.53783 0.068,-4.59702 1.01875,-2.69898 0.83011,-3.21573 -2.27116,-6.2216 -3.33857,-3.23587 -3.3822,-3.3917 -3.3822,-12.08198 0,-4.9298 0.4205,-8.80384 0.9556,-8.80384 0.52557,0 2.61244,1.12437 4.63748,2.4986 4.71723,3.2012 14.32381,6.04676 27.99188,8.29146 l 10.83193,1.77893 0.0416,6.96551 0.0416,6.9655 6,0.9137 c 7.64151,1.16368 26.18061,-0.5865 32.999995,-3.11535 l 5,-1.85416 0.291514,-7.10807 0.29151,-7.10808 5.45849,-3.62423 c 3.00217,-1.99333 5.45849,-4.06964 5.45849,-4.61402 0,-0.54438 0.45,-0.98979 1,-0.98979 0.59577,0 1,3.801 1,9.40301 l 0,9.403 -3.63123,2.91308 c -3.58463,2.87569 -3.61431,2.95989 -2.31222,6.56076 1.18112,3.26631 1.12397,3.8632 -0.54658,5.70914 -5.12949,5.66802 -32.651189,9.27658 -56.009969,7.34384 z m -2.27762,-33.39997 c -11.96958,-1.05048 -20.80524,-2.95309 -27.47238,-5.91572 -4.00539,-1.77985 -4.75,-2.54231 -4.75,-4.86393 0,-1.51426 0.53902,-3.29222 1.19781,-3.95102 0.93042,-0.93041 0.37232,-1.95393 -2.5,-4.584866 l -3.69781,-3.38706 0,-9.11513 c 0,-5.01332 0.1951,-9.11513 0.43356,-9.11513 0.23845,0 2.60095,1.3304 5.25,2.95644 5.18309,3.1815 15.86921,6.46031 26.31644,8.07466 12.9217,1.99671 11.87354,1.24716 12.2059,8.72859 l 0.2941,6.620136 3.5,0.92477 c 6.02758,1.5926 26.62068,0.18058 34.249995,-2.34844 l 6.750004,-2.237536 0,-6.81263 c 0,-6.19451 0.23433,-6.97563 2.58269,-8.6093 1.42048,-0.98818 4.06738,-3.03419 5.88201,-4.54669 1.81463,-1.5125 3.57742,-2.75 3.91732,-2.75 0.33989,0 0.61798,4.01724 0.61798,8.9272 l 0,8.92719 -3.57732,2.94873 c -3.5699,2.94262 -3.57469,2.95749 -2.31084,7.175816 1.20485,4.02146 1.14793,4.31652 -1.17011,6.06502 -7.612804,5.74234 -34.380779,8.93715 -57.719349,6.8889 z M 85.697696,77.002714 c 5.156,-4.47362 4.4213,-6.05636 -3.76599,-8.11294 -23.281405,-5.84811 -64.361565,-3.2536 -71.606045,4.52243 -1.27753,1.37127 -2.06023,1.62525 -2.55275,0.82833 -1.2657,-2.04794 3.73001,-5.99217 10.06979,-7.95033 9.13955,-2.82292 19.87967,-4.05092 35.42943,-4.05092 22.61647,0 39.792669,3.37838 43.932249,8.641 1.12228,1.42674 1.76356,3.04218 1.42508,3.58986 -0.89313,1.44511 -8.211844,4.42755 -12.857334,5.23948 l -4,0.69911 3.92557,-3.40602 z"
     id="path2842" />
  <path
     style="fill:#606060;fill-opacity:1;stroke:#969696;stroke-width:1.32037532;stroke-miterlimit:4;stroke-opacity:0.93333333;stroke-dasharray:none"
     d="m 48.661281,88.227497 c -4.57525,-0.67272 -9.82183,-2.951552 -12.52477,-5.44031 -4.42051,-4.070328 -3.64001,-9.974135 1.91269,-14.467519 4.23924,-3.430436 9.8098,-4.899051 16.73525,-4.411819 1.49499,0.104882 4.86408,0.486773 7.48683,0.848316 5.58132,0.769094 7.18053,0.833845 7.52927,0.30531 0.69853,-1.059434 0.66375,-20.059223 -0.098,-53.448308 -0.13596,-5.9815811 -0.22409,-10.9025141 -0.19414,-10.9356401 0.0581,-0.06506 -0.003,-0.107715 4.56137,3.037397 11.419409,7.8646591 16.321445,9.9203311 25.865379,10.8464091 3.05692,0.296089 7.24079,0.542644 11.57242,0.680205 1.67495,0.05186 3.27282,0.135954 3.55106,0.183188 l 0.50578,0.087 -0.70861,0.488498 c -2.87742,1.984075 -4.74103,2.804556 -8.42361,3.709029 -3.4536,0.848188 -7.50474,1.370611 -14.51626,1.871961 -5.005322,0.358306 -6.871642,0.632343 -7.714879,1.134439 -1.445051,0.860167 -0.105415,2.30441 2.969533,3.201397 3.373864,0.984142 7.671386,1.388585 17.014106,1.601385 7.07765,0.161296 8.23668,0.236758 8.23668,0.534583 0,0.592764 -5.11386,3.549278 -7.58101,4.382953 -3.56708,1.205173 -7.16158,1.797426 -11.80779,1.945476 -3.481532,0.1106 -6.311659,-0.07837 -11.36941,-0.760225 -1.898229,-0.255776 -3.497079,-0.430318 -3.552909,-0.388844 -0.0576,0.04035 -0.15957,9.06108 -0.23215,20.042228 -0.14171,21.693969 -0.11521,21.20005 -1.30823,24.579621 -0.73482,2.082057 -1.33266,2.886471 -3.52704,4.74622 -4.20789,3.565985 -7.63522,5.07699 -12.79891,5.642218 -2.73899,0.300124 -9.49987,0.291489 -11.58221,-0.01725 z"
     id="path2818-0-9" />
</svg>
