<?xml version="1.0" encoding="UTF-8" standalone="no"?>
<!-- Created with Inkscape (http://www.inkscape.org/) -->

<svg
   xmlns:dc="http://purl.org/dc/elements/1.1/"
   xmlns:cc="http://creativecommons.org/ns#"
   xmlns:rdf="http://www.w3.org/1999/02/22-rdf-syntax-ns#"
   xmlns:svg="http://www.w3.org/2000/svg"
   xmlns="http://www.w3.org/2000/svg"
   xmlns:sodipodi="http://sodipodi.sourceforge.net/DTD/sodipodi-0.dtd"
   xmlns:inkscape="http://www.inkscape.org/namespaces/inkscape"
   width="256"
   height="256"
   id="svg2846"
   version="1.1"
   inkscape:version="0.47pre4 r22446"
   sodipodi:docname="gmpc.svg"
   inkscape:export-filename="/home/zeltak/ThemeDB/2)PNG Database/$Workshop/humanity tray/gmpc2/humanity small/128x128/gmpc-tray.png"
   inkscape:export-xdpi="480"
   inkscape:export-ydpi="480">
  <defs
     id="defs2848">
    <inkscape:perspective
       sodipodi:type="inkscape:persp3d"
       inkscape:vp_x="0 : 526.18109 : 1"
       inkscape:vp_y="0 : 1000 : 0"
       inkscape:vp_z="744.09448 : 526.18109 : 1"
       inkscape:persp3d-origin="372.04724 : 350.78739 : 1"
       id="perspective2854" />
    <inkscape:perspective
       id="perspective2839"
       inkscape:persp3d-origin="0.5 : 0.33333333 : 1"
       inkscape:vp_z="1 : 0.5 : 1"
       inkscape:vp_y="0 : 1000 : 0"
       inkscape:vp_x="0 : 0.5 : 1"
       sodipodi:type="inkscape:persp3d" />
    <inkscape:perspective
       id="perspective2865"
       inkscape:persp3d-origin="0.5 : 0.33333333 : 1"
       inkscape:vp_z="1 : 0.5 : 1"
       inkscape:vp_y="0 : 1000 : 0"
       inkscape:vp_x="0 : 0.5 : 1"
       sodipodi:type="inkscape:persp3d" />
    <inkscape:perspective
       id="perspective2852"
       inkscape:persp3d-origin="0.5 : 0.33333333 : 1"
       inkscape:vp_z="1 : 0.5 : 1"
       inkscape:vp_y="0 : 1000 : 0"
       inkscape:vp_x="0 : 0.5 : 1"
       sodipodi:type="inkscape:persp3d" />
    <inkscape:perspective
       id="perspective2828"
       inkscape:persp3d-origin="0.5 : 0.33333333 : 1"
       inkscape:vp_z="1 : 0.5 : 1"
       inkscape:vp_y="0 : 1000 : 0"
       inkscape:vp_x="0 : 0.5 : 1"
       sodipodi:type="inkscape:persp3d" />
    <inkscape:perspective
       id="perspective2878"
       inkscape:persp3d-origin="0.5 : 0.33333333 : 1"
       inkscape:vp_z="1 : 0.5 : 1"
       inkscape:vp_y="0 : 1000 : 0"
       inkscape:vp_x="0 : 0.5 : 1"
       sodipodi:type="inkscape:persp3d" />
    <inkscape:perspective
       id="perspective2862"
       inkscape:persp3d-origin="0.5 : 0.33333333 : 1"
       inkscape:vp_z="1 : 0.5 : 1"
       inkscape:vp_y="0 : 1000 : 0"
       inkscape:vp_x="0 : 0.5 : 1"
       sodipodi:type="inkscape:persp3d" />
    <inkscape:perspective
       id="perspective2874"
       inkscape:persp3d-origin="0.5 : 0.33333333 : 1"
       inkscape:vp_z="1 : 0.5 : 1"
       inkscape:vp_y="0 : 1000 : 0"
       inkscape:vp_x="0 : 0.5 : 1"
       sodipodi:type="inkscape:persp3d" />
    <inkscape:perspective
       id="perspective2833"
       inkscape:persp3d-origin="0.5 : 0.33333333 : 1"
       inkscape:vp_z="1 : 0.5 : 1"
       inkscape:vp_y="0 : 1000 : 0"
       inkscape:vp_x="0 : 0.5 : 1"
       sodipodi:type="inkscape:persp3d" />
    <inkscape:perspective
       id="perspective2833-9"
       inkscape:persp3d-origin="0.5 : 0.33333333 : 1"
       inkscape:vp_z="1 : 0.5 : 1"
       inkscape:vp_y="0 : 1000 : 0"
       inkscape:vp_x="0 : 0.5 : 1"
       sodipodi:type="inkscape:persp3d" />
    <inkscape:perspective
       id="perspective2864"
       inkscape:persp3d-origin="0.5 : 0.33333333 : 1"
       inkscape:vp_z="1 : 0.5 : 1"
       inkscape:vp_y="0 : 1000 : 0"
       inkscape:vp_x="0 : 0.5 : 1"
       sodipodi:type="inkscape:persp3d" />
  </defs>
  <sodipodi:namedview
     id="base"
     pagecolor="#ffffff"
     bordercolor="#666666"
     borderopacity="1.0"
     inkscape:pageopacity="0.0"
     inkscape:pageshadow="2"
     inkscape:zoom="2.8284271"
     inkscape:cx="118.81923"
     inkscape:cy="150.50344"
     inkscape:document-units="px"
     inkscape:current-layer="g3636"
     showgrid="false"
     inkscape:window-width="1680"
     inkscape:window-height="994"
     inkscape:window-x="0"
     inkscape:window-y="0"
     inkscape:window-maximized="1" />
  <metadata
     id="metadata2851">
    <rdf:RDF>
      <cc:Work
         rdf:about="">
        <dc:format>image/svg+xml</dc:format>
        <dc:type
           rdf:resource="http://purl.org/dc/dcmitype/StillImage" />
        <dc:title />
      </cc:Work>
    </rdf:RDF>
  </metadata>
  <g
     inkscape:label="Layer 1"
     inkscape:groupmode="layer"
     id="layer1"
     transform="translate(-298.07268,-375.53146)">
    <g
       id="g11223"
       transform="matrix(0.15557991,0,0,0.15557991,326.38597,601.6653)"
       style="fill:#606060;fill-opacity:1" />
    <g
       id="g3636"
       transform="matrix(0.75630028,0,0,0.87862403,75.351585,75.337105)">
      <path
         id="path2818"
         d="m 407.89727,606.06068 c -15.41181,-1.82759 -33.08456,-8.01972 -42.18959,-14.78204 -14.89091,-11.05971 -12.26167,-27.10118 6.44271,-39.31037 14.27993,-9.32111 33.04448,-13.31105 56.37296,-11.98745 5.03613,0.28722 16.38495,1.32301 25.21955,2.3049 18.80071,2.08964 24.18778,2.26564 25.36269,0.82858 2.353,-2.87876 2.23562,-54.50399 -0.32978,-145.22683 -0.4598,-16.25269 -0.75411,-29.62367 -0.65601,-29.71374 0.19739,-0.17729 -0.0117,-0.29431 15.36513,8.25306 38.46653,21.36943 54.97914,26.95496 87.12804,29.47119 10.29731,0.80612 24.39084,1.47431 38.98176,1.84817 5.64238,0.14539 11.02496,0.36878 11.96181,0.49762 l 1.70313,0.23522 -2.38704,1.32773 c -9.69261,5.39109 -15.97007,7.62045 -28.37513,10.07805 -11.63355,2.30455 -25.2797,3.72412 -48.89812,5.08638 -16.86083,0.9716 -23.14751,1.71826 -25.98809,3.08217 -4.86746,2.33751 -0.3546,6.26163 10.00336,8.6989 11.36478,2.67404 25.84104,3.77318 57.31217,4.35106 23.84122,0.43851 27.74547,0.64182 27.74547,1.45314 0,1.61047 -17.22629,9.64402 -25.53703,11.90896 -12.01546,3.27497 -24.12349,4.88401 -39.77465,5.28624 -11.72742,0.3026 -21.26105,-0.21276 -38.29799,-2.06553 -6.39436,-0.69502 -11.77989,-1.17136 -11.96795,-1.05671 -0.18912,0.11939 -0.53899,24.62017 -0.78012,54.45777 -0.47753,58.94593 -0.39124,57.60354 -4.40671,66.78635 -2.47511,5.65704 -4.48887,7.84302 -11.88096,12.89629 -14.17415,9.6893 -25.7193,13.79473 -43.11297,15.33061 -9.22654,0.81439 -32.00066,0.79076 -39.01498,-0.0355 z"
         style="fill:#606060;fill-opacity:1;stroke:#969696;stroke-width:3.85714126;stroke-miterlimit:4;stroke-opacity:0.93333333;stroke-dasharray:none" />
      <g
         id="g2842">
        <path
           style="fill:#606060;fill-opacity:1;stroke:#969696;stroke-width:4.2249403;stroke-miterlimit:4;stroke-opacity:0.93333333;stroke-dasharray:none"
           d="m 391.34697,478.09816 c -1.00582,-0.23553 -1.83095,-0.63445 -1.83095,-0.88603 0,-0.25155 2.11853,-7.4776 4.70774,-16.05779 4.88515,-16.1867 5.33593,-18.49365 3.7826,-19.3532 -1.56914,-0.86899 -25.50848,-6.21964 -25.97122,-5.80519 -0.23791,0.21348 -2.91709,8.33943 -5.95025,18.05543 -5.57825,17.86833 -6.56681,19.53894 -10.35295,17.49418 -1.1468,-0.61939 -0.46807,-3.89845 3.55477,-17.16242 2.73497,-9.01821 5.00607,-17.33182 5.04678,-18.47471 0.0774,-2.23889 -3.13351,-3.32926 -27.6674,-9.38846 -9.18591,-2.26863 -10.43261,-2.81951 -10.09878,-4.46202 0.21024,-1.03065 0.72365,-2.20012 1.14092,-2.59871 0.41715,-0.39992 8.78558,1.18349 18.59458,3.51347 9.80888,2.33132 18.5679,4.23866 19.46461,4.23866 1.63875,0 2.50823,-2.11873 6.6363,-16.16657 1.67758,-5.70949 1.70147,-6.47001 0.24122,-7.77718 -0.88964,-0.79581 -9.98006,-3.50688 -20.20022,-6.0223 -10.22041,-2.5153 -18.78478,-4.75461 -19.0321,-4.97591 -0.24675,-0.2225 0.0111,-1.49129 0.5787,-2.82151 l 1.02573,-2.4188 9.20277,2.23417 c 5.06149,1.22909 14.44349,3.48061 20.84862,5.00418 l 11.64578,2.77021 5.09329,-16.85614 c 2.80125,-9.27098 5.36769,-17.25544 5.70318,-17.74313 0.38174,-0.55627 1.60742,-0.54725 3.28389,0.0302 l 2.67432,0.91008 -5.08783,17.57689 c -2.79836,9.66726 -4.98229,17.64992 -4.8536,17.73903 1.55476,1.07493 27.53296,6.52302 27.81921,5.83394 0.21135,-0.50814 2.82991,-8.78647 5.81937,-18.39721 5.19074,-16.68635 5.54783,-17.46252 7.92128,-17.21956 1.36731,0.1393 2.70377,0.45004 2.97065,0.69055 0.26667,0.23957 -1.7111,7.92464 -4.39559,17.07936 -5.161,17.60161 -5.50227,19.45442 -3.75885,20.41923 0.60194,0.33275 8.95799,2.61343 18.56981,5.06802 17.63588,4.50314 19.48851,5.44589 17.28466,8.79498 -0.7004,1.06553 -4.25009,0.4781 -19.68645,-3.256 -16.4765,-3.98575 -18.97744,-4.37795 -19.99841,-3.13703 -1.22825,1.4916 -6.32405,17.08966 -6.87874,21.05177 -0.31424,2.24339 0.29435,2.47012 20.09024,7.50075 18.34284,4.66071 20.37561,5.37662 20.03747,7.05605 -0.20692,1.02804 -0.73805,2.21243 -1.17931,2.63219 -0.44262,0.41994 -7.81064,-0.92911 -16.37582,-2.99783 -25.73366,-6.21392 -24.41137,-6.08162 -26.0147,-2.60311 -0.75023,1.63021 -3.3856,9.39386 -5.85345,17.25254 -2.4684,7.85897 -4.99058,14.23996 -5.60448,14.18012 -0.6141,-0.0702 -1.94071,-0.29967 -2.94762,-0.5372 z m 13.74394,-52.9952 c 3.45377,-11.172 3.81813,-13.39876 2.32754,-14.22354 -0.51009,-0.28263 -6.27799,-1.7552 -12.81582,-3.27163 -9.10279,-2.1115 -12.16076,-2.49778 -13.05692,-1.64935 -1.18086,1.11654 -8.22293,23.04369 -7.55726,23.52558 0.87196,0.63144 23.60111,6.04405 25.60898,6.09888 1.96914,0.0501 2.62177,-1.19161 5.49348,-10.47994 z"
           id="path5350" />
        <rect
           transform="matrix(0.98133636,0.1922991,-0.26261906,0.9648996,0,0)"
           y="279.83765"
           x="459.84534"
           height="118.14461"
           width="18.254049"
           id="rect2823"
           style="fill:#606060;fill-opacity:1;stroke:#969696;stroke-width:1.14196205;stroke-miterlimit:4;stroke-opacity:0.93333333;stroke-dasharray:none" />
        <rect
           transform="matrix(0.98133636,0.1922991,-0.26261906,0.9648996,0,0)"
           y="278.62842"
           x="499.89102"
           height="118.14461"
           width="18.254049"
           id="rect2823-5"
           style="fill:#606060;fill-opacity:1;stroke:#969696;stroke-width:1.14196205;stroke-miterlimit:4;stroke-opacity:0.93333333;stroke-dasharray:none" />
        <rect
           transform="matrix(-0.25053681,0.96810707,-0.98106022,-0.19370298,0,0)"
           y="-550.2644"
           x="312.52237"
           height="135.13805"
           width="15.944101"
           id="rect2823-4"
           style="fill:#606060;fill-opacity:1;stroke:#969696;stroke-width:1.14144218;stroke-miterlimit:4;stroke-opacity:0.93333333;stroke-dasharray:none" />
        <rect
           transform="matrix(-0.25053681,0.96810707,-0.98106022,-0.19370297,0,0)"
           y="-552.56805"
           x="343.12311"
           height="135.13805"
           width="15.944101"
           id="rect2823-4-9"
           style="fill:#606060;fill-opacity:1;stroke:#969696;stroke-width:1.14144206;stroke-miterlimit:4;stroke-opacity:0.93333333;stroke-dasharray:none" />
      </g>
    </g>
  </g>
</svg>
