<?xml version="1.0" encoding="UTF-8" standalone="no"?>
<!-- Created with Inkscape (http://www.inkscape.org/) -->

<svg
   xmlns:dc="http://purl.org/dc/elements/1.1/"
   xmlns:cc="http://creativecommons.org/ns#"
   xmlns:rdf="http://www.w3.org/1999/02/22-rdf-syntax-ns#"
   xmlns:svg="http://www.w3.org/2000/svg"
   xmlns="http://www.w3.org/2000/svg"
   xmlns:sodipodi="http://sodipodi.sourceforge.net/DTD/sodipodi-0.dtd"
   xmlns:inkscape="http://www.inkscape.org/namespaces/inkscape"
   width="256"
   height="223.82503"
   id="svg2846"
   version="1.1"
   inkscape:version="0.47pre4 r22446"
   sodipodi:docname="gmpc-tray-play.svg">
  <defs
     id="defs2848">
    <inkscape:perspective
       sodipodi:type="inkscape:persp3d"
       inkscape:vp_x="0 : 526.18109 : 1"
       inkscape:vp_y="0 : 1000 : 0"
       inkscape:vp_z="744.09448 : 526.18109 : 1"
       inkscape:persp3d-origin="372.04724 : 350.78739 : 1"
       id="perspective2854" />
    <inkscape:perspective
       id="perspective2839"
       inkscape:persp3d-origin="0.5 : 0.33333333 : 1"
       inkscape:vp_z="1 : 0.5 : 1"
       inkscape:vp_y="0 : 1000 : 0"
       inkscape:vp_x="0 : 0.5 : 1"
       sodipodi:type="inkscape:persp3d" />
    <inkscape:perspective
       id="perspective2865"
       inkscape:persp3d-origin="0.5 : 0.33333333 : 1"
       inkscape:vp_z="1 : 0.5 : 1"
       inkscape:vp_y="0 : 1000 : 0"
       inkscape:vp_x="0 : 0.5 : 1"
       sodipodi:type="inkscape:persp3d" />
    <inkscape:perspective
       id="perspective2852"
       inkscape:persp3d-origin="0.5 : 0.33333333 : 1"
       inkscape:vp_z="1 : 0.5 : 1"
       inkscape:vp_y="0 : 1000 : 0"
       inkscape:vp_x="0 : 0.5 : 1"
       sodipodi:type="inkscape:persp3d" />
    <inkscape:perspective
       id="perspective2828"
       inkscape:persp3d-origin="0.5 : 0.33333333 : 1"
       inkscape:vp_z="1 : 0.5 : 1"
       inkscape:vp_y="0 : 1000 : 0"
       inkscape:vp_x="0 : 0.5 : 1"
       sodipodi:type="inkscape:persp3d" />
    <inkscape:perspective
       id="perspective2878"
       inkscape:persp3d-origin="0.5 : 0.33333333 : 1"
       inkscape:vp_z="1 : 0.5 : 1"
       inkscape:vp_y="0 : 1000 : 0"
       inkscape:vp_x="0 : 0.5 : 1"
       sodipodi:type="inkscape:persp3d" />
    <inkscape:perspective
       id="perspective3655"
       inkscape:persp3d-origin="0.5 : 0.33333333 : 1"
       inkscape:vp_z="1 : 0.5 : 1"
       inkscape:vp_y="0 : 1000 : 0"
       inkscape:vp_x="0 : 0.5 : 1"
       sodipodi:type="inkscape:persp3d" />
    <filter
       inkscape:collect="always"
       id="filter3680"
       color-interpolation-filters="sRGB">
      <feGaussianBlur
         inkscape:collect="always"
         stdDeviation="0.2718443"
         id="feGaussianBlur3682" />
    </filter>
    <inkscape:perspective
       id="perspective2838"
       inkscape:persp3d-origin="0.5 : 0.33333333 : 1"
       inkscape:vp_z="1 : 0.5 : 1"
       inkscape:vp_y="0 : 1000 : 0"
       inkscape:vp_x="0 : 0.5 : 1"
       sodipodi:type="inkscape:persp3d" />
  </defs>
  <sodipodi:namedview
     id="base"
     pagecolor="#ffffff"
     bordercolor="#666666"
     borderopacity="1.0"
     inkscape:pageopacity="0.0"
     inkscape:pageshadow="2"
     inkscape:zoom="1"
     inkscape:cx="-7.6661884"
     inkscape:cy="15.400269"
     inkscape:document-units="px"
     inkscape:current-layer="layer1"
     showgrid="false"
     inkscape:window-width="1680"
     inkscape:window-height="996"
     inkscape:window-x="0"
     inkscape:window-y="0"
     inkscape:window-maximized="1" />
  <metadata
     id="metadata2851">
    <rdf:RDF>
      <cc:Work
         rdf:about="">
        <dc:format>image/svg+xml</dc:format>
        <dc:type
           rdf:resource="http://purl.org/dc/dcmitype/StillImage" />
        <dc:title></dc:title>
      </cc:Work>
    </rdf:RDF>
  </metadata>
  <g
     inkscape:label="Layer 1"
     inkscape:groupmode="layer"
     id="layer1"
     transform="translate(-298.54033,-407.40983)">
    <g
       id="g11223"
       transform="matrix(0.15557991,0,0,0.15557991,326.38597,601.6653)"
       style="fill:#606060;fill-opacity:1" />
    <path
       style="fill:#606060;fill-opacity:1;stroke:#969696;stroke-width:3.31601858;stroke-miterlimit:4;stroke-opacity:0.93333333;stroke-dasharray:none"
       d="m 384.86085,628.98643 c -11.49027,-1.68939 -24.66665,-7.41255 -31.45486,-13.66288 -11.1018,-10.22231 -9.14155,-25.04924 4.80347,-36.334 10.64654,-8.61534 24.63658,-12.30354 42.0294,-11.07992 3.75451,0.26411 12.21563,1.22226 18.80247,2.13048 14.01702,1.93153 18.03335,2.09414 18.90918,0.76633 1.75435,-2.66065 1.66693,-50.37715 -0.24581,-134.2312 -0.34219,-15.02222 -0.56293,-27.3807 -0.48775,-27.46399 0.14652,-0.1629 -0.009,-0.27086 11.45548,7.62818 28.67892,19.75146 40.99008,24.9141 64.95884,27.23987 7.67725,0.74416 18.18469,1.36262 29.06325,1.70828 4.20651,0.13303 8.21936,0.34124 8.91811,0.4598 l 1.2697,0.21785 -1.77962,1.22737 c -7.22631,4.98267 -11.90669,7.04336 -21.15524,9.31478 -8.67346,2.13009 -18.84758,3.4422 -36.45632,4.70138 -12.57064,0.89935 -17.25767,1.58799 -19.37543,2.849 -3.62911,2.16018 -0.26508,5.78726 7.45785,8.03997 8.47316,2.47162 19.26593,3.48751 42.7294,4.02182 17.77512,0.40485 20.6859,0.59475 20.6859,1.34295 0,1.4888 -12.84295,8.91387 -19.03911,11.00744 -8.95841,3.02684 -17.98574,4.51419 -29.65433,4.88598 -8.74355,0.27761 -15.8513,-0.19568 -28.55343,-1.90926 -4.76722,-0.64294 -8.78258,-1.08134 -8.92283,-0.97627 -0.13977,0.10217 -0.401,22.75614 -0.58318,50.33444 -0.35569,54.48283 -0.28918,53.24235 -3.28547,61.72987 -1.84545,5.22885 -3.34697,7.24906 -8.85796,11.9198 -10.56769,8.95571 -19.17523,12.75032 -32.1434,14.16991 -6.87872,0.75379 -23.8582,0.73162 -29.08773,-0.0386 z"
       id="path2818" />
    <g
       id="g2820"
       transform="matrix(0.45286446,-0.31055743,0.31055743,0.45286446,284.72376,473.71441)"
       style="fill:#666666">
      <path
         style="fill:#666666"
         d="M 106.23593,241.75 C 104.07052,239.06727 95,219.9255 95,218.03849 95,213.40598 109.83798,209 125.43883,209 c 16.16645,0 30.61895,4.48328 31.37492,9.73274 0.17256,1.19827 -2.22844,7.14861 -5.33555,13.22297 -6.14146,12.00647 -6.45316,12.22988 -13.10608,9.39341 -5.14037,-2.19159 -17.26544,-2.20613 -24.30362,-0.0291 -6.50059,2.01071 -6.55432,2.01366 -7.83257,0.43003 z m -23.648527,-46 C 78.473187,189.40396 71.8599,174.01678 72.448961,172.16081 c 0.740914,-2.33441 11.187894,-6.98722 22.618733,-10.07377 23.309606,-6.29407 49.944496,-4.89541 72.496076,3.80692 9.33093,3.60067 12.45091,5.59216 12.39659,7.91274 -0.0218,0.93132 -2.6093,6.6433 -5.75,12.6933 -6.63074,12.77294 -5.85023,12.46219 -19.21036,7.64827 -19.95937,-7.19177 -41.29663,-6.71638 -61.760521,1.37602 -7.694718,3.04286 -8.810357,3.0665 -10.652076,0.22571 z M 55.451301,141.9029 C 48.009774,127.06492 48.105123,126.52767 59,121.90785 c 12.553712,-5.32324 22.517782,-8.55243 34.137815,-11.06353 13.958685,-3.01647 48.312555,-3.3139 62.362185,-0.53991 17.54505,3.46412 45.576,13.68766 46.77958,17.0616 0.68901,1.93146 -1.12513,6.77117 -6.04773,16.13399 -5.43831,10.34369 -6.52076,10.90268 -13.89921,7.17772 -7.33915,-3.70512 -23.21792,-8.49118 -34.0958,-10.2769 -7.37541,-1.21075 -13.85977,-1.47306 -26.73684,-1.08158 -19.48225,0.59229 -30.110003,2.75261 -47.370141,9.62902 C 68.536329,151.17672 63.297607,153 62.488255,153 61.615608,153 58.75166,148.48363 55.451301,141.9029 z M 37.608608,105.75 C 33.672606,99.589294 26.749636,84.09482 27.296398,82.669982 28.897805,78.496781 58.408335,67.21161 79.623663,62.659425 119.43249,54.117621 157.49976,56.229585 195.5,69.088218 c 6.6,2.233327 15.825,5.939612 20.5,8.236189 8.32726,4.090736 8.49809,4.247247 8.40581,7.701493 C 224.27716,89.841754 214.50233,108 212.03854,108 c -0.98387,0 -5.14058,-1.52743 -9.23713,-3.39429 C 184.19893,96.128287 163.53305,90.894041 140.675,88.870356 111.34226,86.273448 77.967597,91.940767 50.867923,104.12041 40.84165,108.62661 39.548013,108.7856 37.608608,105.75 z m -22.372096,-44 C 12.956433,58.92358 5.0967106,42.067779 4.8095784,39.38861 4.5216244,36.701773 5.0229487,36.241041 11.986616,32.792696 35.109568,21.34242 63.889453,13.007227 92.46321,9.4851682 107.76535,7.5989957 144.49193,7.2705357 157.5,8.903519 c 24.72748,3.104193 55.20699,11.519392 76.5,21.121161 11.74537,5.296401 14,6.736524 14,8.942365 0,0.955363 -2.46205,6.753609 -5.47123,12.88499 C 237.84311,61.399359 236.71543,63 234.67485,63 233.36436,63 228.06391,61.029536 222.89607,58.62119 204.83804,50.205688 179.92378,43.035129 157.5,39.799585 143.56828,37.789368 105.10722,38.113596 91.5,40.355967 68.714021,44.110932 49.202483,49.798903 30.567449,58.118923 19.047706,63.262165 16.872066,63.777457 15.236512,61.75 z"
         id="path2828" />
      <path
         style="fill:#666666"
         d="m 138.5,239.89706 c -6.19069,-2.24583 -17.40647,-2.43573 -24.09107,-0.40788 -2.69991,0.81904 -5.46733,1.49404 -6.14981,1.5 C 106.78745,241.00201 97,221.92513 97,219.04385 c 0,-6.4958 27.41024,-10.54346 44.52314,-6.57472 6.06507,1.40659 14.47686,4.93231 14.47686,6.06785 0,1.03244 -10.97388,22.32662 -11.71921,22.74045 -0.42944,0.23843 -3.03079,-0.38274 -5.78079,-1.38037 z m -24.52737,-24.54979 c 6.35381,-2.30807 6.40771,-2.35677 2.02737,-1.83147 -2.475,0.29681 -7.33182,1.4703 -10.79293,2.60774 -5.12296,1.6836 -6.080322,2.32426 -5.14941,3.44594 0.96641,1.16445 1.62705,1.12781 4.26555,-0.23662 1.71712,-0.88796 6.05936,-2.68147 9.64942,-3.98559 z m 46.08686,-21.06423 c -6.44869,-2.85783 -18.97049,-5.892 -28.123,-6.81453 -9.54497,-0.96208 -23.86852,1.07925 -35.591971,5.07241 C 90.759004,194.44341 85.731216,196 85.171656,196 c -0.55956,0 -3.307937,-4.79507 -6.107504,-10.65571 -6.286189,-13.15957 -6.10242,-13.69393 6.246092,-18.16214 18.236416,-6.59871 37.504126,-8.56871 56.452046,-5.77188 18.17313,2.68248 36.23771,9.03562 36.23771,12.74446 0,2.59081 -9.58243,21.47709 -11.1948,22.06414 -0.71786,0.26136 -3.75343,-0.60976 -6.74571,-1.93583 z M 84.178937,173.40933 c 2.811847,-1.42488 9.659387,-4.14057 15.216756,-6.03488 9.581097,-3.26586 9.819507,-3.41322 4.604307,-2.84582 -5.874747,0.63916 -22.81863,5.88705 -25.619065,7.93477 -0.927567,0.67826 -1.366179,1.75146 -0.974693,2.3849 0.944907,1.52889 0.894957,1.5395 6.772695,-1.43897 z M 113.25,163.33772 c -0.6875,-0.27741 -1.8125,-0.27741 -2.5,0 -0.6875,0.27741 -0.125,0.50439 1.25,0.50439 1.375,0 1.9375,-0.22698 1.25,-0.50439 z m 67.3527,-14.91408 c -21.55341,-9.60075 -47.56529,-13.32204 -72.1027,-10.3151 -11.533062,1.41332 -20.777493,3.79579 -32.572448,8.39454 -14.620483,5.70039 -14.32743,5.71682 -16.819188,-0.943 -2.620117,-7.00289 -2.617284,-7.32042 0.04431,-4.96507 l 2.152671,1.90499 -0.628598,-3 c -0.345729,-1.65 -0.909024,-3.98232 -1.251766,-5.18294 -0.532156,-1.86413 0.15805,-2.57658 4.725926,-4.87825 2.942002,-1.48242 6.569191,-3.55584 8.06042,-4.60761 3.474012,-2.45024 11.46132,-5.26527 25.288675,-8.91269 8.683488,-2.29056 9.841738,-2.77965 5.499998,-2.32241 -5.911036,0.62249 -21.292555,3.76405 -24.386448,4.98074 -1.355589,0.53309 -1.759363,0.3606 -1.43484,-0.61297 0.508169,-1.52451 2.327975,-2.11843 15.82129,-5.16356 13.159868,-2.96987 47.496728,-3.21691 62.383718,-0.44882 C 173.28209,115.67952 201,125.58335 201,128.65054 c 0,1.88085 -10.82852,23.35689 -11.75835,23.32017 -0.40791,-0.0161 -4.29544,-1.61229 -8.63895,-3.54707 z m 20.11192,-46.03178 C 179.21587,92.710692 158.3095,88.067959 132.59522,87.264406 100.01081,86.246167 75.537543,90.66149 49.685383,102.22251 c -4.848039,2.16803 -9.460539,3.69401 -10.25,3.39107 C 37.748465,104.96625 37.487925,102 39.117985,102 c 0.614892,0 2.576999,-1.28103 4.360238,-2.846736 3.037281,-2.666768 3.124651,-2.92018 1.382015,-4.008474 -2.49317,-1.55701 -2.543261,-8.216688 -0.07858,-10.447194 C 50.036181,79.942319 76.292633,70.608477 94.5,67.023343 107.56503,64.450765 112,63.023871 112,61.392949 c 0,-4.833528 41.85648,-1.657226 68.95313,5.232546 13.95277,3.547724 36.69757,12.057081 41.03498,15.352143 l 2.48811,1.890175 -4.48811,9.21791 c -4.49165,9.225177 -7.53894,14.002737 -8.81069,13.813447 -0.37258,-0.0554 -5.08084,-2.08374 -10.4628,-4.50731 z M 224,57.578614 C 195.8403,44.583361 165.44881,37.652423 131,36.369477 112.2565,35.67143 98.077745,36.822827 78.5,40.632779 63.516101,43.54874 40.486947,50.898555 27.610153,56.874407 22.720737,59.143483 18.156382,61 17.467141,61 c -1.073406,0 -3.020527,-2.993265 -2.24068,-3.444548 3.392007,-1.962888 14.532843,-7.314525 22.156154,-10.64298 8.567737,-3.740806 9.598871,-4.441512 7.75,-5.266501 C 43.376901,40.862549 43,39.831439 43,35.811648 c 0,-4.869701 0.01267,-4.888207 4.75,-6.939244 22.087015,-9.562616 47.261617,-14.25009 90.75,-16.897515 l 20,-1.217532 15,2.745107 c 23.91662,4.376914 43.73169,10.516006 63.75,19.750995 7.00147,3.229968 8.74237,4.457249 8.71181,6.141576 C 245.91652,41.89181 235.9459,61.28093 234.5,61.683967 233.95,61.837278 229.225,59.989868 224,57.578614 z"
         id="path2826" />
      <path
         style="fill:#666666"
         d="m 107,239.32874 c 0,-0.36919 0.73551,-1.48399 1.63447,-2.47732 1.5223,-1.68213 1.44199,-2.17369 -1.17045,-7.16338 -1.5427,-2.94652 -2.53419,-6.0628 -2.20331,-6.92507 1.49074,-3.8848 21.58901,-8.47944 32.23929,-7.37019 9.00118,0.93749 16.5,2.90145 16.5,4.32138 0,2.74256 -9.49862,20.28537 -10.97569,20.27078 -0.83837,-0.008 -3.32431,-0.66353 -5.52431,-1.4561 -5.29381,-1.90716 -18.13161,-1.92292 -23.5,-0.0288 -4.57442,1.61395 -7,1.90112 -7,0.82874 z M 84.598284,194.15903 C 84.017342,193.21904 87.704129,190.27002 93,187.43859 l 3.5,-1.87128 -3.5,-0.53365 c -3.366191,-0.51326 -3.511502,-0.71156 -3.800843,-5.18699 l -0.300843,-4.65332 5.490367,-2.59736 c 19.097219,-9.03443 54.220229,-10.01683 74.079149,-2.07202 3.404,1.36182 6.71628,2.47603 7.36063,2.47603 2.21003,0 1.13346,3.51195 -3.93865,12.84853 -5.77639,10.63299 -4.10788,10.14957 -18.11988,5.2499 -10.38775,-3.63235 -24.59255,-5.55918 -34.26993,-4.6486 -8.87398,0.83499 -21.583021,3.79165 -27.832905,6.47511 -5.354688,2.29909 -6.307766,2.46548 -7.068811,1.23409 z M 180.5,147.30285 c -23.10382,-9.95095 -50.24792,-13.51467 -74.77687,-9.81737 -13.168586,1.98493 -20.308377,3.90422 -32.493831,8.73487 -10.463523,4.14802 -13.407152,4.41525 -9.120962,0.828 2.268205,-1.89833 17.761523,-8.38767 26.391663,-11.05409 5.647494,-1.74488 6.192488,-2.64177 2.074696,-3.41427 C 89.059118,131.92046 89,131.82923 89,127.06327 c 0,-4.68515 0.127305,-4.89705 3.832808,-6.3797 6.688569,-2.67623 19.250832,-4.82539 32.667192,-5.58871 19.88222,-1.13119 38.57127,0.93182 55.5,6.12645 6.7171,2.06116 19,7.43742 19,8.31636 0,1.01861 -9.96977,20.32448 -10.72029,20.7592 -0.42884,0.2484 -4.37971,-1.09891 -8.77971,-2.99402 z M 203,102.31528 C 187.30066,94.966226 167.01069,89.331083 147.65002,86.942901 138.0648,85.760543 104.60187,86.194877 95.75,87.616539 91.021649,88.375941 90.906166,86.90401 95.5,84.430067 c 1.925,-1.036681 3.5,-2.64173 3.5,-3.566775 0,-3.238129 8.31576,-14.21602 11.5,-15.181498 5.66297,-1.717043 43.96575,-1.31029 56.08482,0.595588 19.15801,3.012839 39.78941,9.215089 52.09137,15.659801 3.87348,2.029226 4.1072,2.382617 3.22438,4.875314 -1.60205,4.523504 -9.36224,18.513493 -10.41227,18.771133 -0.54356,0.13337 -4.3633,-1.33739 -8.4883,-3.26835 z M 224,56.579635 C 211.22397,50.682327 196.01618,45.461964 181.5,41.990698 168.81567,38.957485 149.77158,36.0092 142.71562,35.986345 140.39703,35.978835 137.4875,35.701351 136.25,35.369714 133.84697,34.725726 133.1436,33 135.28416,33 c 0.70629,0 3.66824,-2.414062 6.58211,-5.364583 4.60701,-4.66496 5.25463,-5.806092 4.96583,-8.75 L 146.5,15.5 159,15.573354 c 15.76645,0.09252 34.55728,3.658204 55,10.436606 16.48708,5.46679 30.92965,11.882465 30.97162,13.758209 0.0392,1.753381 -9.8156,21.235976 -10.73074,21.214209 C 233.8334,60.972686 229.225,58.991451 224,56.579635 z"
         id="path2824" />
      <path
         style="fill:#666666"
         d="m 141,238.60699 c 0,-0.21616 0.675,-0.65203 1.5,-0.96862 0.825,-0.31658 1.5,-0.13972 1.5,0.39301 0,0.53274 -0.675,0.96862 -1.5,0.96862 -0.825,0 -1.5,-0.17686 -1.5,-0.39301 z m 4.98705,-6.07293 c 1.72276,-4.5312 5.14659,-10.73375 5.64819,-10.23216 0.27264,0.27265 -0.89023,3.24125 -2.58416,6.59691 -3.11943,6.17955 -4.78077,8.15061 -3.06403,3.63525 z M 161.5,192.88281 c -5.88187,-2.76021 -16.16049,-5.78734 -23,-6.77366 -4.25587,-0.61374 -4.98259,-0.89868 -2.5,-0.9802 4.58414,-0.15054 18.96203,3.32288 24.16961,5.83891 2.25632,1.09013 4.4893,1.74295 4.96218,1.45069 0.47287,-0.29225 2.35942,-3.76849 4.19232,-7.72496 2.8296,-6.10796 6.67589,-11.46256 6.67589,-9.29384 0,1.03752 -7.70773,15.94433 -9.16759,17.7302 -1.22714,1.50117 -1.64845,1.48164 -5.33241,-0.24714 z m 21,-45.42207 c -8.50484,-4.01978 -25.69495,-9.28487 -35.57352,-10.89568 l -9.42648,-1.53709 7.58062,0.45894 c 9.213,0.55777 35.36797,7.04336 39.16256,9.71104 C 187.10193,147.20773 189,146.90568 189,144.44098 189,143.48096 187.91168,143 185.73932,143 c -2.20632,0 -5.43986,-1.46191 -10,-4.52106 L 169,133.95787 l 0,-4.95988 c 0,-4.44752 0.2565,-5.02426 2.48305,-5.58309 3.42039,-0.85846 16.2826,2.14436 20.52663,4.79217 1.91967,1.19766 4.27782,2.06274 5.24032,1.92239 0.9625,-0.14035 1.74032,0.11061 1.72848,0.55768 -0.0424,1.60341 -9.49981,18.65612 -10.47848,18.89388 -0.55,0.13362 -3.25,-0.8205 -6,-2.12028 z m 20,-45.9837 C 184.8044,92.945811 158.29331,86.354218 136,84.942792 l -12.5,-0.791395 14.5,0.376421 c 9.43303,0.244883 19.5479,1.256716 28.94543,2.895534 7.94499,1.385512 14.60483,2.359724 14.79964,2.164916 0.1948,-0.194808 -2.48064,-1.907276 -5.94544,-3.805485 L 169.5,82.331494 169.19885,77.197638 c -0.2866,-4.885697 -0.16624,-5.167718 2.48996,-5.834383 6.80365,-1.707607 31.59591,4.583208 44.08755,11.186822 l 6.27636,3.317954 -4.88469,9.315985 c -2.68659,5.123794 -5.51095,9.395144 -6.27637,9.491894 -0.76541,0.0968 -4.54166,-1.34274 -8.39166,-3.19887 z m 20,-46.103034 C 201.61162,45.941541 175.1757,38.602566 153,36.079852 c -5.225,-0.594398 -10.85,-1.238102 -12.5,-1.430455 -1.65,-0.192353 -0.075,-0.399366 3.5,-0.460028 3.575,-0.06066 13.47351,0.735902 21.99669,1.770144 8.52318,1.034242 15.66553,1.711598 15.8719,1.505235 0.20636,-0.206362 -2.13591,-1.564158 -5.20504,-3.017325 -7.08907,-3.356515 -7.85466,-4.342195 -7.47466,-9.623518 L 169.5,20.5 l 7.13894,-0.291568 c 12.90793,-0.527184 39.25738,6.282379 55.99963,14.472144 C 242.94155,39.720457 244,40.333138 244,41.257111 244,43.290909 234.82995,59.993327 233.73996,59.944829 233.05798,59.914485 228,57.857615 222.5,55.374006 z"
         id="path2822" />
    </g>
  </g>
</svg>
