<?xml version="1.0" encoding="UTF-8" standalone="no"?>
<!-- Created with Inkscape (http://www.inkscape.org/) -->

<svg
   xmlns:dc="http://purl.org/dc/elements/1.1/"
   xmlns:cc="http://creativecommons.org/ns#"
   xmlns:rdf="http://www.w3.org/1999/02/22-rdf-syntax-ns#"
   xmlns:svg="http://www.w3.org/2000/svg"
   xmlns="http://www.w3.org/2000/svg"
   xmlns:xlink="http://www.w3.org/1999/xlink"
   xmlns:sodipodi="http://sodipodi.sourceforge.net/DTD/sodipodi-0.dtd"
   xmlns:inkscape="http://www.inkscape.org/namespaces/inkscape"
   version="1.1"
   width="256"
   height="256"
   id="svg3277"
   inkscape:version="0.47pre4 r22446"
   sodipodi:docname="gtk-edit.svg">
  <sodipodi:namedview
     pagecolor="#ffffff"
     bordercolor="#666666"
     borderopacity="1"
     objecttolerance="10"
     gridtolerance="10"
     guidetolerance="10"
     inkscape:pageopacity="0"
     inkscape:pageshadow="2"
     inkscape:window-width="1680"
     inkscape:window-height="994"
     id="namedview50"
     showgrid="false"
     inkscape:zoom="0.86915209"
     inkscape:cx="97.161915"
     inkscape:cy="16.343507"
     inkscape:window-x="0"
     inkscape:window-y="0"
     inkscape:window-maximized="1"
     inkscape:current-layer="svg3277" />
  <metadata
     id="metadata52">
    <rdf:RDF>
      <cc:Work
         rdf:about="">
        <dc:format>image/svg+xml</dc:format>
        <dc:type
           rdf:resource="http://purl.org/dc/dcmitype/StillImage" />
      </cc:Work>
    </rdf:RDF>
  </metadata>
  <defs
     id="defs3279">
    <inkscape:perspective
       id="perspective54"
       inkscape:persp3d-origin="24 : 16 : 1"
       inkscape:vp_z="48 : 24 : 1"
       inkscape:vp_y="0 : 1000 : 0"
       inkscape:vp_x="0 : 24 : 1"
       sodipodi:type="inkscape:persp3d" />
    <linearGradient
       id="linearGradient3155">
      <stop
         offset="0"
         style="stop-color:black;stop-opacity:1"
         id="stop3157" />
      <stop
         offset="0.13482948"
         style="stop-color:#c3c3c3;stop-opacity:1"
         id="stop3171" />
      <stop
         offset="0.20224422"
         style="stop-color:#8c8c8c;stop-opacity:1"
         id="stop3173" />
      <stop
         offset="0.26965895"
         style="stop-color:white;stop-opacity:1"
         id="stop3163" />
      <stop
         offset="0.44650277"
         style="stop-color:#757575;stop-opacity:1"
         id="stop3165" />
      <stop
         offset="0.57114136"
         style="stop-color:#7d7d7d;stop-opacity:1"
         id="stop3167" />
      <stop
         offset="0.72038066"
         style="stop-color:#b6b6b6;stop-opacity:1"
         id="stop3169" />
      <stop
         offset="1"
         style="stop-color:black;stop-opacity:1"
         id="stop3159" />
    </linearGradient>
    <linearGradient
       id="linearGradient3240">
      <stop
         offset="0"
         style="stop-color:#3e3e3e;stop-opacity:1"
         id="stop3242" />
      <stop
         offset="0.5"
         style="stop-color:#828282;stop-opacity:1"
         id="stop3244" />
      <stop
         offset="1"
         style="stop-color:#3c3c3c;stop-opacity:1"
         id="stop3246" />
    </linearGradient>
    <linearGradient
       id="linearGradient3223">
      <stop
         offset="0"
         style="stop-color:#999;stop-opacity:1"
         id="stop3225" />
      <stop
         offset="0.5"
         style="stop-color:white;stop-opacity:1"
         id="stop3231" />
      <stop
         offset="1"
         style="stop-color:#777;stop-opacity:1"
         id="stop3227" />
    </linearGradient>
    <linearGradient
       id="linearGradient3191">
      <stop
         offset="0"
         style="stop-color:#cbbd27;stop-opacity:1"
         id="stop3193" />
      <stop
         offset="1"
         style="stop-color:#9b901d;stop-opacity:1"
         id="stop3195" />
    </linearGradient>
    <linearGradient
       id="linearGradient3290">
      <stop
         offset="0"
         style="stop-color:#e4db7b;stop-opacity:1"
         id="stop3292" />
      <stop
         offset="1"
         style="stop-color:#f4f0c8;stop-opacity:1"
         id="stop3294" />
    </linearGradient>
    <linearGradient
       gradientTransform="matrix(1.1213238,-1.1263648,1.3858308,1.3783152,-37.931012,11.005406)"
       gradientUnits="userSpaceOnUse"
       xlink:href="#linearGradient3290"
       id="linearGradient2863"
       y2="26.02973"
       x2="9"
       y1="29.056757"
       x1="9" />
    <linearGradient
       gradientTransform="matrix(0.9421616,0,0,0.9409994,1.4257538,3.2093269)"
       gradientUnits="userSpaceOnUse"
       xlink:href="#linearGradient3191"
       id="linearGradient2865"
       y2="41.391716"
       x2="9.5220556"
       y1="37.371799"
       x1="5.5178981" />
    <linearGradient
       gradientTransform="matrix(1.1213238,-1.1263648,1.3858308,1.3783152,-35.589001,8.6528649)"
       gradientUnits="userSpaceOnUse"
       xlink:href="#linearGradient3223"
       id="linearGradient2868"
       y2="30.000141"
       x2="30.037716"
       y1="24.989594"
       x1="30.037716" />
    <linearGradient
       gradientTransform="matrix(1.1213238,-1.1263648,1.3858308,1.3783152,-35.267868,8.3302899)"
       gradientUnits="userSpaceOnUse"
       xlink:href="#linearGradient3240"
       id="linearGradient2871"
       y2="30.000141"
       x2="30.037716"
       y1="24.989594"
       x1="30.037716" />
    <linearGradient
       gradientTransform="matrix(1.1213238,-1.1263648,1.3858308,1.3783152,-36.710324,9.7792299)"
       gradientUnits="userSpaceOnUse"
       xlink:href="#linearGradient3223"
       id="linearGradient2874"
       y2="30.000141"
       x2="30.037716"
       y1="24.989594"
       x1="30.037716" />
    <linearGradient
       gradientTransform="matrix(1.1213238,-1.1263648,1.3858308,1.3783152,-36.389192,9.4566539)"
       gradientUnits="userSpaceOnUse"
       xlink:href="#linearGradient3240"
       id="linearGradient2877"
       y2="30.000141"
       x2="30.037716"
       y1="24.989594"
       x1="30.037716" />
    <linearGradient
       gradientTransform="matrix(1.1213238,-1.1263648,1.3858308,1.3783152,-37.826253,10.900177)"
       gradientUnits="userSpaceOnUse"
       xlink:href="#linearGradient3223"
       id="linearGradient2880"
       y2="30.000141"
       x2="30.037716"
       y1="24.989594"
       x1="30.037716" />
    <linearGradient
       gradientTransform="matrix(1.1213238,-1.1263648,1.3858308,1.3783152,-37.505121,10.577602)"
       gradientUnits="userSpaceOnUse"
       xlink:href="#linearGradient3240"
       id="linearGradient2883"
       y2="30.000141"
       x2="30.037716"
       y1="24.989594"
       x1="30.037716" />
    <linearGradient
       spreadMethod="pad"
       gradientTransform="matrix(1.1539441,-1.1591317,1.184149,1.1777273,-33.697633,16.0896)"
       gradientUnits="userSpaceOnUse"
       xlink:href="#linearGradient3155"
       id="linearGradient2888"
       y2="31.210939"
       x2="23.575972"
       y1="25.356892"
       x1="23.575972" />
    <filter
       id="filter3699"
       color-interpolation-filters="sRGB"
       height="1.4807006"
       width="1.1199563"
       y="-0.24035028"
       x="-0.059978146">
      <feGaussianBlur
         stdDeviation="1.0014601"
         id="feGaussianBlur3701" />
    </filter>
    <linearGradient
       gradientTransform="matrix(6.1500195,-6.1776674,7.6007363,7.5595162,-206.18577,43.278293)"
       gradientUnits="userSpaceOnUse"
       xlink:href="#linearGradient3240-817"
       id="linearGradient2883-472"
       y2="30.000141"
       x2="30.037716"
       y1="24.989594"
       x1="30.037716" />
    <linearGradient
       id="linearGradient3240-817">
      <stop
         offset="0"
         style="stop-color:#3e3e3e;stop-opacity:1"
         id="stop2901" />
      <stop
         offset="0.5"
         style="stop-color:#828282;stop-opacity:1"
         id="stop2903" />
      <stop
         offset="1"
         style="stop-color:#3c3c3c;stop-opacity:1"
         id="stop2905" />
    </linearGradient>
    <linearGradient
       gradientTransform="matrix(6.1500195,-6.1776674,7.6007363,7.5595162,-193.91531,30.952681)"
       gradientUnits="userSpaceOnUse"
       xlink:href="#linearGradient3240-470"
       id="linearGradient2871-64"
       y2="30.000141"
       x2="30.037716"
       y1="24.989594"
       x1="30.037716" />
    <linearGradient
       id="linearGradient3240-470">
      <stop
         offset="0"
         style="stop-color:#3e3e3e;stop-opacity:1"
         id="stop2909" />
      <stop
         offset="0.5"
         style="stop-color:#828282;stop-opacity:1"
         id="stop2911" />
      <stop
         offset="1"
         style="stop-color:#3c3c3c;stop-opacity:1"
         id="stop2913" />
    </linearGradient>
    <linearGradient
       gradientTransform="matrix(6.1500195,-6.1776674,7.6007363,7.5595162,-201.82661,38.899549)"
       gradientUnits="userSpaceOnUse"
       xlink:href="#linearGradient3223-632"
       id="linearGradient2874-824"
       y2="30.000141"
       x2="30.037716"
       y1="24.989594"
       x1="30.037716" />
    <linearGradient
       id="linearGradient3223-632">
      <stop
         offset="0"
         style="stop-color:#999999;stop-opacity:1"
         id="stop2917" />
      <stop
         offset="0.5"
         style="stop-color:#ffffff;stop-opacity:1"
         id="stop2919" />
      <stop
         offset="1"
         style="stop-color:#777777;stop-opacity:1"
         id="stop2921" />
    </linearGradient>
    <linearGradient
       gradientTransform="matrix(6.1500195,-6.1776674,7.6007363,7.5595162,-200.06533,37.130325)"
       gradientUnits="userSpaceOnUse"
       xlink:href="#linearGradient3240-225"
       id="linearGradient2877-741"
       y2="30.000141"
       x2="30.037716"
       y1="24.989594"
       x1="30.037716" />
    <linearGradient
       id="linearGradient3240-225">
      <stop
         offset="0"
         style="stop-color:#3e3e3e;stop-opacity:1"
         id="stop2925" />
      <stop
         offset="0.5"
         style="stop-color:#828282;stop-opacity:1"
         id="stop2927" />
      <stop
         offset="1"
         style="stop-color:#3c3c3c;stop-opacity:1"
         id="stop2929" />
    </linearGradient>
    <linearGradient
       gradientTransform="matrix(6.1500195,-6.1776674,7.6007363,7.5595161,-208.52161,45.6247)"
       gradientUnits="userSpaceOnUse"
       xlink:href="#linearGradient3290-383"
       id="linearGradient2863-7"
       y2="26.02973"
       x2="9"
       y1="29.056757"
       x1="9" />
    <linearGradient
       id="linearGradient3290-383">
      <stop
         offset="0"
         style="stop-color:#afafaf;stop-opacity:1"
         id="stop2933" />
      <stop
         offset="1"
         style="stop-color:#dedede;stop-opacity:1"
         id="stop2935" />
    </linearGradient>
    <linearGradient
       gradientTransform="matrix(5.1673854,0,0,5.1610112,7.3347474,2.8662742)"
       gradientUnits="userSpaceOnUse"
       xlink:href="#linearGradient3191-487"
       id="linearGradient2865-61"
       y2="41.391716"
       x2="9.5220556"
       y1="37.371799"
       x1="5.5178981" />
    <linearGradient
       id="linearGradient3191-487">
      <stop
         offset="0"
         style="stop-color:#797979;stop-opacity:1"
         id="stop2939" />
      <stop
         offset="1"
         style="stop-color:#5c5c5c;stop-opacity:1"
         id="stop2941" />
    </linearGradient>
    <linearGradient
       spreadMethod="pad"
       gradientTransform="matrix(6.328929,-6.357381,6.494591,6.4593705,-185.3032,73.50948)"
       gradientUnits="userSpaceOnUse"
       xlink:href="#linearGradient3155-593"
       id="linearGradient2888-736"
       y2="31.210939"
       x2="23.575972"
       y1="25.356892"
       x1="23.575972" />
    <linearGradient
       id="linearGradient3155-593">
      <stop
         offset="0"
         style="stop-color:#000000;stop-opacity:1"
         id="stop2945" />
      <stop
         offset="0.13482948"
         style="stop-color:#c3c3c3;stop-opacity:1"
         id="stop2947" />
      <stop
         offset="0.20224422"
         style="stop-color:#8c8c8c;stop-opacity:1"
         id="stop2949" />
      <stop
         offset="0.26965895"
         style="stop-color:#ffffff;stop-opacity:1"
         id="stop2951" />
      <stop
         offset="0.44650277"
         style="stop-color:#757575;stop-opacity:1"
         id="stop2953" />
      <stop
         offset="0.57114136"
         style="stop-color:#7d7d7d;stop-opacity:1"
         id="stop2955" />
      <stop
         offset="0.72038066"
         style="stop-color:#b6b6b6;stop-opacity:1"
         id="stop2957" />
      <stop
         offset="1"
         style="stop-color:#000000;stop-opacity:1"
         id="stop2959" />
    </linearGradient>
    <linearGradient
       gradientTransform="matrix(6.1500195,-6.1776674,7.6007363,7.5595162,-195.6766,32.721848)"
       gradientUnits="userSpaceOnUse"
       xlink:href="#linearGradient3223-530"
       id="linearGradient2868-643"
       y2="30.000141"
       x2="30.037716"
       y1="24.989594"
       x1="30.037716" />
    <linearGradient
       id="linearGradient3223-530">
      <stop
         offset="0"
         style="stop-color:#999999;stop-opacity:1"
         id="stop2963" />
      <stop
         offset="0.5"
         style="stop-color:#ffffff;stop-opacity:1"
         id="stop2965" />
      <stop
         offset="1"
         style="stop-color:#777777;stop-opacity:1"
         id="stop2967" />
    </linearGradient>
    <linearGradient
       gradientTransform="matrix(6.1500195,-6.1776674,7.6007363,7.5595162,-207.94705,45.047517)"
       gradientUnits="userSpaceOnUse"
       xlink:href="#linearGradient3223-535"
       id="linearGradient2880-784"
       y2="30.000141"
       x2="30.037716"
       y1="24.989594"
       x1="30.037716" />
    <linearGradient
       id="linearGradient3223-535">
      <stop
         offset="0"
         style="stop-color:#999999;stop-opacity:1"
         id="stop2971" />
      <stop
         offset="0.5"
         style="stop-color:#ffffff;stop-opacity:1"
         id="stop2973" />
      <stop
         offset="1"
         style="stop-color:#777777;stop-opacity:1"
         id="stop2975" />
    </linearGradient>
  </defs>
  <path
     style="opacity:0.15;fill:#000000;fill-opacity:1;fill-rule:evenodd;stroke:none;filter:url(#filter3699)"
     id="path2422"
     d="m 36.746481,244.23735 c -0.322997,-0.005 -0.582086,0.0365 -0.756671,0.0802 l -23.248079,5.80193 -4.2791089,1.06949 -0.1304606,0.0267 L 2.905,254.237 l 12.18502,-1.33685 0.104369,-0.0267 4.305202,-1.06948 23.24808,-5.82868 c 0.698334,-0.17484 -0.244046,-0.68626 -2.113462,-1.14969 -1.402063,-0.34758 -2.918734,-0.57454 -3.887728,-0.58822 z"
     transform="matrix(5.4846062,0,0,5.4846062,-0.48494944,-1155.5337)" />
  <path
     style="fill:url(#linearGradient2888-736);fill-opacity:1;stroke:#000000;stroke-width:5.48460674;stroke-linecap:butt;stroke-linejoin:round;stroke-miterlimit:4;stroke-opacity:1;stroke-dasharray:none;stroke-dashoffset:0"
     id="rect2383"
     d="m 49.961102,166.31529 c 4.253159,-3.26921 15.562149,2.03084 25.728426,12.14198 10.141969,10.08691 15.23871,21.1289 12.037734,25.41935 -0.01206,0.0164 0.249934,0.21993 0.237538,0.23638 L 242.29186,49.092138 C 246.21008,45.156277 240.88997,33.482566 230.40096,23.050404 219.91195,12.618299 208.20641,7.3586712 204.28815,11.294535 L 49.961102,166.31529 z" />
  <path
     style="opacity:0.8;fill:#cecece;fill-opacity:1;stroke:#aaaaaa;stroke-width:5.48460674;stroke-linecap:butt;stroke-linejoin:round;stroke-miterlimit:4;stroke-opacity:1;stroke-dasharray:none;stroke-dashoffset:0"
     id="rect3175"
     d="m 185.45373,30.213571 c 4.25314,-3.269257 15.56215,2.030792 25.72841,12.141937 10.14197,10.086954 15.23873,21.12895 12.03774,25.419393 -0.0121,0.01645 0.24994,0.219929 0.23754,0.236382 l 18.83443,-18.919087 0.38437,-0.386124 c 0.0126,-0.01644 -0.24972,-0.219928 -0.23755,-0.236382 3.20101,-4.2905 -1.89576,-15.332488 -12.03771,-25.41945 C 220.23468,12.939094 208.92568,7.6390442 204.67253,10.908309 l -0.38436,0.386116 -18.83442,18.919146 z" />
  <path
     style="opacity:0.6;fill:#606060;fill-opacity:1;stroke:none"
     id="path3208"
     d="m 49.961103,166.31529 c 4.253158,-3.26921 15.562148,2.03084 25.728425,12.14198 10.141969,10.08696 15.23871,21.1289 12.037734,25.41935 -0.01206,0.0164 0.249934,0.21993 0.237538,0.23638 l 106.28002,-106.757753 0.38436,-0.38612 c 0.0126,-0.0164 -0.24965,-0.21993 -0.23753,-0.23639 3.20097,-4.29049 -1.89577,-15.332426 -12.03774,-25.419388 C 172.18764,61.202204 160.87864,55.902154 156.62548,59.171363 L 156.24112,59.557478 49.961097,166.31529 z" />
  <path
     style="fill:url(#linearGradient2883-472);fill-opacity:1;stroke:none"
     id="path3233"
     d="m 164.34261,51.419584 c 4.25316,-3.269266 15.56216,2.030783 25.72843,12.141936 10.14197,10.086954 15.23871,21.128951 12.03773,25.419397 -0.0121,0.0164 0.24993,0.21992 0.23759,0.23638 l 1.92187,-1.930528 c 0.0126,-0.01644 -0.24966,-0.219929 -0.23754,-0.236382 3.20099,-4.290442 -1.89576,-15.332439 -12.03773,-25.419401 C 181.82663,51.519841 170.51764,46.219792 166.26448,49.489058 l -1.92187,1.930526 z" />
  <path
     style="fill:url(#linearGradient2880-784);fill-opacity:1;stroke:none"
     id="path3216"
     d="m 162.58132,53.188758 c 4.25317,-3.269216 15.56217,2.030833 25.72843,12.141986 10.14198,10.086954 15.23873,21.128893 12.03774,25.419393 -0.0121,0.0165 0.24993,0.21993 0.23754,0.23638 l 1.92187,-1.93052 c 0.0126,-0.0165 -0.24976,-0.21993 -0.23754,-0.23639 C 205.47035,84.529111 200.3736,73.487172 190.23163,63.40021 180.06536,53.289065 168.75636,47.989016 164.50319,51.258224 l -1.92187,1.930534 z" />
  <path
     style="fill:url(#linearGradient2877-741);fill-opacity:1;stroke:none"
     id="path3248"
     d="m 170.46305,45.271615 c 4.25315,-3.269208 15.56216,2.030841 25.72842,12.141986 10.14196,10.086905 15.23871,21.128901 12.03774,25.419343 -0.0121,0.01645 0.24994,0.219929 0.23754,0.236383 l 1.92187,-1.930469 c 0.0126,-0.01645 -0.24965,-0.219937 -0.23753,-0.23639 3.20099,-4.290492 -1.89576,-15.332431 -12.03774,-25.419393 C 187.94709,45.37193 176.6381,40.071881 172.38492,43.341089 l -1.92187,1.930526 z" />
  <path
     style="fill:url(#linearGradient2874-824);fill-opacity:1;stroke:none"
     id="path3250"
     d="m 168.70177,47.040839 c 4.25316,-3.269266 15.56215,2.030784 25.72842,12.141929 10.14197,10.086962 15.23873,21.128958 12.03774,25.4194 -0.0121,0.01645 0.24994,0.219929 0.23755,0.236383 l 1.92187,-1.930526 c 0.0126,-0.01644 -0.24966,-0.219929 -0.23754,-0.236383 3.201,-4.290442 -1.89575,-15.332438 -12.03772,-25.4194 C 186.18583,47.141097 174.87683,41.841047 170.62366,45.110313 l -1.92188,1.930469 z" />
  <path
     style="fill:url(#linearGradient2871-64);fill-opacity:1;stroke:none"
     id="path3256"
     d="m 176.61308,39.093971 c 4.25314,-3.269257 15.56214,2.030792 25.72841,12.141937 10.14196,10.086954 15.23873,21.12895 12.03773,25.419393 -0.0121,0.01645 0.24994,0.219929 0.23754,0.23639 l 1.92188,-1.930534 c 0.0126,-0.01645 -0.24966,-0.219929 -0.23754,-0.236382 3.20098,-4.290443 -1.89576,-15.332439 -12.03773,-25.419393 C 194.09711,39.194237 182.78811,33.894188 178.53495,37.163396 l -1.92188,1.930526 z" />
  <path
     style="fill:url(#linearGradient2868-643);fill-opacity:1;stroke:none"
     id="path3258"
     d="m 174.85179,40.863146 c 4.25315,-3.269208 15.56215,2.030841 25.72843,12.141986 10.14195,10.086954 15.23871,21.128893 12.03772,25.419335 -0.0121,0.01645 0.24993,0.219937 0.23754,0.236391 l 1.92187,-1.930477 c 0.0126,-0.01644 -0.24971,-0.219929 -0.23753,-0.236382 3.20098,-4.2905 -1.89577,-15.332439 -12.03773,-25.419393 C 192.33582,40.963461 181.02682,35.663412 176.77366,38.93262 l -1.92189,1.930526 z" />
  <path
     style="fill:url(#linearGradient2863-7);fill-opacity:1;fill-rule:evenodd;stroke:url(#linearGradient2865-61);stroke-width:5.48460674;stroke-linecap:butt;stroke-linejoin:miter;stroke-miterlimit:4;stroke-opacity:1;stroke-dasharray:none"
     id="path3270"
     d="M 18.712192,234.81391 87.786978,204.9612 C 90.987954,200.67075 85.818422,188.53463 75.676463,178.44768 65.510186,168.33653 53.667161,163.06796 49.414002,166.33717 l -30.70181,68.47674 z" />
  <path
     style="fill:#606060;fill-opacity:1;fill-rule:evenodd;stroke:#606060;stroke-width:5.48460674;stroke-linecap:butt;stroke-linejoin:miter;stroke-miterlimit:4;stroke-opacity:1;stroke-dasharray:none"
     id="path3281"
     d="m 27.176363,216.26755 -8.465183,18.47457 18.678673,-8.31648 c -1.394981,-1.69853 -2.675754,-3.42963 -4.366081,-5.11083 -1.94602,-1.93547 -3.875156,-3.49073 -5.847409,-5.04726 z" />
</svg>
