<?xml version="1.0" encoding="UTF-8" standalone="no"?>
<!-- Created with Inkscape (http://www.inkscape.org/) -->

<svg
   xmlns:dc="http://purl.org/dc/elements/1.1/"
   xmlns:cc="http://creativecommons.org/ns#"
   xmlns:rdf="http://www.w3.org/1999/02/22-rdf-syntax-ns#"
   xmlns:svg="http://www.w3.org/2000/svg"
   xmlns="http://www.w3.org/2000/svg"
   xmlns:sodipodi="http://sodipodi.sourceforge.net/DTD/sodipodi-0.dtd"
   xmlns:inkscape="http://www.inkscape.org/namespaces/inkscape"
   width="256"
   height="256"
   id="svg2846"
   version="1.1"
   inkscape:version="0.47pre4 r22446"
   sodipodi:docname="media-playlist.svg"
   inkscape:export-filename="/home/zeltak/ThemeDB/2)PNG Database/$Workshop/Gmpc/bar/png/play.png"
   inkscape:export-xdpi="120"
   inkscape:export-ydpi="120">
  <defs
     id="defs2848">
    <inkscape:perspective
       sodipodi:type="inkscape:persp3d"
       inkscape:vp_x="0 : 526.18109 : 1"
       inkscape:vp_y="0 : 1000 : 0"
       inkscape:vp_z="744.09448 : 526.18109 : 1"
       inkscape:persp3d-origin="372.04724 : 350.78739 : 1"
       id="perspective2854" />
    <inkscape:perspective
       id="perspective2839"
       inkscape:persp3d-origin="0.5 : 0.33333333 : 1"
       inkscape:vp_z="1 : 0.5 : 1"
       inkscape:vp_y="0 : 1000 : 0"
       inkscape:vp_x="0 : 0.5 : 1"
       sodipodi:type="inkscape:persp3d" />
    <inkscape:perspective
       id="perspective2865"
       inkscape:persp3d-origin="0.5 : 0.33333333 : 1"
       inkscape:vp_z="1 : 0.5 : 1"
       inkscape:vp_y="0 : 1000 : 0"
       inkscape:vp_x="0 : 0.5 : 1"
       sodipodi:type="inkscape:persp3d" />
    <inkscape:perspective
       id="perspective2852"
       inkscape:persp3d-origin="0.5 : 0.33333333 : 1"
       inkscape:vp_z="1 : 0.5 : 1"
       inkscape:vp_y="0 : 1000 : 0"
       inkscape:vp_x="0 : 0.5 : 1"
       sodipodi:type="inkscape:persp3d" />
    <inkscape:perspective
       id="perspective2828"
       inkscape:persp3d-origin="0.5 : 0.33333333 : 1"
       inkscape:vp_z="1 : 0.5 : 1"
       inkscape:vp_y="0 : 1000 : 0"
       inkscape:vp_x="0 : 0.5 : 1"
       sodipodi:type="inkscape:persp3d" />
    <inkscape:perspective
       id="perspective2878"
       inkscape:persp3d-origin="0.5 : 0.33333333 : 1"
       inkscape:vp_z="1 : 0.5 : 1"
       inkscape:vp_y="0 : 1000 : 0"
       inkscape:vp_x="0 : 0.5 : 1"
       sodipodi:type="inkscape:persp3d" />
    <inkscape:perspective
       id="perspective3479"
       inkscape:persp3d-origin="0.5 : 0.33333333 : 1"
       inkscape:vp_z="1 : 0.5 : 1"
       inkscape:vp_y="0 : 1000 : 0"
       inkscape:vp_x="0 : 0.5 : 1"
       sodipodi:type="inkscape:persp3d" />
  </defs>
  <sodipodi:namedview
     id="base"
     pagecolor="#ffffff"
     bordercolor="#666666"
     borderopacity="1.0"
     inkscape:pageopacity="0.0"
     inkscape:pageshadow="2"
     inkscape:zoom="1"
     inkscape:cx="-120.84601"
     inkscape:cy="7.6462382"
     inkscape:document-units="px"
     inkscape:current-layer="g4274"
     showgrid="false"
     inkscape:window-width="1680"
     inkscape:window-height="994"
     inkscape:window-x="0"
     inkscape:window-y="0"
     inkscape:window-maximized="1" />
  <metadata
     id="metadata2851">
    <rdf:RDF>
      <cc:Work
         rdf:about="">
        <dc:format>image/svg+xml</dc:format>
        <dc:type
           rdf:resource="http://purl.org/dc/dcmitype/StillImage" />
        <dc:title />
      </cc:Work>
    </rdf:RDF>
  </metadata>
  <g
     inkscape:label="Layer 1"
     inkscape:groupmode="layer"
     id="layer1"
     transform="translate(-299.3388,-119.48483)">
    <g
       id="g11223"
       transform="matrix(0.15557991,0,0,0.15557991,326.38597,601.6653)"
       style="fill:#606060;fill-opacity:1" />
    <g
       id="g4274"
       transform="matrix(11.834325,0,0,11.834325,-3234.9565,-7086.8363)">
      <path
         id="path2818"
         d="m 304.74083,629.71361 c -1.06168,-0.1561 -2.27915,-0.68492 -2.90636,-1.26243 -1.02579,-0.94452 -0.84467,-2.3145 0.44383,-3.35719 0.98372,-0.79604 2.27637,-1.13682 3.88342,-1.02376 0.34692,0.0244 1.12871,0.11293 1.73731,0.19685 1.29515,0.17847 1.66625,0.19349 1.74718,0.0708 0.16209,-0.24584 0.15402,-4.65475 -0.0227,-12.40269 -0.0316,-1.38802 -0.052,-2.52993 -0.0451,-2.53762 0.0135,-0.015 -7.9e-4,-0.025 1.05846,0.70483 2.64988,1.825 3.78741,2.30201 6.00208,2.51691 0.70935,0.0688 1.68022,0.12591 2.68538,0.15784 0.38868,0.0123 0.75945,0.0315 0.82402,0.0425 l 0.11731,0.0201 -0.16443,0.11341 c -0.6677,0.46039 -1.10015,0.65079 -1.9547,0.86067 -0.80141,0.19681 -1.74148,0.31805 -3.36849,0.43439 -1.1615,0.0831 -1.59457,0.14673 -1.79025,0.26324 -0.33533,0.1996 -0.0245,0.53474 0.68909,0.74289 0.7829,0.22836 1.78014,0.32223 3.94811,0.3716 1.64239,0.0374 1.91133,0.0549 1.91133,0.12409 0,0.13756 -1.18666,0.82362 -1.75917,1.01706 -0.82774,0.27967 -1.66185,0.4171 -2.74,0.45146 -0.80789,0.0257 -1.46463,-0.0181 -2.63828,-0.17641 -0.44048,-0.0594 -0.8115,-0.0999 -0.82445,-0.0902 -0.0129,0.009 -0.0371,2.10262 -0.0539,4.6508 -0.0329,5.0341 -0.0268,4.91949 -0.30358,5.70372 -0.17051,0.48313 -0.30924,0.66979 -0.81845,1.10136 -0.97644,0.82749 -1.77175,1.17811 -2.96998,1.30927 -0.63558,0.0696 -2.20445,0.0676 -2.68766,-0.004 z"
         style="fill:#606060;fill-opacity:1;stroke:#969696;stroke-width:0.30639344;stroke-miterlimit:4;stroke-opacity:0.93333333;stroke-dasharray:none" />
      <g
         style="fill:#606060;fill-opacity:1"
         id="layer1-2"
         transform="matrix(0.27806262,0,0,0.27806262,298.9163,600.36433)">
        <g
           style="fill:#606060;fill-opacity:1"
           id="Ebene_2"
           transform="matrix(0.111686,0,0,0.1065543,0,32)">
          <path
             style="fill:#606060;fill-opacity:1"
             id="path5640"
             d="M 41.033691,9.1616211 60.586426,34.762695 C 23.724609,63.394043 0,108.13672 0,158.42578 0,221.24023 37.012207,275.40137 90.413086,300.31592 96.984863,285.57178 105.53564,266.39062 113.70996,248.06641 72.289551,231.62988 43,191.19922 43,143.92578 43,110.79297 57.391602,81.025391 80.258789,60.519531 L 98.132324,83.921387 130.51807,0 41.033691,9.1616211 z" />
          <path
             style="fill:#606060;fill-opacity:1"
             id="path5642"
             d="m 245.48389,291.15479 -19.55274,-25.60108 c 36.86182,-28.63135 60.58643,-73.37402 60.58643,-123.66308 0,-62.814458 -37.01221,-116.975591 -90.41309,-141.8901416 C 189.53271,14.744629 180.98193,33.925781 172.80762,52.25 c 41.42041,16.436523 70.70996,56.86719 70.70996,104.14063 0,33.13281 -14.3916,62.90039 -37.25879,83.40625 l -17.87354,-23.40186 -32.38574,83.92139 89.48438,-9.16162 z" />
        </g>
      </g>
    </g>
  </g>
</svg>
