<?xml version="1.0" encoding="UTF-8" standalone="no"?>
<!-- Created with Inkscape (http://www.inkscape.org/) -->

<svg
   xmlns:dc="http://purl.org/dc/elements/1.1/"
   xmlns:cc="http://creativecommons.org/ns#"
   xmlns:rdf="http://www.w3.org/1999/02/22-rdf-syntax-ns#"
   xmlns:svg="http://www.w3.org/2000/svg"
   xmlns="http://www.w3.org/2000/svg"
   xmlns:xlink="http://www.w3.org/1999/xlink"
   xmlns:sodipodi="http://sodipodi.sourceforge.net/DTD/sodipodi-0.dtd"
   xmlns:inkscape="http://www.inkscape.org/namespaces/inkscape"
   version="1.1"
   width="256"
   height="256"
   id="svg7365"
   inkscape:version="0.47pre4 r22446"
   sodipodi:docname="media-playlist-repeat.svg">
  <metadata
     id="metadata18">
    <rdf:RDF>
      <cc:Work
         rdf:about="">
        <dc:format>image/svg+xml</dc:format>
        <dc:type
           rdf:resource="http://purl.org/dc/dcmitype/StillImage" />
        <dc:title />
      </cc:Work>
    </rdf:RDF>
  </metadata>
  <sodipodi:namedview
     pagecolor="#ffffff"
     bordercolor="#666666"
     borderopacity="1"
     objecttolerance="10"
     gridtolerance="10"
     guidetolerance="10"
     inkscape:pageopacity="0"
     inkscape:pageshadow="2"
     inkscape:window-width="1680"
     inkscape:window-height="996"
     id="namedview16"
     showgrid="false"
     inkscape:zoom="1.2291667"
     inkscape:cx="-80.949152"
     inkscape:cy="129.76271"
     inkscape:window-x="0"
     inkscape:window-y="0"
     inkscape:window-maximized="1"
     inkscape:current-layer="svg7365" />
  <defs
     id="defs7367">
    <inkscape:perspective
       sodipodi:type="inkscape:persp3d"
       inkscape:vp_x="0 : 24 : 1"
       inkscape:vp_y="0 : 1000 : 0"
       inkscape:vp_z="48 : 24 : 1"
       inkscape:persp3d-origin="24 : 16 : 1"
       id="perspective20" />
    <linearGradient
       id="linearGradient4434">
      <stop
         id="stop4436"
         style="stop-color:#eeeeec;stop-opacity:1"
         offset="0" />
      <stop
         id="stop4438"
         style="stop-color:#babdb6;stop-opacity:1"
         offset="0.75691998" />
      <stop
         id="stop4440"
         style="stop-color:#a1a59b;stop-opacity:1"
         offset="1" />
    </linearGradient>
    <linearGradient
       id="linearGradient3201">
      <stop
         id="stop3203"
         style="stop-color:white;stop-opacity:1"
         offset="0" />
      <stop
         id="stop3205"
         style="stop-color:white;stop-opacity:0"
         offset="1" />
    </linearGradient>
    <linearGradient
       x1="-26"
       y1="-38.00008"
       x2="-26"
       y2="-13"
       id="linearGradient4444"
       xlink:href="#linearGradient4434"
       gradientUnits="userSpaceOnUse"
       gradientTransform="translate(50,50.000079)" />
    <linearGradient
       x1="24"
       y1="13"
       x2="24"
       y2="36.99992"
       id="linearGradient4448"
       xlink:href="#linearGradient3201"
       gradientUnits="userSpaceOnUse" />
  </defs>
  <g
     id="layer1"
     style="fill:#606060;fill-opacity:1"
     transform="matrix(7.6322771,0,0,7.6322771,-55.17465,-66.623669)">
    <path
       d="m 13.5,14.500079 c -2.735898,0 -5,2.264102 -5,5 l 0,9.0625 c 0,2.735898 2.264102,5 5,5 l 5,0 0,-4 -5,0 c -0.589087,0 -1,-0.410913 -1,-1 l 0,-9.0625 c 0,-0.589086 0.410913,-1 1,-1 l 21,0 c 0.589091,0 1,0.410913 1,1 l 0,9.0625 c 0,0.589086 -0.410913,1 -1,1 l -5,0 0,-3.0625 -7,5 7,5 0,-2.9375 5,0 c 2.735898,0 4.999998,-2.264102 5,-5 l 0,-9.0625 c 0,-2.735898 -2.264101,-5 -5,-5 l -21,0 z"
       id="rect7213"
       style="fill:#606060;fill-opacity:1;stroke:#888a85;stroke-width:1;stroke-linecap:round;stroke-linejoin:round;stroke-miterlimit:4;stroke-opacity:1;stroke-dasharray:none;stroke-dashoffset:0.7" />
    <path
       d="m 13.5,15.40625 c -2.235918,0 -4.09375,1.857832 -4.09375,4.09375 l 0,9.0625 c 0,2.235918 1.857832,4.09375 4.09375,4.09375 l 4.09375,0 0,-2.1875 -4.09375,0 c -1.010519,0 -1.90625,-0.895731 -1.90625,-1.90625 l 0,-9.0625 c 0,-1.010518 0.89573,-1.90625 1.90625,-1.90625 l 21,0 c 1.01052,0 1.90625,0.895735 1.90625,1.90625 l 0,9.0625 c 0,1.010518 -0.89573,1.90625 -1.90625,1.90625 l -5,0 A 0.90634063,0.90634063 0 0 1 28.59375,29.5625 l 0,-1.28125 -4.5,3.21875 4.5,3.21875 0,-1.15625 A 0.90634063,0.90634063 0 0 1 29.5,32.65625 l 5,0 c 2.235918,0 4.093748,-1.857831 4.09375,-4.09375 l 0,-9.0625 c 0,-2.235918 -1.857831,-4.09375 -4.09375,-4.09375 l -21,0 z"
       transform="translate(-0.00624999,-0.01875001)"
       id="path7239"
       style="opacity:0.6;fill:#606060;fill-opacity:1;stroke:url(#linearGradient4448);stroke-width:0.80000001;stroke-linecap:round;stroke-linejoin:miter;stroke-miterlimit:4;stroke-opacity:1;stroke-dasharray:none;stroke-dashoffset:0.7" />
  </g>
</svg>
