<?xml version="1.0" encoding="UTF-8" standalone="no"?>
<!-- Created with Inkscape (http://www.inkscape.org/) -->

<svg
   xmlns:dc="http://purl.org/dc/elements/1.1/"
   xmlns:cc="http://creativecommons.org/ns#"
   xmlns:rdf="http://www.w3.org/1999/02/22-rdf-syntax-ns#"
   xmlns:svg="http://www.w3.org/2000/svg"
   xmlns="http://www.w3.org/2000/svg"
   xmlns:xlink="http://www.w3.org/1999/xlink"
   xmlns:sodipodi="http://sodipodi.sourceforge.net/DTD/sodipodi-0.dtd"
   xmlns:inkscape="http://www.inkscape.org/namespaces/inkscape"
   width="256"
   height="256"
   id="svg2"
   sodipodi:version="0.32"
   inkscape:version="0.47pre4 r22446"
   version="1.0"
   sodipodi:docname=" media-repeat-single.svg"
   inkscape:export-filename="/home/jimmac/src/cvs/gnome/gnome-icon-theme/16x16/actions/go-previous.png"
   inkscape:export-xdpi="90"
   inkscape:export-ydpi="90"
   inkscape:output_extension="org.inkscape.output.svg.inkscape">
  <defs
     id="defs4">
    <inkscape:perspective
       sodipodi:type="inkscape:persp3d"
       inkscape:vp_x="0 : 24 : 1"
       inkscape:vp_y="0 : 1000 : 0"
       inkscape:vp_z="48 : 24 : 1"
       inkscape:persp3d-origin="24 : 16 : 1"
       id="perspective22" />
    <linearGradient
       inkscape:collect="always"
       id="linearGradient3216">
      <stop
         style="stop-color:#4d4d4d;stop-opacity:1;"
         offset="0"
         id="stop3218" />
      <stop
         style="stop-color:#4d4d4d;stop-opacity:0;"
         offset="1"
         id="stop3220" />
    </linearGradient>
    <linearGradient
       inkscape:collect="always"
       id="linearGradient3207">
      <stop
         style="stop-color:#4d4d4d;stop-opacity:1;"
         offset="0"
         id="stop3209" />
      <stop
         style="stop-color:#4d4d4d;stop-opacity:0;"
         offset="1"
         id="stop3211" />
    </linearGradient>
    <linearGradient
       inkscape:collect="always"
       xlink:href="#linearGradient3207"
       id="linearGradient3214"
       x1="60.715897"
       y1="13.031015"
       x2="60.715897"
       y2="102.1382"
       gradientUnits="userSpaceOnUse" />
    <linearGradient
       inkscape:collect="always"
       xlink:href="#linearGradient3216"
       id="linearGradient3222"
       x1="61.35524"
       y1="14.686083"
       x2="60.961678"
       y2="109.11631"
       gradientUnits="userSpaceOnUse"
       gradientTransform="translate(28.38067,58.309377)" />
    <inkscape:perspective
       id="perspective3610"
       inkscape:persp3d-origin="0.5 : 0.33333333 : 1"
       inkscape:vp_z="1 : 0.5 : 1"
       inkscape:vp_y="0 : 1000 : 0"
       inkscape:vp_x="0 : 0.5 : 1"
       sodipodi:type="inkscape:persp3d" />
  </defs>
  <sodipodi:namedview
     id="base"
     pagecolor="#ffffff"
     bordercolor="#666"
     borderopacity="0.17254902"
     inkscape:pageopacity="0.0"
     inkscape:pageshadow="2"
     inkscape:zoom="2"
     inkscape:cx="-70.132547"
     inkscape:cy="133.79219"
     inkscape:document-units="px"
     inkscape:current-layer="g2606"
     width="48px"
     height="48px"
     inkscape:showpageshadow="false"
     showgrid="false"
     inkscape:window-width="1680"
     inkscape:window-height="994"
     inkscape:window-x="0"
     inkscape:window-y="0"
     inkscape:window-maximized="1" />
  <metadata
     id="metadata7">
    <rdf:RDF>
      <cc:Work
         rdf:about="">
        <dc:format>image/svg+xml</dc:format>
        <dc:type
           rdf:resource="http://purl.org/dc/dcmitype/StillImage" />
        <dc:title></dc:title>
        <dc:date>August 2006</dc:date>
        <dc:creator>
          <cc:Agent>
            <dc:title>Andreas Nilsson</dc:title>
          </cc:Agent>
        </dc:creator>
        <dc:contributor>
          <cc:Agent>
            <dc:title>Jakub Steiner</dc:title>
          </cc:Agent>
        </dc:contributor>
        <dc:source>http://www.gnome.org</dc:source>
        <dc:subject>
          <rdf:Bag>
            <rdf:li>up</rdf:li>
            <rdf:li>arrow</rdf:li>
            <rdf:li>go</rdf:li>
          </rdf:Bag>
        </dc:subject>
        <cc:license
           rdf:resource="http://creativecommons.org/licenses/GPL/2.0/" />
        <dc:description />
      </cc:Work>
      <cc:License
         rdf:about="http://creativecommons.org/licenses/GPL/2.0/">
        <cc:permits
           rdf:resource="http://web.resource.org/cc/Reproduction" />
        <cc:permits
           rdf:resource="http://web.resource.org/cc/Distribution" />
        <cc:requires
           rdf:resource="http://web.resource.org/cc/Notice" />
        <cc:permits
           rdf:resource="http://web.resource.org/cc/DerivativeWorks" />
        <cc:requires
           rdf:resource="http://web.resource.org/cc/ShareAlike" />
        <cc:requires
           rdf:resource="http://web.resource.org/cc/SourceCode" />
      </cc:License>
    </rdf:RDF>
  </metadata>
  <g
     inkscape:label="Layer 1"
     inkscape:groupmode="layer"
     id="layer1"
     transform="translate(0,208)">
    <g
       id="g2424"
       transform="matrix(0.3668174,0.3099156,0.3099156,-0.3668174,-126.45292,64.320666)"
       inkscape:r_cx="true"
       inkscape:r_cy="true"
       style="opacity:0.5;fill:none;stroke:#ffffff;stroke-width:4.12003946;stroke-opacity:1" />
    <g
       style="overflow:visible"
       id="g2518"
       transform="matrix(0.3425824,0,0,0.3425824,2.7618599,1.4330249)">
      <g
         style="fill:#969696;fill-opacity:0.93333333;overflow:visible"
         id="g2606"
         transform="matrix(0.9,0,0,0.9,2.6254053,9.4601793)">
        <g
           id="g2828"
           transform="matrix(5.4603693,0,0,5.4603693,61.335017,-625.44274)">
          <path
             d="m 99.168244,29.515091 c -0.5477,-0.07635 -1.05227,0.305643 -1.12849,0.852357 L 93.345513,64.04183 c -0.0558,0.400131 0.13549,0.795324 0.483521,1.000338 0.34901,0.205152 0.78677,0.179344 1.10952,-0.06443 0,0 9.930696,-7.500741 11.185576,-8.448562 8.00361,7.793667 11.88552,18.898982 10.34912,29.920409 -2.66454,19.114175 -20.284886,32.510695 -39.39906,29.846155 -0.547704,-0.0764 -1.052139,0.30466 -1.128489,0.85236 l -2.48519,17.82762 c -0.07635,0.5477 0.304653,1.05213 0.852357,1.12849 30.036552,4.18712 57.781712,-16.85675 61.968842,-46.893303 2.24703,-16.119135 -3.0362,-32.765996 -14.08677,-44.820146 1.45914,-1.102098 11.11224,-8.393159 11.11224,-8.393159 0.21554,-0.1628 0.35191,-0.402266 0.3878,-0.659776 0.0178,-0.127764 0.011,-0.259971 -0.0224,-0.389825 -0.10103,-0.39069 -0.42983,-0.682885 -0.82996,-0.738664 L 99.168244,29.515091 z"
             id="path2608"
             style="fill:#606060;fill-opacity:1" />
          <path
             d="m 20.515663,93.027572 c 0.511412,0.210395 1.094863,-0.03292 1.305259,-0.544334 L 34.756653,61.040164 c 0.153706,-0.373617 0.06731,-0.804926 -0.219052,-1.089257 -0.287283,-0.284711 -0.717665,-0.368778 -1.090589,-0.214023 0,0 -11.486278,4.790136 -12.937726,5.395435 C 14.699724,55.590411 13.70657,43.869064 17.94074,33.577006 25.283289,15.729362 45.685605,7.1451137 63.533248,14.487663 c 0.511413,0.210395 1.095244,-0.03385 1.305259,-0.544334 L 71.686835,-2.7030036 C 71.89685,-3.2134912 71.653915,-3.7978664 71.142501,-4.0082624 43.096204,-15.546553 10.983104,-2.0785451 -0.55518702,25.967752 -6.7472161,41.018812 -5.7779061,58.457016 1.9210925,72.884174 c -1.68770012,0.703823 -12.8528845,5.360053 -12.8528845,5.360053 -0.249305,0.103967 -0.441032,0.301908 -0.539953,0.542355 -0.04908,0.119299 -0.07542,0.249034 -0.07543,0.383112 5.06e-4,0.40354 0.246148,0.76844 0.619766,0.922147 l 31.443074,12.935731 z"
             id="path2610"
             style="fill:#606060;fill-opacity:1" />
          <text
             id="text2825"
             y="110.82579"
             x="26.973396"
             style="font-size:121.443367px;font-style:normal;font-weight:normal;fill:#606060;fill-opacity:1;stroke:none;font-family:Bitstream Vera Sans"
             xml:space="preserve"><tspan
               y="110.82579"
               x="26.973396"
               id="tspan2827"
               sodipodi:role="line">1</tspan></text>
        </g>
      </g>
    </g>
  </g>
</svg>
