<?xml version="1.0" encoding="UTF-8" standalone="no"?>
<!-- Created with Inkscape (http://www.inkscape.org/) -->

<svg
   xmlns:dc="http://purl.org/dc/elements/1.1/"
   xmlns:cc="http://creativecommons.org/ns#"
   xmlns:rdf="http://www.w3.org/1999/02/22-rdf-syntax-ns#"
   xmlns:svg="http://www.w3.org/2000/svg"
   xmlns="http://www.w3.org/2000/svg"
   xmlns:sodipodi="http://sodipodi.sourceforge.net/DTD/sodipodi-0.dtd"
   xmlns:inkscape="http://www.inkscape.org/namespaces/inkscape"
   width="256"
   height="256"
   id="svg2846"
   version="1.1"
   inkscape:version="0.47pre4 r22446"
   sodipodi:docname="media-audiofile.svg">
  <defs
     id="defs2848">
    <inkscape:perspective
       sodipodi:type="inkscape:persp3d"
       inkscape:vp_x="0 : 526.18109 : 1"
       inkscape:vp_y="0 : 1000 : 0"
       inkscape:vp_z="744.09448 : 526.18109 : 1"
       inkscape:persp3d-origin="372.04724 : 350.78739 : 1"
       id="perspective2854" />
    <inkscape:perspective
       id="perspective2839"
       inkscape:persp3d-origin="0.5 : 0.33333333 : 1"
       inkscape:vp_z="1 : 0.5 : 1"
       inkscape:vp_y="0 : 1000 : 0"
       inkscape:vp_x="0 : 0.5 : 1"
       sodipodi:type="inkscape:persp3d" />
    <inkscape:perspective
       id="perspective2865"
       inkscape:persp3d-origin="0.5 : 0.33333333 : 1"
       inkscape:vp_z="1 : 0.5 : 1"
       inkscape:vp_y="0 : 1000 : 0"
       inkscape:vp_x="0 : 0.5 : 1"
       sodipodi:type="inkscape:persp3d" />
    <inkscape:perspective
       id="perspective2852"
       inkscape:persp3d-origin="0.5 : 0.33333333 : 1"
       inkscape:vp_z="1 : 0.5 : 1"
       inkscape:vp_y="0 : 1000 : 0"
       inkscape:vp_x="0 : 0.5 : 1"
       sodipodi:type="inkscape:persp3d" />
    <inkscape:perspective
       id="perspective2828"
       inkscape:persp3d-origin="0.5 : 0.33333333 : 1"
       inkscape:vp_z="1 : 0.5 : 1"
       inkscape:vp_y="0 : 1000 : 0"
       inkscape:vp_x="0 : 0.5 : 1"
       sodipodi:type="inkscape:persp3d" />
    <inkscape:perspective
       id="perspective2878"
       inkscape:persp3d-origin="0.5 : 0.33333333 : 1"
       inkscape:vp_z="1 : 0.5 : 1"
       inkscape:vp_y="0 : 1000 : 0"
       inkscape:vp_x="0 : 0.5 : 1"
       sodipodi:type="inkscape:persp3d" />
  </defs>
  <sodipodi:namedview
     id="base"
     pagecolor="#ffffff"
     bordercolor="#666666"
     borderopacity="1.0"
     inkscape:pageopacity="0.0"
     inkscape:pageshadow="2"
     inkscape:zoom="1"
     inkscape:cx="-249.36281"
     inkscape:cy="13.650247"
     inkscape:document-units="px"
     inkscape:current-layer="g3770"
     showgrid="false"
     inkscape:window-width="1680"
     inkscape:window-height="994"
     inkscape:window-x="0"
     inkscape:window-y="0"
     inkscape:window-maximized="1" />
  <metadata
     id="metadata2851">
    <rdf:RDF>
      <cc:Work
         rdf:about="">
        <dc:format>image/svg+xml</dc:format>
        <dc:type
           rdf:resource="http://purl.org/dc/dcmitype/StillImage" />
        <dc:title />
      </cc:Work>
    </rdf:RDF>
  </metadata>
  <g
     inkscape:label="Layer 1"
     inkscape:groupmode="layer"
     id="layer1"
     transform="translate(-298.5888,-375.48483)">
    <g
       id="g11223"
       transform="matrix(0.15557991,0,0,0.15557991,326.38597,601.6653)"
       style="fill:#606060;fill-opacity:1" />
    <g
       id="g3770"
       transform="matrix(13.444409,0,0,13.444409,-3728.8172,-7814.8322)">
      <path
         id="path2818"
         d="m 303.65202,627.92046 c -0.96405,-0.14173 -2.06958,-0.62193 -2.63912,-1.14634 -0.93146,-0.85766 -0.76698,-2.10168 0.40302,-3.04849 0.89327,-0.72284 2.06706,-1.03229 3.52634,-0.92963 0.31502,0.0221 1.02493,0.10255 1.57757,0.17875 1.17606,0.16207 1.51303,0.17571 1.58651,0.0643 0.1472,-0.22323 0.13987,-4.22673 -0.0207,-11.26224 -0.0287,-1.26039 -0.0472,-2.2973 -0.041,-2.30429 0.0123,-0.0137 -7.2e-4,-0.0226 0.96113,0.64002 2.40622,1.65719 3.43916,2.09035 5.45019,2.28548 0.64413,0.0624 1.52572,0.11433 2.43845,0.14333 0.35294,0.0112 0.68962,0.0286 0.74825,0.0386 l 0.10652,0.0182 -0.1493,0.10298 c -0.6063,0.41806 -0.99899,0.59095 -1.77497,0.78153 -0.72772,0.17872 -1.58134,0.2888 -3.05875,0.39445 -1.0547,0.0755 -1.44795,0.13324 -1.62564,0.23904 -0.30449,0.18124 -0.0222,0.48556 0.62573,0.67457 0.71092,0.20737 1.61645,0.2926 3.58508,0.33744 1.49136,0.0339 1.73558,0.0498 1.73558,0.11268 0,0.1249 -1.07755,0.74788 -1.59742,0.92354 -0.75163,0.25396 -1.50903,0.37874 -2.48805,0.40993 -0.7336,0.0233 -1.32995,-0.0165 -2.39569,-0.16018 -0.39998,-0.0539 -0.73687,-0.0907 -0.74863,-0.0819 -0.0117,0.009 -0.0337,1.90928 -0.049,4.22316 -0.0298,4.57121 -0.0243,4.46712 -0.27566,5.17925 -0.15484,0.43871 -0.28082,0.6082 -0.7432,1.00008 -0.88665,0.75141 -1.60883,1.06978 -2.69689,1.18889 -0.57713,0.0632 -2.00174,0.0614 -2.44052,-0.003 z"
         style="fill:#606060;fill-opacity:1;stroke:#969696;stroke-width:0.27822021;stroke-miterlimit:4;stroke-opacity:0.93333333;stroke-dasharray:none" />
    </g>
  </g>
</svg>
