<?xml version="1.0" encoding="UTF-8" standalone="no"?>
<!-- Created with Inkscape (http://www.inkscape.org/) -->

<svg
   xmlns:dc="http://purl.org/dc/elements/1.1/"
   xmlns:cc="http://creativecommons.org/ns#"
   xmlns:rdf="http://www.w3.org/1999/02/22-rdf-syntax-ns#"
   xmlns:svg="http://www.w3.org/2000/svg"
   xmlns="http://www.w3.org/2000/svg"
   xmlns:sodipodi="http://sodipodi.sourceforge.net/DTD/sodipodi-0.dtd"
   xmlns:inkscape="http://www.inkscape.org/namespaces/inkscape"
   width="256"
   height="256"
   id="svg2846"
   version="1.1"
   inkscape:version="0.47 r22583"
   sodipodi:docname="media-playlist.svg"
   inkscape:export-filename="/home/zeltak/ThemeDB/2)PNG Database/$Workshop/Gmpc/bar/png/play.png"
   inkscape:export-xdpi="120"
   inkscape:export-ydpi="120">
  <defs
     id="defs2848">
    <inkscape:perspective
       sodipodi:type="inkscape:persp3d"
       inkscape:vp_x="0 : 526.18109 : 1"
       inkscape:vp_y="0 : 1000 : 0"
       inkscape:vp_z="744.09448 : 526.18109 : 1"
       inkscape:persp3d-origin="372.04724 : 350.78739 : 1"
       id="perspective2854" />
    <inkscape:perspective
       id="perspective2839"
       inkscape:persp3d-origin="0.5 : 0.33333333 : 1"
       inkscape:vp_z="1 : 0.5 : 1"
       inkscape:vp_y="0 : 1000 : 0"
       inkscape:vp_x="0 : 0.5 : 1"
       sodipodi:type="inkscape:persp3d" />
    <inkscape:perspective
       id="perspective2865"
       inkscape:persp3d-origin="0.5 : 0.33333333 : 1"
       inkscape:vp_z="1 : 0.5 : 1"
       inkscape:vp_y="0 : 1000 : 0"
       inkscape:vp_x="0 : 0.5 : 1"
       sodipodi:type="inkscape:persp3d" />
    <inkscape:perspective
       id="perspective2852"
       inkscape:persp3d-origin="0.5 : 0.33333333 : 1"
       inkscape:vp_z="1 : 0.5 : 1"
       inkscape:vp_y="0 : 1000 : 0"
       inkscape:vp_x="0 : 0.5 : 1"
       sodipodi:type="inkscape:persp3d" />
    <inkscape:perspective
       id="perspective2828"
       inkscape:persp3d-origin="0.5 : 0.33333333 : 1"
       inkscape:vp_z="1 : 0.5 : 1"
       inkscape:vp_y="0 : 1000 : 0"
       inkscape:vp_x="0 : 0.5 : 1"
       sodipodi:type="inkscape:persp3d" />
    <inkscape:perspective
       id="perspective2878"
       inkscape:persp3d-origin="0.5 : 0.33333333 : 1"
       inkscape:vp_z="1 : 0.5 : 1"
       inkscape:vp_y="0 : 1000 : 0"
       inkscape:vp_x="0 : 0.5 : 1"
       sodipodi:type="inkscape:persp3d" />
    <inkscape:perspective
       id="perspective3479"
       inkscape:persp3d-origin="0.5 : 0.33333333 : 1"
       inkscape:vp_z="1 : 0.5 : 1"
       inkscape:vp_y="0 : 1000 : 0"
       inkscape:vp_x="0 : 0.5 : 1"
       sodipodi:type="inkscape:persp3d" />
    <inkscape:perspective
       id="perspective3600"
       inkscape:persp3d-origin="0.5 : 0.33333333 : 1"
       inkscape:vp_z="1 : 0.5 : 1"
       inkscape:vp_y="0 : 1000 : 0"
       inkscape:vp_x="0 : 0.5 : 1"
       sodipodi:type="inkscape:persp3d" />
    <inkscape:perspective
       id="perspective3606"
       inkscape:persp3d-origin="0.5 : 0.33333333 : 1"
       inkscape:vp_z="1 : 0.5 : 1"
       inkscape:vp_y="0 : 1000 : 0"
       inkscape:vp_x="0 : 0.5 : 1"
       sodipodi:type="inkscape:persp3d" />
    <inkscape:perspective
       id="perspective3628"
       inkscape:persp3d-origin="0.5 : 0.33333333 : 1"
       inkscape:vp_z="1 : 0.5 : 1"
       inkscape:vp_y="0 : 1000 : 0"
       inkscape:vp_x="0 : 0.5 : 1"
       sodipodi:type="inkscape:persp3d" />
    <inkscape:perspective
       id="perspective2833"
       inkscape:persp3d-origin="0.5 : 0.33333333 : 1"
       inkscape:vp_z="1 : 0.5 : 1"
       inkscape:vp_y="0 : 1000 : 0"
       inkscape:vp_x="0 : 0.5 : 1"
       sodipodi:type="inkscape:persp3d" />
  </defs>
  <sodipodi:namedview
     id="base"
     pagecolor="#ffffff"
     bordercolor="#666666"
     borderopacity="1.0"
     inkscape:pageopacity="0.0"
     inkscape:pageshadow="2"
     inkscape:zoom="2"
     inkscape:cx="137.8477"
     inkscape:cy="141.64624"
     inkscape:document-units="px"
     inkscape:current-layer="Ebene_2"
     showgrid="false"
     inkscape:window-width="1680"
     inkscape:window-height="994"
     inkscape:window-x="0"
     inkscape:window-y="0"
     inkscape:window-maximized="1" />
  <metadata
     id="metadata2851">
    <rdf:RDF>
      <cc:Work
         rdf:about="">
        <dc:format>image/svg+xml</dc:format>
        <dc:type
           rdf:resource="http://purl.org/dc/dcmitype/StillImage" />
        <dc:title></dc:title>
      </cc:Work>
    </rdf:RDF>
  </metadata>
  <g
     inkscape:label="Layer 1"
     inkscape:groupmode="layer"
     id="layer1"
     transform="translate(-299.3388,-119.48483)">
    <g
       id="g11223"
       transform="matrix(0.15557991,0,0,0.15557991,326.38597,601.6653)"
       style="fill:#606060;fill-opacity:1" />
    <g
       id="g4274"
       transform="matrix(11.834325,0,0,11.834325,-3234.9565,-7086.8363)">
      <g
         style="fill:#606060;fill-opacity:1"
         id="layer1-2"
         transform="matrix(0.27806262,0,0,0.27806262,298.9163,600.36433)">
        <g
           style="fill:#606060;fill-opacity:1"
           id="Ebene_2"
           transform="matrix(0.111686,0,0,0.1065543,0,32)">
          <path
             style="fill:#606060;fill-opacity:1;stroke:#969696;stroke-width:9.91418552;stroke-miterlimit:4;stroke-opacity:0.93333333;stroke-dasharray:none"
             id="path5642"
             d="M 484.30044,710.479 472.4572,663.6656 c 69.05847,-11.87785 129.49741,-53.78999 160.05901,-119.27583 38.1735,-81.79624 19.21878,-177.83349 -40.4769,-247.08139 -18.17007,14.6703 -41.80998,33.75452 -64.40155,51.98227 48.05836,49.95085 64.53467,122.78585 35.80573,184.34479 -20.13542,43.14517 -58.39431,71.98932 -102.9025,82.93151 L 449.7145,573.77468 353.3281,660.73554 484.30044,710.479 z" />
          <path
             style="fill:#606060;fill-opacity:1;stroke:#969696;stroke-width:9.91418552000000020;stroke-miterlimit:4;stroke-opacity:0.93333334;stroke-dasharray:none"
             id="path5642-0"
             d="M 122.57704,-0.26679167 143.40083,42.96733 C 78.178892,69.558123 27.316094,123.66547 10.335973,194.36039 -10.873339,282.66314 26.620378,372.51541 98.688587,427.32611 113.5713,409.03424 132.93471,385.23821 151.44142,362.50736 94.56639,324.05395 64.075449,256.36507 80.037333,189.90941 91.224625,143.33226 122.96528,106.81832 164.3523,86.464725 L 183.38793,125.98504 260.53264,20.010573 122.57704,-0.26679167 z" />
        </g>
      </g>
      <path
         id="path2818"
         d="m 303.10519,629.96713 c -1.06168,-0.1561 -2.27915,-0.68492 -2.90636,-1.26243 -1.02579,-0.94452 -0.84467,-2.31449 0.44383,-3.35719 0.98372,-0.79604 2.27637,-1.13681 3.88342,-1.02376 0.34692,0.0244 1.12871,0.11294 1.73731,0.19685 1.29515,0.17847 1.66625,0.1935 1.74718,0.0708 0.16209,-0.24584 0.15402,-4.65475 -0.0227,-12.40269 -0.0316,-1.38802 -0.052,-2.52993 -0.0451,-2.53762 0.0135,-0.015 -7.6e-4,-0.025 1.05846,0.70483 2.64988,1.825 3.78741,2.30201 6.00208,2.51691 0.70935,0.0688 1.68022,0.12591 2.68538,0.15784 0.38868,0.0123 0.75945,0.0315 0.82402,0.0425 l 0.11731,0.0201 -0.16443,0.11341 c -0.6677,0.46039 -1.10015,0.65079 -1.9547,0.86067 -0.80141,0.19681 -1.74148,0.31805 -3.36849,0.43439 -1.1615,0.0831 -1.59457,0.14673 -1.79025,0.26324 -0.33533,0.1996 -0.0245,0.53474 0.68909,0.74289 0.7829,0.22836 1.78014,0.32223 3.94811,0.3716 1.64239,0.0374 1.91133,0.0549 1.91133,0.12409 0,0.13756 -1.18666,0.82362 -1.75917,1.01706 -0.82774,0.27967 -1.66185,0.4171 -2.74,0.45146 -0.80789,0.0257 -1.46463,-0.0181 -2.63828,-0.17641 -0.44048,-0.0594 -0.8115,-0.0999 -0.82445,-0.0902 -0.0129,0.009 -0.0371,2.10262 -0.0539,4.6508 -0.0329,5.0341 -0.0268,4.91949 -0.30358,5.70372 -0.17051,0.48313 -0.30924,0.66979 -0.81845,1.10136 -0.97644,0.82749 -1.77175,1.17811 -2.96998,1.30927 -0.63558,0.0696 -2.20445,0.0676 -2.68766,-0.004 z"
         style="fill:#606060;fill-opacity:1;stroke:#969696;stroke-width:0.30639344;stroke-miterlimit:4;stroke-opacity:0.93333333;stroke-dasharray:none" />
    </g>
  </g>
</svg>
