<?xml version="1.0" encoding="UTF-8" standalone="no"?>
<!-- Created with Inkscape (http://www.inkscape.org/) -->

<svg
   xmlns:dc="http://purl.org/dc/elements/1.1/"
   xmlns:cc="http://creativecommons.org/ns#"
   xmlns:rdf="http://www.w3.org/1999/02/22-rdf-syntax-ns#"
   xmlns:svg="http://www.w3.org/2000/svg"
   xmlns="http://www.w3.org/2000/svg"
   xmlns:sodipodi="http://sodipodi.sourceforge.net/DTD/sodipodi-0.dtd"
   xmlns:inkscape="http://www.inkscape.org/namespaces/inkscape"
   id="svg2"
   version="1.1"
   inkscape:version="0.47pre4 r22446"
   width="256"
   height="199.45441"
   sodipodi:docname="tag2.svg">
  <metadata
     id="metadata8">
    <rdf:RDF>
      <cc:Work
         rdf:about="">
        <dc:format>image/svg+xml</dc:format>
        <dc:type
           rdf:resource="http://purl.org/dc/dcmitype/StillImage" />
        <dc:title></dc:title>
      </cc:Work>
    </rdf:RDF>
  </metadata>
  <defs
     id="defs6">
    <inkscape:perspective
       sodipodi:type="inkscape:persp3d"
       inkscape:vp_x="0 : 0.5 : 1"
       inkscape:vp_y="0 : 1000 : 0"
       inkscape:vp_z="1 : 0.5 : 1"
       inkscape:persp3d-origin="0.5 : 0.33333333 : 1"
       id="perspective10" />
    <inkscape:perspective
       id="perspective3635"
       inkscape:persp3d-origin="0.5 : 0.33333333 : 1"
       inkscape:vp_z="1 : 0.5 : 1"
       inkscape:vp_y="0 : 1000 : 0"
       inkscape:vp_x="0 : 0.5 : 1"
       sodipodi:type="inkscape:persp3d" />
    <inkscape:perspective
       id="perspective3635-5"
       inkscape:persp3d-origin="0.5 : 0.33333333 : 1"
       inkscape:vp_z="1 : 0.5 : 1"
       inkscape:vp_y="0 : 1000 : 0"
       inkscape:vp_x="0 : 0.5 : 1"
       sodipodi:type="inkscape:persp3d" />
    <inkscape:perspective
       id="perspective3635-8"
       inkscape:persp3d-origin="0.5 : 0.33333333 : 1"
       inkscape:vp_z="1 : 0.5 : 1"
       inkscape:vp_y="0 : 1000 : 0"
       inkscape:vp_x="0 : 0.5 : 1"
       sodipodi:type="inkscape:persp3d" />
  </defs>
  <sodipodi:namedview
     pagecolor="#ffffff"
     bordercolor="#666666"
     borderopacity="1"
     objecttolerance="10"
     gridtolerance="10"
     guidetolerance="10"
     inkscape:pageopacity="0"
     inkscape:pageshadow="2"
     inkscape:window-width="1680"
     inkscape:window-height="996"
     id="namedview4"
     showgrid="false"
     inkscape:zoom="1.534503"
     inkscape:cx="36.997798"
     inkscape:cy="219.74627"
     inkscape:window-x="0"
     inkscape:window-y="0"
     inkscape:window-maximized="1"
     inkscape:current-layer="svg2" />
  <g
     id="g2821"
     transform="matrix(-0.52728286,-0.84968982,0.84968982,-0.52728286,113.36172,253.25183)">
    <path
       id="path2818"
       d="m 177.50138,29.390385 c -1.47477,-0.0067 -1.69336,1.030989 -3.4814,7.602496 -1.0008,3.678182 -2.2341,6.498682 -2.84171,6.495336 -0.96323,-0.0053 -12.93684,-2.487466 -15.02047,-3.112349 -1.40732,-0.422056 -5.63636,-1.59495 -9.39855,-2.607976 -3.7622,-1.013025 -8.4205,-2.336511 -10.3458,-2.940124 -2.62243,-0.822176 -3.84143,-1.014081 -4.84689,-0.787313 -0.73817,0.166485 -6.97432,3.181216 -13.8641,6.704466 C 110.81268,44.268172 97.827712,50.899286 88.842496,55.482446 69.167997,65.517977 42.576164,80.431474 22.117677,92.904441 10.37033,100.06647 8.5238634,101.5732 6.2360878,105.88281 c -0.9022573,1.69964 -1.0401789,2.42498 -1.0210472,5.31437 0.02669,4.03275 1.1155288,7.52033 5.0560284,16.13992 4.33955,9.4925 19.056731,37.02847 26.608736,49.79758 1.792713,3.03116 3.836847,6.53164 4.551657,7.77472 2.425638,4.21827 4.237407,6.68647 5.449685,7.43028 1.917282,1.17638 5.121313,2.26092 7.799325,2.64488 1.358336,0.19475 2.700851,0.37923 2.989331,0.40596 0.852396,0.079 5.654863,-2.1555 14.048625,-6.54455 32.121422,-16.7961 102.925632,-56.73675 110.851282,-62.52991 3.26398,-2.38578 5.51965,-7.63087 11.03469,-25.74761 1.94433,-6.387085 3.80983,-12.347371 4.1457,-13.249014 l 0.60278,-1.636136 3.80125,-0.258337 c 11.50246,-0.778004 19.68417,-5.59847 25.08332,-14.799034 -5.60985,4.544275 -12.74974,7.270348 -20.53166,7.270348 -6.61061,0 -12.75809,-1.974226 -17.89908,-5.351271 -3.27638,2.154211 -8.78337,0.06942 -10.65334,-4.047284 -0.84305,-1.855963 -0.93948,-5.046982 -0.30754,-7.983851 -2.41683,-4.557815 -3.78895,-9.748139 -3.78895,-15.2665 0,-5.735716 1.47458,-11.135731 4.07189,-15.820081 -0.22524,-0.02424 -0.44571,-0.03608 -0.62739,-0.03691 z m -51.82737,27.568274 c 0.284,-0.0053 0.55754,0.01078 0.81191,0.03691 5.86224,0.602079 8.4482,4.17623 23.97616,33.15328 8.10214,15.119571 10.85126,21.905731 10.23508,25.255531 -0.67525,3.67088 -8.25524,8.98603 -36.81921,25.79682 -22.14709,13.03426 -50.1631,28.90508 -57.609208,32.64891 -2.587293,1.30087 -3.63229,1.6098 -5.929455,1.73455 -1.536277,0.0834 -3.413582,-0.0398 -4.170301,-0.27063 -2.366101,-0.72182 -6.49284,-5.41954 -10.161265,-11.58827 -3.609647,-6.0699 -18.611737,-35.64608 -20.519358,-40.44823 -1.383857,-3.48365 -1.588499,-6.62978 -0.578183,-8.75886 2.656931,-5.59908 14.716173,-13.1612 64.891855,-40.706577 C 113.4311,60.840242 121.41388,57.038132 125.67401,56.958659 z"
       style="fill:#606060;fill-opacity:1;stroke:none" />
    <path
       transform="matrix(0.30150539,0,0,0.30150539,286.73101,56.287295)"
       d="m -143.13125,-25.805084 c 0,68.204832 -54.75221,123.495773 -122.29249,123.495773 -67.54027,0 -122.29248,-55.290941 -122.29248,-123.495773 0,-68.204832 54.75221,-123.495776 122.29248,-123.495776 67.54028,0 122.29249,55.290944 122.29249,123.495776 z"
       sodipodi:ry="123.49577"
       sodipodi:rx="122.29249"
       sodipodi:cy="-25.805084"
       sodipodi:cx="-265.42374"
       id="path3609"
       style="fill:none;stroke:#606060;stroke-width:47.82941818;stroke-miterlimit:4;stroke-opacity:1;stroke-dasharray:none"
       sodipodi:type="arc" />
    <g
       transform="matrix(0.39364704,0.00276534,-0.00276534,0.39364704,328.91598,71.563318)"
       id="g3667"
       style="stroke:#606060;stroke-opacity:1">
      <rect
         style="fill:none;stroke:#606060;stroke-width:15.74772453;stroke-miterlimit:4;stroke-opacity:1;stroke-dasharray:none"
         id="rect3611"
         width="216.36911"
         height="1.7410095"
         x="-682.83728"
         y="-257.08939"
         rx="70.901421"
         ry="1.7410095"
         transform="matrix(0.8660254,-0.5,0.5,0.8660254,0,0)" />
      <rect
         style="fill:none;stroke:#606060;stroke-width:15.74772453;stroke-miterlimit:4;stroke-opacity:1;stroke-dasharray:none"
         id="rect3611-8"
         width="216.36911"
         height="1.7410095"
         x="-682.87927"
         y="-221.99551"
         rx="70.901421"
         ry="1.7410095"
         transform="matrix(0.8660254,-0.5,0.5,0.8660254,0,0)" />
      <rect
         style="fill:none;stroke:#606060;stroke-width:15.74772453;stroke-miterlimit:4;stroke-opacity:1;stroke-dasharray:none"
         id="rect3611-80"
         width="216.36911"
         height="1.7410095"
         x="-682.83081"
         y="-181.52858"
         rx="70.901421"
         ry="1.7410095"
         transform="matrix(0.8660254,-0.5,0.5,0.8660254,0,0)" />
      <rect
         style="fill:none;stroke:#606060;stroke-width:15.74772453;stroke-miterlimit:4;stroke-opacity:1;stroke-dasharray:none"
         id="rect3611-6"
         width="216.36911"
         height="1.7410095"
         x="-681.86078"
         y="-142.65791"
         rx="70.901421"
         ry="1.7410095"
         transform="matrix(0.8660254,-0.5,0.5,0.8660254,0,0)" />
    </g>
  </g>
</svg>
