<?xml version="1.0" encoding="UTF-8" standalone="no"?>
<!-- Created with Inkscape (http://www.inkscape.org/) -->

<svg
   xmlns:dc="http://purl.org/dc/elements/1.1/"
   xmlns:cc="http://creativecommons.org/ns#"
   xmlns:rdf="http://www.w3.org/1999/02/22-rdf-syntax-ns#"
   xmlns:svg="http://www.w3.org/2000/svg"
   xmlns="http://www.w3.org/2000/svg"
   xmlns:sodipodi="http://sodipodi.sourceforge.net/DTD/sodipodi-0.dtd"
   xmlns:inkscape="http://www.inkscape.org/namespaces/inkscape"
   width="256"
   height="256"
   id="svg2846"
   version="1.1"
   inkscape:version="0.47pre4 r22446"
   sodipodi:docname="play_edit22.svg"
   inkscape:export-filename="/home/zeltak/ThemeDB/2)PNG Database/$Workshop/Gmpc/bar/png/play.png"
   inkscape:export-xdpi="120"
   inkscape:export-ydpi="120">
  <defs
     id="defs2848">
    <inkscape:perspective
       sodipodi:type="inkscape:persp3d"
       inkscape:vp_x="0 : 526.18109 : 1"
       inkscape:vp_y="0 : 1000 : 0"
       inkscape:vp_z="744.09448 : 526.18109 : 1"
       inkscape:persp3d-origin="372.04724 : 350.78739 : 1"
       id="perspective2854" />
    <inkscape:perspective
       id="perspective2839"
       inkscape:persp3d-origin="0.5 : 0.33333333 : 1"
       inkscape:vp_z="1 : 0.5 : 1"
       inkscape:vp_y="0 : 1000 : 0"
       inkscape:vp_x="0 : 0.5 : 1"
       sodipodi:type="inkscape:persp3d" />
    <inkscape:perspective
       id="perspective2865"
       inkscape:persp3d-origin="0.5 : 0.33333333 : 1"
       inkscape:vp_z="1 : 0.5 : 1"
       inkscape:vp_y="0 : 1000 : 0"
       inkscape:vp_x="0 : 0.5 : 1"
       sodipodi:type="inkscape:persp3d" />
    <inkscape:perspective
       id="perspective2852"
       inkscape:persp3d-origin="0.5 : 0.33333333 : 1"
       inkscape:vp_z="1 : 0.5 : 1"
       inkscape:vp_y="0 : 1000 : 0"
       inkscape:vp_x="0 : 0.5 : 1"
       sodipodi:type="inkscape:persp3d" />
    <inkscape:perspective
       id="perspective2828"
       inkscape:persp3d-origin="0.5 : 0.33333333 : 1"
       inkscape:vp_z="1 : 0.5 : 1"
       inkscape:vp_y="0 : 1000 : 0"
       inkscape:vp_x="0 : 0.5 : 1"
       sodipodi:type="inkscape:persp3d" />
    <inkscape:perspective
       id="perspective2878"
       inkscape:persp3d-origin="0.5 : 0.33333333 : 1"
       inkscape:vp_z="1 : 0.5 : 1"
       inkscape:vp_y="0 : 1000 : 0"
       inkscape:vp_x="0 : 0.5 : 1"
       sodipodi:type="inkscape:persp3d" />
    <inkscape:perspective
       id="perspective3479"
       inkscape:persp3d-origin="0.5 : 0.33333333 : 1"
       inkscape:vp_z="1 : 0.5 : 1"
       inkscape:vp_y="0 : 1000 : 0"
       inkscape:vp_x="0 : 0.5 : 1"
       sodipodi:type="inkscape:persp3d" />
  </defs>
  <sodipodi:namedview
     id="base"
     pagecolor="#ffffff"
     bordercolor="#666666"
     borderopacity="1.0"
     inkscape:pageopacity="0.0"
     inkscape:pageshadow="2"
     inkscape:zoom="1"
     inkscape:cx="-120.84601"
     inkscape:cy="9.6462382"
     inkscape:document-units="px"
     inkscape:current-layer="layer1"
     showgrid="false"
     inkscape:window-width="1680"
     inkscape:window-height="996"
     inkscape:window-x="0"
     inkscape:window-y="0"
     inkscape:window-maximized="1" />
  <metadata
     id="metadata2851">
    <rdf:RDF>
      <cc:Work
         rdf:about="">
        <dc:format>image/svg+xml</dc:format>
        <dc:type
           rdf:resource="http://purl.org/dc/dcmitype/StillImage" />
        <dc:title />
      </cc:Work>
    </rdf:RDF>
  </metadata>
  <g
     inkscape:label="Layer 1"
     inkscape:groupmode="layer"
     id="layer1"
     transform="translate(-299.3388,-119.48483)">
    <g
       id="g11223"
       transform="matrix(0.15557991,0,0,0.15557991,326.38597,601.6653)"
       style="fill:#606060;fill-opacity:1" />
    <g
       id="g4274"
       transform="matrix(11.834325,0,0,11.834325,-3234.9565,-7086.8363)">
      <path
         id="path2818"
         d="m 306.34505,628.30936 c -0.89684,-0.13186 -1.92528,-0.57857 -2.45511,-1.06642 -0.86652,-0.79787 -0.71352,-1.95514 0.37492,-2.83594 0.83098,-0.67244 1.92293,-0.96031 3.28047,-0.86481 0.29305,0.0206 0.95346,0.0954 1.46757,0.16629 1.09406,0.15076 1.40754,0.16345 1.4759,0.0598 0.13693,-0.20767 0.13011,-3.93204 -0.0192,-10.47701 -0.0267,-1.17251 -0.0439,-2.13712 -0.0381,-2.14362 0.0114,-0.0127 -6.7e-4,-0.0211 0.89412,0.5954 2.23845,1.54164 3.19936,1.94459 5.07017,2.12612 0.59922,0.0581 1.41935,0.10636 2.26844,0.13334 0.32833,0.0104 0.64154,0.0266 0.69608,0.0359 l 0.0991,0.017 -0.1389,0.0958 c -0.56403,0.38891 -0.92934,0.54975 -1.65121,0.72704 -0.67698,0.16626 -1.47109,0.26867 -2.84549,0.36695 -0.98116,0.0702 -1.34699,0.12395 -1.51229,0.22237 -0.28326,0.16861 -0.0207,0.45171 0.5821,0.62754 0.66135,0.19291 1.50375,0.2722 3.33512,0.31391 1.38738,0.0316 1.61457,0.0464 1.61457,0.10482 0,0.1162 -1.00242,0.69574 -1.48604,0.85915 -0.69922,0.23625 -1.40382,0.35234 -2.31458,0.38136 -0.68245,0.0217 -1.23722,-0.0153 -2.22865,-0.14902 -0.37209,-0.0502 -0.6855,-0.0844 -0.69644,-0.0762 -0.0109,0.008 -0.0313,1.77616 -0.0455,3.9287 -0.0278,4.25249 -0.0226,4.15567 -0.25644,4.81814 -0.14404,0.40812 -0.26123,0.5658 -0.69138,0.93036 -0.82483,0.69901 -1.49666,0.99519 -2.50885,1.10599 -0.5369,0.0588 -1.86218,0.0571 -2.27036,-0.003 z"
         style="fill:#606060;fill-opacity:1;stroke:#969696;stroke-width:0.25882176;stroke-miterlimit:4;stroke-opacity:0.93333333;stroke-dasharray:none" />
      <g
         style="fill:#606060;fill-opacity:1"
         id="layer1-2"
         transform="matrix(0.3203126,0,0,0.3203126,299.3388,601.54733)">
        <g
           style="fill:#606060;fill-opacity:1"
           id="Ebene_2"
           transform="matrix(0.111686,0,0,0.1065543,0,32)">
          <path
             style="fill:#606060;fill-opacity:1"
             id="path5640"
             d="M 41.033691,9.1616211 60.586426,34.762695 C 23.724609,63.394043 0,108.13672 0,158.42578 0,221.24023 37.012207,275.40137 90.413086,300.31592 96.984863,285.57178 105.53564,266.39062 113.70996,248.06641 72.289551,231.62988 43,191.19922 43,143.92578 43,110.79297 57.391602,81.025391 80.258789,60.519531 L 98.132324,83.921387 130.51807,0 41.033691,9.1616211 z" />
          <path
             style="fill:#606060;fill-opacity:1"
             id="path5642"
             d="m 245.48389,291.15479 -19.55274,-25.60108 c 36.86182,-28.63135 60.58643,-73.37402 60.58643,-123.66308 0,-62.814458 -37.01221,-116.975591 -90.41309,-141.8901416 C 189.53271,14.744629 180.98193,33.925781 172.80762,52.25 c 41.42041,16.436523 70.70996,56.86719 70.70996,104.14063 0,33.13281 -14.3916,62.90039 -37.25879,83.40625 l -17.87354,-23.40186 -32.38574,83.92139 89.48438,-9.16162 z" />
        </g>
      </g>
    </g>
  </g>
</svg>
