<?xml version="1.0" encoding="UTF-8" standalone="no"?>
<!-- Created with Inkscape (http://www.inkscape.org/) -->

<svg
   xmlns:dc="http://purl.org/dc/elements/1.1/"
   xmlns:cc="http://creativecommons.org/ns#"
   xmlns:rdf="http://www.w3.org/1999/02/22-rdf-syntax-ns#"
   xmlns:svg="http://www.w3.org/2000/svg"
   xmlns="http://www.w3.org/2000/svg"
   xmlns:sodipodi="http://sodipodi.sourceforge.net/DTD/sodipodi-0.dtd"
   xmlns:inkscape="http://www.inkscape.org/namespaces/inkscape"
   width="256"
   height="256"
   id="svg3617"
   version="1.1"
   inkscape:version="0.47pre4 r22446"
   sodipodi:docname="shout.svg">
  <defs
     id="defs3619">
    <inkscape:perspective
       sodipodi:type="inkscape:persp3d"
       inkscape:vp_x="0 : 526.18109 : 1"
       inkscape:vp_y="0 : 1000 : 0"
       inkscape:vp_z="744.09448 : 526.18109 : 1"
       inkscape:persp3d-origin="372.04724 : 350.78739 : 1"
       id="perspective3625" />
    <inkscape:perspective
       id="perspective3612"
       inkscape:persp3d-origin="0.5 : 0.33333333 : 1"
       inkscape:vp_z="1 : 0.5 : 1"
       inkscape:vp_y="0 : 1000 : 0"
       inkscape:vp_x="0 : 0.5 : 1"
       sodipodi:type="inkscape:persp3d" />
    <inkscape:perspective
       id="perspective3644"
       inkscape:persp3d-origin="0.5 : 0.33333333 : 1"
       inkscape:vp_z="1 : 0.5 : 1"
       inkscape:vp_y="0 : 1000 : 0"
       inkscape:vp_x="0 : 0.5 : 1"
       sodipodi:type="inkscape:persp3d" />
    <inkscape:perspective
       id="perspective3666"
       inkscape:persp3d-origin="0.5 : 0.33333333 : 1"
       inkscape:vp_z="1 : 0.5 : 1"
       inkscape:vp_y="0 : 1000 : 0"
       inkscape:vp_x="0 : 0.5 : 1"
       sodipodi:type="inkscape:persp3d" />
    <inkscape:perspective
       id="perspective3688"
       inkscape:persp3d-origin="0.5 : 0.33333333 : 1"
       inkscape:vp_z="1 : 0.5 : 1"
       inkscape:vp_y="0 : 1000 : 0"
       inkscape:vp_x="0 : 0.5 : 1"
       sodipodi:type="inkscape:persp3d" />
    <inkscape:perspective
       id="perspective2836"
       inkscape:persp3d-origin="0.5 : 0.33333333 : 1"
       inkscape:vp_z="1 : 0.5 : 1"
       inkscape:vp_y="0 : 1000 : 0"
       inkscape:vp_x="0 : 0.5 : 1"
       sodipodi:type="inkscape:persp3d" />
  </defs>
  <sodipodi:namedview
     id="base"
     pagecolor="#ffffff"
     bordercolor="#666666"
     borderopacity="1.0"
     inkscape:pageopacity="0.0"
     inkscape:pageshadow="2"
     inkscape:zoom="0.98994949"
     inkscape:cx="220.95174"
     inkscape:cy="156.34508"
     inkscape:document-units="px"
     inkscape:current-layer="layer1"
     showgrid="false"
     inkscape:window-width="1680"
     inkscape:window-height="996"
     inkscape:window-x="0"
     inkscape:window-y="0"
     inkscape:window-maximized="1" />
  <metadata
     id="metadata3622">
    <rdf:RDF>
      <cc:Work
         rdf:about="">
        <dc:format>image/svg+xml</dc:format>
        <dc:type
           rdf:resource="http://purl.org/dc/dcmitype/StillImage" />
        <dc:title></dc:title>
      </cc:Work>
    </rdf:RDF>
  </metadata>
  <g
     inkscape:label="Layer 1"
     inkscape:groupmode="layer"
     id="layer1"
     transform="translate(0,-796.36218)">
    <path
       sodipodi:type="arc"
       style="color:#000000;fill:#606060;fill-opacity:1;fill-rule:evenodd;stroke:none;stroke-width:2;marker:none;visibility:visible;display:inline;overflow:visible;enable-background:accumulate"
       id="path3248"
       sodipodi:cx="4"
       sodipodi:cy="12"
       sodipodi:rx="2"
       sodipodi:ry="2"
       d="m 6,12 a 2,2 0 1 1 -4,0 2,2 0 1 1 4,0 z"
       transform="matrix(13.587163,-12.176395,12.176395,13.587163,-75.495852,872.45318)" />
    <g
       id="g2820"
       transform="matrix(0.54883087,-0.01779907,0.01779907,0.54883087,-136.73057,849.49645)"
       style="fill:#666666">
      <path
         style="fill:#666666"
         d="m 453.08695,170.89593 c -2.16541,-2.68273 -11.23593,-21.8245 -11.23593,-23.71151 0,-4.63251 14.83798,-9.03849 30.43883,-9.03849 16.16645,0 30.61895,4.48328 31.37492,9.73274 0.17256,1.19827 -2.22844,7.14861 -5.33555,13.22297 -6.14146,12.00647 -6.45316,12.22988 -13.10608,9.39341 -5.14037,-2.19159 -17.26544,-2.20613 -24.30362,-0.0291 -6.50059,2.01071 -6.55432,2.01366 -7.83257,0.43003 z m -23.64852,-46 c -4.11422,-6.34604 -10.72751,-21.73322 -10.13844,-23.58919 0.74091,-2.334411 11.18789,-6.987221 22.61873,-10.073771 23.3096,-6.29407 49.94449,-4.89541 72.49607,3.80692 9.33093,3.60067 12.45091,5.592161 12.39659,7.912741 -0.0218,0.93132 -2.6093,6.6433 -5.75,12.6933 -6.63074,12.77294 -5.85023,12.46219 -19.21036,7.64827 -19.95937,-7.19177 -41.29663,-6.71638 -61.76052,1.37602 -7.69471,3.04286 -8.81035,3.0665 -10.65207,0.22571 z m -27.1361,-53.847101 c -7.44153,-14.83798 -7.34618,-15.37523 3.54869,-19.99505 12.55372,-5.32324 22.51779,-8.55243 34.13782,-11.06353 13.95868,-3.01647 48.31255,-3.3139 62.36218,-0.53991 17.54505,3.46412 45.576,13.68766 46.77958,17.0616 0.68901,1.93146 -1.12513,6.77117 -6.04773,16.13399 -5.43831,10.34369 -6.52076,10.90268 -13.89921,7.17772 -7.33915,-3.70512 -23.21792,-8.49118 -34.0958,-10.2769 -7.37541,-1.21075 -13.85977,-1.47306 -26.73684,-1.08158 -19.48225,0.59229 -30.11,2.75261 -47.37014,9.62902 -5.59353,2.22846 -10.83225,4.05174 -11.6416,4.05174 -0.87265,0 -3.7366,-4.51637 -7.03695,-11.0971 z m -17.8427,-36.1529 c -3.936,-6.160706 -10.85897,-21.65518 -10.31221,-23.080018 1.60141,-4.173201 31.11194,-15.458372 52.32727,-20.010557 39.80882,-8.541804 77.87609,-6.42984 115.87633,6.428793 6.6,2.23332702 15.825,5.939612 20.5,8.236189 8.32726,4.090736 8.49809,4.247247 8.40581,7.701493 -0.12865,4.815854 -9.90348,22.9741 -12.36727,22.9741 -0.98387,0 -5.14058,-1.52743 -9.23713,-3.39429 -18.60248,-8.477423 -39.26836,-13.711669 -62.12641,-15.735354 -29.33274,-2.596908 -62.7074,3.070411 -89.80707,15.250054 -10.02628,4.5062 -11.31991,4.66519 -13.25932,1.62959 z m -22.37209,-44 c -2.28008,-2.82642 -10.1398,-19.682221 -10.42694,-22.36139 -0.28795,-2.686837 0.21337,-3.147569 7.17704,-6.595914 23.12295,-11.450276 51.90284,-19.785469 80.47659,-23.307528 15.30214,-1.886172 52.02872,-2.214632 65.03679,-0.581649 24.72748,3.104193 55.20699,11.519392 76.5,21.121161 11.74537,5.296401 14,6.736524 14,8.942365 0,0.955363 -2.46205,6.753609 -5.47123,12.88499 -4.68566,9.547324 -5.81334,11.147965 -7.85392,11.147965 -1.31049,0 -6.61094,-1.970464 -11.77878,-4.37881 -18.05803,-8.415502 -42.97229,-15.586061 -65.39607,-18.821605 -13.93172,-2.010217 -52.39278,-1.685989 -66,0.556382 -22.78597,3.754965 -42.29751,9.442936 -60.93255,17.762956 -11.51974,5.143242 -13.69538,5.658534 -15.33093,3.631077 z"
         id="path2828" />
      <path
         style="fill:#666666"
         d="m 485.35102,169.04299 c -6.19069,-2.24583 -17.40647,-2.43573 -24.09107,-0.40788 -2.69991,0.81904 -5.46733,1.49404 -6.14981,1.5 -1.47167,0.0128 -11.25912,-19.06405 -11.25912,-21.94533 0,-6.4958 27.41024,-10.54346 44.52314,-6.57472 6.06507,1.40659 14.47686,4.93231 14.47686,6.06785 0,1.03244 -10.97388,22.32662 -11.71921,22.74045 -0.42944,0.23843 -3.03079,-0.38274 -5.78079,-1.38037 z M 460.82365,144.4932 c 6.35381,-2.30807 6.40771,-2.35677 2.02737,-1.83147 -2.475,0.29681 -7.33182,1.4703 -10.79293,2.60774 -5.12296,1.6836 -6.08032,2.32426 -5.14941,3.44594 0.96641,1.16445 1.62705,1.12781 4.26555,-0.23662 1.71712,-0.88796 6.05936,-2.68147 9.64942,-3.98559 z m 46.08686,-21.06423 c -6.44869,-2.85783 -18.97049,-5.892 -28.123,-6.81453 -9.54497,-0.96208 -23.86852,1.07925 -35.59197,5.07241 -5.58551,1.90249 -10.6133,3.45908 -11.17286,3.45908 -0.55956,0 -3.30794,-4.79507 -6.1075,-10.65571 -6.28619,-13.15957 -6.10242,-13.69393 6.24609,-18.162141 18.23641,-6.59871 37.50412,-8.56871 56.45204,-5.77188 18.17313,2.68248 36.23771,9.03562 36.23771,12.744461 0,2.59081 -9.58243,21.47709 -11.1948,22.06414 -0.71786,0.26136 -3.75343,-0.60976 -6.74571,-1.93583 z m -75.88055,-20.87371 c 2.81185,-1.42488 9.65939,-4.140571 15.21676,-6.034881 9.58109,-3.26586 9.8195,-3.41322 4.6043,-2.84582 -5.87474,0.63916 -22.81863,5.88705 -25.61906,7.934771 -0.92757,0.67826 -1.36618,1.75146 -0.97469,2.3849 0.9449,1.52889 0.89495,1.5395 6.77269,-1.43897 z m 29.07106,-10.071611 c -0.6875,-0.27741 -1.8125,-0.27741 -2.5,0 -0.6875,0.27741 -0.125,0.50439 1.25,0.50439 1.375,0 1.9375,-0.22698 1.25,-0.50439 z m 67.3527,-14.91408 c -21.55341,-9.60075 -47.56529,-13.32204 -72.1027,-10.3151 -11.53306,1.41332 -20.77749,3.79579 -32.57244,8.39454 -14.62049,5.70039 -14.32743,5.71682 -16.81919,-0.943 -2.62012,-7.00289 -2.61729,-7.32042 0.0443,-4.96507 l 2.15267,1.90499 -0.6286,-3 c -0.34573,-1.65 -0.90902,-3.98232 -1.25176,-5.18294 -0.53216,-1.86413 0.15805,-2.57658 4.72592,-4.87825 2.942,-1.48242 6.56919,-3.55584 8.06042,-4.60761 3.47401,-2.45024 11.46132,-5.26527 25.28868,-8.91269 8.68348,-2.29056 9.84173,-2.77965 5.49999,-2.32241 -5.91103,0.62249 -21.29255,3.76405 -24.38644,4.98074 -1.35559,0.53309 -1.75937,0.3606 -1.43484,-0.61297 0.50817,-1.52451 2.32797,-2.11843 15.82129,-5.16356 13.15986,-2.96987 47.49672,-3.21691 62.38371,-0.44882 17.89837,3.32803 45.61628,13.23186 45.61628,16.29905 0,1.88085 -10.82852,23.35689 -11.75835,23.32017 -0.40791,-0.0161 -4.29544,-1.61229 -8.63895,-3.54707 z m 20.11192,-46.03178 c -21.49875,-9.681168 -42.40512,-14.323901 -68.1194,-15.127454 -32.58441,-1.018239 -57.05767,3.397084 -82.90983,14.958104 -4.84804,2.16803 -9.46054,3.69401 -10.25,3.39107 -1.68692,-0.64733 -1.94746,-3.61358 -0.3174,-3.61358 0.61489,0 2.577,-1.28103 4.36024,-2.846736 3.03728,-2.666768 3.12465,-2.92018 1.38201,-4.008474 -2.49317,-1.55701 -2.54326,-8.216688 -0.0786,-10.447194 5.25453,-4.755277 31.51098,-14.08911898 49.71834,-17.674253 13.06503,-2.572578 17.5,-3.999472 17.5,-5.630394 0,-4.833528 41.85648,-1.657226 68.95313,5.232546 13.95277,3.54772402 36.69757,12.057081 41.03498,15.352143 l 2.48811,1.890175 -4.48811,9.21791 c -4.49165,9.225177 -7.53894,14.002737 -8.81069,13.813447 -0.37258,-0.0554 -5.08084,-2.08374 -10.4628,-4.50731 z m 23.28538,-44.813246 c -28.1597,-12.995253 -58.55119,-19.926191 -93,-21.209137 -18.7435,-0.698047 -32.92225,0.45335 -52.5,4.263302 -14.98389,2.915961 -38.01305,10.265776 -50.88984,16.241628 -4.88942,2.269076 -9.45377,4.125593 -10.14301,4.125593 -1.07341,0 -3.02053,-2.993265 -2.24068,-3.444548 3.392,-1.962888 14.53284,-7.314525 22.15615,-10.64298 8.56774,-3.740806 9.59887,-4.441512 7.75,-5.266501 -1.75571,-0.783422 -2.13262,-1.814532 -2.13262,-5.834323 0,-4.869701 0.0127,-4.888207 4.75,-6.939244 22.08702,-9.562616 47.26162,-14.25009 90.75,-16.897515 l 20,-1.217532 15,2.745107 c 23.91662,4.376914 43.73169,10.516006 63.75,19.750995 7.00147,3.229968 8.74237,4.457249 8.71181,6.141576 -0.0453,2.496775 -10.01591,21.885895 -11.46181,22.288932 -0.55,0.153311 -5.275,-1.694099 -10.5,-4.105353 z"
         id="path2826" />
      <path
         style="fill:#666666"
         d="m 453.85102,168.47467 c 0,-0.36919 0.73551,-1.48399 1.63447,-2.47732 1.5223,-1.68213 1.44199,-2.17369 -1.17045,-7.16338 -1.5427,-2.94652 -2.53419,-6.0628 -2.20331,-6.92507 1.49074,-3.8848 21.58901,-8.47944 32.23929,-7.37019 9.00118,0.93749 16.5,2.90145 16.5,4.32138 0,2.74256 -9.49862,20.28537 -10.97569,20.27078 -0.83837,-0.008 -3.32431,-0.66353 -5.52431,-1.4561 -5.29381,-1.90716 -18.13161,-1.92292 -23.5,-0.0288 -4.57442,1.61395 -7,1.90112 -7,0.82874 z m -22.40171,-45.16971 c -0.58094,-0.93999 3.10584,-3.88901 8.40171,-6.72044 l 3.5,-1.87128 -3.5,-0.53365 c -3.36619,-0.51326 -3.5115,-0.71156 -3.80084,-5.18699 l -0.30084,-4.65332 5.49037,-2.59736 c 19.09721,-9.034431 54.22022,-10.016831 74.07914,-2.072021 3.404,1.361821 6.71628,2.476031 7.36063,2.476031 2.21003,0 1.13346,3.51195 -3.93865,12.84853 -5.77639,10.63299 -4.10788,10.14957 -18.11988,5.2499 -10.38775,-3.63235 -24.59255,-5.55918 -34.26993,-4.6486 -8.87398,0.83499 -21.58302,3.79165 -27.8329,6.47511 -5.35469,2.29909 -6.30777,2.46548 -7.06881,1.23409 z m 95.90171,-46.856181 c -23.10382,-9.95095 -50.24792,-13.51467 -74.77687,-9.81737 -13.16858,1.98493 -20.30837,3.90422 -32.49383,8.73487 -10.46352,4.14802 -13.40715,4.41525 -9.12096,0.828 2.26821,-1.89833 17.76152,-8.38767 26.39166,-11.05409 5.6475,-1.74488 6.19249,-2.64177 2.0747,-3.41427 -3.51558,-0.65953 -3.5747,-0.75076 -3.5747,-5.51672 0,-4.68515 0.12731,-4.89705 3.83281,-6.3797 6.68857,-2.67623 19.25083,-4.82539 32.66719,-5.58871 19.88222,-1.13119 38.57127,0.93182 55.5,6.12645 6.7171,2.06116 19,7.43742 19,8.31636 0,1.01861 -9.96977,20.32448 -10.72029,20.7592 -0.42884,0.2484 -4.37971,-1.09891 -8.77971,-2.99402 z m 22.5,-44.98757 C 534.15168,24.112155 513.86171,18.477012 494.50104,16.08883 c -9.58522,-1.182358 -43.04815,-0.748024 -51.90002,0.673638 -4.72835,0.759402 -4.84383,-0.712529 -0.25,-3.186472 1.925,-1.036681 3.5,-2.64173 3.5,-3.566775 0,-3.238129 8.31576,-14.21602 11.5,-15.181498 5.66297,-1.717043 43.96575,-1.31029 56.08482,0.595588 19.15801,3.012839 39.78941,9.215089 52.09137,15.659801 3.87348,2.029226 4.1072,2.382617 3.22438,4.875314 -1.60205,4.523504 -9.36224,18.513493 -10.41227,18.771133 -0.54356,0.13337 -4.3633,-1.33739 -8.4883,-3.26835 z m 21,-45.735645 c -12.77603,-5.897308 -27.98382,-11.117671 -42.5,-14.588937 -12.68433,-3.033213 -31.72842,-5.981498 -38.78438,-6.004353 -2.31859,-0.0075 -5.22812,-0.284994 -6.46562,-0.616631 -2.40303,-0.643988 -3.1064,-2.369714 -0.96584,-2.369714 0.70629,0 3.66824,-2.414062 6.58211,-5.364583 4.60701,-4.66496 5.25463,-5.806092 4.96583,-8.75 l -0.3321,-3.385417 12.5,0.07335 c 15.76645,0.09252 34.55728,3.658204 55,10.436606 16.48708,5.46679 30.92965,11.882465 30.97162,13.758209 0.0392,1.753381 -9.8156,21.235976 -10.73074,21.214209 -0.40748,-0.00969 -5.01588,-1.990927 -10.24088,-4.402743 z"
         id="path2824" />
      <path
         style="fill:#666666"
         d="m 487.85102,167.75292 c 0,-0.21616 0.675,-0.65203 1.5,-0.96862 0.825,-0.31658 1.5,-0.13972 1.5,0.39301 0,0.53274 -0.675,0.96862 -1.5,0.96862 -0.825,0 -1.5,-0.17686 -1.5,-0.39301 z m 4.98705,-6.07293 c 1.72276,-4.5312 5.14659,-10.73375 5.64819,-10.23216 0.27264,0.27265 -0.89023,3.24125 -2.58416,6.59691 -3.11943,6.17955 -4.78077,8.15061 -3.06403,3.63525 z m 15.51295,-39.65125 c -5.88187,-2.76021 -16.16049,-5.78734 -23,-6.77366 -4.25587,-0.61374 -4.98259,-0.89868 -2.5,-0.9802 4.58414,-0.15054 18.96203,3.32288 24.16961,5.83891 2.25632,1.09013 4.4893,1.74295 4.96218,1.45069 0.47287,-0.29225 2.35942,-3.76849 4.19232,-7.72496 2.8296,-6.10796 6.67589,-11.46256 6.67589,-9.29384 0,1.03752 -7.70773,15.94433 -9.16759,17.7302 -1.22714,1.50117 -1.64845,1.48164 -5.33241,-0.24714 z m 21,-45.422071 c -8.50484,-4.01978 -25.69495,-9.28487 -35.57352,-10.89568 l -9.42648,-1.53709 7.58062,0.45894 c 9.213,0.55777 35.36797,7.04336 39.16256,9.71104 2.85875,2.00978 4.75682,1.70773 4.75682,-0.75697 0,-0.96002 -1.08832,-1.44098 -3.26068,-1.44098 -2.20632,0 -5.43986,-1.46191 -10,-4.52106 l -6.73932,-4.52107 0,-4.95988 c 0,-4.44752 0.2565,-5.02426 2.48305,-5.58309 3.42039,-0.85846 16.2826,2.14436 20.52663,4.79217 1.91967,1.19766 4.27782,2.06274 5.24032,1.92239 0.9625,-0.14035 1.74032,0.11061 1.72848,0.55768 -0.0424,1.60341 -9.49981,18.65612 -10.47848,18.89388 -0.55,0.13362 -3.25,-0.8205 -6,-2.12028 z m 20,-45.9837 c -17.6956,-8.531229 -44.20669,-15.122822 -66.5,-16.534248 l -12.5,-0.791395 14.5,0.376421 c 9.43303,0.244883 19.5479,1.256716 28.94543,2.895534 7.94499,1.385512 14.60483,2.359724 14.79964,2.164916 0.1948,-0.194808 -2.48064,-1.907276 -5.94544,-3.805485 l -6.29963,-3.451289 -0.30115,-5.133856 C 515.76327,1.45787 515.88363,1.175849 518.53983,0.50918402 525.34348,-1.198423 550.13574,5.092392 562.62738,11.696006 l 6.27636,3.317954 -4.88469,9.315985 c -2.68659,5.123794 -5.51095,9.395144 -6.27637,9.491894 -0.76541,0.0968 -4.54166,-1.34274 -8.39166,-3.19887 z m 20,-46.103034 c -20.88838,-9.432465 -47.3243,-16.77144 -69.5,-19.294154 -5.225,-0.594398 -10.85,-1.238102 -12.5,-1.430455 -1.65,-0.192353 -0.075,-0.399366 3.5,-0.460028 3.575,-0.06066 13.47351,0.735902 21.99669,1.770144 8.52318,1.034242 15.66553,1.711598 15.8719,1.505235 0.20636,-0.206362 -2.13591,-1.564158 -5.20504,-3.017325 -7.08907,-3.356515 -7.85466,-4.342195 -7.47466,-9.623518 l 0.31111,-4.323905 7.13894,-0.291568 c 12.90793,-0.527184 39.25738,6.282379 55.99963,14.472144 10.30298,5.039881 11.36143,5.652562 11.36143,6.576535 0,2.033798 -9.17005,18.736216 -10.26004,18.687718 -0.68198,-0.03034 -5.73996,-2.087214 -11.23996,-4.570823 z"
         id="path2822" />
    </g>
  </g>
</svg>
