<?xml version="1.0" encoding="UTF-8" standalone="no"?>
<!-- Created with Inkscape (http://www.inkscape.org/) -->

<svg
   xmlns:dc="http://purl.org/dc/elements/1.1/"
   xmlns:cc="http://creativecommons.org/ns#"
   xmlns:rdf="http://www.w3.org/1999/02/22-rdf-syntax-ns#"
   xmlns:svg="http://www.w3.org/2000/svg"
   xmlns="http://www.w3.org/2000/svg"
   xmlns:sodipodi="http://sodipodi.sourceforge.net/DTD/sodipodi-0.dtd"
   xmlns:inkscape="http://www.inkscape.org/namespaces/inkscape"
   id="svg2"
   version="1.1"
   inkscape:version="0.47 r22583"
   width="116.22461"
   height="175.43025"
   sodipodi:docname="gmpc-database.svg"
   inkscape:export-filename="/home/zeltak/ThemeDB/Workshop/Gmpc/Humanity Icon theme/png/db tango/Database.png"
   inkscape:export-xdpi="479.94"
   inkscape:export-ydpi="479.94">
  <metadata
     id="metadata8">
    <rdf:RDF>
      <cc:Work
         rdf:about="">
        <dc:format>image/svg+xml</dc:format>
        <dc:type
           rdf:resource="http://purl.org/dc/dcmitype/StillImage" />
        <dc:title />
      </cc:Work>
    </rdf:RDF>
  </metadata>
  <defs
     id="defs6">
    <inkscape:perspective
       sodipodi:type="inkscape:persp3d"
       inkscape:vp_x="0 : 0.5 : 1"
       inkscape:vp_y="0 : 1000 : 0"
       inkscape:vp_z="1 : 0.5 : 1"
       inkscape:persp3d-origin="0.5 : 0.33333333 : 1"
       id="perspective10" />
    <inkscape:perspective
       id="perspective2854"
       inkscape:persp3d-origin="0.5 : 0.33333333 : 1"
       inkscape:vp_z="1 : 0.5 : 1"
       inkscape:vp_y="0 : 1000 : 0"
       inkscape:vp_x="0 : 0.5 : 1"
       sodipodi:type="inkscape:persp3d" />
    <inkscape:perspective
       id="perspective2886"
       inkscape:persp3d-origin="0.5 : 0.33333333 : 1"
       inkscape:vp_z="1 : 0.5 : 1"
       inkscape:vp_y="0 : 1000 : 0"
       inkscape:vp_x="0 : 0.5 : 1"
       sodipodi:type="inkscape:persp3d" />
    <inkscape:perspective
       id="perspective15777"
       inkscape:persp3d-origin="0.5 : 0.33333333 : 1"
       inkscape:vp_z="1 : 0.5 : 1"
       inkscape:vp_y="0 : 1000 : 0"
       inkscape:vp_x="0 : 0.5 : 1"
       sodipodi:type="inkscape:persp3d" />
  </defs>
  <sodipodi:namedview
     pagecolor="#ffffff"
     bordercolor="#666666"
     borderopacity="1"
     objecttolerance="10"
     gridtolerance="10"
     guidetolerance="10"
     inkscape:pageopacity="0"
     inkscape:pageshadow="2"
     inkscape:window-width="1680"
     inkscape:window-height="994"
     id="namedview4"
     showgrid="false"
     inkscape:zoom="2.6074563"
     inkscape:cx="-17.290229"
     inkscape:cy="70.123172"
     inkscape:window-x="0"
     inkscape:window-y="0"
     inkscape:window-maximized="1"
     inkscape:current-layer="svg2" />
  <path
     style="fill:#aab759;fill-opacity:1"
     d="m 43.573224,173.56127 c -25.83129,-1.44646 -41.0514994,-6.6198 -41.2707394,-14.02793 -0.0595,-2.01038 1.8033797,-12.74064 2.8881797,-16.636 0.25714,-0.92339 1.38932,-0.52601 3.85112,1.3517 4.4005897,3.35649 15.7021997,6.86825 28.8101697,8.9522 5.59186,0.88902 10.36676,1.81613 10.61087,2.06025 0.24412,0.24411 0.3384,3.35261 0.20952,6.90777 -0.22895,6.31524 -0.16953,6.482 2.58327,7.24994 4.4293,1.23563 26.33805,0.80802 31.31761,-0.61124 2.474995,-0.70542 5.962495,-1.96839 7.749995,-2.8066 3.203634,-1.50228 3.250004,-1.62209 3.250004,-8.39754 0,-6.85244 0.0115,-6.88081 3.75,-9.25635 2.0625,-1.31056 4.607237,-3.3412 5.654987,-4.51254 2.64745,-2.95976 3.59305,-2.66606 3.60688,1.12029 0.007,1.7875 0.65292,5.65845 1.43642,8.60212 1.67019,6.27495 0.94415,9.03388 -3.12885,11.88963 -8.692477,6.09465 -35.064786,9.58445 -61.319436,8.1143 z m 0.5,-24.52322 c -15.99196,-1.32319 -31.85184,-5.35819 -33.91464,-8.62839 -0.7296897,-1.1568 -0.7092597,-2.53783 0.068,-4.59702 1.01875,-2.69898 0.83011,-3.21573 -2.2711597,-6.2216 -3.33857,-3.23587 -3.3822,-3.3917 -3.3822,-12.08198 0,-4.9298 0.4205,-8.80384 0.9556,-8.80384 0.52557,0 2.61244,1.12437 4.6374797,2.4986 4.71723,3.2012 14.32381,6.04676 27.99188,8.29146 l 10.83193,1.77893 0.0416,6.96551 0.0416,6.9655 6,0.9137 c 7.64151,1.16368 26.18061,-0.5865 32.999995,-3.11535 l 5,-1.85416 0.291514,-7.10807 0.29151,-7.10808 5.45849,-3.62423 c 3.002167,-1.99333 5.458487,-4.06964 5.458487,-4.61402 0,-0.54438 0.45,-0.98979 1,-0.98979 0.59577,0 1,3.801 1,9.40301 l 0,9.403 -3.63123,2.91308 c -3.584627,2.87569 -3.614307,2.95989 -2.31222,6.56076 1.18112,3.26631 1.12397,3.8632 -0.54658,5.70914 -5.129487,5.66802 -32.651186,9.27658 -56.009966,7.34384 z m -2.27762,-33.39997 c -11.96958,-1.05048 -20.80524,-2.95309 -27.47238,-5.91572 -4.00539,-1.77985 -4.7499997,-2.54231 -4.7499997,-4.86393 0,-1.51426 0.5390197,-3.29222 1.1978097,-3.95102 0.93042,-0.930412 0.37232,-1.953932 -2.4999997,-4.584868 l -3.69781,-3.38706 0,-9.11513 c 0,-5.01332 0.1951,-9.11513 0.43356,-9.11513 0.23845,0 2.60095,1.3304 5.2499997,2.95644 5.18309,3.1815 15.86921,6.46031 26.31644,8.07466 12.9217,1.99671 11.87354,1.24716 12.2059,8.72859 l 0.2941,6.620138 3.5,0.92477 c 6.02758,1.5926 26.62068,0.18058 34.249995,-2.348442 l 6.750004,-2.237536 0,-6.81263 c 0,-6.19451 0.23433,-6.97563 2.58269,-8.6093 1.42048,-0.98818 4.067377,-3.03419 5.882007,-4.54669 1.81463,-1.5125 3.57742,-2.75 3.91732,-2.75 0.33989,0 0.61798,4.01724 0.61798,8.9272 l 0,8.92719 -3.57732,2.94873 c -3.569897,2.94262 -3.574687,2.95749 -2.31084,7.175818 1.20485,4.02146 1.14793,4.31652 -1.170107,6.06502 -7.612804,5.74234 -34.380779,8.93715 -57.719349,6.8889 z M 87.998789,75.468652 c 5.156,-4.47362 4.4213,-6.05636 -3.76599,-8.11294 -23.281405,-5.84811 -64.361565,-3.2536 -71.606045,4.52243 -1.27753,1.37127 -2.06023,1.62525 -2.55275,0.82833 -1.2656997,-2.04794 3.73001,-5.99217 10.06979,-7.95033 9.13955,-2.82292 19.87967,-4.05092 35.42943,-4.05092 22.61647,0 39.792669,3.37838 43.932249,8.641 1.122277,1.42674 1.763557,3.04218 1.425077,3.58986 -0.89313,1.44511 -8.211841,4.42755 -12.857331,5.23948 l -4,0.69911 3.92557,-3.40602 z"
     id="path2842" />
  <path
     id="path2816"
     d="m 43.573224,173.56127 c -25.83129,-1.44646 -41.0514994,-6.6198 -41.2707394,-14.02793 -0.0595,-2.01038 1.8033797,-12.74064 2.8881797,-16.636 0.25714,-0.92339 1.38932,-0.52601 3.85112,1.3517 4.4005897,3.35649 15.7021997,6.86825 28.8101697,8.9522 5.59186,0.88902 10.36676,1.81613 10.61087,2.06025 0.24412,0.24411 0.3384,3.35261 0.20952,6.90777 -0.22895,6.31524 -0.16953,6.482 2.58327,7.24994 4.4293,1.23563 26.33805,0.80802 31.31761,-0.61124 2.474995,-0.70542 5.962495,-1.96839 7.749995,-2.8066 3.203634,-1.50228 3.250004,-1.62209 3.250004,-8.39754 0,-6.85244 0.0115,-6.88081 3.75,-9.25635 2.0625,-1.31056 4.607237,-3.3412 5.654987,-4.51254 2.64745,-2.95976 3.59305,-2.66606 3.60688,1.12029 0.007,1.7875 0.65292,5.65845 1.43642,8.60212 1.67019,6.27495 0.94415,9.03388 -3.12885,11.88963 -8.692477,6.09465 -35.064786,9.58445 -61.319436,8.1143 z m 0.5,-24.52322 c -15.99196,-1.32319 -31.85184,-5.35819 -33.91464,-8.62839 -0.7296897,-1.1568 -0.7092597,-2.53783 0.068,-4.59702 1.01875,-2.69898 0.83011,-3.21573 -2.2711597,-6.2216 -3.33857,-3.23587 -3.3822,-3.3917 -3.3822,-12.08198 0,-4.9298 0.4205,-8.80384 0.9556,-8.80384 0.52557,0 2.61244,1.12437 4.6374797,2.4986 4.71723,3.2012 14.32381,6.04676 27.99188,8.29146 l 10.83193,1.77893 0.0416,6.96551 0.0416,6.9655 6,0.9137 c 7.64151,1.16368 26.18061,-0.5865 32.999995,-3.11535 l 5,-1.85416 0.291514,-7.10807 0.29151,-7.10808 5.45849,-3.62423 c 3.002167,-1.99333 5.458487,-4.06964 5.458487,-4.61402 0,-0.54438 0.45,-0.98979 1,-0.98979 0.59577,0 1,3.801 1,9.40301 l 0,9.403 -3.63123,2.91308 c -3.584627,2.87569 -3.614307,2.95989 -2.31222,6.56076 1.18112,3.26631 1.12397,3.8632 -0.54658,5.70914 -5.129487,5.66802 -32.651186,9.27658 -56.009966,7.34384 z m -2.27762,-33.39997 c -11.96958,-1.05048 -20.80524,-2.95309 -27.47238,-5.91572 -4.00539,-1.77985 -4.7499997,-2.54231 -4.7499997,-4.86393 0,-1.51426 0.5390197,-3.29222 1.1978097,-3.95102 0.93042,-0.930412 0.37232,-1.953932 -2.4999997,-4.584868 l -3.69781,-3.38706 0,-9.11513 c 0,-5.01332 0.1951,-9.11513 0.43356,-9.11513 0.23845,0 2.60095,1.3304 5.2499997,2.95644 5.18309,3.1815 15.86921,6.46031 26.31644,8.07466 12.9217,1.99671 11.87354,1.24716 12.2059,8.72859 l 0.2941,6.620138 3.5,0.92477 c 6.02758,1.5926 26.62068,0.18058 34.249995,-2.348442 l 6.750004,-2.237536 0,-6.81263 c 0,-6.19451 0.23433,-6.97563 2.58269,-8.6093 1.42048,-0.98818 4.067377,-3.03419 5.882007,-4.54669 1.81463,-1.5125 3.57742,-2.75 3.91732,-2.75 0.33989,0 0.61798,4.01724 0.61798,8.9272 l 0,8.92719 -3.57732,2.94873 c -3.569897,2.94262 -3.574687,2.95749 -2.31084,7.175818 1.20485,4.02146 1.14793,4.31652 -1.170107,6.06502 -7.612804,5.74234 -34.380779,8.93715 -57.719349,6.8889 z M 87.998789,75.468652 c 5.156,-4.47362 4.4213,-6.05636 -3.76599,-8.11294 -23.281405,-5.84811 -64.361565,-3.2536 -71.606045,4.52243 -1.27753,1.37127 -2.06023,1.62525 -2.55275,0.82833 -1.2656997,-2.04794 3.73001,-5.99217 10.06979,-7.95033 9.13955,-2.82292 19.87967,-4.05092 35.42943,-4.05092 22.61647,0 39.792669,3.37838 43.932249,8.641 1.122277,1.42674 1.763557,3.04218 1.425077,3.58986 -0.89313,1.44511 -8.211841,4.42755 -12.857331,5.23948 l -4,0.69911 3.92557,-3.40602 z"
     style="fill:none;stroke:#688c35;stroke-width:2.1;stroke-miterlimit:4;stroke-opacity:1;stroke-dasharray:none" />
  <path
     style="fill:#1a1a1a;fill-opacity:1;stroke:#969696;stroke-width:1.26355648;stroke-miterlimit:4;stroke-opacity:0.93333333;stroke-dasharray:none"
     d="m 47.085329,84.814378 c -4.378366,-0.643771 -9.399174,-2.82454 -11.9858,-5.206201 -4.230285,-3.895172 -3.483372,-9.544925 1.830383,-13.844948 4.056815,-3.282816 9.387661,-4.688233 16.015093,-4.221968 1.430657,0.100369 4.654767,0.465826 7.164654,0.811811 5.341143,0.735998 6.871535,0.797963 7.205268,0.292172 C 67.983398,61.6314 67.950114,43.449216 67.221147,11.496941 67.091035,5.7727612 67.006697,1.0635874 67.035359,1.0318869 c 0.0556,-0.06226 -0.0029,-0.10307977 4.365083,2.9066907 10.928005,7.5262244 15.619095,9.4934364 24.752332,10.3796634 2.925377,0.283347 6.929196,0.519292 11.074426,0.650934 1.60288,0.04963 3.13199,0.130103 3.39825,0.175305 l 0.48402,0.08326 -0.67812,0.467477 c -2.7536,1.898695 -4.53701,2.683869 -8.06112,3.549421 -3.304979,0.811688 -7.181793,1.31163 -13.891591,1.791406 -4.789931,0.342887 -6.575939,0.605132 -7.382889,1.085621 -1.382867,0.823152 -0.100879,2.205246 2.841747,3.063634 3.228678,0.941792 7.341268,1.328831 16.281953,1.532473 6.77308,0.154355 7.88223,0.22657 7.88223,0.511579 0,0.567256 -4.8938,3.396544 -7.25478,4.194344 -3.413579,1.153312 -6.853399,1.720079 -11.299672,1.861758 -3.331714,0.105841 -6.040054,-0.075 -10.880158,-0.727511 -1.816544,-0.244769 -3.346592,-0.4118 -3.400019,-0.372111 -0.05512,0.03861 -0.152703,8.671161 -0.22216,19.179764 -0.135612,20.760427 -0.110252,20.287763 -1.251934,23.521903 -0.703199,1.992461 -1.275312,2.762259 -3.375263,4.541979 -4.026815,3.412532 -7.306659,4.858515 -12.248143,5.39942 -2.621125,0.287209 -9.091069,0.278946 -11.083801,-0.01651 z"
     id="path2818-0-9" />
</svg>
