<?xml version="1.0" encoding="UTF-8" standalone="no"?>
<!-- Created with Inkscape (http://www.inkscape.org/) -->

<svg
   xmlns:dc="http://purl.org/dc/elements/1.1/"
   xmlns:cc="http://creativecommons.org/ns#"
   xmlns:rdf="http://www.w3.org/1999/02/22-rdf-syntax-ns#"
   xmlns:svg="http://www.w3.org/2000/svg"
   xmlns="http://www.w3.org/2000/svg"
   xmlns:sodipodi="http://sodipodi.sourceforge.net/DTD/sodipodi-0.dtd"
   xmlns:inkscape="http://www.inkscape.org/namespaces/inkscape"
   width="256"
   height="256"
   id="svg2846"
   version="1.1"
   inkscape:version="0.47 r22583"
   sodipodi:docname="media-playlist.svg"
   inkscape:export-filename="/home/zeltak/ThemeDB/2)PNG Database/$Workshop/Gmpc/bar/png/play.png"
   inkscape:export-xdpi="120"
   inkscape:export-ydpi="120">
  <defs
     id="defs2848">
    <inkscape:perspective
       sodipodi:type="inkscape:persp3d"
       inkscape:vp_x="0 : 526.18109 : 1"
       inkscape:vp_y="0 : 1000 : 0"
       inkscape:vp_z="744.09448 : 526.18109 : 1"
       inkscape:persp3d-origin="372.04724 : 350.78739 : 1"
       id="perspective2854" />
    <inkscape:perspective
       id="perspective2839"
       inkscape:persp3d-origin="0.5 : 0.33333333 : 1"
       inkscape:vp_z="1 : 0.5 : 1"
       inkscape:vp_y="0 : 1000 : 0"
       inkscape:vp_x="0 : 0.5 : 1"
       sodipodi:type="inkscape:persp3d" />
    <inkscape:perspective
       id="perspective2865"
       inkscape:persp3d-origin="0.5 : 0.33333333 : 1"
       inkscape:vp_z="1 : 0.5 : 1"
       inkscape:vp_y="0 : 1000 : 0"
       inkscape:vp_x="0 : 0.5 : 1"
       sodipodi:type="inkscape:persp3d" />
    <inkscape:perspective
       id="perspective2852"
       inkscape:persp3d-origin="0.5 : 0.33333333 : 1"
       inkscape:vp_z="1 : 0.5 : 1"
       inkscape:vp_y="0 : 1000 : 0"
       inkscape:vp_x="0 : 0.5 : 1"
       sodipodi:type="inkscape:persp3d" />
    <inkscape:perspective
       id="perspective2828"
       inkscape:persp3d-origin="0.5 : 0.33333333 : 1"
       inkscape:vp_z="1 : 0.5 : 1"
       inkscape:vp_y="0 : 1000 : 0"
       inkscape:vp_x="0 : 0.5 : 1"
       sodipodi:type="inkscape:persp3d" />
    <inkscape:perspective
       id="perspective2878"
       inkscape:persp3d-origin="0.5 : 0.33333333 : 1"
       inkscape:vp_z="1 : 0.5 : 1"
       inkscape:vp_y="0 : 1000 : 0"
       inkscape:vp_x="0 : 0.5 : 1"
       sodipodi:type="inkscape:persp3d" />
    <inkscape:perspective
       id="perspective3479"
       inkscape:persp3d-origin="0.5 : 0.33333333 : 1"
       inkscape:vp_z="1 : 0.5 : 1"
       inkscape:vp_y="0 : 1000 : 0"
       inkscape:vp_x="0 : 0.5 : 1"
       sodipodi:type="inkscape:persp3d" />
    <inkscape:perspective
       id="perspective3600"
       inkscape:persp3d-origin="0.5 : 0.33333333 : 1"
       inkscape:vp_z="1 : 0.5 : 1"
       inkscape:vp_y="0 : 1000 : 0"
       inkscape:vp_x="0 : 0.5 : 1"
       sodipodi:type="inkscape:persp3d" />
    <inkscape:perspective
       id="perspective3606"
       inkscape:persp3d-origin="0.5 : 0.33333333 : 1"
       inkscape:vp_z="1 : 0.5 : 1"
       inkscape:vp_y="0 : 1000 : 0"
       inkscape:vp_x="0 : 0.5 : 1"
       sodipodi:type="inkscape:persp3d" />
    <inkscape:perspective
       id="perspective3628"
       inkscape:persp3d-origin="0.5 : 0.33333333 : 1"
       inkscape:vp_z="1 : 0.5 : 1"
       inkscape:vp_y="0 : 1000 : 0"
       inkscape:vp_x="0 : 0.5 : 1"
       sodipodi:type="inkscape:persp3d" />
  </defs>
  <sodipodi:namedview
     id="base"
     pagecolor="#ffffff"
     bordercolor="#666666"
     borderopacity="1.0"
     inkscape:pageopacity="0.0"
     inkscape:pageshadow="2"
     inkscape:zoom="2"
     inkscape:cx="51.75"
     inkscape:cy="141.64624"
     inkscape:document-units="px"
     inkscape:current-layer="Ebene_2"
     showgrid="false"
     inkscape:window-width="1680"
     inkscape:window-height="994"
     inkscape:window-x="0"
     inkscape:window-y="0"
     inkscape:window-maximized="1" />
  <metadata
     id="metadata2851">
    <rdf:RDF>
      <cc:Work
         rdf:about="">
        <dc:format>image/svg+xml</dc:format>
        <dc:type
           rdf:resource="http://purl.org/dc/dcmitype/StillImage" />
        <dc:title />
      </cc:Work>
    </rdf:RDF>
  </metadata>
  <g
     inkscape:label="Layer 1"
     inkscape:groupmode="layer"
     id="layer1"
     transform="translate(-299.3388,-119.48483)">
    <g
       id="g11223"
       transform="matrix(0.15557991,0,0,0.15557991,326.38597,601.6653)"
       style="fill:#606060;fill-opacity:1" />
    <g
       id="g4274"
       transform="matrix(11.834325,0,0,11.834325,-3234.9565,-7086.8363)">
      <g
         style="fill:#606060;fill-opacity:1"
         id="layer1-2"
         transform="matrix(0.27806262,0,0,0.27806262,298.9163,600.36433)">
        <g
           style="fill:#606060;fill-opacity:1"
           id="Ebene_2"
           transform="matrix(0.111686,0,0,0.1065543,0,32)">
          <path
             style="fill:#916f7c;fill-opacity:1;stroke:#6c3150;stroke-width:9.91418552000000020;stroke-miterlimit:4;stroke-opacity:1;stroke-dasharray:none"
             id="path5642"
             d="m 497.90502,710.479 -11.84324,-46.8134 c 69.05847,-11.87785 129.49741,-53.78999 160.05901,-119.27583 38.1735,-81.79624 19.21878,-177.83349 -40.4769,-247.08139 -18.17007,14.6703 -41.80998,33.75452 -64.40155,51.98227 48.05836,49.95085 64.53467,122.78585 35.80573,184.34479 -20.13542,43.14517 -58.39431,71.98932 -102.9025,82.93151 l -10.82649,-42.79227 -96.3864,86.96086 130.97234,49.74346 z" />
          <path
             style="fill:#688c35;fill-opacity:1;stroke:#1c4b26;stroke-width:9.91418552000000020;stroke-miterlimit:4;stroke-opacity:1;stroke-dasharray:none"
             id="path5642-0"
             d="M 122.57704,-0.26679167 143.40083,42.96733 C 78.178892,69.558123 27.316094,123.66547 10.335973,194.36039 -10.873339,282.66314 26.620378,372.51541 98.688587,427.32611 113.5713,409.03424 132.93471,385.23821 151.44142,362.50736 94.56639,324.05395 64.075449,256.36507 80.037333,189.90941 91.224625,143.33226 122.96528,106.81832 164.3523,86.464725 L 183.38793,125.98504 260.53264,20.010573 122.57704,-0.26679167 z" />
        </g>
      </g>
      <path
         id="path2818-2"
         d="m 302.87416,630.24492 c -1.09521,-0.16102 -2.35115,-0.70655 -2.99818,-1.30231 -1.05818,-0.97434 -0.87133,-2.38761 0.45785,-3.46324 1.01481,-0.82118 2.34829,-1.17273 4.00611,-1.05611 0.35788,0.0251 1.16437,0.1165 1.7922,0.20307 1.33607,0.18412 1.71888,0.19962 1.80236,0.073 0.16723,-0.2536 0.1589,-4.80179 -0.0235,-12.79449 -0.0326,-1.43187 -0.0536,-2.60985 -0.0466,-2.61779 0.014,-0.0156 -8.5e-4,-0.0257 1.09189,0.72709 2.73359,1.88266 3.90706,2.37475 6.1917,2.59643 0.73176,0.0709 1.7333,0.12988 2.7702,0.16283 0.40096,0.0127 0.78345,0.0325 0.85006,0.0439 l 0.12101,0.0207 -0.16962,0.117 c -0.68878,0.47493 -1.1349,0.67135 -2.01645,0.88785 -0.82673,0.20304 -1.79649,0.3281 -3.4749,0.44812 -1.1982,0.0858 -1.64495,0.15137 -1.84681,0.27156 -0.34592,0.2059 -0.0252,0.55162 0.71086,0.76635 0.80764,0.23558 1.83637,0.33241 4.07284,0.38335 1.69426,0.0385 1.9717,0.0566 1.9717,0.12801 0,0.14189 -1.22415,0.84963 -1.81475,1.04919 -0.85389,0.28851 -1.71433,0.43027 -2.82655,0.4657 -0.83341,0.0265 -1.51089,-0.0187 -2.72163,-0.18197 -0.4544,-0.0612 -0.83712,-0.10304 -0.85048,-0.093 -0.0133,0.0102 -0.0383,2.16905 -0.0557,4.79773 -0.0339,5.19314 -0.0276,5.07488 -0.31316,5.8839 -0.17591,0.4984 -0.31903,0.69095 -0.84432,1.13614 -1.00728,0.85364 -1.82771,1.21533 -3.06381,1.35064 -0.65564,0.0718 -2.27408,0.0698 -2.77255,-0.003 z"
         style="fill:#7590ae;fill-opacity:1;stroke:#314e6c;stroke-width:0.37467283;stroke-miterlimit:4;stroke-opacity:1;stroke-dasharray:none" />
    </g>
  </g>
</svg>
