<?xml version="1.0" encoding="UTF-8" standalone="no"?>
<!-- Created with Inkscape (http://www.inkscape.org/) -->

<svg
   xmlns:dc="http://purl.org/dc/elements/1.1/"
   xmlns:cc="http://creativecommons.org/ns#"
   xmlns:rdf="http://www.w3.org/1999/02/22-rdf-syntax-ns#"
   xmlns:svg="http://www.w3.org/2000/svg"
   xmlns="http://www.w3.org/2000/svg"
   xmlns:xlink="http://www.w3.org/1999/xlink"
   xmlns:sodipodi="http://sodipodi.sourceforge.net/DTD/sodipodi-0.dtd"
   xmlns:inkscape="http://www.inkscape.org/namespaces/inkscape"
   width="256"
   height="256"
   id="svg2"
   sodipodi:version="0.32"
   inkscape:version="0.46+devel r22541"
   version="1.0"
   sodipodi:docname="media-repeat-single.svg"
   inkscape:export-filename="/home/jimmac/src/cvs/gnome/gnome-icon-theme/16x16/actions/go-previous.png"
   inkscape:export-xdpi="90"
   inkscape:export-ydpi="90"
   inkscape:output_extension="org.inkscape.output.svg.inkscape">
  <defs
     id="defs4">
    <inkscape:perspective
       sodipodi:type="inkscape:persp3d"
       inkscape:vp_x="0 : 24 : 1"
       inkscape:vp_y="0 : 1000 : 0"
       inkscape:vp_z="48 : 24 : 1"
       inkscape:persp3d-origin="24 : 16 : 1"
       id="perspective22" />
    <inkscape:perspective
       id="perspective3610"
       inkscape:persp3d-origin="0.5 : 0.33333333 : 1"
       inkscape:vp_z="1 : 0.5 : 1"
       inkscape:vp_y="0 : 1000 : 0"
       inkscape:vp_x="0 : 0.5 : 1"
       sodipodi:type="inkscape:persp3d" />
    <inkscape:perspective
       id="perspective2829"
       inkscape:persp3d-origin="0.5 : 0.33333333 : 1"
       inkscape:vp_z="1 : 0.5 : 1"
       inkscape:vp_y="0 : 1000 : 0"
       inkscape:vp_x="0 : 0.5 : 1"
       sodipodi:type="inkscape:persp3d" />
    <inkscape:perspective
       id="perspective3607"
       inkscape:persp3d-origin="0.5 : 0.33333333 : 1"
       inkscape:vp_z="1 : 0.5 : 1"
       inkscape:vp_y="0 : 1000 : 0"
       inkscape:vp_x="0 : 0.5 : 1"
       sodipodi:type="inkscape:persp3d" />
    <linearGradient
       x1="31.864639"
       y1="17.130236"
       x2="16.14513"
       y2="32.849743"
       id="linearGradient2181"
       xlink:href="#linearGradient7916"
       gradientUnits="userSpaceOnUse"
       gradientTransform="matrix(1.0317991,-1.0287411,1.0317991,1.0287411,-26.552863,23.963668)" />
    <linearGradient
       id="linearGradient7916">
      <stop
         id="stop7918"
         style="stop-color:white;stop-opacity:1"
         offset="0" />
      <stop
         id="stop7920"
         style="stop-color:white;stop-opacity:0.34020618"
         offset="1" />
    </linearGradient>
    <linearGradient
       inkscape:collect="always"
       xlink:href="#linearGradient7916"
       id="linearGradient3736"
       gradientUnits="userSpaceOnUse"
       gradientTransform="matrix(1.0317991,-1.0287411,1.0317991,1.0287411,-26.552863,23.963668)"
       x1="31.864639"
       y1="17.130236"
       x2="16.14513"
       y2="32.849743" />
    <linearGradient
       inkscape:collect="always"
       xlink:href="#linearGradient7916"
       id="linearGradient2839"
       gradientUnits="userSpaceOnUse"
       gradientTransform="matrix(1.0317991,-1.0287411,1.0317991,1.0287411,-26.552863,23.963668)"
       x1="31.864639"
       y1="17.130236"
       x2="16.14513"
       y2="32.849743" />
    <inkscape:perspective
       id="perspective56888"
       inkscape:persp3d-origin="0.5 : 0.33333333 : 1"
       inkscape:vp_z="1 : 0.5 : 1"
       inkscape:vp_y="0 : 1000 : 0"
       inkscape:vp_x="0 : 0.5 : 1"
       sodipodi:type="inkscape:persp3d" />
    <inkscape:perspective
       id="perspective56967"
       inkscape:persp3d-origin="0.5 : 0.33333333 : 1"
       inkscape:vp_z="1 : 0.5 : 1"
       inkscape:vp_y="0 : 1000 : 0"
       inkscape:vp_x="0 : 0.5 : 1"
       sodipodi:type="inkscape:persp3d" />
    <inkscape:perspective
       id="perspective57502"
       inkscape:persp3d-origin="0.5 : 0.33333333 : 1"
       inkscape:vp_z="1 : 0.5 : 1"
       inkscape:vp_y="0 : 1000 : 0"
       inkscape:vp_x="0 : 0.5 : 1"
       sodipodi:type="inkscape:persp3d" />
    <inkscape:perspective
       id="perspective57547"
       inkscape:persp3d-origin="0.5 : 0.33333333 : 1"
       inkscape:vp_z="1 : 0.5 : 1"
       inkscape:vp_y="0 : 1000 : 0"
       inkscape:vp_x="0 : 0.5 : 1"
       sodipodi:type="inkscape:persp3d" />
    <linearGradient
       gradientTransform="matrix(-3.2433397,0,0,-3.2433397,762.71662,98.757675)"
       y2="162.05408"
       x2="192.67097"
       y1="-13.389438"
       x1="24.785648"
       gradientUnits="userSpaceOnUse"
       id="linearGradient24447"
       xlink:href="#linearGradient24470"
       inkscape:collect="always" />
    <linearGradient
       id="linearGradient24470">
      <stop
         id="stop24472"
         style="stop-color:#ffffff;stop-opacity:1"
         offset="0" />
      <stop
         id="stop24474"
         style="stop-color:#ffffff;stop-opacity:0"
         offset="1" />
    </linearGradient>
    <linearGradient
       y2="162.05408"
       x2="192.67097"
       y1="-13.389438"
       x1="24.785648"
       gradientTransform="matrix(-3.2433397,0,0,-3.2433397,762.71662,98.757675)"
       gradientUnits="userSpaceOnUse"
       id="linearGradient57558"
       xlink:href="#linearGradient24470"
       inkscape:collect="always" />
    <inkscape:perspective
       id="perspective57592"
       inkscape:persp3d-origin="0.5 : 0.33333333 : 1"
       inkscape:vp_z="1 : 0.5 : 1"
       inkscape:vp_y="0 : 1000 : 0"
       inkscape:vp_x="0 : 0.5 : 1"
       sodipodi:type="inkscape:persp3d" />
    <clipPath
       clipPathUnits="userSpaceOnUse"
       id="clipPath57616">
      <path
         style="fill:#edd400;fill-opacity:1;stroke:none;overflow:visible"
         d="m 464.87478,78.261518 c 77.33477,-0.597601 153.88824,-34.37075 206.66155,-99.023215 50.25202,-61.56364 70.50836,-144.911983 54.93407,-223.385023 -0.82743,-4.28059 0.2342,-8.86826 2.83792,-12.36523 2.60372,-3.49697 6.7095,-5.84946 11.04763,-6.28397 6.11011,-0.61812 27.23329,-2.82605 46.4203,-4.76366 L 678.22572,-356.14329 589.642,-247.59277 c 19.62407,-1.98534 41.66241,-4.2311 46.92708,-4.76365 3.70768,-0.37318 7.58767,0.60209 10.6422,2.73657 3.05453,2.1345 5.25835,5.41053 6.18262,9.02053 15.69836,60.81514 1.85828,125.5352 -37.80518,174.126804 -66.3564,81.293168 -184.71938,96.123443 -268.48771,34.865902 l -45.71082,55.846255 c 46.64496,35.167179 101.34622,52.928408 155.98437,54.021877 2.49549,0.04994 5.00554,0.01928 7.50022,0 z m -27.26432,-147.571956 115.84804,-19.257329 0,-48.954163 -116.55752,19.15598 0,-303.35362 107.13156,0 0,-45.3054 -279.23128,0 0,45.3054 107.23292,0 0,352.409132 65.57628,0 z M 139.12185,-190.83432 223.24597,-302.93225 c -18.91875,-0.55737 -53.06175,19.11663 -64.05596,-4.35824 -18.17402,-60.12172 -7.03263,-125.47301 30.60902,-175.64711 62.97398,-83.94065 180.66096,-103.48888 266.86605,-45.71082 l 43.27831,-57.77199 c -118.26475,-81.79404 -280.74322,-55.85693 -367.81499,60.20449 -47.690491,63.56862 -64.584853,147.64218 -45.812176,225.41211 1.711413,27.67318 -41.312266,23.26918 -59.393658,25.84536 l 112.199284,84.12413 z"
         id="path57618" />
    </clipPath>
    <linearGradient
       inkscape:collect="always"
       xlink:href="#linearGradient24470"
       id="linearGradient57641"
       gradientUnits="userSpaceOnUse"
       gradientTransform="matrix(-3.2433397,0,0,-3.2433397,762.71662,98.757675)"
       x1="24.785648"
       y1="-13.389438"
       x2="192.67097"
       y2="162.05408" />
  </defs>
  <sodipodi:namedview
     id="base"
     pagecolor="#ffffff"
     bordercolor="#666"
     borderopacity="0.17254902"
     inkscape:pageopacity="0.0"
     inkscape:pageshadow="2"
     inkscape:zoom="3.64"
     inkscape:cx="136.66101"
     inkscape:cy="133.36065"
     inkscape:document-units="px"
     inkscape:current-layer="g2606"
     width="48px"
     height="48px"
     inkscape:showpageshadow="false"
     showgrid="false"
     inkscape:window-width="1920"
     inkscape:window-height="1172"
     inkscape:window-x="0"
     inkscape:window-y="1"
     inkscape:window-maximized="1" />
  <metadata
     id="metadata7">
    <rdf:RDF>
      <cc:Work
         rdf:about="">
        <dc:format>image/svg+xml</dc:format>
        <dc:type
           rdf:resource="http://purl.org/dc/dcmitype/StillImage" />
        <dc:title />
        <dc:date>August 2006</dc:date>
        <dc:creator>
          <cc:Agent>
            <dc:title>Andreas Nilsson</dc:title>
          </cc:Agent>
        </dc:creator>
        <dc:contributor>
          <cc:Agent>
            <dc:title>Jakub Steiner</dc:title>
          </cc:Agent>
        </dc:contributor>
        <dc:source>http://www.gnome.org</dc:source>
        <dc:subject>
          <rdf:Bag>
            <rdf:li>up</rdf:li>
            <rdf:li>arrow</rdf:li>
            <rdf:li>go</rdf:li>
          </rdf:Bag>
        </dc:subject>
        <cc:license
           rdf:resource="http://creativecommons.org/licenses/GPL/2.0/" />
        <dc:description />
      </cc:Work>
      <cc:License
         rdf:about="http://creativecommons.org/licenses/GPL/2.0/">
        <cc:permits
           rdf:resource="http://web.resource.org/cc/Reproduction" />
        <cc:permits
           rdf:resource="http://web.resource.org/cc/Distribution" />
        <cc:requires
           rdf:resource="http://web.resource.org/cc/Notice" />
        <cc:permits
           rdf:resource="http://web.resource.org/cc/DerivativeWorks" />
        <cc:requires
           rdf:resource="http://web.resource.org/cc/ShareAlike" />
        <cc:requires
           rdf:resource="http://web.resource.org/cc/SourceCode" />
      </cc:License>
    </rdf:RDF>
  </metadata>
  <g
     inkscape:label="Layer 1"
     inkscape:groupmode="layer"
     id="layer1"
     transform="translate(0,208)">
    <g
       id="g2424"
       transform="matrix(0.3668174,0.3099156,0.3099156,-0.3668174,-126.45292,64.320666)"
       inkscape:r_cx="true"
       inkscape:r_cy="true"
       style="opacity:0.5;fill:none;stroke:#ffffff;stroke-width:4.12003946;stroke-opacity:1" />
    <g
       style="overflow:visible"
       id="g2518"
       transform="matrix(0.3425824,0,0,0.3425824,2.7618599,1.4330249)">
      <g
         style="fill:#969696;fill-opacity:0.93333333;overflow:visible"
         id="g2606"
         transform="matrix(0.9,0,0,0.9,2.6254053,9.4601793)">
        <g
           transform="scale(1.1040948,0.90571933)"
           style="font-size:602.25756836px;font-style:normal;font-weight:normal;fill-opacity:0.94117647;stroke:#2f4d3f;stroke-width:13.28204441;stroke-miterlimit:4;stroke-opacity:1;font-family:Bitstream Vera Sans"
           id="text2837">
          <path
             d="m 234.1318,-147.20232 97.04345,0 0,-334.94696 -105.57151,21.17312 0,-54.10908 104.98337,-21.17312 59.40236,0 0,389.05604 97.04346,0 0,49.992084 -252.90113,0 0,-49.992084 z"
             style="fill:#73d216;stroke:none"
             id="path56982"
             sodipodi:nodetypes="cccccccccccc" />
        </g>
        <path
           transform="matrix(-1,0,0,-1,802.57123,-555.05786)"
           d="m 678.21875,-356.15625 -88.625,108.5625 c 19.62407,-1.98533 41.67283,-4.21744 46.9375,-4.75 A 15.740317,15.740317 0 0 1 653.375,-240.625 c 15.69836,60.81514 1.91346,125.59588 -37.75,174.1875 -66.35641,81.293161 -184.79416,96.101296 -268.5625,34.84375 l -45.625,55.875 c 114.81836,86.56537 278.31397,67.338388 370.0625,-45.0625 50.25202,-61.563643 70.57429,-144.87071 55,-223.34375 a 15.740317,15.740317 0 0 1 13.84375,-18.71875 c 6.11011,-0.6181 27.28175,-2.74991 46.46875,-4.6875 l -108.59375,-88.625 z"
           inkscape:href="#path23690"
           id="path24284-0"
           style="fill:#edd400;fill-opacity:1;stroke:none;overflow:visible"
           xlink:href="#path23690"
           inkscape:original="M 678.21875 -356.15625 L 589.59375 -247.59375 C 609.21782 -249.57908 631.26658 -251.81119 636.53125 -252.34375 A 15.740317 15.740317 0 0 1 653.375 -240.625 C 669.07336 -179.80986 655.28846 -115.02912 615.625 -66.4375 C 549.26859 14.855661 430.83084 29.663796 347.0625 -31.59375 L 301.4375 24.28125 C 416.25586 110.84662 579.75147 91.619638 671.5 -20.78125 C 721.75202 -82.344893 742.07429 -165.65196 726.5 -244.125 A 15.740317 15.740317 0 0 1 740.34375 -262.84375 C 746.45386 -263.46185 767.6255 -265.59366 786.8125 -267.53125 L 678.21875 -356.15625 z "
           inkscape:radius="0"
           sodipodi:type="inkscape:offset" />
        <path
           transform="matrix(-1,0,0,-1,802.57123,-555.05786)"
           inkscape:href="#path24284-2-1"
           d="m 679.84375,-340.15625 -63.1875,77.375 c 2.36411,-0.37077 4.42959,-0.81727 6.84375,-1.09375 6.97938,-0.79931 14.42336,-1.06421 21.96875,1.46875 7.54539,2.53296 14.78977,8.75071 18.40625,17.375 a 11.385754,11.385754 0 0 1 0.53125,1.5625 c 16.5905,64.27128 2.01196,132.78828 -39.96875,184.21875 -67.81167,83.075994 -187.29076,100.530183 -275.21875,43 L 317.9375,22.0625 c 109.35645,74.90198 259.32258,54.625668 344.75,-50.03125 48.02139,-58.830902 67.56291,-138.82839 52.65625,-213.9375 A 11.385754,11.385754 0 0 1 715.125,-243.875 c -0.20507,-9.84341 4.30363,-18.99242 10.90625,-24.25 6.60262,-5.25758 14.25367,-7.37455 21.71875,-8.625 2.84092,-0.47587 5.71042,-0.74803 8.5625,-1 l -76.46875,-62.40625 z"
           id="path24316-0"
           style="fill:none;stroke:#fce94f;stroke-width:12.97335911;stroke-miterlimit:4;overflow:visible"
           xlink:href="#path24284-2-1"
           inkscape:original="M 678.21875 -356.15625 L 589.59375 -247.59375 C 608.47384 -246.26262 643.35071 -264.53013 653.375 -240.625 C 669.07336 -179.80986 655.28846 -115.02912 615.625 -66.4375 C 549.26859 14.855661 430.83084 29.663796 347.0625 -31.59375 L 301.4375 24.28125 C 416.25586 110.84662 579.75147 91.619638 671.5 -20.78125 C 721.75202 -82.344893 742.07429 -165.65196 726.5 -244.125 C 725.92249 -271.84506 768.64077 -265.69718 786.8125 -267.53125 L 678.21875 -356.15625 z "
           inkscape:radius="-11.384616"
           sodipodi:type="inkscape:offset" />
        <path
           style="fill:#3465a4;fill-opacity:1;stroke:none;overflow:visible"
           d="m 663.47888,-364.20794 -84.10794,112.09845 c 18.91876,0.55737 53.01881,-19.12214 64.01302,4.35273 18.17402,60.12175 7.05173,125.41236 -30.58992,175.586466 -62.97398,83.940612 -180.7065,103.583283 -266.91158,45.805196 l -43.30012,57.695349 c 118.26476,81.794049 280.83658,55.892247 367.90835,-60.169174 47.69049,-63.568611 64.58644,-147.637537 45.81376,-225.407467 -1.71141,-27.67322 41.22269,-23.27868 59.30408,-25.8549 l -112.12965,-84.10665 z"
           id="path24284-2-2"
           sodipodi:nodetypes="cccsccsccc" />
        <path
           transform="translate(0.10245,0.00462947)"
           sodipodi:type="inkscape:offset"
           inkscape:radius="-11.384616"
           inkscape:original="M 663.46875 -364.21875 L 579.375 -252.125 C 598.29376 -251.56763 632.38082 -271.22487 643.375 -247.75 C 661.54902 -187.62825 650.42294 -122.33036 612.78125 -72.15625 C 549.80727 11.784362 432.08008 31.403119 345.875 -26.375 L 302.59375 31.34375 C 420.85851 113.13777 583.42823 87.217671 670.5 -28.84375 C 718.19046 -92.412331 735.08518 -176.48007 716.3125 -254.25 C 714.60109 -281.92322 757.5123 -277.51756 775.59375 -280.09375 L 663.46875 -364.21875 z "
           xlink:href="#path24284-2"
           style="fill:none;stroke:#729fcf;stroke-width:12.97335911;stroke-miterlimit:4;overflow:visible"
           id="path24316"
           d="m 665.75,-348.28125 -59.9375,79.875 c 2.34027,-0.46482 4.38746,-1.00204 6.78125,-1.375 6.93968,-1.08122 14.35942,-1.63138 22,0.59375 7.64058,2.22513 15.12802,8.12609 19.09375,16.59375 a 11.385754,11.385754 0 0 1 0.59375,1.5625 c 19.20706,63.53915 7.43466,132.61321 -32.40625,185.71875 -64.35314,85.778957 -182.98153,108.033138 -273.1875,54.15625 l -29.71875,39.625 c 112.33019,70.367604 261.3627,43.911568 342.4375,-64.15625 45.57352,-60.746821 61.81173,-141.46997 43.84375,-215.90625 a 11.385754,11.385754 0 0 1 -0.3125,-1.96875 c -0.60762,-9.82517 3.52588,-19.13294 9.90625,-24.65625 6.38037,-5.52331 13.93851,-7.94652 21.34375,-9.5 2.81388,-0.5903 5.66582,-0.97606 8.5,-1.34375 L 665.75,-348.28125 z"
           inkscape:href="#path24284-2" />
        <path
           sodipodi:type="inkscape:offset"
           inkscape:radius="-9.8136587"
           inkscape:original="M 365 -485.6875 L 249.09375 -466.53125 L 249.09375 -417.5 L 365.65625 -436.6875 L 365.65625 -133.3125 L 258.5 -133.3125 L 258.5 -88.03125 L 537.71875 -88.03125 L 537.71875 -133.3125 L 430.59375 -133.3125 L 430.59375 -485.6875 L 365 -485.6875 z "
           xlink:href="#path56982-1"
           style="font-size:602.25756836000005023px;font-style:normal;font-weight:normal;fill:none;stroke:#8ae234;stroke-width:12.97335911000000053;stroke-miterlimit:4;stroke-dasharray:none;overflow:visible;font-family:Bitstream Vera Sans"
           id="path57516"
           inkscape:href="#path56982-1"
           d="m 365.84375,-475.875 -106.9375,17.6875 0,29.125 105.15625,-17.3125 a 9.8146401,9.8146401 0 0 1 11.40625,9.6875 l 0,303.375 a 9.8146401,9.8146401 0 0 1 -9.8125,9.8125 l -97.34375,0 0,25.65625 259.59375,0 0,-25.65625 -97.3125,0 a 9.8146401,9.8146401 0 0 1 -9.8125,-9.8125 l 0,-342.5625 -54.9375,0 z" />
        <path
           transform="matrix(-1,0,0,-1,802.57122,-555.05786)"
           style="fill:url(#linearGradient57641);fill-opacity:1;stroke:none;overflow:visible"
           d="m 688.27682,-754.24773 c 0,0 -12.6169,369.67567 -328.03985,437.80702 -315.422927,68.13134 -548.83588,248.553249 -548.83588,248.553249 L 760.19322,193.28272 1039.0271,-263.44966 688.27682,-754.24773 z"
           id="path24414"
           sodipodi:nodetypes="cscccc"
           clip-path="url(#clipPath57616)" />
        <path
           d="m 258.5037,-133.32399 107.14517,0 0,-303.36792 -116.56095,19.1769 0,-49.00764 115.91158,-19.1769 65.58584,0 0,352.37556 107.14518,0 0,45.27881 -279.22682,0 0,-45.27881 z"
           style="font-size:602.25756836px;font-style:normal;font-weight:normal;fill:none;stroke:#4e9a06;stroke-width:12.97335911;stroke-miterlimit:4;stroke-dasharray:none;overflow:visible;font-family:Bitstream Vera Sans"
           id="path56982-1"
           sodipodi:nodetypes="cccccccccccc" />
        <path
           style="fill:none;stroke:#204a87;stroke-width:12.97335911;stroke-miterlimit:4;overflow:visible"
           d="m 663.47888,-364.20793 -84.10794,112.09844 c 18.91876,0.55737 53.01884,-19.12214 64.01302,4.35273 18.17402,60.12175 7.05177,125.41236 -30.58992,175.586466 -62.97398,83.940612 -180.7065,103.583315 -266.91158,45.805196 l -43.30012,57.695381 c 118.26476,81.794017 280.83658,55.892215 367.90835,-60.169206 47.69046,-63.568581 64.58644,-147.637537 45.81376,-225.407467 -1.71141,-27.67322 41.22266,-23.27868 59.30411,-25.85487 l -112.12968,-84.10667 z"
           id="path24284-2"
           sodipodi:nodetypes="cccsccsccc" />
        <path
           transform="matrix(-1,0,0,-1,802.28448,-553.50703)"
           d="m 678.21875,-356.15625 -88.625,108.5625 c 18.88009,1.33113 53.75696,-16.93638 63.78125,6.96875 15.69836,60.81514 1.91346,125.59588 -37.75,174.1875 -66.35641,81.293161 -184.79416,96.101296 -268.5625,34.84375 l -45.625,55.875 c 114.81836,86.56537 278.31397,67.338388 370.0625,-45.0625 50.25202,-61.563643 70.57429,-144.87071 55,-223.34375 -0.57751,-27.72006 42.14077,-21.57218 60.3125,-23.40625 l -108.59375,-88.625 z"
           id="path24314-9"
           style="fill:none;stroke:#c4a000;stroke-width:12.97335911;stroke-miterlimit:4;overflow:visible"
           xlink:href="#path24284-2-1"
           inkscape:original="M 678.21875 -356.15625 L 589.59375 -247.59375 C 608.47384 -246.26262 643.35071 -264.53013 653.375 -240.625 C 669.07336 -179.80986 655.28846 -115.02912 615.625 -66.4375 C 549.26859 14.855661 430.83084 29.663796 347.0625 -31.59375 L 301.4375 24.28125 C 416.25586 110.84662 579.75147 91.619638 671.5 -20.78125 C 721.75202 -82.344893 742.07429 -165.65196 726.5 -244.125 C 725.92249 -271.84506 768.64077 -265.69718 786.8125 -267.53125 L 678.21875 -356.15625 z "
           inkscape:radius="0"
           sodipodi:type="inkscape:offset"
           inkscape:href="#path24284-2-1" />
      </g>
    </g>
  </g>
</svg>
