<?xml version="1.0" encoding="UTF-8" standalone="no"?>
<!-- Created with Inkscape (http://www.inkscape.org/) -->

<svg
   xmlns:dc="http://purl.org/dc/elements/1.1/"
   xmlns:cc="http://creativecommons.org/ns#"
   xmlns:rdf="http://www.w3.org/1999/02/22-rdf-syntax-ns#"
   xmlns:svg="http://www.w3.org/2000/svg"
   xmlns="http://www.w3.org/2000/svg"
   xmlns:sodipodi="http://sodipodi.sourceforge.net/DTD/sodipodi-0.dtd"
   xmlns:inkscape="http://www.inkscape.org/namespaces/inkscape"
   id="svg2"
   version="1.1"
   inkscape:version="0.47 r22583"
   width="256"
   height="199.45441"
   sodipodi:docname="tag-browser.svg">
  <metadata
     id="metadata8">
    <rdf:RDF>
      <cc:Work
         rdf:about="">
        <dc:format>image/svg+xml</dc:format>
        <dc:type
           rdf:resource="http://purl.org/dc/dcmitype/StillImage" />
        <dc:title />
      </cc:Work>
    </rdf:RDF>
  </metadata>
  <defs
     id="defs6">
    <inkscape:perspective
       sodipodi:type="inkscape:persp3d"
       inkscape:vp_x="0 : 0.5 : 1"
       inkscape:vp_y="0 : 1000 : 0"
       inkscape:vp_z="1 : 0.5 : 1"
       inkscape:persp3d-origin="0.5 : 0.33333333 : 1"
       id="perspective10" />
    <inkscape:perspective
       id="perspective3635"
       inkscape:persp3d-origin="0.5 : 0.33333333 : 1"
       inkscape:vp_z="1 : 0.5 : 1"
       inkscape:vp_y="0 : 1000 : 0"
       inkscape:vp_x="0 : 0.5 : 1"
       sodipodi:type="inkscape:persp3d" />
    <inkscape:perspective
       id="perspective3635-5"
       inkscape:persp3d-origin="0.5 : 0.33333333 : 1"
       inkscape:vp_z="1 : 0.5 : 1"
       inkscape:vp_y="0 : 1000 : 0"
       inkscape:vp_x="0 : 0.5 : 1"
       sodipodi:type="inkscape:persp3d" />
    <inkscape:perspective
       id="perspective3635-8"
       inkscape:persp3d-origin="0.5 : 0.33333333 : 1"
       inkscape:vp_z="1 : 0.5 : 1"
       inkscape:vp_y="0 : 1000 : 0"
       inkscape:vp_x="0 : 0.5 : 1"
       sodipodi:type="inkscape:persp3d" />
    <inkscape:perspective
       id="perspective2831"
       inkscape:persp3d-origin="0.5 : 0.33333333 : 1"
       inkscape:vp_z="1 : 0.5 : 1"
       inkscape:vp_y="0 : 1000 : 0"
       inkscape:vp_x="0 : 0.5 : 1"
       sodipodi:type="inkscape:persp3d" />
    <filter
       inkscape:collect="always"
       id="filter3628">
      <feGaussianBlur
         inkscape:collect="always"
         stdDeviation="2.1037413"
         id="feGaussianBlur3630" />
    </filter>
  </defs>
  <sodipodi:namedview
     pagecolor="#ffffff"
     bordercolor="#666666"
     borderopacity="1"
     objecttolerance="10"
     gridtolerance="10"
     guidetolerance="10"
     inkscape:pageopacity="0"
     inkscape:pageshadow="2"
     inkscape:window-width="1680"
     inkscape:window-height="994"
     id="namedview4"
     showgrid="false"
     inkscape:zoom="2.170115"
     inkscape:cx="62.008421"
     inkscape:cy="87.574273"
     inkscape:window-x="0"
     inkscape:window-y="0"
     inkscape:window-maximized="1"
     inkscape:current-layer="g2821" />
  <g
     id="g2821"
     transform="matrix(-0.52728286,-0.84968982,0.84968982,-0.52728286,113.36172,253.25183)">
    <g
       id="g3620"
       transform="matrix(1.0426601,0,0,1.0426601,-73.833813,75.742259)"
       style="opacity:0.89626555;filter:url(#filter3628)">
      <path
         style="fill:#555753;fill-opacity:1;stroke:none"
         d="m 242.75003,-49.349985 c -1.47477,-0.0067 -1.69337,1.030989 -3.4814,7.602496 -1.0008,3.678182 -2.2341,6.498682 -2.84171,6.495336 -0.96323,-0.0053 -12.93684,-2.487466 -15.02047,-3.112349 -1.40732,-0.422056 -5.63636,-1.59495 -9.39855,-2.607973 -3.76221,-1.013029 -8.4205,-2.336514 -10.3458,-2.940126 -2.62243,-0.822175 -3.84143,-1.01408 -4.84689,-0.787312 -0.73817,0.166485 -6.97432,3.181214 -13.86411,6.704462 -6.88977,3.523255 -19.87475,10.154366 -28.85996,14.737524 -19.6745,10.035535 -46.26633,24.9490266 -66.724819,37.422004 -11.747347,7.162019 -13.593816,8.668759 -15.881591,12.978359 -0.90225,1.69964 -1.04018,2.42498 -1.021043,5.31438 0.02669,4.03274 1.115524,7.52032 5.056028,16.13992 4.339547,9.4925 19.056728,37.02846 26.608735,49.79757 1.79272,3.031164 3.83684,6.531644 4.55166,7.774724 2.42563,4.21827 4.2374,6.68647 5.44968,7.43028 1.91729,1.17637 5.12131,2.26092 7.79932,2.64488 1.35834,0.19475 2.70086,0.37923 2.98933,0.40597 0.8524,0.079 5.65487,-2.1555 14.04863,-6.54456 32.12143,-16.796104 102.92564,-56.736754 110.85129,-62.529914 3.26397,-2.38577 5.51965,-7.63087 11.03469,-25.74761 1.94433,-6.387081 3.80983,-12.3473674 4.1457,-13.2490104 l 0.60278,-1.636136 3.80125,-0.258337 c 11.50246,-0.778004 19.68417,-5.59847 25.08332,-14.799034 -5.60985,4.544275 -12.74974,7.27034798 -20.53166,7.27034798 -6.61061,0 -12.75809,-1.97422598 -17.89908,-5.35127098 -3.27638,2.154211 -8.78337,0.06942 -10.65334,-4.0472836 -0.84305,-1.855963 -0.93949,-5.046982 -0.30754,-7.983851 -2.41683,-4.557815 -3.78895,-9.748139 -3.78895,-15.266499 0,-5.735717 1.47458,-11.135732 4.07189,-15.820082 -0.22525,-0.02424 -0.44571,-0.03608 -0.62739,-0.03691 z m -51.82738,27.568272 c 0.284,-0.0053 0.55754,0.01078 0.81192,0.03691 5.86224,0.602077 8.4482,4.176228 23.97616,33.153276 8.10214,15.119579 10.85125,21.905739 10.23507,25.255539 -0.67525,3.67088 -8.25523,8.98602 -36.8192,25.79681 -22.14709,13.03426 -50.16311,28.90509 -57.60922,32.64892 -2.58729,1.30087 -3.63228,1.60979 -5.92945,1.73455 -1.53627,0.0834 -3.41358,-0.0398 -4.1703,-0.27064 -2.3661,-0.72182 -6.49284,-5.41953 -10.16127,-11.58827 -3.60964,-6.0699 -18.611735,-35.64607 -20.519354,-40.44823 -1.383854,-3.48364 -1.588503,-6.62977 -0.578185,-8.75885 2.656935,-5.59909 14.716179,-13.16121 64.891859,-40.7065824 23.62906,-12.9718466 31.61185,-16.7739576 35.87197,-16.8534326 z"
         id="path2818-8" />
      <path
         sodipodi:type="arc"
         style="fill:none;stroke:#555753;stroke-width:47.82941818;stroke-miterlimit:4;stroke-opacity:1;stroke-dasharray:none"
         id="path3609-5"
         sodipodi:cx="-265.42374"
         sodipodi:cy="-25.805084"
         sodipodi:rx="122.29249"
         sodipodi:ry="123.49577"
         d="m -143.13125,-25.805084 a 122.29249,123.49577 0 1 1 -244.58497,0 122.29249,123.49577 0 1 1 244.58497,0 z"
         transform="matrix(0.29592306,0.01286432,0.01286432,0.28317593,348.96568,-16.507398)" />
    </g>
    <rect
       style="fill:#ffffff;fill-opacity:1;stroke:none"
       id="rect2822"
       width="156.45334"
       height="85.045822"
       x="-108.48333"
       y="-189.12354"
       transform="matrix(-0.87052242,0.49212876,-0.49831523,-0.86699593,0,0)"
       rx="2.791492"
       ry="84.047447" />
    <path
       id="path2818"
       d="m 176.41526,30.644317 c -1.44528,-0.0066 -1.6595,1.010371 -3.41178,7.450456 -0.98078,3.604623 -2.18942,6.368717 -2.78488,6.365438 -0.94396,-0.0052 -12.67812,-2.43772 -14.72008,-3.050106 -1.37917,-0.413616 -5.52364,-1.563053 -9.21059,-2.55582 -3.68696,-0.992766 -8.2521,-2.289784 -10.1389,-2.881326 -2.56998,-0.805733 -3.7646,-0.9938 -4.74996,-0.771567 -0.7234,0.163155 -6.83484,3.117595 -13.58683,6.570385 -6.75199,3.452791 -19.47728,9.951291 -28.282804,14.442794 -19.281034,9.834833 -45.341065,24.45008 -65.390409,36.673603 -11.512415,7.018798 -13.321955,8.495396 -15.5639782,12.718816 -0.8842133,1.66565 -1.0193767,2.37649 -1.0006276,5.20809 0.026156,3.9521 1.0932197,7.36994 4.9549148,15.81715 4.252764,9.30266 18.675621,36.28794 26.076596,48.80169 1.756861,2.97054 3.760115,6.40101 4.460629,7.61923 2.377129,4.13391 4.152665,6.55275 5.340699,7.28169 1.878939,1.15285 5.018893,2.2157 7.643348,2.59198 1.331171,0.19086 2.646838,0.37165 2.929549,0.39785 0.835349,0.0774 5.541773,-2.1124 13.76767,-6.41367 31.479033,-16.4602 100.867253,-55.60209 108.634403,-61.2794 3.1987,-2.33806 5.40926,-7.47826 10.81401,-25.23269 1.90544,-6.259348 3.73364,-12.100436 4.06279,-12.984048 l 0.59073,-1.603415 3.72522,-0.253171 c 11.27243,-0.762445 19.29052,-5.486508 24.58169,-14.503072 -5.49766,4.453395 -12.49476,7.12495 -20.12105,7.12495 -6.47841,0 -12.50295,-1.934744 -17.54112,-5.244252 -3.21086,2.111129 -8.60772,0.06803 -10.44029,-3.966344 -0.82619,-1.818846 -0.92069,-4.946049 -0.30139,-7.824184 -2.3685,-4.466665 -3.71318,-9.553189 -3.71318,-14.96119 0,-5.621009 1.44509,-10.913031 3.99046,-15.5037 -0.22073,-0.02376 -0.4368,-0.03536 -0.61484,-0.03617 z m -50.79089,27.016944 c 0.27832,-0.0052 0.54639,0.01056 0.79567,0.03617 5.745,0.590038 8.27925,4.092711 23.49667,32.490258 7.94011,14.817199 10.63425,21.467649 10.03039,24.750449 -0.66175,3.59747 -8.09015,8.80633 -36.08287,25.28092 -21.70418,12.77359 -49.159906,28.32702 -56.457102,31.99598 -2.535551,1.27485 -3.559649,1.5776 -5.810874,1.69986 -1.505553,0.0817 -3.345314,-0.039 -4.0869,-0.26522 -2.318782,-0.70739 -6.362992,-5.31116 -9.958053,-11.35652 -3.537459,-5.94851 -18.239526,-34.93321 -20.108997,-39.63932 -1.356182,-3.41398 -1.556732,-6.49719 -0.566621,-8.58369 2.603796,-5.48711 14.421869,-12.898 63.594103,-39.892501 C 113.6263,61.465218 121.44943,57.739145 125.62437,57.661261 z"
       style="fill:#000000;fill-opacity:1;stroke:none;stroke-opacity:1" />
    <path
       transform="matrix(0.29547567,0,0,0.29547567,283.46044,57.003324)"
       d="m -143.13125,-25.805084 a 122.29249,123.49577 0 1 1 -244.58497,0 122.29249,123.49577 0 1 1 244.58497,0 z"
       sodipodi:ry="123.49577"
       sodipodi:rx="122.29249"
       sodipodi:cy="-25.805084"
       sodipodi:cx="-265.42374"
       id="path3609"
       style="fill:none;stroke:#000000;stroke-width:47.82941818;stroke-miterlimit:4;stroke-opacity:1;stroke-dasharray:none"
       sodipodi:type="arc" />
    <g
       transform="matrix(0.38577461,0.00271004,-0.00271004,0.38577461,324.80176,71.973846)"
       id="g3667"
       style="fill:#314e6c;fill-opacity:1;stroke:#df421e;stroke-opacity:1">
      <rect
         style="fill:#cbbfaa;fill-opacity:1;stroke:#df421e;stroke-width:15.74772453;stroke-miterlimit:4;stroke-opacity:1;stroke-dasharray:none"
         id="rect3611"
         width="216.36911"
         height="1.7410095"
         x="-682.83728"
         y="-257.08939"
         rx="70.901421"
         ry="1.7410095"
         transform="matrix(0.8660254,-0.5,0.5,0.8660254,0,0)" />
      <rect
         style="fill:#cbbfaa;fill-opacity:1;stroke:#df421e;stroke-width:15.74772453;stroke-miterlimit:4;stroke-opacity:1;stroke-dasharray:none"
         id="rect3611-8"
         width="216.36911"
         height="1.7410095"
         x="-682.87927"
         y="-221.99551"
         rx="70.901421"
         ry="1.7410095"
         transform="matrix(0.8660254,-0.5,0.5,0.8660254,0,0)" />
      <rect
         style="fill:#cbbfaa;fill-opacity:1;stroke:#df421e;stroke-width:15.74772453;stroke-miterlimit:4;stroke-opacity:1;stroke-dasharray:none"
         id="rect3611-80"
         width="216.36911"
         height="1.7410095"
         x="-682.83081"
         y="-181.52858"
         rx="70.901421"
         ry="1.7410095"
         transform="matrix(0.8660254,-0.5,0.5,0.8660254,0,0)" />
      <rect
         style="fill:#cbbfaa;fill-opacity:1;stroke:#df421e;stroke-width:15.74772453;stroke-miterlimit:4;stroke-opacity:1;stroke-dasharray:none"
         id="rect3611-6"
         width="216.36911"
         height="1.7410095"
         x="-681.86078"
         y="-142.65791"
         rx="70.901421"
         ry="1.7410095"
         transform="matrix(0.8660254,-0.5,0.5,0.8660254,0,0)" />
    </g>
  </g>
</svg>
