<?xml version="1.0" encoding="UTF-8" standalone="no"?>
<!-- Created with Inkscape (http://www.inkscape.org/) -->

<svg
   xmlns:dc="http://purl.org/dc/elements/1.1/"
   xmlns:cc="http://creativecommons.org/ns#"
   xmlns:rdf="http://www.w3.org/1999/02/22-rdf-syntax-ns#"
   xmlns:svg="http://www.w3.org/2000/svg"
   xmlns="http://www.w3.org/2000/svg"
   xmlns:xlink="http://www.w3.org/1999/xlink"
   xmlns:sodipodi="http://sodipodi.sourceforge.net/DTD/sodipodi-0.dtd"
   xmlns:inkscape="http://www.inkscape.org/namespaces/inkscape"
   id="svg2"
   version="1.1"
   inkscape:version="0.46+devel r22541"
   width="256"
   height="199.45441"
   sodipodi:docname="tag-browser.svg">
  <metadata
     id="metadata8">
    <rdf:RDF>
      <cc:Work
         rdf:about="">
        <dc:format>image/svg+xml</dc:format>
        <dc:type
           rdf:resource="http://purl.org/dc/dcmitype/StillImage" />
        <dc:title />
      </cc:Work>
    </rdf:RDF>
  </metadata>
  <defs
     id="defs6">
    <inkscape:perspective
       sodipodi:type="inkscape:persp3d"
       inkscape:vp_x="0 : 0.5 : 1"
       inkscape:vp_y="0 : 1000 : 0"
       inkscape:vp_z="1 : 0.5 : 1"
       inkscape:persp3d-origin="0.5 : 0.33333333 : 1"
       id="perspective10" />
    <inkscape:perspective
       id="perspective3635"
       inkscape:persp3d-origin="0.5 : 0.33333333 : 1"
       inkscape:vp_z="1 : 0.5 : 1"
       inkscape:vp_y="0 : 1000 : 0"
       inkscape:vp_x="0 : 0.5 : 1"
       sodipodi:type="inkscape:persp3d" />
    <inkscape:perspective
       id="perspective3635-5"
       inkscape:persp3d-origin="0.5 : 0.33333333 : 1"
       inkscape:vp_z="1 : 0.5 : 1"
       inkscape:vp_y="0 : 1000 : 0"
       inkscape:vp_x="0 : 0.5 : 1"
       sodipodi:type="inkscape:persp3d" />
    <inkscape:perspective
       id="perspective3635-8"
       inkscape:persp3d-origin="0.5 : 0.33333333 : 1"
       inkscape:vp_z="1 : 0.5 : 1"
       inkscape:vp_y="0 : 1000 : 0"
       inkscape:vp_x="0 : 0.5 : 1"
       sodipodi:type="inkscape:persp3d" />
    <inkscape:perspective
       id="perspective2831"
       inkscape:persp3d-origin="0.5 : 0.33333333 : 1"
       inkscape:vp_z="1 : 0.5 : 1"
       inkscape:vp_y="0 : 1000 : 0"
       inkscape:vp_x="0 : 0.5 : 1"
       sodipodi:type="inkscape:persp3d" />
    <filter
       inkscape:collect="always"
       id="filter3628">
      <feGaussianBlur
         inkscape:collect="always"
         stdDeviation="2.1037413"
         id="feGaussianBlur3630" />
    </filter>
    <inkscape:perspective
       id="perspective58569"
       inkscape:persp3d-origin="0.5 : 0.33333333 : 1"
       inkscape:vp_z="1 : 0.5 : 1"
       inkscape:vp_y="0 : 1000 : 0"
       inkscape:vp_x="0 : 0.5 : 1"
       sodipodi:type="inkscape:persp3d" />
    <linearGradient
       inkscape:collect="always"
       xlink:href="#linearGradient22751"
       id="linearGradient22757"
       x1="-21.236227"
       y1="-68.734146"
       x2="153.48729"
       y2="151.53067"
       gradientUnits="userSpaceOnUse"
       gradientTransform="matrix(-0.52728286,0.84968982,-0.84968982,-0.52728286,261.529,68.468292)" />
    <linearGradient
       inkscape:collect="always"
       id="linearGradient22751">
      <stop
         style="stop-color:#ffffff;stop-opacity:1"
         offset="0"
         id="stop22753" />
      <stop
         style="stop-color:#ffffff;stop-opacity:0"
         offset="1"
         id="stop22755" />
    </linearGradient>
    <clipPath
       clipPathUnits="userSpaceOnUse"
       id="clipPath23357">
      <path
         style="fill:#edd400;fill-opacity:1;stroke:none"
         d="m 225.70816,102.23622 c 13.55473,-22.433809 14.85923,-59.497566 6.423,-83.840314 C 210.49364,8.4952879 175.81522,-3.4654611 151.45732,-2.6122748 150.58591,-2.3107735 143.4164,2.1771422 135.54948,7.3761573 127.68253,12.575171 112.8479,22.376003 102.58677,29.142135 80.118461,43.957609 49.955628,65.604361 26.867707,83.477713 13.610528,93.740666 11.565923,95.81976 9.3785207,101.34835 c -2.913292,8.87732 3.5552513,18.16479 7.7928993,25.43171 6.53976,10.90842 28.074305,42.27626 38.947792,56.71806 6.43831,10.38617 14.853945,19.0696 27.668227,19.30289 1.042963,-0.0197 6.549123,-3.40557 16.120263,-9.85661 C 136.53471,168.2575 216.89391,110.32431 225.70816,102.23622 z M 213.18005,48.342013 c -3.17873,5.122365 -9.97811,6.64356 -15.17693,3.417385 -5.19882,-3.226175 -6.82774,-9.977631 -3.64901,-15.099996 3.17873,-5.122365 9.95155,-6.660038 15.15037,-3.433863 5.19882,3.226175 6.8543,9.994108 3.67557,15.116474 z"
         id="path23359"
         sodipodi:nodetypes="cccsssccccsccsssc" />
    </clipPath>
  </defs>
  <sodipodi:namedview
     pagecolor="#ffffff"
     bordercolor="#666666"
     borderopacity="1"
     objecttolerance="10"
     gridtolerance="10"
     guidetolerance="10"
     inkscape:pageopacity="0"
     inkscape:pageshadow="2"
     inkscape:window-width="1920"
     inkscape:window-height="1172"
     id="namedview4"
     showgrid="false"
     inkscape:zoom="2.170115"
     inkscape:cx="62.008421"
     inkscape:cy="142.87088"
     inkscape:window-x="0"
     inkscape:window-y="1"
     inkscape:window-maximized="1"
     inkscape:current-layer="g2821" />
  <g
     id="g2821"
     transform="matrix(-0.52728286,-0.84968982,0.84968982,-0.52728286,113.36172,253.25183)">
    <rect
       style="fill:#ffffff;fill-opacity:1;stroke:none"
       id="rect2822"
       width="194.53804"
       height="105.74813"
       x="-138.69756"
       y="-203.24275"
       transform="matrix(-0.81049076,0.58575142,-0.59150804,-0.8062991,0,0)"
       rx="3.4710119"
       ry="104.50672" />
    <path
       style="fill:#edd400;fill-opacity:1;stroke:none"
       d="m 225.70816,102.23622 c 13.55473,-22.433811 14.85923,-59.497568 6.423,-83.840315 -21.63752,-9.9006189 -56.31594,-21.8613685 -80.67384,-21.0081817 -0.87141,0.3015012 -8.04092,4.789417 -15.90784,9.988432 C 127.68254,12.575169 112.8479,22.376001 102.58677,29.142134 80.118462,43.957608 49.95563,65.60436 26.867708,83.477712 13.61053,93.740665 11.565925,95.819759 9.3785226,101.34835 c -2.913292,8.87731 3.5552504,18.16478 7.7928994,25.43171 6.53976,10.90842 28.074305,42.27626 38.947792,56.71805 6.43831,10.38618 14.853944,19.06961 27.668227,19.30289 1.042962,-0.0197 6.549126,-3.40558 16.120268,-9.85661 C 136.53471,168.2575 216.89391,110.32431 225.70816,102.23622 z m -29.12375,-7.297025 c -3.18973,4.9728 -13.70088,13.594695 -39.95833,33.276135 -25.05691,18.78157 -56.822801,41.77815 -65.333612,47.31958 -11.205295,7.75525 -18.907563,-0.82492 -25.917661,-9.50017 -5.192709,-6.86234 -27.354936,-40.65451 -30.314903,-46.21188 -2.147262,-4.03153 -2.814226,-7.82927 -1.878808,-10.54434 2.459975,-7.14014 16.037049,-17.926038 73.073664,-58.073553 13.8773,-8.114716 26.13207,-21.448794 42.13354,-25.343021 7.18076,-0.06411 10.81569,3.932524 33.54136,36.923228 11.85775,17.21381 16.09094,25.045617 15.798,29.185666 -0.0602,0.850667 -0.40716,1.820785 -1.14325,2.968355 z m 16.59564,-46.597184 c -3.17873,5.122365 -9.97811,6.643561 -15.17693,3.417385 -5.19882,-3.226174 -6.82774,-9.977631 -3.64901,-15.099996 3.17873,-5.122365 9.95155,-6.660037 15.15037,-3.433863 5.19882,3.226175 6.8543,9.994108 3.67557,15.116474 z"
       id="path2818-4" />
    <path
       sodipodi:type="inkscape:offset"
       inkscape:radius="-3.4552026"
       inkscape:original="M 81.21875 7.5625 C 55.009795 7.8741463 22.829256 26.308807 6.59375 46.3125 C 9.5903889 69.918107 17.712801 105.69071 31.28125 125.9375 C 31.99691 126.51895 39.590608 130.24441 48.15625 134.1875 C 56.721898 138.1306 72.87162 145.56764 84.03125 150.71875 C 108.46696 161.9979 142.76433 176.21299 170.125 186.40625 C 185.83561 192.25926 188.68028 192.90027 194.53125 191.84375 C 203.61034 189.63829 208.09106 179.24491 212.03125 171.8125 C 217.85172 160.50391 233.14986 125.6665 239.6875 108.8125 C 245.11772 97.865476 248.05852 86.136178 241.5 75.125 C 240.93332 74.249192 235.15307 71.35598 224.625 66.625 C 184.33599 48.520385 92.738721 10.787167 81.21875 7.5625 z M 90.375 36.15625 C 96.282229 36.24446 109.15051 40.6295 139.71875 52.5625 C 168.88934 63.949901 205.1789 78.815354 214.375 83.125 C 226.87291 88.556817 223.6437 99.625535 219.96875 110.15625 C 216.8759 118.18684 199.8488 154.83589 196.6875 160.28125 C 194.39418 164.23151 191.51894 166.80071 188.71875 167.4375 C 181.35474 169.11216 165.03111 163.26308 100.84375 135.96875 C 86.631498 128.4561 68.839931 125.07417 57.09375 113.53125 C 53.252979 107.46363 54.732246 102.26771 70.78125 65.5625 C 79.155261 46.410544 83.57778 38.684069 87.25 36.75 C 88.004542 36.352604 89.011793 36.135894 90.375 36.15625 z M 42.03125 46.625 C 48.059762 46.625 52.9375 51.60026 52.9375 57.71875 C 52.9375 63.83724 48.059762 68.78125 42.03125 68.78125 C 36.002738 68.78125 31.125 63.83724 31.125 57.71875 C 31.125 51.60026 36.002738 46.625 42.03125 46.625 z "
       style="fill:none;stroke:#fce94f;stroke-width:4;stroke-miterlimit:4;stroke-opacity:1;stroke-dasharray:none"
       id="path22729"
       d="m 80.8125,11.0625 c -24.088972,0.483797 -54.82933,17.786305 -70.53125,36.34375 3.072619,23.051502 11.114512,57.05108 23.53125,76 0.225518,0.12384 0.465563,0.2569 0.8125,0.4375 0.903991,0.47057 2.143338,1.1033 3.65625,1.84375 3.025824,1.4809 7.052838,3.41412 11.3125,5.375 8.566192,3.94335 24.712679,11.3789 35.875,16.53125 24.32169,11.22652 58.61392,25.40634 85.875,35.5625 7.83004,2.91709 12.40132,4.51026 15.4375,5.1875 3.02257,0.67421 4.40869,0.57712 7.09375,0.0937 0.01,-0.002 0.0218,0.002 0.0313,0 3.36596,-0.88238 6.05864,-3.30829 8.5,-6.6875 2.48272,-3.43646 4.53818,-7.71101 6.5625,-11.53125 0.002,-0.005 -0.002,-0.0264 0,-0.0313 5.63263,-10.94816 21.04189,-45.97603 27.5,-62.625 a 3.4555481,3.4555481 0 0 1 0.125,-0.28125 c 5.1471,-10.37628 7.61516,-20.418408 2.125,-30 -0.11628,-0.0764 -0.18874,-0.107781 -0.375,-0.21875 -0.66251,-0.3947 -1.71964,-0.965218 -3.09375,-1.65625 -2.74822,-1.382064 -6.79177,-3.270543 -12.03125,-5.625 -20.07014,-9.018892 -53.05429,-22.972707 -82.40625,-35.0625 -14.67598,-6.044897 -28.43835,-11.642308 -39.25,-15.90625 -10.543529,-4.158199 -18.190486,-6.997904 -20.75,-7.75 z m 9.625,21.625 c 7.541658,0.112616 19.92412,4.70807 50.53125,16.65625 29.17114,11.387616 65.12179,26.104664 74.78125,30.625 0.0146,0.0068 0.0793,0.02447 0.0937,0.03125 0.005,0.0023 -0.005,0.02895 0,0.03125 7.06025,3.111984 10.48853,8.744993 10.84375,14.46875 0.35708,5.75368 -1.61093,11.45758 -3.46875,16.78125 a 3.4555481,3.4555481 0 0 1 -0.0313,0.125 c -1.67715,4.35472 -6.63728,15.37811 -11.6875,26.25 -5.05022,10.87189 -9.89434,21.07096 -11.8125,24.375 -2.5963,4.47215 -5.9265,7.81226 -10.1875,8.78125 -5.06846,1.15263 -11.3787,-0.27834 -24.5625,-5 C 151.7537,161.09084 131.60895,152.80991 99.5,139.15625 a 3.4555481,3.4555481 0 0 1 -0.28125,-0.125 C 85.681017,131.87515 67.437109,128.52898 54.6875,116 a 3.4555481,3.4555481 0 0 1 -0.5,-0.625 c -1.132997,-1.7899 -2.082474,-3.94364 -2.28125,-6.46875 -0.198776,-2.52511 0.240802,-5.27492 1.25,-8.8125 C 55.174646,93.018585 59.592134,82.559235 67.625,64.1875 71.833125,54.563221 75.04857,47.779476 77.78125,43 c 2.73268,-4.779476 4.835143,-7.72794 7.84375,-9.3125 1.418046,-0.746845 3.057825,-1.026202 4.8125,-1 z M 42.03125,43.15625 c 7.929537,0 14.375,6.607656 14.375,14.5625 0,7.954844 -6.457403,14.53125 -14.375,14.53125 -7.917597,0 -14.375,-6.576406 -14.375,-14.53125 0,-7.954844 6.445463,-14.5625 14.375,-14.5625 z"
       transform="matrix(-0.52728286,0.84968982,-0.84968982,-0.52728286,274.95919,37.213049)" />
    <g
       transform="matrix(0.47708951,-0.04991689,0.04991689,0.47708951,392.21485,17.604618)"
       id="g3667"
       style="fill:#73d216;fill-opacity:1;stroke:#4e9a06;stroke-width:8.33865356;stroke-miterlimit:4;stroke-opacity:1;stroke-dasharray:none">
      <path
         style="font-size:medium;font-style:normal;font-variant:normal;font-weight:normal;font-stretch:normal;text-indent:0;text-align:start;text-decoration:none;line-height:normal;letter-spacing:normal;word-spacing:normal;text-transform:none;direction:ltr;block-progression:tb;writing-mode:lr-tb;text-anchor:start;color:#000000;fill:#73d216;fill-opacity:1;fill-rule:nonzero;stroke:#4e9a06;stroke-width:4.16932678;stroke-miterlimit:4;stroke-dasharray:none;marker:none;visibility:visible;display:inline;overflow:visible;enable-background:accumulate;font-family:Bitstream Vera Sans;-inkscape-font-specification:Bitstream Vera Sans"
         d="m -660.57842,79.719614 c -17.02037,9.826715 -32.32341,18.768554 -43.36571,25.325886 -5.52115,3.27866 -9.98173,5.96588 -13.06626,7.86857 -1.54227,0.95133 -2.74439,1.6934 -3.60249,2.26031 -0.42905,0.28346 -0.74605,0.51784 -1.07415,0.7645 -0.16406,0.12333 -0.31005,0.21857 -0.58702,0.48326 -0.13849,0.13234 -0.33976,0.27093 -0.65565,0.73938 -0.15795,0.23423 -0.36715,0.5494 -0.55659,1.22346 -0.18944,0.67406 -0.29636,1.98669 0.41747,3.22307 0.71382,1.23639 1.90406,1.80011 2.58253,1.97308 0.67847,0.17297 1.05602,0.14938 1.33784,0.12971 0.56363,-0.0393 0.78429,-0.14436 0.96815,-0.19812 0.36771,-0.10752 0.52318,-0.18634 0.71202,-0.26675 0.37766,-0.16082 0.73915,-0.31815 1.19915,-0.54799 0.92001,-0.45968 2.16372,-1.12971 3.75874,-1.98969 3.19004,-1.71994 7.74753,-4.2393 13.34751,-7.38143 11.19996,-6.28425 26.59534,-15.06615 43.61571,-24.892865 l 64.57302,-37.28125 c 17.02037,-9.826715 32.35047,-18.784179 43.39278,-25.341507 5.52115,-3.278663 9.95466,-5.950255 13.0392,-7.852944 1.54226,-0.951338 2.74438,-1.693406 3.60248,-2.260317 0.42905,-0.283453 0.74605,-0.517843 1.07416,-0.764503 0.16405,-0.12333 0.33711,-0.23419 0.61408,-0.498878 0.13849,-0.132347 0.31269,-0.255309 0.62859,-0.723758 0.15794,-0.234224 0.36714,-0.5494 0.55659,-1.223457 0.18944,-0.674058 0.29635,-1.986695 -0.41747,-3.2230765 -0.71383,-1.2363811 -1.90406,-1.8001088 -2.58253,-1.9730762 -0.67848,-0.1729674 -1.05603,-0.1493827 -1.33784,-0.1297073 -0.56364,0.039351 -0.75723,0.1287286 -0.94109,0.1824921 -0.36771,0.1075218 -0.55025,0.2019619 -0.73908,0.2823718 -0.37767,0.1608198 -0.73916,0.3181503 -1.19916,0.5479968 -0.92001,0.4596794 -2.16372,1.1297114 -3.75873,1.9896833 -3.19005,1.719941 -7.72047,4.223679 -13.32045,7.365806 -11.19997,6.284252 -26.62241,15.081778 -43.64278,24.908493 l -64.57302,37.28125 z"
         id="rect3611" />
      <path
         style="font-size:medium;font-style:normal;font-variant:normal;font-weight:normal;font-stretch:normal;text-indent:0;text-align:start;text-decoration:none;line-height:normal;letter-spacing:normal;word-spacing:normal;text-transform:none;direction:ltr;block-progression:tb;writing-mode:lr-tb;text-anchor:start;color:#000000;fill:#73d216;fill-opacity:1;fill-rule:nonzero;stroke:#4e9a06;stroke-width:4.16932678;stroke-miterlimit:4;stroke-dasharray:none;marker:none;visibility:visible;display:inline;overflow:visible;enable-background:accumulate;font-family:Bitstream Vera Sans;-inkscape-font-specification:Bitstream Vera Sans"
         d="m -643.05861,110.12732 c -17.02037,9.82671 -32.35047,18.78418 -43.39277,25.3415 -5.52116,3.27867 -9.95467,5.95026 -13.0392,7.85295 -1.54227,0.95134 -2.74439,1.6934 -3.60248,2.26032 -0.42906,0.28345 -0.77312,0.53346 -1.10123,0.78012 -0.16405,0.12333 -0.31004,0.21857 -0.58702,0.48326 -0.13849,0.13234 -0.31268,0.25531 -0.62858,0.72375 -0.15795,0.23423 -0.36715,0.5494 -0.55659,1.22346 -0.18944,0.67406 -0.32342,2.00232 0.3904,3.2387 0.71383,1.23638 1.93113,1.78449 2.6096,1.95745 0.67847,0.17297 1.05602,0.14939 1.33784,0.12971 0.56364,-0.0393 0.75722,-0.12873 0.94108,-0.18249 0.36772,-0.10752 0.52319,-0.18634 0.71202,-0.26675 0.37767,-0.16082 0.76622,-0.33377 1.22623,-0.56362 0.92,-0.45968 2.16371,-1.12971 3.75873,-1.98968 3.19004,-1.71994 7.72046,-4.22368 13.32045,-7.36581 11.19996,-6.28425 26.6224,-15.08178 43.64277,-24.90849 l 64.57302,-37.281251 c 17.02037,-9.826715 32.32341,-18.768554 43.36572,-25.325882 5.52115,-3.278663 9.98172,-5.96588 13.06626,-7.868569 1.54226,-0.951338 2.74438,-1.693406 3.60248,-2.260317 0.42906,-0.283453 0.74605,-0.517843 1.07416,-0.764503 0.16405,-0.12333 0.31004,-0.218565 0.58702,-0.483253 0.13849,-0.132347 0.31269,-0.255309 0.62858,-0.723758 0.15795,-0.234225 0.39422,-0.565025 0.58366,-1.239082 0.18944,-0.674058 0.29635,-1.986695 -0.41747,-3.223077 -0.71383,-1.236381 -1.90406,-1.800108 -2.58253,-1.973076 -0.67847,-0.172967 -1.08309,-0.133758 -1.36491,-0.114082 -0.56363,0.03935 -0.75722,0.128729 -0.94108,0.182492 -0.36772,0.107522 -0.52319,0.186337 -0.71202,0.266747 -0.37767,0.16082 -0.73915,0.31815 -1.19916,0.547997 -0.92001,0.459679 -2.16372,1.129711 -3.75873,1.989683 -3.19005,1.719941 -7.74753,4.239304 -13.34751,7.38143 -11.19997,6.284253 -26.59535,15.066154 -43.61572,24.892869 l -64.57302,37.281252 z"
         id="rect3611-8" />
      <path
         style="font-size:medium;font-style:normal;font-variant:normal;font-weight:normal;font-stretch:normal;text-indent:0;text-align:start;text-decoration:none;line-height:normal;letter-spacing:normal;word-spacing:normal;text-transform:none;direction:ltr;block-progression:tb;writing-mode:lr-tb;text-anchor:start;color:#000000;fill:#73d216;fill-opacity:1;fill-rule:nonzero;stroke:#4e9a06;stroke-width:4.16932678;stroke-miterlimit:4;stroke-dasharray:none;marker:none;visibility:visible;display:inline;overflow:visible;enable-background:accumulate;font-family:Bitstream Vera Sans;-inkscape-font-specification:Bitstream Vera Sans"
         d="m -622.79717,145.15866 c -17.02037,9.82671 -32.32341,18.76855 -43.36571,25.32588 -5.52115,3.27866 -9.98173,5.96588 -13.06626,7.86857 -1.54227,0.95134 -2.74439,1.69341 -3.60249,2.26032 -0.42905,0.28345 -0.74605,0.51784 -1.07415,0.7645 -0.16406,0.12333 -0.31005,0.21856 -0.58702,0.48325 -0.13849,0.13235 -0.31269,0.25531 -0.62859,0.72376 -0.15795,0.23422 -0.39421,0.56503 -0.58365,1.23908 -0.18944,0.67406 -0.29636,1.9867 0.41747,3.22308 0.71382,1.23638 1.90406,1.80011 2.58253,1.97308 0.67847,0.17296 1.08308,0.13375 1.3649,0.11408 0.56364,-0.0394 0.75723,-0.12873 0.94109,-0.18249 0.36771,-0.10753 0.52318,-0.18634 0.71202,-0.26675 0.37766,-0.16082 0.73915,-0.31815 1.19915,-0.548 0.92001,-0.45968 2.16372,-1.12971 3.75874,-1.98968 3.19004,-1.71994 7.74753,-4.23931 13.34751,-7.38143 11.19996,-6.28425 26.59534,-15.06616 43.61571,-24.89287 l 64.57302,-37.28125 c 17.02037,-9.82672 32.35047,-18.78418 43.39278,-25.341507 5.52115,-3.278664 9.95466,-5.950256 13.0392,-7.852945 1.54226,-0.951338 2.74438,-1.693406 3.60248,-2.260316 0.42905,-0.283454 0.77311,-0.533468 1.10122,-0.780129 0.16405,-0.12333 0.31005,-0.218565 0.58702,-0.483253 0.13849,-0.132346 0.31269,-0.255308 0.62859,-0.723758 0.15794,-0.234224 0.36714,-0.5494 0.55659,-1.223457 0.18944,-0.674057 0.32342,-2.00232 -0.39041,-3.238701 -0.71382,-1.236381 -1.93112,-1.784484 -2.60959,-1.957451 -0.67848,-0.172968 -1.05603,-0.149383 -1.33784,-0.129708 -0.56364,0.03935 -0.75723,0.128729 -0.94109,0.182492 -0.36771,0.107522 -0.52319,0.186337 -0.71202,0.266747 -0.37767,0.16082 -0.76622,0.333775 -1.22622,0.563622 -0.92001,0.459679 -2.16372,1.129711 -3.75873,1.989684 -3.19005,1.71994 -7.72047,4.223679 -13.32045,7.365805 -11.19997,6.284252 -26.62241,15.081779 -43.64278,24.908495 l -64.57302,37.28125 z"
         id="rect3611-80" />
      <path
         style="font-size:medium;font-style:normal;font-variant:normal;font-weight:normal;font-stretch:normal;text-indent:0;text-align:start;text-decoration:none;line-height:normal;letter-spacing:normal;word-spacing:normal;text-transform:none;direction:ltr;block-progression:tb;writing-mode:lr-tb;text-anchor:start;color:#000000;fill:#73d216;fill-opacity:1;fill-rule:nonzero;stroke:#4e9a06;stroke-width:4.16932678;stroke-miterlimit:4;stroke-dasharray:none;marker:none;visibility:visible;display:inline;overflow:visible;enable-background:accumulate;font-family:Bitstream Vera Sans;-inkscape-font-specification:Bitstream Vera Sans"
         d="m -602.52071,178.34102 c -17.02037,9.82672 -32.3234,18.76855 -43.36571,25.32588 -5.52115,3.27867 -9.98173,5.96588 -13.06626,7.86857 -1.54227,0.95134 -2.74439,1.69341 -3.60248,2.26032 -0.42906,0.28345 -0.74605,0.51784 -1.07416,0.7645 -0.16406,0.12333 -0.31005,0.21857 -0.58702,0.48325 -0.13849,0.13235 -0.31269,0.25531 -0.62859,0.72376 -0.15795,0.23423 -0.39421,0.56503 -0.58365,1.23909 -0.18944,0.67405 -0.29636,1.98669 0.41747,3.22307 0.71382,1.23638 1.90406,1.80011 2.58253,1.97308 0.67847,0.17296 1.06746,0.10669 1.34928,0.087 0.56364,-0.0393 0.77285,-0.10167 0.95671,-0.15543 0.36771,-0.10752 0.52318,-0.18634 0.71202,-0.26675 0.37767,-0.16082 0.73915,-0.31815 1.19916,-0.548 0.92,-0.45968 2.16371,-1.12971 3.75873,-1.98968 3.19004,-1.71994 7.74753,-4.2393 13.34751,-7.38143 11.19997,-6.28425 26.59534,-15.06615 43.61571,-24.89287 l 64.57302,-37.28125 c 17.02037,-9.82671 32.35047,-18.78418 43.39278,-25.3415 5.52115,-3.27867 9.95466,-5.95026 13.0392,-7.85295 1.54226,-0.95134 2.74438,-1.69341 3.60248,-2.26032 0.42906,-0.28345 0.77311,-0.53346 1.10122,-0.78012 0.16406,-0.12333 0.31005,-0.21857 0.58702,-0.48326 0.13849,-0.13234 0.29706,-0.28237 0.61296,-0.75082 0.15795,-0.23422 0.38278,-0.52234 0.57222,-1.19639 0.18944,-0.67406 0.32342,-2.00232 -0.39041,-3.2387 -0.71382,-1.23638 -1.93112,-1.78449 -2.60959,-1.95745 -0.67847,-0.17297 -1.05602,-0.14939 -1.33784,-0.12971 -0.56364,0.0394 -0.75723,0.12873 -0.94109,0.18249 -0.36771,0.10752 -0.52318,0.18634 -0.71202,0.26675 -0.37767,0.16082 -0.76621,0.33377 -1.22622,0.56362 -0.92001,0.45968 -2.16372,1.12971 -3.75873,1.98968 -3.19005,1.71994 -7.72047,4.22368 -13.32045,7.36581 -11.19997,6.28425 -26.62241,15.08178 -43.64278,24.90849 l -64.57302,37.28125 z"
         id="rect3611-6" />
    </g>
    <path
       transform="translate(3.7629831e-6,2.3925956e-6)"
       style="fill:url(#linearGradient22757);fill-opacity:1;stroke:none"
       d="m 90.599737,-2.8948618 c 0,0 37.657523,45.0615828 14.551543,120.7483318 -23.105955,75.68675 56.67408,126.27963 56.67408,126.27963 L 325.52012,95.705173 210.95061,-80.602368 92.206147,-4.6095968 l -1.60641,1.714735 z"
       id="path22749"
       clip-path="url(#clipPath23357)" />
    <path
       style="fill:none;stroke:#2e3436;stroke-width:4;stroke-miterlimit:4;stroke-opacity:1;stroke-dasharray:none"
       d="m 225.70816,102.23622 c 13.55473,-22.43381 14.85923,-59.497566 6.423,-83.840315 C 210.49364,8.4952865 175.81522,-3.4654635 151.45732,-2.6122776 150.58591,-2.3107755 143.4164,2.1771395 135.54948,7.3761545 127.68254,12.575172 112.8479,22.376001 102.58677,29.142134 80.118462,43.957608 49.95563,65.60436 26.867708,83.477712 13.61053,93.740665 11.565925,95.819759 9.3785226,101.34835 c -2.913292,8.87731 3.5552504,18.16478 7.7928994,25.43171 6.53976,10.90842 28.074305,42.27626 38.947792,56.71805 6.438308,10.38618 14.853944,19.06961 27.668228,19.30289 1.04296,-0.0197 6.549118,-3.40557 16.120267,-9.85661 C 136.53471,168.2575 216.89391,110.32431 225.70816,102.23622 z m -29.12375,-7.297024 c -3.18973,4.9728 -13.70088,13.594694 -39.95833,33.276134 -25.05691,18.78157 -56.822801,41.77815 -65.333612,47.31958 -11.205295,7.75525 -18.907563,-0.82492 -25.917661,-9.50017 -5.192709,-6.86234 -27.354936,-40.65451 -30.314903,-46.21188 -2.147262,-4.03153 -2.814226,-7.82927 -1.878808,-10.54434 2.459975,-7.14014 16.037049,-17.926038 73.073664,-58.073553 13.87729,-8.114715 26.13207,-21.448793 42.13354,-25.343019 7.18076,-0.06411 10.81569,3.932523 33.54136,36.923226 11.85775,17.213811 16.09094,25.045618 15.798,29.185667 -0.0602,0.850668 -0.40716,1.820785 -1.14325,2.968355 z m 16.59564,-46.597183 c -3.17873,5.122364 -9.97811,6.643559 -15.17693,3.417384 -5.19882,-3.226175 -6.82774,-9.977631 -3.64901,-15.099995 3.17873,-5.122367 9.95155,-6.660039 15.15037,-3.433863 5.19882,3.226174 6.8543,9.994108 3.67557,15.116474 z"
       id="path2818-4-2" />
  </g>
</svg>
