<?xml version="1.0" encoding="UTF-8" standalone="no"?>
<!-- Created with Inkscape (http://www.inkscape.org/) -->

<svg
   xmlns:dc="http://purl.org/dc/elements/1.1/"
   xmlns:cc="http://creativecommons.org/ns#"
   xmlns:rdf="http://www.w3.org/1999/02/22-rdf-syntax-ns#"
   xmlns:svg="http://www.w3.org/2000/svg"
   xmlns="http://www.w3.org/2000/svg"
   xmlns:sodipodi="http://sodipodi.sourceforge.net/DTD/sodipodi-0.dtd"
   xmlns:inkscape="http://www.inkscape.org/namespaces/inkscape"
   width="24"
   height="24"
   id="svg2846"
   version="1.1"
   inkscape:version="0.47pre4 r22446"
   sodipodi:docname="gmpc-tray-pause.svg">
  <defs
     id="defs2848">
    <inkscape:perspective
       sodipodi:type="inkscape:persp3d"
       inkscape:vp_x="0 : 526.18109 : 1"
       inkscape:vp_y="0 : 1000 : 0"
       inkscape:vp_z="744.09448 : 526.18109 : 1"
       inkscape:persp3d-origin="372.04724 : 350.78739 : 1"
       id="perspective2854" />
    <inkscape:perspective
       id="perspective2839"
       inkscape:persp3d-origin="0.5 : 0.33333333 : 1"
       inkscape:vp_z="1 : 0.5 : 1"
       inkscape:vp_y="0 : 1000 : 0"
       inkscape:vp_x="0 : 0.5 : 1"
       sodipodi:type="inkscape:persp3d" />
    <inkscape:perspective
       id="perspective2865"
       inkscape:persp3d-origin="0.5 : 0.33333333 : 1"
       inkscape:vp_z="1 : 0.5 : 1"
       inkscape:vp_y="0 : 1000 : 0"
       inkscape:vp_x="0 : 0.5 : 1"
       sodipodi:type="inkscape:persp3d" />
    <inkscape:perspective
       id="perspective2852"
       inkscape:persp3d-origin="0.5 : 0.33333333 : 1"
       inkscape:vp_z="1 : 0.5 : 1"
       inkscape:vp_y="0 : 1000 : 0"
       inkscape:vp_x="0 : 0.5 : 1"
       sodipodi:type="inkscape:persp3d" />
    <inkscape:perspective
       id="perspective2828"
       inkscape:persp3d-origin="0.5 : 0.33333333 : 1"
       inkscape:vp_z="1 : 0.5 : 1"
       inkscape:vp_y="0 : 1000 : 0"
       inkscape:vp_x="0 : 0.5 : 1"
       sodipodi:type="inkscape:persp3d" />
  </defs>
  <sodipodi:namedview
     id="base"
     pagecolor="#ffffff"
     bordercolor="#666666"
     borderopacity="1.0"
     inkscape:pageopacity="0.0"
     inkscape:pageshadow="2"
     inkscape:zoom="11.2"
     inkscape:cx="-6.3657106"
     inkscape:cy="17.604395"
     inkscape:document-units="px"
     inkscape:current-layer="layer1"
     showgrid="false"
     inkscape:window-width="1680"
     inkscape:window-height="996"
     inkscape:window-x="0"
     inkscape:window-y="0"
     inkscape:window-maximized="1" />
  <metadata
     id="metadata2851">
    <rdf:RDF>
      <cc:Work
         rdf:about="">
        <dc:format>image/svg+xml</dc:format>
        <dc:type
           rdf:resource="http://purl.org/dc/dcmitype/StillImage" />
        <dc:title></dc:title>
      </cc:Work>
    </rdf:RDF>
  </metadata>
  <g
     inkscape:label="Layer 1"
     inkscape:groupmode="layer"
     id="layer1"
     transform="translate(-298.59786,-607.49669)">
    <g
       id="g11223"
       transform="matrix(0.15557991,0,0,0.15557991,326.38597,601.6653)"
       style="fill:#606060;fill-opacity:1" />
    <g
       id="g3634"
       transform="matrix(0.83398477,0,0,0.88669845,50.490615,69.762383)">
      <path
         sodipodi:type="star"
         style="fill:#606060;fill-opacity:1;stroke:#969696;stroke-width:0.71975148;stroke-linecap:butt;stroke-linejoin:miter;stroke-miterlimit:4;stroke-opacity:0.93333333;stroke-dasharray:none"
         id="path2490"
         sodipodi:sides="4"
         sodipodi:cx="-2.1213205"
         sodipodi:cy="16.622135"
         sodipodi:r1="7.0725274"
         sodipodi:r2="3.7350421"
         sodipodi:arg1="0.77795118"
         sodipodi:arg2="1.5633494"
         inkscape:flatsided="true"
         inkscape:rounded="0.07"
         inkscape:randomized="0"
         d="m 2.9168152,21.585786 c -0.4913764,0.49875 -9.5030369,0.565861 -10.0017868,0.07449 -0.49875,-0.491377 -0.565861,-9.503037 -0.074485,-10.001787 0.4913764,-0.49875 9.5030369,-0.565861 10.0017869,-0.07448 0.49875,0.491377 0.5658609,9.503037 0.074484,10.001787 z"
         transform="matrix(0.27205846,0,0,0.63857976,303.28251,603.97448)" />
      <path
         transform="matrix(0.27205846,0,0,0.63857976,307.83117,603.97448)"
         d="m 2.9168152,21.585786 c -0.4913764,0.49875 -9.5030369,0.565861 -10.0017868,0.07449 -0.49875,-0.491377 -0.565861,-9.503037 -0.074485,-10.001787 0.4913764,-0.49875 9.5030369,-0.565861 10.0017869,-0.07448 0.49875,0.491377 0.5658609,9.503037 0.074484,10.001787 z"
         inkscape:randomized="0"
         inkscape:rounded="0.07"
         inkscape:flatsided="true"
         sodipodi:arg2="1.5633494"
         sodipodi:arg1="0.77795118"
         sodipodi:r2="3.7350421"
         sodipodi:r1="7.0725274"
         sodipodi:cy="16.622135"
         sodipodi:cx="-2.1213205"
         sodipodi:sides="4"
         id="path3292"
         style="fill:#606060;fill-opacity:1;stroke:#969696;stroke-width:0.71975148;stroke-linecap:butt;stroke-linejoin:miter;stroke-miterlimit:4;stroke-opacity:0.93333333;stroke-dasharray:none"
         sodipodi:type="star" />
      <path
         id="path2818"
         d="m 306.26405,629.92533 c -1.11214,-0.15321 -2.38743,-0.67231 -3.04444,-1.23921 -1.07454,-0.92715 -0.88481,-2.27194 0.46491,-3.29546 1.03045,-0.7814 2.38451,-1.11591 4.06792,-1.00494 0.3634,0.024 1.18235,0.11091 1.81986,0.19323 1.35669,0.17518 1.74542,0.18993 1.8302,0.0695 0.1698,-0.24132 0.16133,-4.56918 -0.0238,-12.17466 -0.0332,-1.36248 -0.0544,-2.48341 -0.0473,-2.49095 0.0142,-0.0149 -8.6e-4,-0.0246 1.10876,0.69187 2.77578,1.79145 3.96735,2.25968 6.28724,2.47062 0.74307,0.0675 1.76006,0.12359 2.81297,0.15495 0.40714,0.0121 0.79556,0.0309 0.86317,0.0418 l 0.12291,0.0197 -0.17226,0.11131 c -0.69942,0.45194 -1.15241,0.63884 -2.04758,0.84486 -0.83949,0.1932 -1.82421,0.3122 -3.52854,0.42641 -1.21669,0.0815 -1.67034,0.14404 -1.87532,0.25839 -0.35124,0.19594 -0.0256,0.52491 0.72185,0.72923 0.82009,0.22418 1.86471,0.31631 4.13571,0.36477 1.7204,0.0367 2.00213,0.0538 2.00213,0.1218 0,0.13503 -1.24306,0.80848 -1.84277,0.99837 -0.86707,0.27454 -1.74078,0.40943 -2.87018,0.44316 -0.84626,0.0252 -1.53421,-0.0179 -2.76362,-0.17316 -0.46142,-0.0583 -0.85005,-0.0982 -0.86362,-0.0886 -0.0136,0.01 -0.039,2.06395 -0.0563,4.56529 -0.0345,4.94155 -0.0281,4.82903 -0.31801,5.59884 -0.17861,0.47425 -0.32392,0.6575 -0.85734,1.08111 -1.02282,0.81228 -1.85593,1.15645 -3.11107,1.28521 -0.6658,0.0683 -2.3092,0.0663 -2.81537,-0.003 z"
         style="fill:#606060;fill-opacity:1;stroke:#969696;stroke-width:0.30000001;stroke-miterlimit:4;stroke-opacity:0.93333333;stroke-dasharray:none" />
    </g>
  </g>
</svg>
