<?xml version="1.0" encoding="UTF-8" standalone="no"?>
<!-- Created with Inkscape (http://www.inkscape.org/) -->

<svg
   xmlns:dc="http://purl.org/dc/elements/1.1/"
   xmlns:cc="http://creativecommons.org/ns#"
   xmlns:rdf="http://www.w3.org/1999/02/22-rdf-syntax-ns#"
   xmlns:svg="http://www.w3.org/2000/svg"
   xmlns="http://www.w3.org/2000/svg"
   xmlns:sodipodi="http://sodipodi.sourceforge.net/DTD/sodipodi-0.dtd"
   xmlns:inkscape="http://www.inkscape.org/namespaces/inkscape"
   width="24"
   height="24"
   id="svg2846"
   version="1.1"
   inkscape:version="0.47pre4 r22446"
   sodipodi:docname="gmpc-tray.svg">
  <defs
     id="defs2848">
    <inkscape:perspective
       sodipodi:type="inkscape:persp3d"
       inkscape:vp_x="0 : 526.18109 : 1"
       inkscape:vp_y="0 : 1000 : 0"
       inkscape:vp_z="744.09448 : 526.18109 : 1"
       inkscape:persp3d-origin="372.04724 : 350.78739 : 1"
       id="perspective2854" />
    <inkscape:perspective
       id="perspective2839"
       inkscape:persp3d-origin="0.5 : 0.33333333 : 1"
       inkscape:vp_z="1 : 0.5 : 1"
       inkscape:vp_y="0 : 1000 : 0"
       inkscape:vp_x="0 : 0.5 : 1"
       sodipodi:type="inkscape:persp3d" />
    <inkscape:perspective
       id="perspective2865"
       inkscape:persp3d-origin="0.5 : 0.33333333 : 1"
       inkscape:vp_z="1 : 0.5 : 1"
       inkscape:vp_y="0 : 1000 : 0"
       inkscape:vp_x="0 : 0.5 : 1"
       sodipodi:type="inkscape:persp3d" />
    <inkscape:perspective
       id="perspective2852"
       inkscape:persp3d-origin="0.5 : 0.33333333 : 1"
       inkscape:vp_z="1 : 0.5 : 1"
       inkscape:vp_y="0 : 1000 : 0"
       inkscape:vp_x="0 : 0.5 : 1"
       sodipodi:type="inkscape:persp3d" />
    <inkscape:perspective
       id="perspective2828"
       inkscape:persp3d-origin="0.5 : 0.33333333 : 1"
       inkscape:vp_z="1 : 0.5 : 1"
       inkscape:vp_y="0 : 1000 : 0"
       inkscape:vp_x="0 : 0.5 : 1"
       sodipodi:type="inkscape:persp3d" />
    <inkscape:perspective
       id="perspective2878"
       inkscape:persp3d-origin="0.5 : 0.33333333 : 1"
       inkscape:vp_z="1 : 0.5 : 1"
       inkscape:vp_y="0 : 1000 : 0"
       inkscape:vp_x="0 : 0.5 : 1"
       sodipodi:type="inkscape:persp3d" />
    <inkscape:perspective
       id="perspective2840"
       inkscape:persp3d-origin="0.5 : 0.33333333 : 1"
       inkscape:vp_z="1 : 0.5 : 1"
       inkscape:vp_y="0 : 1000 : 0"
       inkscape:vp_x="0 : 0.5 : 1"
       sodipodi:type="inkscape:persp3d" />
    <inkscape:perspective
       id="perspective2832"
       inkscape:persp3d-origin="0.5 : 0.33333333 : 1"
       inkscape:vp_z="1 : 0.5 : 1"
       inkscape:vp_y="0 : 1000 : 0"
       inkscape:vp_x="0 : 0.5 : 1"
       sodipodi:type="inkscape:persp3d" />
  </defs>
  <sodipodi:namedview
     id="base"
     pagecolor="#ffffff"
     bordercolor="#666666"
     borderopacity="1.0"
     inkscape:pageopacity="0.0"
     inkscape:pageshadow="2"
     inkscape:zoom="16"
     inkscape:cx="8.6371942"
     inkscape:cy="15.525247"
     inkscape:document-units="px"
     inkscape:current-layer="layer1"
     showgrid="false"
     inkscape:window-width="1680"
     inkscape:window-height="994"
     inkscape:window-x="0"
     inkscape:window-y="0"
     inkscape:window-maximized="1" />
  <metadata
     id="metadata2851">
    <rdf:RDF>
      <cc:Work
         rdf:about="">
        <dc:format>image/svg+xml</dc:format>
        <dc:type
           rdf:resource="http://purl.org/dc/dcmitype/StillImage" />
        <dc:title></dc:title>
      </cc:Work>
    </rdf:RDF>
  </metadata>
  <g
     inkscape:label="Layer 1"
     inkscape:groupmode="layer"
     id="layer1"
     transform="translate(-298.5888,-607.48483)">
    <g
       id="g11223"
       transform="matrix(0.15557991,0,0,0.15557991,326.38597,601.6653)"
       style="fill:#606060;fill-opacity:1" />
    <path
       style="fill:#606060;fill-opacity:1;stroke:#969696;stroke-width:0.25882176;stroke-miterlimit:4;stroke-opacity:0.93333333;stroke-dasharray:none"
       d="m 306.34505,628.30936 c -0.89684,-0.13186 -1.92528,-0.57857 -2.45511,-1.06642 -0.86652,-0.79787 -0.71352,-1.95514 0.37492,-2.83594 0.83098,-0.67244 1.92293,-0.96031 3.28047,-0.86481 0.29305,0.0206 0.95346,0.0954 1.46757,0.16629 1.09406,0.15076 1.40754,0.16345 1.4759,0.0598 0.13693,-0.20767 0.13011,-3.93204 -0.0192,-10.47701 -0.0267,-1.17251 -0.0439,-2.13712 -0.0381,-2.14362 0.0114,-0.0127 -6.7e-4,-0.0211 0.89412,0.5954 2.23845,1.54164 3.19936,1.94459 5.07017,2.12612 0.59922,0.0581 1.41935,0.10636 2.26844,0.13334 0.32833,0.0104 0.64154,0.0266 0.69608,0.0359 l 0.0991,0.017 -0.1389,0.0958 c -0.56403,0.38891 -0.92934,0.54975 -1.65121,0.72704 -0.67698,0.16626 -1.47109,0.26867 -2.84549,0.36695 -0.98116,0.0702 -1.34699,0.12395 -1.51229,0.22237 -0.28326,0.16861 -0.0207,0.45171 0.5821,0.62754 0.66135,0.19291 1.50375,0.2722 3.33512,0.31391 1.38738,0.0316 1.61457,0.0464 1.61457,0.10482 0,0.1162 -1.00242,0.69574 -1.48604,0.85915 -0.69922,0.23625 -1.40382,0.35234 -2.31458,0.38136 -0.68245,0.0217 -1.23722,-0.0153 -2.22865,-0.14902 -0.37209,-0.0502 -0.6855,-0.0844 -0.69644,-0.0762 -0.0109,0.008 -0.0313,1.77616 -0.0455,3.9287 -0.0278,4.25249 -0.0226,4.15567 -0.25644,4.81814 -0.14404,0.40812 -0.26123,0.5658 -0.69138,0.93036 -0.82483,0.69901 -1.49666,0.99519 -2.50885,1.10599 -0.5369,0.0588 -1.86218,0.0571 -2.27036,-0.003 z"
       id="path2818" />
    <path
       style="fill:#606060;fill-opacity:1;stroke:#969696;stroke-width:0.36220017;stroke-miterlimit:4;stroke-opacity:0.93333333;stroke-dasharray:none"
       d="m 301.16037,616.5299 -0.40334,-0.38949 1.5926,-1.5294 c 0.87595,-0.84116 1.59262,-1.55056 1.59262,-1.57643 0,-0.026 -0.62277,-0.6456 -1.38394,-1.37715 l -1.38391,-1.33008 0.39065,-0.37749 0.39066,-0.3775 1.40988,1.35383 1.4099,1.35384 1.42141,-1.36487 1.4214,-1.36487 0.40404,0.38817 0.40406,0.38814 -1.42079,1.3655 -1.42079,1.36547 1.60538,1.54273 1.60537,1.54274 -0.39308,0.3754 -0.39309,0.37539 -1.60453,-1.54138 -1.6045,-1.54137 -1.61834,1.55415 -1.61835,1.55414 -0.40331,-0.38947 0,0 z"
       id="path4580" />
  </g>
</svg>
