<?xml version="1.0" encoding="UTF-8" standalone="no"?>
<!-- Created with Inkscape (http://www.inkscape.org/) -->

<svg
   xmlns:dc="http://purl.org/dc/elements/1.1/"
   xmlns:cc="http://creativecommons.org/ns#"
   xmlns:rdf="http://www.w3.org/1999/02/22-rdf-syntax-ns#"
   xmlns:svg="http://www.w3.org/2000/svg"
   xmlns="http://www.w3.org/2000/svg"
   xmlns:sodipodi="http://sodipodi.sourceforge.net/DTD/sodipodi-0.dtd"
   xmlns:inkscape="http://www.inkscape.org/namespaces/inkscape"
   width="24"
   height="24"
   id="svg2846"
   version="1.1"
   inkscape:version="0.47pre4 r22446"
   sodipodi:docname="gmpc.svg"
   inkscape:export-filename="/home/zeltak/ThemeDB/2)PNG Database/$Workshop/humanity tray/gmpc2/humanity small/128x128/gmpc-tray.png"
   inkscape:export-xdpi="480"
   inkscape:export-ydpi="480">
  <defs
     id="defs2848">
    <inkscape:perspective
       sodipodi:type="inkscape:persp3d"
       inkscape:vp_x="0 : 526.18109 : 1"
       inkscape:vp_y="0 : 1000 : 0"
       inkscape:vp_z="744.09448 : 526.18109 : 1"
       inkscape:persp3d-origin="372.04724 : 350.78739 : 1"
       id="perspective2854" />
    <inkscape:perspective
       id="perspective2839"
       inkscape:persp3d-origin="0.5 : 0.33333333 : 1"
       inkscape:vp_z="1 : 0.5 : 1"
       inkscape:vp_y="0 : 1000 : 0"
       inkscape:vp_x="0 : 0.5 : 1"
       sodipodi:type="inkscape:persp3d" />
    <inkscape:perspective
       id="perspective2865"
       inkscape:persp3d-origin="0.5 : 0.33333333 : 1"
       inkscape:vp_z="1 : 0.5 : 1"
       inkscape:vp_y="0 : 1000 : 0"
       inkscape:vp_x="0 : 0.5 : 1"
       sodipodi:type="inkscape:persp3d" />
    <inkscape:perspective
       id="perspective2852"
       inkscape:persp3d-origin="0.5 : 0.33333333 : 1"
       inkscape:vp_z="1 : 0.5 : 1"
       inkscape:vp_y="0 : 1000 : 0"
       inkscape:vp_x="0 : 0.5 : 1"
       sodipodi:type="inkscape:persp3d" />
    <inkscape:perspective
       id="perspective2828"
       inkscape:persp3d-origin="0.5 : 0.33333333 : 1"
       inkscape:vp_z="1 : 0.5 : 1"
       inkscape:vp_y="0 : 1000 : 0"
       inkscape:vp_x="0 : 0.5 : 1"
       sodipodi:type="inkscape:persp3d" />
    <inkscape:perspective
       id="perspective2878"
       inkscape:persp3d-origin="0.5 : 0.33333333 : 1"
       inkscape:vp_z="1 : 0.5 : 1"
       inkscape:vp_y="0 : 1000 : 0"
       inkscape:vp_x="0 : 0.5 : 1"
       sodipodi:type="inkscape:persp3d" />
    <inkscape:perspective
       id="perspective2862"
       inkscape:persp3d-origin="0.5 : 0.33333333 : 1"
       inkscape:vp_z="1 : 0.5 : 1"
       inkscape:vp_y="0 : 1000 : 0"
       inkscape:vp_x="0 : 0.5 : 1"
       sodipodi:type="inkscape:persp3d" />
    <inkscape:perspective
       id="perspective2874"
       inkscape:persp3d-origin="0.5 : 0.33333333 : 1"
       inkscape:vp_z="1 : 0.5 : 1"
       inkscape:vp_y="0 : 1000 : 0"
       inkscape:vp_x="0 : 0.5 : 1"
       sodipodi:type="inkscape:persp3d" />
    <inkscape:perspective
       id="perspective2833"
       inkscape:persp3d-origin="0.5 : 0.33333333 : 1"
       inkscape:vp_z="1 : 0.5 : 1"
       inkscape:vp_y="0 : 1000 : 0"
       inkscape:vp_x="0 : 0.5 : 1"
       sodipodi:type="inkscape:persp3d" />
    <inkscape:perspective
       id="perspective2833-9"
       inkscape:persp3d-origin="0.5 : 0.33333333 : 1"
       inkscape:vp_z="1 : 0.5 : 1"
       inkscape:vp_y="0 : 1000 : 0"
       inkscape:vp_x="0 : 0.5 : 1"
       sodipodi:type="inkscape:persp3d" />
    <inkscape:perspective
       id="perspective2864"
       inkscape:persp3d-origin="0.5 : 0.33333333 : 1"
       inkscape:vp_z="1 : 0.5 : 1"
       inkscape:vp_y="0 : 1000 : 0"
       inkscape:vp_x="0 : 0.5 : 1"
       sodipodi:type="inkscape:persp3d" />
  </defs>
  <sodipodi:namedview
     id="base"
     pagecolor="#ffffff"
     bordercolor="#666666"
     borderopacity="1.0"
     inkscape:pageopacity="0.0"
     inkscape:pageshadow="2"
     inkscape:zoom="5.6568542"
     inkscape:cx="83.03829"
     inkscape:cy="43.032627"
     inkscape:document-units="px"
     inkscape:current-layer="g3636"
     showgrid="false"
     inkscape:window-width="1680"
     inkscape:window-height="994"
     inkscape:window-x="0"
     inkscape:window-y="0"
     inkscape:window-maximized="1" />
  <metadata
     id="metadata2851">
    <rdf:RDF>
      <cc:Work
         rdf:about="">
        <dc:format>image/svg+xml</dc:format>
        <dc:type
           rdf:resource="http://purl.org/dc/dcmitype/StillImage" />
        <dc:title></dc:title>
      </cc:Work>
    </rdf:RDF>
  </metadata>
  <g
     inkscape:label="Layer 1"
     inkscape:groupmode="layer"
     id="layer1"
     transform="translate(-298.07268,-607.53146)">
    <g
       id="g11223"
       transform="matrix(0.15557991,0,0,0.15557991,326.38597,601.6653)"
       style="fill:#606060;fill-opacity:1" />
    <g
       id="g3636"
       transform="matrix(0.75630028,0,0,0.87862403,75.351585,75.337105)">
      <g
         id="g2831"
         transform="translate(-1.0788262,0.55491523)">
        <path
           style="fill:#606060;fill-opacity:1;stroke:#969696;stroke-width:0.36857277;stroke-miterlimit:4;stroke-opacity:0.93333333;stroke-dasharray:none"
           d="m 304.82824,630.5664 c -1.47269,-0.17459 -3.16142,-0.76633 -4.03145,-1.4125 -1.42293,-1.05682 -1.17168,-2.58969 0.61564,-3.75635 1.36452,-0.89069 3.15759,-1.27194 5.38675,-1.14548 0.48125,0.0276 1.56568,0.12634 2.40989,0.22026 1.79653,0.19967 2.31128,0.21649 2.42354,0.0793 0.22486,-0.27508 0.21364,-5.2082 -0.0316,-13.87729 -0.044,-1.55304 -0.0721,-2.83072 -0.0627,-2.83932 0.0194,-0.0174 -8.9e-4,-0.0281 1.46823,0.78863 3.6757,2.04195 5.25359,2.57571 8.32561,2.81616 0.98397,0.0771 2.33069,0.14088 3.72494,0.17652 0.53917,0.0135 1.05348,0.0353 1.14301,0.0475 l 0.16278,0.0225 -0.22809,0.12692 c -0.92618,0.51514 -1.52602,0.72818 -2.7114,0.96302 -1.11167,0.22022 -2.41562,0.35587 -4.67252,0.48603 -1.61114,0.0928 -2.21188,0.16414 -2.4833,0.29451 -0.46513,0.22338 -0.0338,0.59836 0.95587,0.83125 1.08597,0.25552 2.46927,0.36055 5.47651,0.41575 2.27817,0.0419 2.65125,0.0614 2.65125,0.13895 0,0.15387 -1.64607,0.92155 -2.44022,1.13796 -1.14813,0.31295 -2.30515,0.46671 -3.8007,0.50514 -1.12061,0.0289 -2.03162,-0.0203 -3.6596,-0.19737 -0.61102,-0.0665 -1.12563,-0.11198 -1.14359,-0.10092 -0.0174,0.0116 -0.0516,2.3526 -0.0746,5.20378 -0.0457,5.63263 -0.0374,5.50436 -0.4211,6.38183 -0.23651,0.54057 -0.42894,0.74944 -1.13529,1.23232 -1.35442,0.92585 -2.45762,1.31815 -4.1197,1.46492 -0.88166,0.0779 -3.05786,0.0756 -3.72812,-0.004 z"
           id="path2818" />
        <g
           transform="matrix(0.09555596,0,0,0.09555596,265.85123,572.6537)"
           id="g2842">
          <path
             id="path5350"
             d="m 391.34697,478.09816 c -1.00582,-0.23553 -1.83095,-0.63445 -1.83095,-0.88603 0,-0.25155 2.11853,-7.4776 4.70774,-16.05779 4.88515,-16.1867 5.33593,-18.49365 3.7826,-19.3532 -1.56914,-0.86899 -25.50848,-6.21964 -25.97122,-5.80519 -0.23791,0.21348 -2.91709,8.33943 -5.95025,18.05543 -5.57825,17.86833 -6.56681,19.53894 -10.35295,17.49418 -1.1468,-0.61939 -0.46807,-3.89845 3.55477,-17.16242 2.73497,-9.01821 5.00607,-17.33182 5.04678,-18.47471 0.0774,-2.23889 -3.13351,-3.32926 -27.6674,-9.38846 -9.18591,-2.26863 -10.43261,-2.81951 -10.09878,-4.46202 0.21024,-1.03065 0.72365,-2.20012 1.14092,-2.59871 0.41715,-0.39992 8.78558,1.18349 18.59458,3.51347 9.80888,2.33132 18.5679,4.23866 19.46461,4.23866 1.63875,0 2.50823,-2.11873 6.6363,-16.16657 1.67758,-5.70949 1.70147,-6.47001 0.24122,-7.77718 -0.88964,-0.79581 -9.98006,-3.50688 -20.20022,-6.0223 -10.22041,-2.5153 -18.78478,-4.75461 -19.0321,-4.97591 -0.24675,-0.2225 0.0111,-1.49129 0.5787,-2.82151 l 1.02573,-2.4188 9.20277,2.23417 c 5.06149,1.22909 14.44349,3.48061 20.84862,5.00418 l 11.64578,2.77021 5.09329,-16.85614 c 2.80125,-9.27098 5.36769,-17.25544 5.70318,-17.74313 0.38174,-0.55627 1.60742,-0.54725 3.28389,0.0302 l 2.67432,0.91008 -5.08783,17.57689 c -2.79836,9.66726 -4.98229,17.64992 -4.8536,17.73903 1.55476,1.07493 27.53296,6.52302 27.81921,5.83394 0.21135,-0.50814 2.82991,-8.78647 5.81937,-18.39721 5.19074,-16.68635 5.54783,-17.46252 7.92128,-17.21956 1.36731,0.1393 2.70377,0.45004 2.97065,0.69055 0.26667,0.23957 -1.7111,7.92464 -4.39559,17.07936 -5.161,17.60161 -5.50227,19.45442 -3.75885,20.41923 0.60194,0.33275 8.95799,2.61343 18.56981,5.06802 17.63588,4.50314 19.48851,5.44589 17.28466,8.79498 -0.7004,1.06553 -4.25009,0.4781 -19.68645,-3.256 -16.4765,-3.98575 -18.97744,-4.37795 -19.99841,-3.13703 -1.22825,1.4916 -6.32405,17.08966 -6.87874,21.05177 -0.31424,2.24339 0.29435,2.47012 20.09024,7.50075 18.34284,4.66071 20.37561,5.37662 20.03747,7.05605 -0.20692,1.02804 -0.73805,2.21243 -1.17931,2.63219 -0.44262,0.41994 -7.81064,-0.92911 -16.37582,-2.99783 -25.73366,-6.21392 -24.41137,-6.08162 -26.0147,-2.60311 -0.75023,1.63021 -3.3856,9.39386 -5.85345,17.25254 -2.4684,7.85897 -4.99058,14.23996 -5.60448,14.18012 -0.6141,-0.0702 -1.94071,-0.29967 -2.94762,-0.5372 z m 13.74394,-52.9952 c 3.45377,-11.172 3.81813,-13.39876 2.32754,-14.22354 -0.51009,-0.28263 -6.27799,-1.7552 -12.81582,-3.27163 -9.10279,-2.1115 -12.16076,-2.49778 -13.05692,-1.64935 -1.18086,1.11654 -8.22293,23.04369 -7.55726,23.52558 0.87196,0.63144 23.60111,6.04405 25.60898,6.09888 1.96914,0.0501 2.62177,-1.19161 5.49348,-10.47994 z"
             style="fill:#606060;fill-opacity:1;stroke:#969696;stroke-width:4.2249403;stroke-miterlimit:4;stroke-opacity:0.93333333;stroke-dasharray:none" />
          <rect
             style="fill:#606060;fill-opacity:1;stroke:#969696;stroke-width:1.14196205;stroke-miterlimit:4;stroke-opacity:0.93333333;stroke-dasharray:none"
             id="rect2823"
             width="18.254049"
             height="118.14461"
             x="459.84534"
             y="279.83765"
             transform="matrix(0.98133636,0.1922991,-0.26261906,0.9648996,0,0)" />
          <rect
             style="fill:#606060;fill-opacity:1;stroke:#969696;stroke-width:1.14196205;stroke-miterlimit:4;stroke-opacity:0.93333333;stroke-dasharray:none"
             id="rect2823-5"
             width="18.254049"
             height="118.14461"
             x="499.89102"
             y="278.62842"
             transform="matrix(0.98133636,0.1922991,-0.26261906,0.9648996,0,0)" />
          <rect
             style="fill:#606060;fill-opacity:1;stroke:#969696;stroke-width:1.14144218;stroke-miterlimit:4;stroke-opacity:0.93333333;stroke-dasharray:none"
             id="rect2823-4"
             width="15.944101"
             height="135.13805"
             x="312.52237"
             y="-550.2644"
             transform="matrix(-0.25053681,0.96810707,-0.98106022,-0.19370298,0,0)" />
          <rect
             style="fill:#606060;fill-opacity:1;stroke:#969696;stroke-width:1.14144206;stroke-miterlimit:4;stroke-opacity:0.93333333;stroke-dasharray:none"
             id="rect2823-4-9"
             width="15.944101"
             height="135.13805"
             x="343.12311"
             y="-552.56805"
             transform="matrix(-0.25053681,0.96810707,-0.98106022,-0.19370297,0,0)" />
        </g>
      </g>
    </g>
  </g>
</svg>
