<?xml version="1.0" encoding="UTF-8" standalone="no"?>
<!-- Creator: CorelDRAW -->

<svg
   xmlns:dc="http://purl.org/dc/elements/1.1/"
   xmlns:cc="http://creativecommons.org/ns#"
   xmlns:rdf="http://www.w3.org/1999/02/22-rdf-syntax-ns#"
   xmlns:svg="http://www.w3.org/2000/svg"
   xmlns="http://www.w3.org/2000/svg"
   xmlns:xlink="http://www.w3.org/1999/xlink"
   xmlns:sodipodi="http://sodipodi.sourceforge.net/DTD/sodipodi-0.dtd"
   xmlns:inkscape="http://www.inkscape.org/namespaces/inkscape"
   xml:space="preserve"
   width="256"
   height="256"
   style="fill-rule:evenodd"
   viewBox="0 0 88.069622 533.95137"
   id="svg2"
   sodipodi:version="0.32"
   inkscape:version="0.47 r22583"
   sodipodi:docname="date1.svg"
   inkscape:output_extension="org.inkscape.output.svg.inkscape"
   version="1.0"
   sodipodi:modified="true"><metadata
   id="metadata149"><rdf:RDF><cc:Work
       rdf:about=""><dc:format>image/svg+xml</dc:format><dc:type
         rdf:resource="http://purl.org/dc/dcmitype/StillImage" /><dc:title></dc:title></cc:Work></rdf:RDF></metadata><sodipodi:namedview
   inkscape:window-height="994"
   inkscape:window-width="1680"
   inkscape:pageshadow="2"
   inkscape:pageopacity="0.0"
   guidetolerance="10.0"
   gridtolerance="10.0"
   objecttolerance="10.0"
   borderopacity="1.0"
   bordercolor="#666666"
   pagecolor="#ffffff"
   id="base"
   inkscape:zoom="1.0132605"
   inkscape:cx="-79.012645"
   inkscape:cy="95.881316"
   inkscape:window-x="0"
   inkscape:window-y="0"
   inkscape:current-layer="svg2"
   showgrid="false"
   inkscape:window-maximized="1" />
 <defs
   id="defs4"><inkscape:perspective
   sodipodi:type="inkscape:persp3d"
   inkscape:vp_x="0 : 71.197495 : 1"
   inkscape:vp_y="0 : 1000 : 0"
   inkscape:vp_z="610.42615 : 71.197495 : 1"
   inkscape:persp3d-origin="305.21307 : 47.464996 : 1"
   id="perspective9" />
  <style
   type="text/css"
   id="style6">
   
    .str0 {stroke:#1F1A17;stroke-width:0.0762}
    .fil0 {fill:#1F1A17}
    .fil1 {fill:white}
   
  </style>
 
  <metadata
   id="CorelCorpID_0Corel-Layer" />
  
  
  
  
  
  
  
  
  
  
  
  
  
  
  
  
  
  
  
  
  
  
  
  
  
  
  
  
  
  
  
  
  
  
  
  
  
  
  
  
  
  
  
  
  
  
  
  
  
  
  
  
  
  
  
  
  
  
  
  
  
  
  
  
  
  
  
  
  
 <inkscape:perspective
   id="perspective2918"
   inkscape:persp3d-origin="0.5 : 0.33333333 : 1"
   inkscape:vp_z="1 : 0.5 : 1"
   inkscape:vp_y="0 : 1000 : 0"
   inkscape:vp_x="0 : 0.5 : 1"
   sodipodi:type="inkscape:persp3d" /><inkscape:perspective
   id="perspective3625"
   inkscape:persp3d-origin="0.5 : 0.33333333 : 1"
   inkscape:vp_z="1 : 0.5 : 1"
   inkscape:vp_y="0 : 1000 : 0"
   inkscape:vp_x="0 : 0.5 : 1"
   sodipodi:type="inkscape:persp3d" /><inkscape:perspective
   id="perspective3625-1"
   inkscape:persp3d-origin="0.5 : 0.33333333 : 1"
   inkscape:vp_z="1 : 0.5 : 1"
   inkscape:vp_y="0 : 1000 : 0"
   inkscape:vp_x="0 : 0.5 : 1"
   sodipodi:type="inkscape:persp3d" /><inkscape:perspective
   id="perspective2881"
   inkscape:persp3d-origin="0.5 : 0.33333333 : 1"
   inkscape:vp_z="1 : 0.5 : 1"
   inkscape:vp_y="0 : 1000 : 0"
   inkscape:vp_x="0 : 0.5 : 1"
   sodipodi:type="inkscape:persp3d" /><inkscape:perspective
   id="perspective3477"
   inkscape:persp3d-origin="0.5 : 0.33333333 : 1"
   inkscape:vp_z="1 : 0.5 : 1"
   inkscape:vp_y="0 : 1000 : 0"
   inkscape:vp_x="0 : 0.5 : 1"
   sodipodi:type="inkscape:persp3d" /><clipPath
   id="clip_bars_ean13"><path
     d="m-95,-75 h 190 v 140 h -6 v -10 h -86 v 10 h -6 v -10 h -86 v 10 h -6 v -140z"
     id="path493" /></clipPath><inkscape:perspective
   id="perspective3477-8"
   inkscape:persp3d-origin="0.5 : 0.33333333 : 1"
   inkscape:vp_z="1 : 0.5 : 1"
   inkscape:vp_y="0 : 1000 : 0"
   inkscape:vp_x="0 : 0.5 : 1"
   sodipodi:type="inkscape:persp3d" /><clipPath
   id="clip_bars_ean13-5"><path
     d="m-95,-75 h 190 v 140 h -6 v -10 h -86 v 10 h -6 v -10 h -86 v 10 h -6 v -140z"
     id="path493-7" /></clipPath><inkscape:perspective
   id="perspective3477-89"
   inkscape:persp3d-origin="0.5 : 0.33333333 : 1"
   inkscape:vp_z="1 : 0.5 : 1"
   inkscape:vp_y="0 : 1000 : 0"
   inkscape:vp_x="0 : 0.5 : 1"
   sodipodi:type="inkscape:persp3d" /><clipPath
   id="clip_bars_ean13-7"><path
     d="m-95,-75 h 190 v 140 h -6 v -10 h -86 v 10 h -6 v -10 h -86 v 10 h -6 v -140z"
     id="path493-76" /></clipPath><inkscape:perspective
   id="perspective3357"
   inkscape:persp3d-origin="0.5 : 0.33333333 : 1"
   inkscape:vp_z="1 : 0.5 : 1"
   inkscape:vp_y="0 : 1000 : 0"
   inkscape:vp_x="0 : 0.5 : 1"
   sodipodi:type="inkscape:persp3d" /><clipPath
   id="clip_bars_ean13-0"><path
     d="M -95,-75 H 95 V 65 H 89 V 55 H 3 V 65 H -3 V 55 h -86 v 10 h -6 V -75 z"
     id="path493-8" /></clipPath><inkscape:perspective
   id="perspective2829"
   inkscape:persp3d-origin="0.5 : 0.33333333 : 1"
   inkscape:vp_z="1 : 0.5 : 1"
   inkscape:vp_y="0 : 1000 : 0"
   inkscape:vp_x="0 : 0.5 : 1"
   sodipodi:type="inkscape:persp3d" /><inkscape:perspective
   id="perspective3000"
   inkscape:persp3d-origin="0.5 : 0.33333333 : 1"
   inkscape:vp_z="1 : 0.5 : 1"
   inkscape:vp_y="0 : 1000 : 0"
   inkscape:vp_x="0 : 0.5 : 1"
   sodipodi:type="inkscape:persp3d" /><inkscape:perspective
   id="perspective3047"
   inkscape:persp3d-origin="0.5 : 0.33333333 : 1"
   inkscape:vp_z="1 : 0.5 : 1"
   inkscape:vp_y="0 : 1000 : 0"
   inkscape:vp_x="0 : 0.5 : 1"
   sodipodi:type="inkscape:persp3d" /><linearGradient
   x1="305.5791"
   y1="59.685101"
   x2="305.5791"
   y2="32.899399"
   id="XMLID_26_"
   gradientUnits="userSpaceOnUse"
   gradientTransform="matrix(-1,0,0,-1,370.68309,93.027037)"><stop
     id="stop146"
     style="stop-color:#008c00;stop-opacity:1"
     offset="0" /><stop
     id="stop148"
     style="stop-color:#72d13d;stop-opacity:1"
     offset="0.574" /></linearGradient><inkscape:perspective
   id="perspective3073"
   inkscape:persp3d-origin="0.5 : 0.33333333 : 1"
   inkscape:vp_z="1 : 0.5 : 1"
   inkscape:vp_y="0 : 1000 : 0"
   inkscape:vp_x="0 : 0.5 : 1"
   sodipodi:type="inkscape:persp3d" /><linearGradient
   x1="31.2061"
   y1="3"
   x2="31.2061"
   y2="15.8569"
   id="XMLID_29_"
   gradientUnits="userSpaceOnUse"><stop
     id="stop171"
     style="stop-color:#323232;stop-opacity:1"
     offset="0" /><stop
     id="stop173"
     style="stop-color:#dddddd;stop-opacity:1"
     offset="0.3669" /><stop
     id="stop175"
     style="stop-color:#d9d9d9;stop-opacity:1"
     offset="0.45289999" /><stop
     id="stop177"
     style="stop-color:#cbcbcb;stop-opacity:1"
     offset="0.54699999" /><stop
     id="stop179"
     style="stop-color:#b6b6b6;stop-opacity:1"
     offset="0.64490002" /><stop
     id="stop181"
     style="stop-color:#979797;stop-opacity:1"
     offset="0.74470001" /><stop
     id="stop183"
     style="stop-color:#888888;stop-opacity:1"
     offset="0.787" /></linearGradient><linearGradient
   x1="168.60741"
   y1="-103.2939"
   x2="172.4641"
   y2="-103.2939"
   id="XMLID_32_"
   gradientUnits="userSpaceOnUse"
   gradientTransform="matrix(0,-1,1,0,134.5,180.5)"><stop
     id="stop212"
     style="stop-color:#ffffff;stop-opacity:0"
     offset="0" /><stop
     id="stop214"
     style="stop-color:#ffffff;stop-opacity:1"
     offset="1" /></linearGradient><inkscape:perspective
   id="perspective3828"
   inkscape:persp3d-origin="0.5 : 0.33333333 : 1"
   inkscape:vp_z="1 : 0.5 : 1"
   inkscape:vp_y="0 : 1000 : 0"
   inkscape:vp_x="0 : 0.5 : 1"
   sodipodi:type="inkscape:persp3d" /><inkscape:perspective
   id="perspective3856"
   inkscape:persp3d-origin="0.5 : 0.33333333 : 1"
   inkscape:vp_z="1 : 0.5 : 1"
   inkscape:vp_y="0 : 1000 : 0"
   inkscape:vp_x="0 : 0.5 : 1"
   sodipodi:type="inkscape:persp3d" /><filter
   inkscape:collect="always"
   id="filter3979"><feGaussianBlur
     inkscape:collect="always"
     stdDeviation="0.5184524"
     id="feGaussianBlur3981" /></filter><inkscape:perspective
   id="perspective2830"
   inkscape:persp3d-origin="0.5 : 0.33333333 : 1"
   inkscape:vp_z="1 : 0.5 : 1"
   inkscape:vp_y="0 : 1000 : 0"
   inkscape:vp_x="0 : 0.5 : 1"
   sodipodi:type="inkscape:persp3d" /></defs>
 
<path
   sodipodi:type="arc"
   style="fill:#606060;fill-opacity:1;fill-rule:evenodd;stroke:none"
   id="path2820"
   sodipodi:cx="2.0170603"
   sodipodi:cy="3.2616172"
   sodipodi:rx="32.536057"
   sodipodi:ry="32.536057"
   d="m 34.553117,3.2616172 a 32.536057,32.536057 0 1 1 -65.072113,0 32.536057,32.536057 0 1 1 65.072113,0 z"
   transform="matrix(7.8426358,0,0,7.8426358,26.780298,234.59766)" /><g
   transform="matrix(2.0857475,0,0,2.0857475,48.206306,198.14602)"
   id="bars"
   clip-path="url(#clip_bars_ean13)"><use
     id="use501"
     xlink:href="#guard_left"
     transform="translate(-92,0)"
     x="0"
     y="0"
     width="1"
     height="1" /><use
     id="use503"
     xlink:href="#left_odd_0"
     transform="translate(-82,0)"
     x="0"
     y="0"
     width="1"
     height="1" /><use
     id="use505"
     xlink:href="#left_odd_7"
     transform="translate(-68,0)"
     x="0"
     y="0"
     width="1"
     height="1" /><use
     id="use507"
     xlink:href="#left_odd_5"
     transform="translate(-54,0)"
     x="0"
     y="0"
     width="1"
     height="1" /><use
     id="use509"
     xlink:href="#left_odd_6"
     transform="translate(-40,0)"
     x="0"
     y="0"
     width="1"
     height="1" /><use
     id="use511"
     xlink:href="#left_odd_7"
     transform="translate(-26,0)"
     x="0"
     y="0"
     width="1"
     height="1" /><use
     id="use513"
     xlink:href="#left_odd_8"
     transform="translate(-12,0)"
     x="0"
     y="0"
     width="1"
     height="1" /><use
     id="use515"
     xlink:href="#guard_center"
     x="0"
     y="0"
     width="1"
     height="1" /><use
     id="use517"
     xlink:href="#right_1"
     transform="translate(12,0)"
     x="0"
     y="0"
     width="1"
     height="1" /><use
     id="use519"
     xlink:href="#right_6"
     transform="translate(26,0)"
     x="0"
     y="0"
     width="1"
     height="1" /><use
     id="use521"
     xlink:href="#right_4"
     transform="translate(40,0)"
     x="0"
     y="0"
     width="1"
     height="1" /><use
     id="use523"
     xlink:href="#right_1"
     transform="translate(54,0)"
     x="0"
     y="0"
     width="1"
     height="1" /><use
     id="use525"
     xlink:href="#right_2"
     transform="translate(68,0)"
     x="0"
     y="0"
     width="1"
     height="1" /><use
     id="use527"
     xlink:href="#right_5"
     transform="translate(82,0)"
     x="0"
     y="0"
     width="1"
     height="1" /><use
     id="use529"
     xlink:href="#guard_right"
     transform="translate(92,0)"
     x="0"
     y="0"
     width="1"
     height="1" /></g><g
   transform="matrix(2.0857475,0,0,2.0857475,48.206306,198.14602)"
   id="bars-4"
   clip-path="url(#clip_bars_ean13-5)"><use
     id="use501-1"
     xlink:href="#guard_left"
     transform="translate(-92,0)"
     x="0"
     y="0"
     width="1"
     height="1" /><use
     id="use503-8"
     xlink:href="#left_odd_0"
     transform="translate(-82,0)"
     x="0"
     y="0"
     width="1"
     height="1" /><use
     id="use505-5"
     xlink:href="#left_odd_7"
     transform="translate(-68,0)"
     x="0"
     y="0"
     width="1"
     height="1" /><use
     id="use507-9"
     xlink:href="#left_odd_5"
     transform="translate(-54,0)"
     x="0"
     y="0"
     width="1"
     height="1" /><use
     id="use509-7"
     xlink:href="#left_odd_6"
     transform="translate(-40,0)"
     x="0"
     y="0"
     width="1"
     height="1" /><use
     id="use511-5"
     xlink:href="#left_odd_7"
     transform="translate(-26,0)"
     x="0"
     y="0"
     width="1"
     height="1" /><use
     id="use513-3"
     xlink:href="#left_odd_8"
     transform="translate(-12,0)"
     x="0"
     y="0"
     width="1"
     height="1" /><use
     id="use515-8"
     xlink:href="#guard_center"
     x="0"
     y="0"
     width="1"
     height="1" /><use
     id="use517-8"
     xlink:href="#right_1"
     transform="translate(12,0)"
     x="0"
     y="0"
     width="1"
     height="1" /><use
     id="use519-3"
     xlink:href="#right_6"
     transform="translate(26,0)"
     x="0"
     y="0"
     width="1"
     height="1" /><use
     id="use521-1"
     xlink:href="#right_4"
     transform="translate(40,0)"
     x="0"
     y="0"
     width="1"
     height="1" /><use
     id="use523-8"
     xlink:href="#right_1"
     transform="translate(54,0)"
     x="0"
     y="0"
     width="1"
     height="1" /><use
     id="use525-9"
     xlink:href="#right_2"
     transform="translate(68,0)"
     x="0"
     y="0"
     width="1"
     height="1" /><use
     id="use527-6"
     xlink:href="#right_5"
     transform="translate(82,0)"
     x="0"
     y="0"
     width="1"
     height="1" /><use
     id="use529-4"
     xlink:href="#guard_right"
     transform="translate(92,0)"
     x="0"
     y="0"
     width="1"
     height="1" /></g><g
   transform="matrix(2.0857475,0,0,2.0857475,48.206306,198.14602)"
   id="bars-43"
   clip-path="url(#clip_bars_ean13-7)"><use
     id="use501-0"
     xlink:href="#guard_left"
     transform="translate(-92,0)"
     x="0"
     y="0"
     width="1"
     height="1" /><use
     id="use503-3"
     xlink:href="#left_odd_0"
     transform="translate(-82,0)"
     x="0"
     y="0"
     width="1"
     height="1" /><use
     id="use505-0"
     xlink:href="#left_odd_7"
     transform="translate(-68,0)"
     x="0"
     y="0"
     width="1"
     height="1" /><use
     id="use507-92"
     xlink:href="#left_odd_5"
     transform="translate(-54,0)"
     x="0"
     y="0"
     width="1"
     height="1" /><use
     id="use509-5"
     xlink:href="#left_odd_6"
     transform="translate(-40,0)"
     x="0"
     y="0"
     width="1"
     height="1" /><use
     id="use511-4"
     xlink:href="#left_odd_7"
     transform="translate(-26,0)"
     x="0"
     y="0"
     width="1"
     height="1" /><use
     id="use513-0"
     xlink:href="#left_odd_8"
     transform="translate(-12,0)"
     x="0"
     y="0"
     width="1"
     height="1" /><use
     id="use515-5"
     xlink:href="#guard_center"
     x="0"
     y="0"
     width="1"
     height="1" /><use
     id="use517-9"
     xlink:href="#right_1"
     transform="translate(12,0)"
     x="0"
     y="0"
     width="1"
     height="1" /><use
     id="use519-4"
     xlink:href="#right_6"
     transform="translate(26,0)"
     x="0"
     y="0"
     width="1"
     height="1" /><use
     id="use521-6"
     xlink:href="#right_4"
     transform="translate(40,0)"
     x="0"
     y="0"
     width="1"
     height="1" /><use
     id="use523-9"
     xlink:href="#right_1"
     transform="translate(54,0)"
     x="0"
     y="0"
     width="1"
     height="1" /><use
     id="use525-2"
     xlink:href="#right_2"
     transform="translate(68,0)"
     x="0"
     y="0"
     width="1"
     height="1" /><use
     id="use527-2"
     xlink:href="#right_5"
     transform="translate(82,0)"
     x="0"
     y="0"
     width="1"
     height="1" /><use
     id="use529-47"
     xlink:href="#guard_right"
     transform="translate(92,0)"
     x="0"
     y="0"
     width="1"
     height="1" /></g><g
   id="g4091"
   transform="matrix(0.89065015,0,0,0.89065015,0.59359999,26.081889)"><rect
     y="155.47614"
     x="-93.447563"
     width="283.21857"
     style="font-size:12px;fill:#ffffff;fill-opacity:1;fill-rule:evenodd;stroke:#ffffff;stroke-width:21.29206848;stroke-linecap:round;stroke-linejoin:round;stroke-opacity:1;stroke-dasharray:none"
     sodipodi:stroke-cmyk="(0 0 0 0.8)"
     rx="13.626925"
     id="rect788"
     height="273.76755" /><rect
     y="111.69553"
     x="-129.00317"
     width="355.55579"
     style="font-size:12px;fill:#606060;fill-opacity:1;fill-rule:evenodd;stroke:#ffffff;stroke-width:21.29207611;stroke-linecap:round;stroke-linejoin:round;stroke-opacity:1;stroke-dasharray:none"
     sodipodi:stroke-cmyk="(0 0 0 0.8)"
     rx="13.817511"
     id="rect804"
     height="55.172443" /><path
     style="font-size:12px;fill:#606060;fill-opacity:1;stroke-width:1pt;font-family:VAG Rounded Black SSi"
     id="path840"
     d="m 94.547188,209.94564 c 9.106842,0 17.461372,1.62341 25.063612,4.87019 7.68143,3.24682 14.1354,7.60225 19.36192,13.06635 5.22655,5.38492 9.30481,11.7993 12.23485,19.24314 2.93001,7.36466 4.39502,15.24405 4.39502,23.6382 0,11.40335 -3.28638,24.31126 -9.85913,38.72383 -6.4936,14.41254 -14.53135,28.19162 -24.11333,41.33712 -9.58198,13.06634 -18.84719,23.83619 -27.795668,32.30949 -1.742181,1.663 -4.355427,3.60314 -7.83979,5.82046 -1.74219,1.18787 -4.157466,1.78175 -7.24588,1.78175 -3.563521,0 -7.364657,-1.90055 -11.403346,-5.70166 -3.959478,-3.88029 -5.939213,-7.99816 -5.939213,-12.35362 0,-1.5046 0.395922,-2.96961 1.187828,-4.39502 0.791907,-1.50464 2.098547,-3.3656 3.919913,-5.58292 2.217323,-2.77164 6.097608,-7.24588 11.640899,-13.42267 5.622476,-6.25598 10.057123,-11.24498 13.303906,-14.96691 3.246777,-3.72191 6.137231,-7.40425 8.671291,-11.04698 l -0.475168,-0.4751 c -4.276207,1.97973 -9.383987,2.9696 -15.323236,2.9696 -9.423603,0 -18.015689,-2.4945 -25.776294,-7.48343 -7.760615,-5.06815 -13.897815,-11.83889 -18.411673,-20.3122 -4.434612,-8.55251 -6.651935,-17.61977 -6.651935,-27.20174 0,-8.07739 1.465,-15.71919 4.395046,-22.92548 2.930018,-7.28547 7.166669,-13.77904 12.70996,-19.48072 5.622502,-5.78085 12.15566,-10.29467 19.599501,-13.54145 7.523061,-3.24679 15.640032,-4.8702 24.350917,-4.8702 z m 0,86.35659 c 6.810342,0 12.353632,-2.41528 16.629902,-7.24588 4.27624,-4.83056 6.41435,-10.92817 6.41435,-18.29283 0,-7.04793 -2.09852,-13.06635 -6.2956,-18.05532 -4.11788,-4.98896 -9.70076,-7.48343 -16.748652,-7.48343 -6.810334,0 -12.393218,2.49447 -16.748671,7.48343 -4.276243,4.90978 -6.414382,10.92821 -6.414382,18.05532 0,6.9687 2.019363,12.98712 6.058052,18.05528 4.117874,4.98893 9.819525,7.48343 17.105001,7.48343 z m -122.94232,73.6466 0,-123.29864 -14.372952,0 c -5.464104,0 -9.581979,-1.62342 -12.353623,-4.8702 -2.771645,-3.24678 -4.157467,-7.20629 -4.157467,-11.87848 0,-4.59301 1.465006,-8.59211 4.395019,-11.99726 3.00923,-3.40516 7.04792,-5.10774 12.116071,-5.10774 l 34.566367,0 c 3.4051875,0 6.3351975,0.79187 8.79010988,2.37569 2.45487672,1.50459 4.31583472,3.56355 5.58288312,6.17679 1.2670127,2.53409 1.9005503,5.54332 1.9005503,9.02765 l 0,139.57219 c 0,6.17683 -1.6630061,10.92821 -4.9889646,14.25422 -3.32596736,3.32593 -7.7210225,4.98896 -13.1851287,4.98896 -5.384887,0 -9.779938,-1.70263 -13.185089,-5.10778 -3.405184,-3.40515 -5.107776,-8.11694 -5.107776,-14.1354 z" /></g></svg>