<?xml version="1.0" encoding="UTF-8" standalone="no"?>
<!-- Creator: CorelDRAW -->

<svg
   xmlns:dc="http://purl.org/dc/elements/1.1/"
   xmlns:cc="http://creativecommons.org/ns#"
   xmlns:rdf="http://www.w3.org/1999/02/22-rdf-syntax-ns#"
   xmlns:svg="http://www.w3.org/2000/svg"
   xmlns="http://www.w3.org/2000/svg"
   xmlns:sodipodi="http://sodipodi.sourceforge.net/DTD/sodipodi-0.dtd"
   xmlns:inkscape="http://www.inkscape.org/namespaces/inkscape"
   xml:space="preserve"
   width="256"
   height="256"
   style="fill-rule:evenodd"
   viewBox="0 0 88.069622 533.95137"
   id="svg2"
   sodipodi:version="0.32"
   inkscape:version="0.47 r22583"
   sodipodi:docname=" media-codec.svg"
   inkscape:output_extension="org.inkscape.output.svg.inkscape"
   version="1.0"
   sodipodi:modified="true"><metadata
   id="metadata149"><rdf:RDF><cc:Work
       rdf:about=""><dc:format>image/svg+xml</dc:format><dc:type
         rdf:resource="http://purl.org/dc/dcmitype/StillImage" /><dc:title></dc:title></cc:Work></rdf:RDF></metadata><sodipodi:namedview
   inkscape:window-height="994"
   inkscape:window-width="1680"
   inkscape:pageshadow="2"
   inkscape:pageopacity="0.0"
   guidetolerance="10.0"
   gridtolerance="10.0"
   objecttolerance="10.0"
   borderopacity="1.0"
   bordercolor="#666666"
   pagecolor="#ffffff"
   id="base"
   inkscape:zoom="1.0132605"
   inkscape:cx="-32.231592"
   inkscape:cy="58.378621"
   inkscape:window-x="0"
   inkscape:window-y="0"
   inkscape:current-layer="svg2"
   showgrid="false"
   inkscape:window-maximized="1" />
 <defs
   id="defs4"><inkscape:perspective
   sodipodi:type="inkscape:persp3d"
   inkscape:vp_x="0 : 71.197495 : 1"
   inkscape:vp_y="0 : 1000 : 0"
   inkscape:vp_z="610.42615 : 71.197495 : 1"
   inkscape:persp3d-origin="305.21307 : 47.464996 : 1"
   id="perspective9" />
  <style
   type="text/css"
   id="style6">
   
    .str0 {stroke:#1F1A17;stroke-width:0.0762}
    .fil0 {fill:#1F1A17}
    .fil1 {fill:white}
   
  </style>
 
  <metadata
   id="CorelCorpID_0Corel-Layer" />
  
  
  
  
  
  
  
  
  
  
  
  
  
  
  
  
  
  
  
  
  
  
  
  
  
  
  
  
  
  
  
  
  
  
  
  
  
  
  
  
  
  
  
  
  
  
  
  
  
  
  
  
  
  
  
  
  
  
  
  
  
  
  
  
  
  
  
  
  
 <inkscape:perspective
   id="perspective2918"
   inkscape:persp3d-origin="0.5 : 0.33333333 : 1"
   inkscape:vp_z="1 : 0.5 : 1"
   inkscape:vp_y="0 : 1000 : 0"
   inkscape:vp_x="0 : 0.5 : 1"
   sodipodi:type="inkscape:persp3d" /><inkscape:perspective
   id="perspective3625"
   inkscape:persp3d-origin="0.5 : 0.33333333 : 1"
   inkscape:vp_z="1 : 0.5 : 1"
   inkscape:vp_y="0 : 1000 : 0"
   inkscape:vp_x="0 : 0.5 : 1"
   sodipodi:type="inkscape:persp3d" /><inkscape:perspective
   id="perspective3625-1"
   inkscape:persp3d-origin="0.5 : 0.33333333 : 1"
   inkscape:vp_z="1 : 0.5 : 1"
   inkscape:vp_y="0 : 1000 : 0"
   inkscape:vp_x="0 : 0.5 : 1"
   sodipodi:type="inkscape:persp3d" /><inkscape:perspective
   id="perspective2881"
   inkscape:persp3d-origin="0.5 : 0.33333333 : 1"
   inkscape:vp_z="1 : 0.5 : 1"
   inkscape:vp_y="0 : 1000 : 0"
   inkscape:vp_x="0 : 0.5 : 1"
   sodipodi:type="inkscape:persp3d" /></defs>
 
<path
   sodipodi:type="arc"
   style="fill:#606060;fill-opacity:1;fill-rule:evenodd;stroke:none"
   id="path2820"
   sodipodi:cx="2.0170603"
   sodipodi:cy="3.2616172"
   sodipodi:rx="32.536057"
   sodipodi:ry="32.536057"
   d="m 34.553117,3.2616172 a 32.536057,32.536057 0 1 1 -65.072113,0 32.536057,32.536057 0 1 1 65.072113,0 z"
   transform="matrix(7.8426358,0,0,7.8426358,26.780298,234.59766)" /><path
   style="fill:#ffffff;fill-opacity:1;stroke:#1f1a17;stroke-width:0.19995202"
   d="m -62.044212,46.927245 -2.83169,2.3134 2.28413,2.79584 c 0.68963,0.8441 0.56528,2.07829 -0.27884,2.76791 l -7.29425,5.95921 c -0.8441,0.6896 -2.0783,0.56529 -2.76791,-0.27883 l -2.28413,-2.79583 -55.665788,45.477345 2.79658,3.4231 c 0.6896,0.84412 0.56527,2.07831 -0.27882,2.76792 l -7.27634,5.94455 c -0.84412,0.68964 -2.07831,0.56532 -2.76792,-0.27881 l -2.79658,-3.4231 -2.34779,1.91806 285.88052,349.92739 17.59943,-14.37822 -6.86699,-8.40543 45.71906,-37.35115 6.867,8.40543 18.19084,-14.8614 L -62.044212,46.927245 z m 4.91381,11.79414 3.83615,4.69557 c 0.68963,0.8441 0.57994,2.09623 -0.26418,2.78585 l -7.29425,5.9592 c -0.84412,0.6896 -2.09295,0.54736 -2.78258,-0.29674 l -3.83614,-4.69558 c -0.6896,-0.84412 -0.56528,-2.07831 0.27882,-2.76793 l 7.29427,-5.95919 c 0.8441,-0.68961 2.07831,-0.56529 2.76791,0.27882 z m 9.29753,11.38049 3.85077,4.71349 c 0.68963,0.8441 0.56531,2.07831 -0.27881,2.76792 l -7.29425,5.9592 c -0.84411,0.6896 -2.07831,0.56528 -2.76793,-0.27881 l -3.85079,-4.7135 c -0.6896,-0.84413 -0.56529,-2.07831 0.27882,-2.76793 l 7.29426,-5.95919 c 0.84412,-0.68961 2.07832,-0.56531 2.76793,0.27882 z m 9.31216,11.3984 3.83614,4.69557 c 0.68963,0.8441 0.56529,2.0783 -0.27882,2.76792 l -7.29426,5.95919 c -0.8441,0.68961 -2.0783,0.5653 -2.76792,-0.2788 l -3.83615,-4.69558 c -0.68961,-0.84413 -0.56529,-2.07831 0.27883,-2.76792 l 7.29425,-5.95921 c 0.84413,-0.68961 2.07832,-0.56529 2.76793,0.27883 z m 9.29752,11.38048 3.85079,4.71349 c 0.68962,0.84409 0.56529,2.07831 -0.27883,2.767925 l -7.29425,5.95921 c -0.84411,0.6896 -2.07831,0.56527 -2.76793,-0.27882 l -3.85079,-4.7135 c -0.6896,-0.84412 -0.56528,-2.078315 0.27883,-2.767925 l 7.29426,-5.9592 c 0.84412,-0.68962 2.07831,-0.56529 2.76792,0.27882 z m 9.31217,11.398405 3.83614,4.69557 c 0.68963,0.84411 0.56529,2.07831 -0.27883,2.76793 l -7.29425,5.9592 c -0.84411,0.68961 -2.0783,0.56529 -2.76792,-0.27882 l -3.83615,-4.69558 c -0.68961,-0.84413 -0.56529,-2.07831 0.27882,-2.76792 l 7.29427,-5.95919 c 0.84411,-0.68963 2.07831,-0.56531 2.76792,0.27881 z m 9.29752,11.3805 3.8507799,4.71348 c 0.68964,0.84412 0.5653,2.0783 -0.27882,2.76792 l -7.2942599,5.95921 c -0.8441,0.68961 -2.0783,0.56529 -2.76793,-0.27882 l -3.85078,-4.71349 c -0.6896,-0.84413 -0.56527,-2.0783 0.27883,-2.76792 l 7.29426,-5.95921 c 0.84412,-0.68962 2.07831,-0.5653 2.76792,0.27883 z m 9.3121599,11.3984 3.83614,4.69556 c 0.68964,0.84411 0.56529,2.07831 -0.27882,2.76793 l -7.29426,5.9592 c -0.84409,0.68961 -2.0783,0.56528 -2.76792,-0.27882 l -3.8361399,-4.69557 c -0.68961,-0.84412 -0.56529,-2.07831 0.27883,-2.76793 l 7.2942499,-5.95919 c 0.84412,-0.68963 2.07831,-0.5653 2.76792,0.27882 z m 9.29752,11.38048 3.8508001,4.7135 c 0.68962,0.84409 0.56529,2.0783 -0.27882,2.76791 l -7.2942701,5.9592 c -0.84411,0.68961 -2.0783,0.56529 -2.76792,-0.27881 l -3.85079,-4.7135 c -0.6896,-0.84412 -0.56528,-2.07832 0.27883,-2.76792 l 7.29425,-5.95919 c 0.84412,-0.68963 2.07831,-0.56531 2.76792,0.27881 z m 9.3121701,11.3984 3.83615,4.69557 c 0.68962,0.84411 0.56529,2.0783 -0.27883,2.76792 l -7.29426,5.9592 c -0.8441,0.6896 -2.0783,0.56529 -2.76792,-0.27882 l -3.8361401,-4.69557 c -0.68961,-0.84412 -0.57994,-2.09624 0.26417,-2.78584 l 7.2942701,-5.95919 c 0.84412,-0.68964 2.09295,-0.54739 2.78256,0.29673 z m 9.29753,11.38048 3.85078,4.7135 c 0.68964,0.8441 0.5653,2.0783 -0.27882,2.76792 l -7.29425,5.9592 c -0.84411,0.68961 -2.07831,0.56529 -2.76793,-0.27882 l -3.85079,-4.7135 c -0.68961,-0.84412 -0.5653,-2.07832 0.27882,-2.76792 l 7.29426,-5.95919 c 0.84411,-0.68962 2.07831,-0.56531 2.76793,0.27881 z m 9.29752,11.38049 3.85078,4.71348 c 0.68962,0.84411 0.56531,2.07832 -0.27882,2.76794 l -7.29426,5.9592 c -0.84409,0.6896 -2.0783,0.56527 -2.76793,-0.27883 l -3.85077,-4.71349 c -0.6896,-0.84413 -0.56529,-2.07831 0.27882,-2.76793 l 7.29425,-5.9592 c 0.84413,-0.68961 2.07833,-0.56529 2.76793,0.27883 z m 9.31216,11.3984 3.85079,4.71348 c 0.68963,0.84413 0.56529,2.07831 -0.27884,2.76793 l -7.29424,5.95921 c -0.84411,0.68958 -2.0783,0.56528 -2.76792,-0.27883 l -3.8508,-4.71349 c -0.6896,-0.84412 -0.56527,-2.07831 0.27883,-2.76793 l 7.29426,-5.95919 c 0.84412,-0.68963 2.07831,-0.56529 2.76792,0.27882 z m 9.29753,11.38049 3.85078,4.71348 c 0.68962,0.84409 0.5653,2.07831 -0.27883,2.76793 l -7.29425,5.9592 c -0.84411,0.68959 -2.07829,0.56528 -2.76792,-0.27883 l -3.85079,-4.71349 c -0.68961,-0.84413 -0.56528,-2.07831 0.27883,-2.76793 l 7.29425,-5.95919 c 0.84412,-0.68963 2.07832,-0.5653 2.76793,0.27883 z m 9.31217,11.3984 3.85077,4.71348 c 0.68963,0.8441 0.5653,2.07832 -0.27882,2.76793 l -7.29424,5.9592 c -0.84412,0.68961 -2.07832,0.56528 -2.76794,-0.27882 l -3.85078,-4.71349 c -0.68961,-0.84413 -0.56528,-2.07832 0.27881,-2.76793 l 7.29427,-5.9592 c 0.84411,-0.68963 2.07831,-0.5653 2.76793,0.27883 z m 9.29752,11.38047 3.85077,4.71349 c 0.68963,0.84412 0.5653,2.07831 -0.27882,2.76792 l -7.29427,5.95919 c -0.84408,0.68964 -2.07829,0.56531 -2.76791,-0.2788 l -3.85077,-4.7135 c -0.68961,-0.8441 -0.56531,-2.07831 0.2788,-2.76793 l 7.29426,-5.95919 c 0.84413,-0.6896 2.07833,-0.56528 2.76794,0.27882 z m 9.31215,11.39839 3.8508,4.71351 c 0.68962,0.84411 0.56528,2.0783 -0.27882,2.76792 l -7.29427,5.95919 c -0.84408,0.68964 -2.07831,0.56528 -2.76792,-0.2788 l -3.8508,-4.71351 c -0.68961,-0.84412 -0.56528,-2.0783 0.27884,-2.76792 l 7.29425,-5.95919 c 0.84412,-0.68962 2.07831,-0.56532 2.76792,0.2788 z m 9.29753,11.3805 3.85078,4.71349 c 0.68961,0.84409 0.56528,2.07828 -0.27883,2.76792 l -7.29424,5.9592 c -0.84412,0.68962 -2.07832,0.56528 -2.76794,-0.27884 l -3.85077,-4.71346 c -0.68962,-0.84413 -0.5653,-2.07834 0.27882,-2.76793 l 7.29426,-5.9592 c 0.84412,-0.68961 2.07831,-0.5653 2.76792,0.27882 z m 9.312172,11.39839 3.85076,4.71347 c 0.68962,0.84413 0.56529,2.07831 -0.27882,2.76793 l -7.294262,5.9592 c -0.84412,0.6896 -2.0783,0.5653 -2.76793,-0.27882 l -3.85076,-4.71347 c -0.68961,-0.84411 -0.5653,-2.07833 0.27881,-2.76795 l 7.29427,-5.95919 c 0.8441,-0.68961 2.078302,-0.5653 2.767932,0.27883 z m 9.2975,11.38047 3.85079,4.71349 c 0.68962,0.84412 0.5653,2.07831 -0.27882,2.76793 l -7.29427,5.9592 c -0.8441,0.6896 -2.07831,0.56527 -2.76791,-0.27882 l -3.85081,-4.7135 c -0.689582,-0.84411 -0.565272,-2.07831 0.27884,-2.76793 l 7.29425,-5.9592 c 0.84412,-0.68961 2.07832,-0.5653 2.76793,0.27883 z m 9.31217,11.39841 3.85078,4.71348 c 0.68962,0.84411 0.56528,2.07829 -0.27881,2.76794 l -7.29426,5.9592 c -0.84411,0.68962 -2.07831,0.56527 -2.76794,-0.27884 l -3.85078,-4.71348 c -0.6896,-0.84413 -0.56529,-2.07833 0.27884,-2.76792 l 7.29425,-5.9592 c 0.84412,-0.68961 2.07831,-0.56531 2.76792,0.27882 z m 9.29753,11.38049 3.85078,4.71348 c 0.68962,0.8441 0.56528,2.0783 -0.27884,2.76791 l -7.29425,5.9592 c -0.84411,0.68961 -2.07831,0.56527 -2.76792,-0.2788 l -3.85077,-4.7135 c -0.68963,-0.84413 -0.5653,-2.07832 0.2788,-2.76794 l 7.29426,-5.95919 c 0.84412,-0.68962 2.07831,-0.56531 2.76794,0.27884 z m 9.31215,11.39839 3.85081,4.7135 c 0.68962,0.84411 0.56529,2.0783 -0.27884,2.76792 l -7.29425,5.9592 c -0.84411,0.68961 -2.07831,0.56529 -2.76792,-0.27881 l -3.8508,-4.71351 c -0.6896,-0.84411 -0.56529,-2.0783 0.27882,-2.76792 l 7.29427,-5.95919 c 0.8441,-0.68962 2.07832,-0.5653 2.76791,0.27881 z m 9.29754,11.38048 3.85076,4.71349 c 0.68964,0.84411 0.56532,2.07831 -0.27879,2.76793 l -7.29427,5.95921 c -0.84411,0.68961 -2.07831,0.56527 -2.76793,-0.27885 l -3.85078,-4.71347 c -0.68961,-0.84413 -0.56528,-2.07832 0.27883,-2.76793 l 7.29426,-5.95919 c 0.8441,-0.68962 2.0783,-0.56531 2.76792,0.27881 z m 9.31216,11.39841 3.83613,4.69556 c 0.68962,0.84409 0.5653,2.0783 -0.27881,2.76793 l -7.29427,5.95919 c -0.84408,0.68963 -2.07829,0.56529 -2.76793,-0.27881 l -3.83613,-4.69557 c -0.68962,-0.84414 -0.56527,-2.07831 0.27882,-2.76794 l 7.29425,-5.95919 c 0.84414,-0.68959 2.07833,-0.56528 2.76794,0.27883 z m 9.29752,11.38047 3.8508,4.7135 c 0.68962,0.84412 0.56528,2.07831 -0.27884,2.76793 l -7.29425,5.95919 c -0.84413,0.68959 -2.0783,0.5653 -2.76792,-0.27881 l -3.8508,-4.7135 c -0.6896,-0.8441 -0.56528,-2.07831 0.27882,-2.76793 l 7.29427,-5.9592 c 0.84409,-0.68963 2.07832,-0.56528 2.76792,0.27882 z m 9.31216,11.39841 3.83615,4.69556 c 0.68962,0.8441 0.5653,2.07832 -0.27882,2.76794 l -7.29426,5.9592 c -0.8441,0.68961 -2.0783,0.56527 -2.76793,-0.27884 l -3.83614,-4.69555 c -0.68961,-0.84413 -0.56528,-2.07832 0.27883,-2.76794 l 7.29426,-5.95919 c 0.8441,-0.68961 2.07831,-0.56529 2.76791,0.27882 z m 9.29752,11.38047 3.8508,4.71351 c 0.6896,0.84408 0.56529,2.07829 -0.27883,2.76792 l -7.29427,5.95919 c -0.8441,0.68961 -2.07829,0.56529 -2.76791,-0.27882 l -3.85081,-4.71351 c -0.68959,-0.84412 -0.56527,-2.07829 0.27884,-2.7679 l 7.29425,-5.95921 c 0.84412,-0.6896 2.07833,-0.56529 2.76793,0.27882 z m 9.31217,11.39841 3.83615,4.69557 c 0.68961,0.8441 0.56531,2.07831 -0.27882,2.76792 l -7.29427,5.9592 c -0.84412,0.68959 -2.07831,0.56528 -2.76791,-0.27881 l -3.83616,-4.69557 c -0.68961,-0.84413 -0.56528,-2.07831 0.27883,-2.76793 l 7.29426,-5.95921 c 0.8441,-0.68963 2.0783,-0.5653 2.76792,0.27883 z m 9.29752,11.38048 3.85079,4.71349 c 0.68962,0.84411 0.56529,2.0783 -0.27883,2.76791 l -7.29426,5.9592 c -0.84409,0.68963 -2.0783,0.56531 -2.76791,-0.27881 l -3.85079,-4.71349 c -0.68961,-0.84411 -0.56528,-2.0783 0.27883,-2.76792 l 7.29425,-5.95919 c 0.84412,-0.68962 2.07832,-0.56531 2.76792,0.27881 z m 9.29752,11.38048 3.8508,4.71351 c 0.68964,0.84408 0.56528,2.07829 -0.27883,2.76791 l -7.29426,5.95919 c -0.84409,0.68961 -2.0783,0.5653 -2.76792,-0.27882 l -3.8508,-4.7135 c -0.68957,-0.84411 -0.56528,-2.0783 0.27883,-2.7679 l 7.29426,-5.9592 c 0.84415,-0.68965 2.07832,-0.56529 2.76792,0.27881 z M -74.625022,67.814195 l 49.79665,60.952785 -45.71906,37.35116 -49.796678,-60.95279 45.719088,-37.351155 z m 54.78948,67.064205 49.79667,60.95278 -45.71907,37.35115 -49.79665,-60.95278 45.71905,-37.35115 z m 54.80415,67.08212 49.79665,60.95277 -45.71906,37.35115 -49.79665,-60.95277 45.71906,-37.35115 z m 54.80413,67.08209 49.782012,60.93485 -45.719062,37.35117 -49.78203,-60.93487 45.71908,-37.35115 z m 54.789482,67.06417 49.79667,60.95278 -45.71908,37.35115 -49.796652,-60.95278 45.719062,-37.35115 z m -267.18696,-222.83247 3.83615,4.69557 c 0.6896,0.84413 0.56529,2.07831 -0.27882,2.76792 l -7.27635,5.94456 c -0.84412,0.68962 -2.0783,0.5653 -2.76791,-0.27883 l -3.83614,-4.69556 c -0.68964,-0.84411 -0.5653,-2.0783 0.27883,-2.76792 l 7.27633,-5.94458 c 0.84409,-0.6896 2.0783,-0.56529 2.76791,0.27884 z m 9.29753,11.38048 3.85079,4.71349 c 0.68959,0.84413 0.56528,2.07831 -0.27882,2.76792 l -7.27634,5.94457 c -0.84413,0.68962 -2.07831,0.56529 -2.76792,-0.27883 l -3.8508,-4.71348 c -0.68962,-0.84411 -0.56529,-2.0783 0.27883,-2.76794 l 7.27634,-5.94455 c 0.84409,-0.6896 2.0783,-0.56528 2.76792,0.27882 z m 9.31216,11.39841 3.83614,4.69557 c 0.689608,0.84411 0.565298,2.07831 -0.27881,2.76792 l -7.27634,5.94456 c -0.84412,0.68961 -2.07833,0.56529 -2.76791,-0.27883 l -3.83615,-4.69557 c -0.68963,-0.8441 -0.56531,-2.0783 0.27881,-2.76792 l 7.27634,-5.94456 c 0.84411,-0.6896 2.0783,-0.56528 2.76792,0.27883 z m 9.297528,11.38049 3.85079,4.71348 c 0.6896,0.84412 0.56528,2.0783 -0.27881,2.76791 l -7.27636,5.94457 c -0.84412,0.68962 -2.078318,0.5653 -2.767918,-0.27883 l -3.85079,-4.71348 c -0.68962,-0.84411 -0.5653,-2.0783 0.27883,-2.76792 l 7.276338,-5.94457 c 0.8441,-0.6896 2.0783,-0.56529 2.76792,0.27884 z m 9.31218,11.39841 3.83613,4.69555 c 0.6896,0.84412 0.56529,2.0783 -0.27881,2.76792 l -7.27635,5.94455 c -0.84413,0.68964 -2.07832,0.56531 -2.76792,-0.27881 l -3.83614,-4.69556 c -0.68963,-0.84411 -0.56531,-2.07831 0.27883,-2.76793 l 7.27633,-5.94457 c 0.84409,-0.6896 2.07831,-0.56528 2.76793,0.27885 z m 9.29751,11.38046 3.8508,4.7135 c 0.6896,0.84411 0.56528,2.0783 -0.27883,2.76792 l -7.27633,5.94455 c -0.84413,0.68962 -2.07832,0.56531 -2.76793,-0.27881 l -3.85079,-4.71351 c -0.68963,-0.84409 -0.56529,-2.07828 0.27882,-2.76791 l 7.27635,-5.94455 c 0.84409,-0.68961 2.07829,-0.5653 2.76791,0.27881 z m 9.29753,11.38049 3.85078,4.71348 c 0.6896,0.84413 0.5653,2.07831 -0.27881,2.76793 l -7.27634,5.94456 c -0.84413,0.68963 -2.07832,0.5653 -2.76792,-0.27883 l -3.85079,-4.71349 c -0.68962,-0.8441 -0.5653,-2.0783 0.27881,-2.76791 l 7.27635,-5.94458 c 0.8441,-0.68959 2.07831,-0.56528 2.76792,0.27884 z m 9.31215,11.39839 3.85079,4.71349 c 0.68962,0.84414 0.56529,2.07832 -0.27881,2.76793 l -7.27634,5.94456 c -0.84412,0.68962 -2.07831,0.5653 -2.76793,-0.27883 l -3.85078,-4.7135 c -0.68963,-0.84408 -0.5653,-2.0783 0.27882,-2.76791 l 7.27635,-5.94457 c 0.84409,-0.68959 2.07829,-0.56527 2.7679,0.27883 z m 9.29753,11.38049 3.85078,4.71348 c 0.68961,0.84412 0.56528,2.07832 -0.27881,2.76793 l -7.27634,5.94456 c -0.84414,0.68962 -2.07832,0.56528 -2.76792,-0.27882 l -3.85079,-4.7135 c -0.68963,-0.84411 -0.5653,-2.0783 0.27883,-2.76792 l 7.27633,-5.94456 c 0.8441,-0.68959 2.07829,-0.56529 2.76792,0.27883 z m 9.31217,11.39841 3.85079,4.71348 c 0.6896,0.84413 0.56529,2.07832 -0.27883,2.76791 l -7.27634,5.94458 c -0.84412,0.68962 -2.07831,0.5653 -2.76792,-0.27883 l -3.85078,-4.71349 c -0.68963,-0.8441 -0.56531,-2.07831 0.27881,-2.76793 l 7.27635,-5.94456 c 0.84408,-0.6896 2.0783,-0.56528 2.76792,0.27884 z m 9.29752,11.38047 3.85078,4.71349 c 0.6896,0.84412 0.56529,2.07832 -0.27881,2.76792 l -7.27634,5.94456 c -0.84413,0.68962 -2.07831,0.56531 -2.76793,-0.27882 l -3.85078,-4.71349 c -0.68963,-0.8441 -0.56529,-2.0783 0.27882,-2.76793 l 7.27635,-5.94455 c 0.84409,-0.68959 2.0783,-0.56528 2.76791,0.27882 z m 9.31217,11.39841 3.85078,4.71349 c 0.68961,0.84412 0.56529,2.07832 -0.27881,2.76792 l -7.27635,5.94456 c -0.84412,0.68962 -2.07832,0.56529 -2.76792,-0.27882 l -3.85078,-4.71349 c -0.68962,-0.8441 -0.56531,-2.07831 0.27882,-2.76793 l 7.27633,-5.94456 c 0.84411,-0.68959 2.0783,-0.56529 2.76793,0.27883 z m 9.29751,11.38048 3.8507899,4.71349 c 0.68961,0.84413 0.56529,2.07831 -0.27881,2.76791 l -7.2763499,5.94457 c -0.84411,0.68963 -2.07831,0.5653 -2.76792,-0.27882 l -3.85079,-4.71349 c -0.68963,-0.84411 -0.56529,-2.07829 0.27883,-2.76792 l 7.27634,-5.94456 c 0.8441,-0.6896 2.07829,-0.56529 2.76791,0.27882 z m 9.3121799,11.3984 3.85078,4.7135 c 0.68962,0.84412 0.56529,2.0783 -0.27882,2.76791 l -7.27634,5.94455 c -0.84413,0.68964 -2.07832,0.56531 -2.76792,-0.27881 l -3.8507799,-4.7135 c -0.68963,-0.8441 -0.5653,-2.07831 0.27882,-2.76792 l 7.2763299,-5.94455 c 0.8441,-0.68962 2.07831,-0.56528 2.76793,0.27882 z m 9.29752,11.38048 3.8507901,4.71349 c 0.68961,0.84411 0.56527,2.0783 -0.27883,2.76791 l -7.2763401,5.94457 c -0.84411,0.68963 -2.07831,0.56529 -2.76792,-0.27882 l -3.85078,-4.71349 c -0.68963,-0.84411 -0.56531,-2.07831 0.2788,-2.76793 l 7.27635,-5.94457 c 0.84411,-0.68957 2.07831,-0.56526 2.76793,0.27884 z m 9.3121501,11.3984 3.85079,4.71349 c 0.68962,0.84413 0.56529,2.07831 -0.27881,2.76792 l -7.27635,5.94456 c -0.84411,0.68963 -2.07832,0.56529 -2.76792,-0.27882 l -3.8507801,-4.71349 c -0.68961,-0.84409 -0.5653,-2.0783 0.27882,-2.76792 l 7.2763401,-5.94456 c 0.8441,-0.68961 2.07829,-0.5653 2.76791,0.27882 z m 9.29753,11.38048 3.85078,4.71348 c 0.6896,0.84411 0.56528,2.07831 -0.27881,2.76793 l -7.27635,5.94456 c -0.84411,0.68962 -2.07832,0.56528 -2.76793,-0.27883 l -3.85078,-4.71348 c -0.68962,-0.84411 -0.5653,-2.07831 0.27883,-2.76793 l 7.27635,-5.94454 c 0.8441,-0.68961 2.07829,-0.56531 2.76791,0.27881 z m 9.31216,11.39841 3.85078,4.71346 c 0.68961,0.84412 0.56528,2.07831 -0.27883,2.76791 l -7.27634,5.94458 c -0.84412,0.68961 -2.0783,0.56529 -2.76791,-0.27883 l -3.85078,-4.71347 c -0.68964,-0.84413 -0.5653,-2.07831 0.27881,-2.76793 l 7.27635,-5.94457 c 0.8441,-0.68961 2.07829,-0.56529 2.76792,0.27885 z m 9.29751,11.38044 3.85079,4.71352 c 0.68961,0.84412 0.56529,2.0783 -0.27882,2.7679 l -7.27634,5.94456 c -0.84412,0.68962 -2.07832,0.56529 -2.76791,-0.2788 l -3.8508,-4.71352 c -0.68961,-0.84408 -0.56529,-2.07829 0.27882,-2.76791 l 7.27635,-5.94456 c 0.84409,-0.68961 2.07829,-0.56529 2.76791,0.27881 z m 9.31217,11.39842 3.85077,4.71349 c 0.68962,0.84411 0.56529,2.0783 -0.27878,2.76793 l -7.27636,5.94456 c -0.84411,0.68962 -2.07832,0.56528 -2.76793,-0.27884 l -3.85078,-4.71348 c -0.68961,-0.8441 -0.56531,-2.07832 0.27883,-2.76792 l 7.27633,-5.94455 c 0.84412,-0.68961 2.0783,-0.5653 2.76792,0.27881 z m 9.29753,11.38049 3.85078,4.71348 c 0.6896,0.84413 0.56527,2.0783 -0.27884,2.76791 l -7.27632,5.94457 c -0.8441,0.68964 -2.07833,0.56529 -2.76792,-0.27883 l -3.85078,-4.71347 c -0.68965,-0.84413 -0.56531,-2.07832 0.2788,-2.76794 l 7.27636,-5.94456 c 0.84412,-0.68958 2.07828,-0.56529 2.76792,0.27884 z m 9.31215,11.39838 3.83615,4.69559 c 0.68962,0.84411 0.56528,2.07831 -0.27882,2.76791 l -7.27634,5.94456 c -0.84412,0.68961 -2.07831,0.56531 -2.76791,-0.27881 l -3.83615,-4.69559 c -0.68964,-0.8441 -0.5653,-2.0783 0.27883,-2.76791 l 7.27633,-5.94456 c 0.8441,-0.6896 2.07831,-0.56527 2.76791,0.27881 z m 9.29754,11.3805 3.85076,4.71347 c 0.68962,0.84414 0.56531,2.07834 -0.27879,2.76796 l -7.27634,5.94455 c -0.84413,0.68962 -2.07833,0.56528 -2.76794,-0.27885 l -3.85078,-4.71347 c -0.68963,-0.84412 -0.56529,-2.0783 0.27882,-2.76793 l 7.27635,-5.94456 c 0.84408,-0.68962 2.07829,-0.5653 2.76792,0.27883 z m 9.31216,11.39841 3.83613,4.69556 c 0.68962,0.84412 0.56531,2.07832 -0.27881,2.76791 l -7.27634,5.94457 c -0.84412,0.68962 -2.07832,0.5653 -2.76793,-0.27883 l -3.83612,-4.69555 c -0.68963,-0.84411 -0.5653,-2.0783 0.2788,-2.76794 l 7.27634,-5.94456 c 0.84412,-0.68959 2.0783,-0.56527 2.76793,0.27884 z m 9.297512,11.38046 3.8508,4.71351 c 0.68961,0.84409 0.56529,2.07831 -0.27882,2.76791 l -7.276352,5.94456 c -0.84411,0.68962 -2.07831,0.56531 -2.76791,-0.27881 l -3.8508,-4.7135 c -0.68964,-0.84412 -0.56529,-2.07831 0.27883,-2.76793 l 7.27634,-5.94455 c 0.8441,-0.68961 2.07831,-0.56527 2.767912,0.27881 z m 9.31217,11.39841 3.83614,4.69556 c 0.68963,0.84414 0.5653,2.07834 -0.27881,2.76793 l -7.27633,5.94457 c -0.84415,0.6896 -2.07833,0.56528 -2.76794,-0.27884 l -3.836142,-4.69555 c -0.6896,-0.84409 -0.56528,-2.0783 0.27883,-2.76793 l 7.276342,-5.94455 c 0.84408,-0.68964 2.0783,-0.5653 2.76791,0.27881 z m 9.29754,11.38049 3.85078,4.71349 c 0.68961,0.84412 0.56527,2.07829 -0.27883,2.76791 l -7.27633,5.94456 c -0.84413,0.68963 -2.07831,0.56531 -2.76792,-0.27882 l -3.85078,-4.71348 c -0.68963,-0.84411 -0.56531,-2.07831 0.2788,-2.76793 l 7.27636,-5.94456 c 0.84408,-0.68961 2.07829,-0.56528 2.76792,0.27883 z m 9.29751,11.38047 3.85079,4.71351 c 0.68962,0.84411 0.56529,2.0783 -0.27882,2.76791 l -7.27634,5.94455 c -0.84411,0.68963 -2.07833,0.5653 -2.76791,-0.27881 l -3.8508,-4.7135 c -0.68962,-0.84408 -0.56529,-2.0783 0.27882,-2.76792 l 7.27635,-5.94455 c 0.8441,-0.68961 2.07829,-0.56531 2.76791,0.27881 z m 9.31216,11.39841 3.85079,4.71348 c 0.68962,0.84414 0.56528,2.0783 -0.27882,2.76792 l -7.27635,5.94456 c -0.84411,0.68962 -2.0783,0.5653 -2.76792,-0.27881 l -3.85078,-4.71349 c -0.68959,-0.84408 -0.56529,-2.0783 0.27883,-2.76792 l 7.27634,-5.94457 c 0.84409,-0.68962 2.07829,-0.56528 2.76791,0.27883 z m 9.29753,11.38048 3.85079,4.71349 c 0.68959,0.84409 0.56528,2.07831 -0.27883,2.76791 l -7.27634,5.94456 c -0.84413,0.68961 -2.07831,0.56531 -2.76792,-0.27881 l -3.85077,-4.71348 c -0.68965,-0.84414 -0.56532,-2.07832 0.2788,-2.76795 l 7.27634,-5.94455 c 0.84412,-0.6896 2.07831,-0.56527 2.76793,0.27883 z"
   id="rect10" /></svg>