<?xml version="1.0" encoding="UTF-8" standalone="no"?>
<!-- Created with Inkscape (http://www.inkscape.org/) -->

<svg
   xmlns:dc="http://purl.org/dc/elements/1.1/"
   xmlns:cc="http://creativecommons.org/ns#"
   xmlns:rdf="http://www.w3.org/1999/02/22-rdf-syntax-ns#"
   xmlns:svg="http://www.w3.org/2000/svg"
   xmlns="http://www.w3.org/2000/svg"
   xmlns:sodipodi="http://sodipodi.sourceforge.net/DTD/sodipodi-0.dtd"
   xmlns:inkscape="http://www.inkscape.org/namespaces/inkscape"
   width="256"
   height="256"
   id="svg2840"
   version="1.1"
   inkscape:version="0.47 r22583"
   sodipodi:docname="New document 2">
  <defs
     id="defs2842">
    <inkscape:perspective
       sodipodi:type="inkscape:persp3d"
       inkscape:vp_x="0 : 526.18109 : 1"
       inkscape:vp_y="0 : 1000 : 0"
       inkscape:vp_z="744.09448 : 526.18109 : 1"
       inkscape:persp3d-origin="372.04724 : 350.78739 : 1"
       id="perspective2848" />
    <inkscape:perspective
       id="perspective2832"
       inkscape:persp3d-origin="0.5 : 0.33333333 : 1"
       inkscape:vp_z="1 : 0.5 : 1"
       inkscape:vp_y="0 : 1000 : 0"
       inkscape:vp_x="0 : 0.5 : 1"
       sodipodi:type="inkscape:persp3d" />
    <clipPath
       clipPathUnits="userSpaceOnUse"
       id="clipPath608">
      <path
         d="m 2610.66,3005.65 c -5.01,-17 -19.77,-28.38 -21.49,-34.4 -1.72,-6.01 -18.92,-24.07 -18.92,-35.25 0,-11.18 2.59,-25.8 2.59,-31.81 0,-6.02 -4.3,-20.64 -12.05,-26.66 -7.73,-6.01 -35.24,-28.37 -40.41,-32.67 -5.16,-4.29 -13.76,-16.33 -13.76,-26.65 0,-10.32 1.73,-25.8 -4.29,-35.25 -6.01,-9.46 -16.32,-25.79 -16.32,-29.24 0,-3.44 1.71,-7.73 -1.74,-17.19 -3.44,-9.46 -7.74,-25.79 -8.61,-31.82 -0.84,-6.01 -6,-28.37 9.48,-39.54 15.48,-11.19 49.01,-35.26 49.01,-37.83 0,-2.58 -18.93,-10.32 -24.08,-20.64 -5.15,-10.32 -18.92,-33.53 -6.02,-74.8 12.89,-41.27 16.33,-30.95 16.33,-52.45 0,-21.49 10.32,-61.9 13.77,-73.94 3.43,-12.04 8.59,-48.15 12.89,-55.89 4.3,-7.74 23.21,-60.18 23.21,-60.18 l 125.68,0.86 c 0,0 0.88,39.54 0,45.57 -0.85,6.01 8.45,49 2.43,60.18 -6.01,11.18 -11.17,42.13 -11.17,49.87 0,7.74 10.32,48.15 12.04,53.31 1.72,5.16 15.48,35.25 13.75,42.99 -1.72,7.74 -3.43,34.39 -4.31,43.85 -0.85,9.46 -4.29,35.25 -4.29,35.25 0,0 6.88,6.02 6.88,15.48 0,9.45 11.18,19.77 12.9,17.18 1.71,-2.56 9.44,-12.88 16.33,-12.88 6.88,0 12.9,5.15 20.63,11.17 7.75,6.02 18.93,18.91 10.33,24.07 -8.6,5.16 89.41,67.93 95.43,72.22 6.02,4.3 20.65,1.72 24.08,0 3.42,-1.71 61.9,24.94 64.49,25.8 2.57,0.86 -8.6,31.82 -18.06,31.82 -9.45,0 -63.63,-25.8 -64.49,-29.24 -0.86,-3.44 -3.44,-2.58 -3.44,-5.16 0,-2.58 -100.59,-64.49 -100.59,-64.49 0,0 -10.32,31.82 -13.75,35.26 -3.45,3.44 -5.16,30.09 -0.86,43.84 4.29,13.77 5.15,35.26 -6.89,48.16 -12.03,12.89 -17.19,17.19 -23.21,24.93 -6.02,7.74 -17.31,80.65 -18.07,87.7 -1.71,16.33 -2.56,21.5 -2.56,21.5 0,0 0,12.03 -12.03,25.79 -12.05,13.75 -29.25,24.07 -39.56,23.21 -10.32,-0.86 -36.97,2.58 -41.28,-12.03 z"
         id="path610" />
    </clipPath>
  </defs>
  <sodipodi:namedview
     id="base"
     pagecolor="#ffffff"
     bordercolor="#666666"
     borderopacity="1.0"
     inkscape:pageopacity="0.0"
     inkscape:pageshadow="2"
     inkscape:zoom="0.35"
     inkscape:cx="6.4285714"
     inkscape:cy="520"
     inkscape:document-units="px"
     inkscape:current-layer="layer1"
     showgrid="false"
     inkscape:window-width="1680"
     inkscape:window-height="994"
     inkscape:window-x="0"
     inkscape:window-y="0"
     inkscape:window-maximized="1" />
  <metadata
     id="metadata2845">
    <rdf:RDF>
      <cc:Work
         rdf:about="">
        <dc:format>image/svg+xml</dc:format>
        <dc:type
           rdf:resource="http://purl.org/dc/dcmitype/StillImage" />
        <dc:title></dc:title>
      </cc:Work>
    </rdf:RDF>
  </metadata>
  <g
     inkscape:label="Layer 1"
     inkscape:groupmode="layer"
     id="layer1"
     transform="translate(0,-796.36218)">
    <g
       id="g606"
       clip-path="url(#clipPath608)"
       style="fill:#606060;fill-opacity:1"
       transform="matrix(0.29106113,0,0,-0.29106113,-662.22929,1696.7176)">
      <path
         d="m 2610.66,3005.65 c -5.01,-17 -19.77,-28.38 -21.49,-34.4 -1.72,-6.01 -18.92,-24.07 -18.92,-35.25 0,-11.18 2.59,-25.8 2.59,-31.81 0,-6.02 -4.3,-20.64 -12.05,-26.66 -7.73,-6.01 -35.24,-28.37 -40.41,-32.67 -5.16,-4.29 -13.76,-16.33 -13.76,-26.65 0,-10.32 1.73,-25.8 -4.29,-35.25 -6.01,-9.46 -16.32,-25.79 -16.32,-29.24 0,-3.44 1.71,-7.73 -1.74,-17.19 -3.44,-9.46 -7.74,-25.79 -8.61,-31.82 -0.84,-6.01 -6,-28.37 9.48,-39.54 15.48,-11.19 49.01,-35.26 49.01,-37.83 0,-2.58 -18.93,-10.32 -24.08,-20.64 -5.15,-10.32 -18.92,-33.53 -6.02,-74.8 12.89,-41.27 16.33,-30.95 16.33,-52.45 0,-21.49 10.32,-61.9 13.77,-73.94 3.43,-12.04 8.59,-48.15 12.89,-55.89 4.3,-7.74 23.21,-60.18 23.21,-60.18 l 125.68,0.86 c 0,0 0.88,39.54 0,45.57 -0.85,6.01 8.45,49 2.43,60.18 -6.01,11.18 -11.17,42.13 -11.17,49.87 0,7.74 10.32,48.15 12.04,53.31 1.72,5.16 15.48,35.25 13.75,42.99 -1.72,7.74 -3.43,34.39 -4.31,43.85 -0.85,9.46 -4.29,35.25 -4.29,35.25 0,0 6.88,6.02 6.88,15.48 0,9.45 11.18,19.77 12.9,17.18 1.71,-2.56 9.44,-12.88 16.33,-12.88 6.88,0 12.9,5.15 20.63,11.17 7.75,6.02 18.93,18.91 10.33,24.07 -8.6,5.16 89.41,67.93 95.43,72.22 6.02,4.3 20.65,1.72 24.08,0 3.42,-1.71 61.9,24.94 64.49,25.8 2.57,0.86 -8.6,31.82 -18.06,31.82 -9.45,0 -63.63,-25.8 -64.49,-29.24 -0.86,-3.44 -3.44,-2.58 -3.44,-5.16 0,-2.58 -100.59,-64.49 -100.59,-64.49 0,0 -10.32,31.82 -13.75,35.26 -3.45,3.44 -5.16,30.09 -0.86,43.84 4.29,13.77 5.15,35.26 -6.89,48.16 -12.03,12.89 -17.19,17.19 -23.21,24.93 -6.02,7.74 -17.31,80.65 -18.07,87.7 -1.71,16.33 -2.56,21.5 -2.56,21.5 0,0 0,12.03 -12.03,25.79 -12.05,13.75 -29.25,24.07 -39.56,23.21 -10.32,-0.86 -36.97,2.58 -41.28,-12.03"
         style="fill:#606060;fill-opacity:1;fill-rule:nonzero;stroke:none"
         id="path618" />
    </g>
  </g>
</svg>
