<?xml version="1.0" encoding="UTF-8" standalone="no"?>
<!-- Creator: CorelDRAW -->

<svg
   xmlns:dc="http://purl.org/dc/elements/1.1/"
   xmlns:cc="http://creativecommons.org/ns#"
   xmlns:rdf="http://www.w3.org/1999/02/22-rdf-syntax-ns#"
   xmlns:svg="http://www.w3.org/2000/svg"
   xmlns="http://www.w3.org/2000/svg"
   xmlns:xlink="http://www.w3.org/1999/xlink"
   xmlns:sodipodi="http://sodipodi.sourceforge.net/DTD/sodipodi-0.dtd"
   xmlns:inkscape="http://www.inkscape.org/namespaces/inkscape"
   height="256"
   id="svg2"
   inkscape:version="0.47 r22583"
   sodipodi:docname=" media-length2.svg"
   sodipodi:version="0.32"
   space="preserve"
   style="fill-rule:evenodd"
   viewBox="0 0 24.569416 24.569416"
   width="256"
   version="1.1">
  <metadata
     id="metadata3">
    <rdf:RDF>
      <cc:Work
         rdf:about="">
        <dc:title></dc:title>
        <dc:description />
        <dc:subject>
          <rdf:Bag>
            <rdf:li>info</rdf:li>
            <rdf:li>icon</rdf:li>
            <rdf:li>information</rdf:li>
            <rdf:li>sign</rdf:li>
          </rdf:Bag>
        </dc:subject>
        <dc:publisher>
          <cc:Agent
             rdf:about="http://www.openclipart.org/">
            <dc:title>Open Clip Art Library</dc:title>
          </cc:Agent>
        </dc:publisher>
        <dc:creator>
          <cc:Agent>
            <dc:title>mo</dc:title>
          </cc:Agent>
        </dc:creator>
        <dc:rights>
          <cc:Agent>
            <dc:title>mo</dc:title>
          </cc:Agent>
        </dc:rights>
        <dc:date />
        <dc:format>image/svg+xml</dc:format>
        <dc:type
           rdf:resource="http://purl.org/dc/dcmitype/StillImage" />
        <cc:license
           rdf:resource="http://web.resource.org/cc/PublicDomain" />
        <dc:language>en</dc:language>
      </cc:Work>
      <cc:License
         rdf:about="http://web.resource.org/cc/PublicDomain">
        <cc:permits
           rdf:resource="http://web.resource.org/cc/Reproduction" />
        <cc:permits
           rdf:resource="http://web.resource.org/cc/Distribution" />
        <cc:permits
           rdf:resource="http://web.resource.org/cc/DerivativeWorks" />
      </cc:License>
    </rdf:RDF>
  </metadata>
  <sodipodi:namedview
     bordercolor="#666666"
     borderopacity="1.0"
     id="base"
     inkscape:current-layer="svg2"
     inkscape:cx="265.93147"
     inkscape:cy="140.42002"
     inkscape:pageopacity="0.0"
     inkscape:pageshadow="2"
     inkscape:window-height="994"
     inkscape:window-width="1680"
     inkscape:window-x="0"
     inkscape:window-y="0"
     inkscape:zoom="1.4253417"
     pagecolor="#ffffff"
     showgrid="false"
     inkscape:window-maximized="1" />
  <defs
     id="defs4">
    <inkscape:perspective
       sodipodi:type="inkscape:persp3d"
       inkscape:vp_x="0 : 65.598305 : 1"
       inkscape:vp_y="0 : 1000 : 0"
       inkscape:vp_z="131.19661 : 65.598305 : 1"
       inkscape:persp3d-origin="65.598305 : 43.732203 : 1"
       id="perspective10" />
    <style
       id="style6"
       type="text/css">
   
    .fil0 {fill:#EF7900}
   
  </style>
    <inkscape:perspective
       id="perspective2841"
       inkscape:persp3d-origin="0.5 : 0.33333333 : 1"
       inkscape:vp_z="1 : 0.5 : 1"
       inkscape:vp_y="0 : 1000 : 0"
       inkscape:vp_x="0 : 0.5 : 1"
       sodipodi:type="inkscape:persp3d" />
    <inkscape:perspective
       id="perspective2870"
       inkscape:persp3d-origin="0.5 : 0.33333333 : 1"
       inkscape:vp_z="1 : 0.5 : 1"
       inkscape:vp_y="0 : 1000 : 0"
       inkscape:vp_x="0 : 0.5 : 1"
       sodipodi:type="inkscape:persp3d" />
    <inkscape:perspective
       id="perspective2844"
       inkscape:persp3d-origin="0.5 : 0.33333333 : 1"
       inkscape:vp_z="1 : 0.5 : 1"
       inkscape:vp_y="0 : 1000 : 0"
       inkscape:vp_x="0 : 0.5 : 1"
       sodipodi:type="inkscape:persp3d" />
    <inkscape:perspective
       id="perspective2928"
       inkscape:persp3d-origin="0.5 : 0.33333333 : 1"
       inkscape:vp_z="1 : 0.5 : 1"
       inkscape:vp_y="0 : 1000 : 0"
       inkscape:vp_x="0 : 0.5 : 1"
       sodipodi:type="inkscape:persp3d" />
    <inkscape:perspective
       id="perspective19467"
       inkscape:persp3d-origin="0.5 : 0.33333333 : 1"
       inkscape:vp_z="1 : 0.5 : 1"
       inkscape:vp_y="0 : 1000 : 0"
       inkscape:vp_x="0 : 0.5 : 1"
       sodipodi:type="inkscape:persp3d" />
    <radialGradient
       cx="6.0044956"
       cy="9.9044514"
       r="6.0044961"
       fx="6.0044956"
       fy="9.9044514"
       id="radialGradient3644"
       xlink:href="#linearGradient3803"
       gradientUnits="userSpaceOnUse"
       gradientTransform="matrix(0.7071068,-0.7071068,0.7178292,0.7178292,94.015238,30.853488)" />
    <linearGradient
       id="linearGradient3803">
      <stop
         id="stop3805"
         style="stop-color:#ce5c00;stop-opacity:1"
         offset="0" />
      <stop
         id="stop3807"
         style="stop-color:#ce5c00;stop-opacity:0"
         offset="1" />
    </linearGradient>
    <radialGradient
       cx="61.871639"
       cy="14.900355"
       r="7.0694604"
       fx="61.871639"
       fy="14.900355"
       id="radialGradient3646"
       xlink:href="#linearGradient3596"
       gradientUnits="userSpaceOnUse"
       gradientTransform="matrix(0.5132442,-0.5132442,0.5105902,0.5105902,65.945539,57.928569)" />
    <linearGradient
       id="linearGradient3596">
      <stop
         id="stop3598"
         style="stop-color:#fcaf3e;stop-opacity:1"
         offset="0" />
      <stop
         id="stop3600"
         style="stop-color:#fcaf3e;stop-opacity:0"
         offset="1" />
    </linearGradient>
    <linearGradient
       x1="403.81253"
       y1="339.44629"
       x2="411.47675"
       y2="339.44629"
       id="linearGradient3648"
       xlink:href="#linearGradient19089"
       gradientUnits="userSpaceOnUse"
       gradientTransform="matrix(0.4180431,0,0,0.2840879,-80.993726,-57.41686)" />
    <linearGradient
       id="linearGradient19089">
      <stop
         id="stop19091"
         style="stop-color:#f2f5fa;stop-opacity:1"
         offset="0" />
      <stop
         id="stop19093"
         style="stop-color:#f2f5fa;stop-opacity:0"
         offset="1" />
    </linearGradient>
    <linearGradient
       x1="403.81253"
       y1="339.44629"
       x2="411.47675"
       y2="339.44629"
       id="linearGradient3650"
       xlink:href="#linearGradient19089"
       gradientUnits="userSpaceOnUse"
       gradientTransform="matrix(0.418038,0,0,0.2830939,-80.993033,-57.11616)" />
    <linearGradient
       id="linearGradient19484">
      <stop
         id="stop19486"
         style="stop-color:#f2f5fa;stop-opacity:1"
         offset="0" />
      <stop
         id="stop19488"
         style="stop-color:#f2f5fa;stop-opacity:0"
         offset="1" />
    </linearGradient>
    <linearGradient
       x1="403.81253"
       y1="339.44629"
       x2="411.47675"
       y2="339.44629"
       id="linearGradient3652"
       xlink:href="#linearGradient19089"
       gradientUnits="userSpaceOnUse"
       gradientTransform="matrix(0.4180405,0,0,0.2835909,-80.99324,-57.303328)" />
    <linearGradient
       id="linearGradient19491">
      <stop
         id="stop19493"
         style="stop-color:#f2f5fa;stop-opacity:1"
         offset="0" />
      <stop
         id="stop19495"
         style="stop-color:#f2f5fa;stop-opacity:0"
         offset="1" />
    </linearGradient>
    <linearGradient
       x1="403.81253"
       y1="339.44629"
       x2="411.47675"
       y2="339.44629"
       id="linearGradient3654"
       xlink:href="#linearGradient19089"
       gradientUnits="userSpaceOnUse"
       gradientTransform="matrix(0.4180431,0,0,0.2840879,-80.993605,-57.453594)" />
    <linearGradient
       id="linearGradient19498">
      <stop
         id="stop19500"
         style="stop-color:#f2f5fa;stop-opacity:1"
         offset="0" />
      <stop
         id="stop19502"
         style="stop-color:#f2f5fa;stop-opacity:0"
         offset="1" />
    </linearGradient>
    <radialGradient
       cx="96.125526"
       cy="2.3873661"
       r="2.0775449"
       fx="96.125526"
       fy="2.3873661"
       id="radialGradient3656"
       xlink:href="#linearGradient3803"
       gradientUnits="userSpaceOnUse"
       gradientTransform="matrix(-0.9031052,-0.6754471,-1.0689303,0.6274572,178.26778,101.35495)" />
    <linearGradient
       id="linearGradient19505">
      <stop
         id="stop19507"
         style="stop-color:#ce5c00;stop-opacity:1"
         offset="0" />
      <stop
         id="stop19509"
         style="stop-color:#ce5c00;stop-opacity:0"
         offset="1" />
    </linearGradient>
    <radialGradient
       cx="96.125526"
       cy="2.6118443"
       r="1.628588"
       fx="96.125526"
       fy="2.6118443"
       id="radialGradient3658"
       xlink:href="#linearGradient3596"
       gradientUnits="userSpaceOnUse"
       gradientTransform="matrix(-1.2736689,-1.0103598,-1.7965263,0.994264,216.02874,132.52382)" />
    <linearGradient
       id="linearGradient19512">
      <stop
         id="stop19514"
         style="stop-color:#fcaf3e;stop-opacity:1"
         offset="0" />
      <stop
         id="stop19516"
         style="stop-color:#fcaf3e;stop-opacity:0"
         offset="1" />
    </linearGradient>
    <inkscape:perspective
       id="perspective9951"
       inkscape:persp3d-origin="0.5 : 0.33333333 : 1"
       inkscape:vp_z="1 : 0.5 : 1"
       inkscape:vp_y="0 : 1000 : 0"
       inkscape:vp_x="0 : 0.5 : 1"
       sodipodi:type="inkscape:persp3d" />
    <inkscape:perspective
       id="perspective9967"
       inkscape:persp3d-origin="0.5 : 0.33333333 : 1"
       inkscape:vp_z="1 : 0.5 : 1"
       inkscape:vp_y="0 : 1000 : 0"
       inkscape:vp_x="0 : 0.5 : 1"
       sodipodi:type="inkscape:persp3d" />
    <linearGradient
       id="XMLID_450_"
       gradientUnits="userSpaceOnUse"
       x1="209.30811"
       y1="432.0845"
       x2="209.30811"
       y2="411.0845">
      <stop
         offset="0"
         style="stop-color:#0A0048"
         id="stop7107" />
      <stop
         offset="0.2247"
         style="stop-color:#121F5C"
         id="stop7109" />
      <stop
         offset="0.5"
         style="stop-color:#18356D"
         id="stop7111" />
      <stop
         offset="0.5"
         style="stop-color:#1C477E"
         id="stop7113" />
    </linearGradient>
    <inkscape:perspective
       id="perspective2857"
       inkscape:persp3d-origin="0.5 : 0.33333333 : 1"
       inkscape:vp_z="1 : 0.5 : 1"
       inkscape:vp_y="0 : 1000 : 0"
       inkscape:vp_x="0 : 0.5 : 1"
       sodipodi:type="inkscape:persp3d" />
    <linearGradient
       inkscape:collect="always"
       xlink:href="#XMLID_7_"
       id="linearGradient3810"
       gradientUnits="userSpaceOnUse"
       gradientTransform="matrix(0.1753865,0,0,0.1936882,12.660727,95.356679)"
       x1="81.685356"
       y1="-12.843637"
       x2="54.606316"
       y2="165.78473" />
    <radialGradient
       cx="101.1562"
       cy="111.1299"
       r="137.8933"
       id="XMLID_7_"
       gradientUnits="userSpaceOnUse"
       gradientTransform="translate(-149.8413,-47.62379)">
      <stop
         id="stop2887"
         style="stop-color:#555555;stop-opacity:1"
         offset="0.1006" />
      <stop
         id="stop2889"
         style="stop-color:#676767;stop-opacity:1"
         offset="0.115" />
      <stop
         id="stop2891"
         style="stop-color:#9b9b9b;stop-opacity:1"
         offset="0.16140001" />
      <stop
         id="stop2893"
         style="stop-color:#c0c0c0;stop-opacity:1"
         offset="0.2018" />
      <stop
         id="stop2895"
         style="stop-color:#d8d8d8;stop-opacity:1"
         offset="0.2341" />
      <stop
         id="stop2897"
         style="stop-color:#e0e0e0;stop-opacity:1"
         offset="0.25440001" />
      <stop
         id="stop2899"
         style="stop-color:#ededed;stop-opacity:1"
         offset="0.31150001" />
      <stop
         id="stop2901"
         style="stop-color:#fafafa;stop-opacity:1"
         offset="0.4005" />
      <stop
         id="stop2903"
         style="stop-color:#ffffff;stop-opacity:1"
         offset="0.47929999" />
      <stop
         id="stop2905"
         style="stop-color:#fafafa;stop-opacity:1"
         offset="0.59969997" />
      <stop
         id="stop2907"
         style="stop-color:#eeeeee;stop-opacity:1"
         offset="0.72189999" />
      <stop
         id="stop2909"
         style="stop-color:#dddddd;stop-opacity:1"
         offset="0.8876" />
    </radialGradient>
    <linearGradient
       y2="165.78473"
       x2="54.606316"
       y1="-12.843637"
       x1="81.685356"
       gradientTransform="matrix(0.1753865,0,0,0.1936882,12.660727,95.356679)"
       gradientUnits="userSpaceOnUse"
       id="linearGradient2879"
       xlink:href="#XMLID_7_"
       inkscape:collect="always" />
  </defs>
  <path
     sodipodi:type="arc"
     style="fill:#606060;fill-opacity:1;stroke:none"
     id="path2820"
     sodipodi:cx="2.0170603"
     sodipodi:cy="3.2616172"
     sodipodi:rx="32.536057"
     sodipodi:ry="32.536057"
     d="m 34.553117,3.2616172 a 32.536057,32.536057 0 1 1 -65.072113,0 32.536057,32.536057 0 1 1 65.072113,0 z"
     transform="matrix(0.36087365,0,0,0.36087365,11.556804,11.107676)" />
  <g
     transform="matrix(0.72869545,0,0,0.72869545,-140.34315,-293.25726)"
     id="g7102">
    <path
       style="fill:none"
       d="m 209.43264,410.2132 c -4.999,0 -9.053,4.054 -9.053,9.053 0,5 4.054,9.053 9.053,9.053 5,0 9.053,-4.054 9.053,-9.053 0,-4.999 -4.053,-9.053 -9.053,-9.053 z m 0.871,9.923 h -0.638 -1.104 v -9.286 h 1.741 v 7.545 h 7.023 v 1.741 h -7.022 z"
       id="path7104" />
    <linearGradient
       id="linearGradient9978"
       gradientUnits="userSpaceOnUse"
       x1="209.30811"
       y1="432.0845"
       x2="209.30811"
       y2="411.0845">
      <stop
         offset="0"
         style="stop-color:#0A0048"
         id="stop9980" />
      <stop
         offset="0.2247"
         style="stop-color:#121F5C"
         id="stop9982" />
      <stop
         offset="0.5"
         style="stop-color:#18356D"
         id="stop9984" />
      <stop
         offset="0.5"
         style="stop-color:#1C477E"
         id="stop9986" />
    </linearGradient>
    <g
       id="g3803"
       transform="matrix(0.95894665,0,0,0.95894665,186.23046,315.45743)"
       style="fill:#ffffff">
      <path
         style="font-size:40px;font-style:normal;font-weight:normal;line-height:125%;fill:#ffffff;fill-opacity:1;stroke:#969696;stroke-width:0.69858825;stroke-linecap:butt;stroke-linejoin:miter;stroke-miterlimit:4;stroke-opacity:0.93333333;stroke-dasharray:none;font-family:Bitstream Vera Sans"
         id="path5901"
         d="m 25.173272,110.19712 1.180496,-4.88879 -3.756116,0 -1.180496,4.88879 3.756116,0 m 6.921982,0 -1.100002,4.53325 -2.817089,0 -0.885367,3.62955 -4.104899,0 0.885367,-3.62955 -3.756116,0 -0.885368,3.62955 -4.104898,0 0.885372,-3.62955 -2.817088,0 1.100003,-4.53325 2.817089,0 1.180489,-4.88879 -2.817082,0 1.100002,-4.53325 2.817088,0 0.885374,-3.62956 4.104898,0 -0.885372,3.62956 3.756115,0 0.885374,-3.62956 4.104892,0 -0.885367,3.62956 2.817088,0 -1.100008,4.53325 -2.817088,0 -1.18049,4.88879 2.817083,0" />
      <path
         style="font-size:40px;font-style:normal;font-weight:normal;line-height:125%;opacity:0.25;fill:#ffffff;fill-opacity:1;stroke:none;font-family:Bitstream Vera Sans"
         id="path5903"
         d="m 20.475681,97.145224 -0.882387,3.627916 -2.820069,0 -1.097021,4.53654 2.814103,0 -1.091063,4.52336 c 1.440854,-0.056 2.838495,-0.15843 4.179426,-0.30945 l 1.01952,-4.21391 3.756116,0 -0.876432,3.61474 c 1.598997,-0.31366 3.067405,-0.69791 4.382134,-1.13907 l 0.596217,-2.47567 2.820063,0 1.097028,-4.53654 -2.814108,0 0.882387,-3.627916 -4.101918,0 -0.888348,3.627916 -3.756116,0 0.888347,-3.627916 -4.107879,0 z" />
      <path
         style="font-size:40px;font-style:normal;font-weight:normal;line-height:125%;fill:#ffffff;stroke:url(#linearGradient2879);stroke-width:0.18431033;stroke-linecap:butt;stroke-linejoin:round;stroke-miterlimit:4;stroke-opacity:1;stroke-dasharray:none;font-family:Bitstream Vera Sans"
         id="path4251"
         d="m 20.832643,97.662779 -0.78924,3.244281 c -0.05512,0.22372 -0.23948,0.38074 -0.449427,0.38132 l -2.460889,0 -0.849532,3.50454 2.208775,0 c 0.145505,4.2e-4 0.279516,0.0788 0.367213,0.2058 0.0877,0.12704 0.120347,0.28697 0.08221,0.44185 l -1.178376,4.89063 c -0.05513,0.22372 -0.23948,0.38074 -0.449426,0.38132 l -2.460895,0 -0.849525,3.50455 2.208773,0 c 0.145506,4.1e-4 0.279517,0.0787 0.367213,0.20579 0.0877,0.12704 0.120348,0.28697 0.08221,0.44185 l -0.728949,2.97796 3.140511,0 0.794725,-3.24428 c 0.05512,-0.22372 0.239479,-0.38074 0.449426,-0.38132 l 3.754368,0 c 0.145507,4.1e-4 0.279516,0.0787 0.367214,0.20579 0.0877,0.12704 0.120347,0.28697 0.08221,0.44185 l -0.72347,2.97796 3.140518,0 0.78924,-3.24428 c 0.05513,-0.22372 0.239478,-0.38074 0.449426,-0.38132 l 2.460895,0 0.849525,-3.50455 -2.208773,0 c -0.145507,-4.1e-4 -0.279517,-0.0788 -0.367214,-0.20579 -0.0877,-0.12704 -0.120347,-0.28697 -0.08221,-0.44186 l 1.178374,-4.89062 c 0.05513,-0.22372 0.239485,-0.38074 0.449433,-0.38133 l 2.46089,0 0.84953,-3.50454 -2.208773,0 c -0.145513,-4.1e-4 -0.279517,-0.0788 -0.36722,-0.2058 -0.0877,-0.12703 -0.120347,-0.28696 -0.08221,-0.44185 l 0.728954,-2.977951 -3.140516,0 -0.794719,3.244281 c -0.05513,0.22372 -0.239485,0.38074 -0.449432,0.38132 l -3.754369,0 c -0.145505,-4.1e-4 -0.279516,-0.0788 -0.367214,-0.2058 -0.0877,-0.12703 -0.120347,-0.28696 -0.08221,-0.44185 l 0.72347,-2.977951 -3.140516,0 z m 1.710019,7.130141 c 0.0018,-1.9e-4 0.0037,-1.9e-4 0.0055,0 0.01749,-10e-4 0.03185,-10e-4 0.04933,0 l 3.754367,0 c 0.145513,4.2e-4 0.279517,0.0788 0.36722,0.2058 0.0877,0.12704 0.120347,0.28697 0.08221,0.44185 l -1.17838,4.89063 c -0.05513,0.22372 -0.23948,0.38074 -0.449426,0.38132 l -3.754369,0 c -0.145513,-4.1e-4 -0.279517,-0.0788 -0.367213,-0.20579 -0.0877,-0.12704 -0.120347,-0.28697 -0.08221,-0.44186 l 1.178375,-4.89062 c 0.04898,-0.20449 0.204405,-0.35661 0.39462,-0.38133 z" />
    </g>
  </g>
</svg>
