<?xml version="1.0" encoding="UTF-8" standalone="no"?>
<!-- Creator: CorelDRAW -->

<svg
   xmlns:dc="http://purl.org/dc/elements/1.1/"
   xmlns:cc="http://creativecommons.org/ns#"
   xmlns:rdf="http://www.w3.org/1999/02/22-rdf-syntax-ns#"
   xmlns:svg="http://www.w3.org/2000/svg"
   xmlns="http://www.w3.org/2000/svg"
   xmlns:xlink="http://www.w3.org/1999/xlink"
   xmlns:sodipodi="http://sodipodi.sourceforge.net/DTD/sodipodi-0.dtd"
   xmlns:inkscape="http://www.inkscape.org/namespaces/inkscape"
   height="256"
   id="svg2"
   inkscape:version="0.46+devel r22541"
   sodipodi:docname="media-album.svg"
   sodipodi:version="0.32"
   space="preserve"
   style="fill-rule:evenodd"
   viewBox="0 0 24.569416 24.569416"
   width="256"
   version="1.1"
   inkscape:export-filename="/media/raid/thd/Ztemp/art2.png"
   inkscape:export-xdpi="7.73"
   inkscape:export-ydpi="7.73">
  <metadata
     id="metadata3">
    <rdf:RDF>
      <cc:Work
         rdf:about="">
        <dc:title />
        <dc:description />
        <dc:subject>
          <rdf:Bag>
            <rdf:li>info</rdf:li>
            <rdf:li>icon</rdf:li>
            <rdf:li>information</rdf:li>
            <rdf:li>sign</rdf:li>
          </rdf:Bag>
        </dc:subject>
        <dc:publisher>
          <cc:Agent
             rdf:about="http://www.openclipart.org/">
            <dc:title>Open Clip Art Library</dc:title>
          </cc:Agent>
        </dc:publisher>
        <dc:creator>
          <cc:Agent>
            <dc:title>mo</dc:title>
          </cc:Agent>
        </dc:creator>
        <dc:rights>
          <cc:Agent>
            <dc:title>mo</dc:title>
          </cc:Agent>
        </dc:rights>
        <dc:date />
        <dc:format>image/svg+xml</dc:format>
        <dc:type
           rdf:resource="http://purl.org/dc/dcmitype/StillImage" />
        <cc:license
           rdf:resource="http://web.resource.org/cc/PublicDomain" />
        <dc:language>en</dc:language>
      </cc:Work>
      <cc:License
         rdf:about="http://web.resource.org/cc/PublicDomain">
        <cc:permits
           rdf:resource="http://web.resource.org/cc/Reproduction" />
        <cc:permits
           rdf:resource="http://web.resource.org/cc/Distribution" />
        <cc:permits
           rdf:resource="http://web.resource.org/cc/DerivativeWorks" />
      </cc:License>
    </rdf:RDF>
  </metadata>
  <sodipodi:namedview
     bordercolor="#666666"
     borderopacity="1.0"
     id="base"
     inkscape:current-layer="g3662"
     inkscape:cx="45.314856"
     inkscape:cy="124.98359"
     inkscape:pageopacity="0.0"
     inkscape:pageshadow="2"
     inkscape:window-height="1149"
     inkscape:window-width="1869"
     inkscape:window-x="0"
     inkscape:window-y="25"
     inkscape:zoom="2.8506834"
     pagecolor="#ffffff"
     showgrid="false"
     inkscape:window-maximized="1" />
  <defs
     id="defs4">
    <linearGradient
       id="linearGradient11710">
      <stop
         id="stop11724"
         offset="0"
         style="stop-color:#ef2929;stop-opacity:0;" />
      <stop
         style="stop-color:#f25114;stop-opacity:1;"
         offset="0.1"
         id="stop13226" />
      <stop
         style="stop-color:#f57900;stop-opacity:1"
         offset="0.2"
         id="stop11738" />
      <stop
         style="stop-color:#fce94f;stop-opacity:1"
         offset="0.40000001"
         id="stop11736" />
      <stop
         style="stop-color:#8ae234;stop-opacity:1"
         offset="0.60000002"
         id="stop11730" />
      <stop
         id="stop11732"
         offset="0.80000001"
         style="stop-color:#3465a4;stop-opacity:1" />
      <stop
         style="stop-color:#545a8f;stop-opacity:1;"
         offset="0.89999998"
         id="stop13228" />
      <stop
         style="stop-color:#75507b;stop-opacity:0;"
         offset="1"
         id="stop11714" />
    </linearGradient>
    <inkscape:perspective
       sodipodi:type="inkscape:persp3d"
       inkscape:vp_x="0 : 65.598305 : 1"
       inkscape:vp_y="0 : 1000 : 0"
       inkscape:vp_z="131.19661 : 65.598305 : 1"
       inkscape:persp3d-origin="65.598305 : 43.732203 : 1"
       id="perspective10" />
    <style
       id="style6"
       type="text/css">
   
    .fil0 {fill:#EF7900}
   
  </style>
    <inkscape:perspective
       id="perspective2841"
       inkscape:persp3d-origin="0.5 : 0.33333333 : 1"
       inkscape:vp_z="1 : 0.5 : 1"
       inkscape:vp_y="0 : 1000 : 0"
       inkscape:vp_x="0 : 0.5 : 1"
       sodipodi:type="inkscape:persp3d" />
    <inkscape:perspective
       id="perspective2870"
       inkscape:persp3d-origin="0.5 : 0.33333333 : 1"
       inkscape:vp_z="1 : 0.5 : 1"
       inkscape:vp_y="0 : 1000 : 0"
       inkscape:vp_x="0 : 0.5 : 1"
       sodipodi:type="inkscape:persp3d" />
    <inkscape:perspective
       id="perspective2844"
       inkscape:persp3d-origin="0.5 : 0.33333333 : 1"
       inkscape:vp_z="1 : 0.5 : 1"
       inkscape:vp_y="0 : 1000 : 0"
       inkscape:vp_x="0 : 0.5 : 1"
       sodipodi:type="inkscape:persp3d" />
    <inkscape:perspective
       id="perspective2928"
       inkscape:persp3d-origin="0.5 : 0.33333333 : 1"
       inkscape:vp_z="1 : 0.5 : 1"
       inkscape:vp_y="0 : 1000 : 0"
       inkscape:vp_x="0 : 0.5 : 1"
       sodipodi:type="inkscape:persp3d" />
    <inkscape:perspective
       id="perspective19467"
       inkscape:persp3d-origin="0.5 : 0.33333333 : 1"
       inkscape:vp_z="1 : 0.5 : 1"
       inkscape:vp_y="0 : 1000 : 0"
       inkscape:vp_x="0 : 0.5 : 1"
       sodipodi:type="inkscape:persp3d" />
    <radialGradient
       cx="6.0044956"
       cy="9.9044514"
       r="6.0044961"
       fx="6.0044956"
       fy="9.9044514"
       id="radialGradient3644"
       xlink:href="#linearGradient3803"
       gradientUnits="userSpaceOnUse"
       gradientTransform="matrix(0.7071068,-0.7071068,0.7178292,0.7178292,94.015238,30.853488)" />
    <linearGradient
       id="linearGradient3803">
      <stop
         id="stop3805"
         style="stop-color:#ce5c00;stop-opacity:1"
         offset="0" />
      <stop
         id="stop3807"
         style="stop-color:#ce5c00;stop-opacity:0"
         offset="1" />
    </linearGradient>
    <radialGradient
       cx="61.871639"
       cy="14.900355"
       r="7.0694604"
       fx="61.871639"
       fy="14.900355"
       id="radialGradient3646"
       xlink:href="#linearGradient3596"
       gradientUnits="userSpaceOnUse"
       gradientTransform="matrix(0.5132442,-0.5132442,0.5105902,0.5105902,65.945539,57.928569)" />
    <linearGradient
       id="linearGradient3596">
      <stop
         id="stop3598"
         style="stop-color:#fcaf3e;stop-opacity:1"
         offset="0" />
      <stop
         id="stop3600"
         style="stop-color:#fcaf3e;stop-opacity:0"
         offset="1" />
    </linearGradient>
    <linearGradient
       x1="403.81253"
       y1="339.44629"
       x2="411.47675"
       y2="339.44629"
       id="linearGradient3648"
       xlink:href="#linearGradient19089"
       gradientUnits="userSpaceOnUse"
       gradientTransform="matrix(0.4180431,0,0,0.2840879,-80.993726,-57.41686)" />
    <linearGradient
       id="linearGradient19089">
      <stop
         id="stop19091"
         style="stop-color:#f2f5fa;stop-opacity:1"
         offset="0" />
      <stop
         id="stop19093"
         style="stop-color:#f2f5fa;stop-opacity:0"
         offset="1" />
    </linearGradient>
    <linearGradient
       x1="403.81253"
       y1="339.44629"
       x2="411.47675"
       y2="339.44629"
       id="linearGradient3650"
       xlink:href="#linearGradient19089"
       gradientUnits="userSpaceOnUse"
       gradientTransform="matrix(0.418038,0,0,0.2830939,-80.993033,-57.11616)" />
    <linearGradient
       id="linearGradient19484">
      <stop
         id="stop19486"
         style="stop-color:#f2f5fa;stop-opacity:1"
         offset="0" />
      <stop
         id="stop19488"
         style="stop-color:#f2f5fa;stop-opacity:0"
         offset="1" />
    </linearGradient>
    <linearGradient
       x1="403.81253"
       y1="339.44629"
       x2="411.47675"
       y2="339.44629"
       id="linearGradient3652"
       xlink:href="#linearGradient19089"
       gradientUnits="userSpaceOnUse"
       gradientTransform="matrix(0.4180405,0,0,0.2835909,-80.99324,-57.303328)" />
    <linearGradient
       id="linearGradient19491">
      <stop
         id="stop19493"
         style="stop-color:#f2f5fa;stop-opacity:1"
         offset="0" />
      <stop
         id="stop19495"
         style="stop-color:#f2f5fa;stop-opacity:0"
         offset="1" />
    </linearGradient>
    <linearGradient
       x1="403.81253"
       y1="339.44629"
       x2="411.47675"
       y2="339.44629"
       id="linearGradient3654"
       xlink:href="#linearGradient19089"
       gradientUnits="userSpaceOnUse"
       gradientTransform="matrix(0.4180431,0,0,0.2840879,-80.993605,-57.453594)" />
    <linearGradient
       id="linearGradient19498">
      <stop
         id="stop19500"
         style="stop-color:#f2f5fa;stop-opacity:1"
         offset="0" />
      <stop
         id="stop19502"
         style="stop-color:#f2f5fa;stop-opacity:0"
         offset="1" />
    </linearGradient>
    <radialGradient
       cx="96.125526"
       cy="2.3873661"
       r="2.0775449"
       fx="96.125526"
       fy="2.3873661"
       id="radialGradient3656"
       xlink:href="#linearGradient3803"
       gradientUnits="userSpaceOnUse"
       gradientTransform="matrix(-0.9031052,-0.6754471,-1.0689303,0.6274572,178.26778,101.35495)" />
    <linearGradient
       id="linearGradient19505">
      <stop
         id="stop19507"
         style="stop-color:#ce5c00;stop-opacity:1"
         offset="0" />
      <stop
         id="stop19509"
         style="stop-color:#ce5c00;stop-opacity:0"
         offset="1" />
    </linearGradient>
    <radialGradient
       cx="96.125526"
       cy="2.6118443"
       r="1.628588"
       fx="96.125526"
       fy="2.6118443"
       id="radialGradient3658"
       xlink:href="#linearGradient3596"
       gradientUnits="userSpaceOnUse"
       gradientTransform="matrix(-1.2736689,-1.0103598,-1.7965263,0.994264,216.02874,132.52382)" />
    <linearGradient
       id="linearGradient19512">
      <stop
         id="stop19514"
         style="stop-color:#fcaf3e;stop-opacity:1"
         offset="0" />
      <stop
         id="stop19516"
         style="stop-color:#fcaf3e;stop-opacity:0"
         offset="1" />
    </linearGradient>
    <inkscape:perspective
       id="perspective2825"
       inkscape:persp3d-origin="0.5 : 0.33333333 : 1"
       inkscape:vp_z="1 : 0.5 : 1"
       inkscape:vp_y="0 : 1000 : 0"
       inkscape:vp_x="0 : 0.5 : 1"
       sodipodi:type="inkscape:persp3d" />
    <clipPath
       clipPathUnits="userSpaceOnUse"
       id="clipPath608">
      <path
         d="m 2610.66,3005.65 c -5.01,-17 -19.77,-28.38 -21.49,-34.4 -1.72,-6.01 -18.92,-24.07 -18.92,-35.25 0,-11.18 2.59,-25.8 2.59,-31.81 0,-6.02 -4.3,-20.64 -12.05,-26.66 -7.73,-6.01 -35.24,-28.37 -40.41,-32.67 -5.16,-4.29 -13.76,-16.33 -13.76,-26.65 0,-10.32 1.73,-25.8 -4.29,-35.25 -6.01,-9.46 -16.32,-25.79 -16.32,-29.24 0,-3.44 1.71,-7.73 -1.74,-17.19 -3.44,-9.46 -7.74,-25.79 -8.61,-31.82 -0.84,-6.01 -6,-28.37 9.48,-39.54 15.48,-11.19 49.01,-35.26 49.01,-37.83 0,-2.58 -18.93,-10.32 -24.08,-20.64 -5.15,-10.32 -18.92,-33.53 -6.02,-74.8 12.89,-41.27 16.33,-30.95 16.33,-52.45 0,-21.49 10.32,-61.9 13.77,-73.94 3.43,-12.04 8.59,-48.15 12.89,-55.89 4.3,-7.74 23.21,-60.18 23.21,-60.18 l 125.68,0.86 c 0,0 0.88,39.54 0,45.57 -0.85,6.01 8.45,49 2.43,60.18 -6.01,11.18 -11.17,42.13 -11.17,49.87 0,7.74 10.32,48.15 12.04,53.31 1.72,5.16 15.48,35.25 13.75,42.99 -1.72,7.74 -3.43,34.39 -4.31,43.85 -0.85,9.46 -4.29,35.25 -4.29,35.25 0,0 6.88,6.02 6.88,15.48 0,9.45 11.18,19.77 12.9,17.18 1.71,-2.56 9.44,-12.88 16.33,-12.88 6.88,0 12.9,5.15 20.63,11.17 7.75,6.02 18.93,18.91 10.33,24.07 -8.6,5.16 89.41,67.93 95.43,72.22 6.02,4.3 20.65,1.72 24.08,0 3.42,-1.71 61.9,24.94 64.49,25.8 2.57,0.86 -8.6,31.82 -18.06,31.82 -9.45,0 -63.63,-25.8 -64.49,-29.24 -0.86,-3.44 -3.44,-2.58 -3.44,-5.16 0,-2.58 -100.59,-64.49 -100.59,-64.49 0,0 -10.32,31.82 -13.75,35.26 -3.45,3.44 -5.16,30.09 -0.86,43.84 4.29,13.77 5.15,35.26 -6.89,48.16 -12.03,12.89 -17.19,17.19 -23.21,24.93 -6.02,7.74 -17.31,80.65 -18.07,87.7 -1.71,16.33 -2.56,21.5 -2.56,21.5 0,0 0,12.03 -12.03,25.79 -12.05,13.75 -29.25,24.07 -39.56,23.21 -10.32,-0.86 -36.97,2.58 -41.28,-12.03 z"
         id="path610" />
    </clipPath>
    <inkscape:perspective
       id="perspective2839"
       inkscape:persp3d-origin="0.5 : 0.33333333 : 1"
       inkscape:vp_z="1 : 0.5 : 1"
       inkscape:vp_y="0 : 1000 : 0"
       inkscape:vp_x="0 : 0.5 : 1"
       sodipodi:type="inkscape:persp3d" />
    <linearGradient
       inkscape:collect="always"
       xlink:href="#XMLID_3_"
       id="linearGradient3669"
       gradientUnits="userSpaceOnUse"
       gradientTransform="matrix(48.743652,305.19692,305.19692,-48.743652,-129650.03,95650.324)"
       x1="-240.13229"
       y1="462.42581"
       x2="-238.00459"
       y2="462.42581" />
    <linearGradient
       gradientTransform="matrix(73.9988,463.3261,463.3261,-73.9988,-196680.39,145166.65)"
       gradientUnits="userSpaceOnUse"
       id="XMLID_3_"
       x1="-240.13229"
       x2="-238.00459"
       y1="462.42581"
       y2="462.42581">
      <stop
         id="stop12"
         offset="0"
         style="stop-color:#FFFFFF" />
      <stop
         id="stop14"
         offset="1"
         style="stop-color:#000000" />
    </linearGradient>
    <linearGradient
       inkscape:collect="always"
       xlink:href="#XMLID_4_"
       id="linearGradient3671"
       gradientUnits="userSpaceOnUse"
       gradientTransform="matrix(0,-41.608651,-41.608651,0,19502.219,-9859.7671)"
       x1="-239.1089"
       y1="473.16409"
       x2="-237.0498"
       y2="473.16409" />
    <linearGradient
       gradientTransform="matrix(0,-63.167,-63.167,0,29750.892,-15010.52)"
       gradientUnits="userSpaceOnUse"
       id="XMLID_4_"
       x1="-239.1089"
       x2="-237.0498"
       y1="473.16409"
       y2="473.16409">
      <stop
         id="stop31"
         offset="0"
         style="stop-color:#FFFFFF" />
      <stop
         id="stop33"
         offset="1"
         style="stop-color:#000000" />
    </linearGradient>
    <linearGradient
       y2="473.16409"
       x2="-237.0498"
       y1="473.16409"
       x1="-239.1089"
       gradientTransform="matrix(0,-41.608651,-41.608651,0,19502.219,-9859.7671)"
       gradientUnits="userSpaceOnUse"
       id="linearGradient2857"
       xlink:href="#XMLID_4_"
       inkscape:collect="always" />
    <inkscape:perspective
       id="perspective2904"
       inkscape:persp3d-origin="0.5 : 0.33333333 : 1"
       inkscape:vp_z="1 : 0.5 : 1"
       inkscape:vp_y="0 : 1000 : 0"
       inkscape:vp_x="0 : 0.5 : 1"
       sodipodi:type="inkscape:persp3d" />
    <linearGradient
       inkscape:collect="always"
       xlink:href="#XMLID_3_-2"
       id="linearGradient3669-2"
       gradientUnits="userSpaceOnUse"
       gradientTransform="matrix(48.743652,305.19692,305.19692,-48.743652,-129650.03,95650.324)"
       x1="-240.13229"
       y1="462.42581"
       x2="-238.00459"
       y2="462.42581" />
    <linearGradient
       gradientTransform="matrix(73.9988,463.3261,463.3261,-73.9988,-196680.39,145166.65)"
       gradientUnits="userSpaceOnUse"
       id="XMLID_3_-2"
       x1="-240.13229"
       x2="-238.00459"
       y1="462.42581"
       y2="462.42581">
      <stop
         id="stop12-6"
         offset="0"
         style="stop-color:#FFFFFF" />
      <stop
         id="stop14-1"
         offset="1"
         style="stop-color:#000000" />
    </linearGradient>
    <linearGradient
       y2="473.16409"
       x2="-237.0498"
       y1="473.16409"
       x1="-239.1089"
       gradientTransform="matrix(0,-41.608651,-41.608651,0,19502.219,-9859.7671)"
       gradientUnits="userSpaceOnUse"
       id="linearGradient3178"
       xlink:href="#XMLID_4_-0"
       inkscape:collect="always" />
    <linearGradient
       gradientTransform="matrix(0,-63.167,-63.167,0,29750.892,-15010.52)"
       gradientUnits="userSpaceOnUse"
       id="XMLID_4_-0"
       x1="-239.1089"
       x2="-237.0498"
       y1="473.16409"
       y2="473.16409">
      <stop
         id="stop31-6"
         offset="0"
         style="stop-color:#ffffff;stop-opacity:0;" />
      <stop
         style="stop-color:#ffffff;stop-opacity:1;"
         offset="0.2"
         id="stop13422" />
      <stop
         style="stop-color:#ffffff;stop-opacity:1;"
         offset="0.80000001"
         id="stop13420" />
      <stop
         id="stop33-1"
         offset="1"
         style="stop-color:#ffffff;stop-opacity:0;" />
    </linearGradient>
    <linearGradient
       y2="473.16409"
       x2="-237.0498"
       y1="473.16409"
       x1="-239.1089"
       gradientTransform="matrix(0,-41.608651,-41.608651,0,19502.219,-9859.7671)"
       gradientUnits="userSpaceOnUse"
       id="linearGradient2922"
       xlink:href="#XMLID_4_-0"
       inkscape:collect="always" />
    <inkscape:perspective
       id="perspective3726"
       inkscape:persp3d-origin="0.5 : 0.33333333 : 1"
       inkscape:vp_z="1 : 0.5 : 1"
       inkscape:vp_y="0 : 1000 : 0"
       inkscape:vp_x="0 : 0.5 : 1"
       sodipodi:type="inkscape:persp3d" />
    <inkscape:perspective
       id="perspective11597"
       inkscape:persp3d-origin="0.5 : 0.33333333 : 1"
       inkscape:vp_z="1 : 0.5 : 1"
       inkscape:vp_y="0 : 1000 : 0"
       inkscape:vp_x="0 : 0.5 : 1"
       sodipodi:type="inkscape:persp3d" />
    <inkscape:perspective
       id="perspective11621"
       inkscape:persp3d-origin="0.5 : 0.33333333 : 1"
       inkscape:vp_z="1 : 0.5 : 1"
       inkscape:vp_y="0 : 1000 : 0"
       inkscape:vp_x="0 : 0.5 : 1"
       sodipodi:type="inkscape:persp3d" />
    <inkscape:perspective
       id="perspective11645"
       inkscape:persp3d-origin="0.5 : 0.33333333 : 1"
       inkscape:vp_z="1 : 0.5 : 1"
       inkscape:vp_y="0 : 1000 : 0"
       inkscape:vp_x="0 : 0.5 : 1"
       sodipodi:type="inkscape:persp3d" />
    <linearGradient
       inkscape:collect="always"
       xlink:href="#linearGradient19491-2"
       id="linearGradient9624"
       gradientUnits="userSpaceOnUse"
       gradientTransform="matrix(0.09597428,0,0,0.09597428,1.1817208,-0.56517081)"
       x1="-64.205826"
       y1="-57.443367"
       x2="143.97194"
       y2="177.57224" />
    <linearGradient
       id="linearGradient19491-2">
      <stop
         id="stop19493-3"
         style="stop-color:#ffffff;stop-opacity:1"
         offset="0" />
      <stop
         id="stop19495-6"
         style="stop-color:#f2f5fa;stop-opacity:0"
         offset="1" />
    </linearGradient>
    <clipPath
       clipPathUnits="userSpaceOnUse"
       id="clipPath7658">
      <path
         style="fill:#4e9a06;stroke:#4e9a06;stroke-width:0.76779425;stroke-miterlimit:4;stroke-opacity:1;stroke-dasharray:none"
         d="m 23.764745,12.284708 c 0,6.340249 -5.139788,11.480037 -11.480037,11.480037 -6.3402503,0 -11.48003789,-5.139788 -11.48003789,-11.480037 0,-6.34025 5.13978759,-11.48003755 11.48003789,-11.48003755 6.340249,0 11.480037,5.13978755 11.480037,11.48003755 z"
         id="path7660" />
    </clipPath>
    <linearGradient
       y2="177.57224"
       x2="143.97194"
       y1="-57.443367"
       x1="-64.205826"
       gradientTransform="matrix(0.09597428,0,0,0.09597428,1.1817208,-0.56517081)"
       gradientUnits="userSpaceOnUse"
       id="linearGradient11656"
       xlink:href="#linearGradient19491-2"
       inkscape:collect="always" />
    <inkscape:perspective
       id="perspective11689"
       inkscape:persp3d-origin="0.5 : 0.33333333 : 1"
       inkscape:vp_z="1 : 0.5 : 1"
       inkscape:vp_y="0 : 1000 : 0"
       inkscape:vp_x="0 : 0.5 : 1"
       sodipodi:type="inkscape:persp3d" />
    <linearGradient
       inkscape:collect="always"
       xlink:href="#linearGradient11710"
       id="linearGradient13186"
       x1="151.0426"
       y1="68.851891"
       x2="186.27112"
       y2="118.63833"
       gradientUnits="userSpaceOnUse"
       gradientTransform="matrix(0.35388905,0,0,0.35388905,-118.31786,17.409689)" />
    <inkscape:perspective
       id="perspective13238"
       inkscape:persp3d-origin="0.5 : 0.33333333 : 1"
       inkscape:vp_z="1 : 0.5 : 1"
       inkscape:vp_y="0 : 1000 : 0"
       inkscape:vp_x="0 : 0.5 : 1"
       sodipodi:type="inkscape:persp3d" />
    <inkscape:perspective
       id="perspective13264"
       inkscape:persp3d-origin="0.5 : 0.33333333 : 1"
       inkscape:vp_z="1 : 0.5 : 1"
       inkscape:vp_y="0 : 1000 : 0"
       inkscape:vp_x="0 : 0.5 : 1"
       sodipodi:type="inkscape:persp3d" />
    <linearGradient
       y2="177.57224"
       x2="143.97194"
       y1="-57.443367"
       x1="-64.205826"
       gradientTransform="matrix(0.09597428,0,0,0.09597428,1.1817208,-0.56517081)"
       gradientUnits="userSpaceOnUse"
       id="linearGradient11656-9"
       xlink:href="#linearGradient19491-2-4"
       inkscape:collect="always" />
    <linearGradient
       id="linearGradient19491-2-4">
      <stop
         id="stop19493-3-1"
         style="stop-color:#ffffff;stop-opacity:1"
         offset="0" />
      <stop
         id="stop19495-6-2"
         style="stop-color:#f2f5fa;stop-opacity:0"
         offset="1" />
    </linearGradient>
    <clipPath
       clipPathUnits="userSpaceOnUse"
       id="clipPath7658-3">
      <path
         style="fill:#4e9a06;stroke:#4e9a06;stroke-width:0.76779425;stroke-miterlimit:4;stroke-opacity:1;stroke-dasharray:none"
         d="m 23.764745,12.284708 c 0,6.340249 -5.139788,11.480037 -11.480037,11.480037 -6.3402503,0 -11.48003789,-5.139788 -11.48003789,-11.480037 0,-6.34025 5.13978759,-11.48003755 11.48003789,-11.48003755 6.340249,0 11.480037,5.13978755 11.480037,11.48003755 z"
         id="path7660-8" />
    </clipPath>
    <linearGradient
       inkscape:collect="always"
       xlink:href="#linearGradient11710-9"
       id="linearGradient13186-2"
       x1="151.0426"
       y1="68.851891"
       x2="186.27112"
       y2="118.63833"
       gradientUnits="userSpaceOnUse" />
    <linearGradient
       id="linearGradient11710-9">
      <stop
         id="stop11724-2"
         offset="0"
         style="stop-color:#ef2929;stop-opacity:0;" />
      <stop
         style="stop-color:#f25114;stop-opacity:1;"
         offset="0.1"
         id="stop13226-7" />
      <stop
         style="stop-color:#f57900;stop-opacity:1"
         offset="0.2"
         id="stop11738-4" />
      <stop
         style="stop-color:#fce94f;stop-opacity:1"
         offset="0.40000001"
         id="stop11736-3" />
      <stop
         style="stop-color:#8ae234;stop-opacity:1"
         offset="0.60000002"
         id="stop11730-3" />
      <stop
         id="stop11732-9"
         offset="0.80000001"
         style="stop-color:#3465a4;stop-opacity:1" />
      <stop
         style="stop-color:#545a8f;stop-opacity:1;"
         offset="0.89999998"
         id="stop13228-7" />
      <stop
         style="stop-color:#75507b;stop-opacity:0;"
         offset="1"
         id="stop11714-8" />
    </linearGradient>
    <linearGradient
       y2="118.63833"
       x2="186.27112"
       y1="68.851891"
       x1="151.0426"
       gradientUnits="userSpaceOnUse"
       id="linearGradient13292"
       xlink:href="#linearGradient11710-9"
       inkscape:collect="always" />
    <inkscape:perspective
       id="perspective13359"
       inkscape:persp3d-origin="0.5 : 0.33333333 : 1"
       inkscape:vp_z="1 : 0.5 : 1"
       inkscape:vp_y="0 : 1000 : 0"
       inkscape:vp_x="0 : 0.5 : 1"
       sodipodi:type="inkscape:persp3d" />
    <inkscape:perspective
       id="perspective13381"
       inkscape:persp3d-origin="0.5 : 0.33333333 : 1"
       inkscape:vp_z="1 : 0.5 : 1"
       inkscape:vp_y="0 : 1000 : 0"
       inkscape:vp_x="0 : 0.5 : 1"
       sodipodi:type="inkscape:persp3d" />
    <clipPath
       clipPathUnits="userSpaceOnUse"
       id="clipPath13406">
      <path
         id="path13408"
         d="m -73.915847,21.961654 c -22.495959,0 -41.276673,18.783228 -41.276673,41.276667 0,22.494693 18.780714,41.276669 41.276673,41.276669 22.495949,0 41.276667,-18.781348 41.276667,-41.276669 0,-22.495324 -18.780718,-41.276667 -41.276667,-41.276667 z m 0.0211,27.990904 c 16.743208,0.372425 17.858593,26.601348 0,26.476565 -15.250362,0 -15.251612,-26.476565 0,-26.476565 z m 0,8.664296 c -1.679941,0 -2.874726,0.74324 -3.597991,1.804271 0.725972,-1.040273 1.917496,-1.762066 3.576885,-1.762066 3.851159,3.38e-4 5.196465,3.898067 4.020044,6.60511 1.209975,-2.708586 -0.127038,-6.646893 -3.998938,-6.647315 z"
         style="fill:#babdb6;fill-opacity:1;fill-rule:evenodd;stroke:none"
         sodipodi:nodetypes="csssccccccscc" />
    </clipPath>
    <linearGradient
       inkscape:collect="always"
       xlink:href="#XMLID_4_-0"
       id="linearGradient13418"
       x1="148.23627"
       y1="116.03356"
       x2="222.9028"
       y2="57.80191"
       gradientUnits="userSpaceOnUse"
       gradientTransform="matrix(0.35388905,0,0,0.35388905,-119.73342,20.240801)" />
    <linearGradient
       inkscape:collect="always"
       xlink:href="#XMLID_4_-0"
       id="linearGradient13430"
       gradientUnits="userSpaceOnUse"
       gradientTransform="matrix(0.35388905,0,0,0.35388905,-119.73342,17.409689)"
       x1="148.23627"
       y1="116.03356"
       x2="222.9028"
       y2="57.80191" />
    <linearGradient
       inkscape:collect="always"
       xlink:href="#XMLID_4_-0"
       id="linearGradient13436"
       gradientUnits="userSpaceOnUse"
       gradientTransform="matrix(0.35388905,0,0,0.35388905,-119.73342,17.409689)"
       x1="148.23627"
       y1="116.03356"
       x2="222.9028"
       y2="57.80191" />
    <mask
       maskUnits="userSpaceOnUse"
       id="mask13432">
      <path
         style="fill:url(#linearGradient13436);fill-opacity:1;stroke:none"
         d="M -76.532064,50.403477 -46.862165,29.54765 -35.068692,45.81023 -61.635044,65.797063 -76.532064,50.403477 z"
         id="path13434" />
    </mask>
  </defs>
  <g
     style="fill-rule:evenodd;stroke:#204a87"
     id="g3662"
     transform="matrix(0.27119879,0,0,0.27119879,32.471559,-4.7214867)">
    <path
       d="m -73.91623,19.970885 c -23.57848,0 -43.26201,19.686828 -43.26201,43.26267 0,23.577159 19.68353,43.264635 43.26201,43.264635 23.57848,0 43.26596,-19.686817 43.26596,-43.264635 0,-23.577818 -19.68748,-43.26267 -43.26596,-43.26267 m 0.002,48.058728 c -6.18395,0 -6.18395,-9.588822 0,-9.588822 6.18396,6.58e-4 6.18396,9.588822 0,9.588822"
       id="path5"
       style="fill:#babdb6;fill-opacity:1;stroke:none;stroke-opacity:1;stroke-width:1.41555618999999999;stroke-miterlimit:4;stroke-dasharray:none" />
    <path
       d="m -73.888513,50.794999 c -15.98554,0 -15.98423,24.789183 0,24.789183 15.98554,6.58e-4 15.98752,-24.789183 0,-24.789183 m 0,17.189661 c -6.18396,0 -6.18396,-9.588822 0,-9.588822 6.18396,6.58e-4 6.18396,9.588822 0,9.588822"
       id="path28"
       style="fill:#eeeeec;stroke:#555753" />
    <path
       style="fill:none;stroke:#d3d7cf;stroke-width:2.83111238;stroke-miterlimit:4"
       d="m -73.874998,48.186642 c -4.707235,0 -8.542019,1.945793 -11.03125,4.84375 -2.482112,2.889669 -3.656347,6.609081 -3.65625,10.28125 9.7e-5,3.672028 1.174057,7.391546 3.65625,10.28125 2.489304,2.897982 6.324284,4.84375 11.03125,4.84375 4.707347,1.97e-4 8.541887,-1.946052 11.03125,-4.84375 2.482527,-2.889741 3.656104,-6.609288 3.65625,-10.28125 1.46e-4,-3.672177 -1.173893,-7.391514 -3.65625,-10.28125 -2.489288,-2.897805 -6.323611,-4.84375 -11.03125,-4.84375 z"
       id="path11705"
       sodipodi:nodetypes="csssssssc" />
    <path
       transform="matrix(3.6873321,0,0,3.6873321,-119.73342,17.409689)"
       style="fill:url(#linearGradient11656);fill-opacity:1;fill-rule:evenodd;stroke:none"
       d="m 5.4461914,22.719765 c 0,0 0.6679292,-9.659282 7.6554956,-10.995141 6.987565,-1.335858 11.714448,-7.9123906 11.714448,-7.9123906 L 11.354794,-7.6453202 -9.0427331,0.52396691 -5.1379164,16.708404 5.4461914,22.719765 z"
       id="path7626"
       clip-path="url(#clipPath7658)" />
    <path
       sodipodi:type="inkscape:offset"
       inkscape:radius="-1.2216493"
       inkscape:original="M -73.90625 19.96875 C -97.484727 19.96875 -117.1875 39.642907 -117.1875 63.21875 C -117.1875 86.795907 -97.484727 106.5 -73.90625 106.5 C -50.327769 106.5 -30.65625 86.796565 -30.65625 63.21875 C -30.65625 39.640931 -50.327769 19.96875 -73.90625 19.96875 z M -73.90625 58.4375 C -67.72229 58.438207 -67.72229 68.03125 -73.90625 68.03125 C -80.090199 68.03125 -80.090199 58.4375 -73.90625 58.4375 z "
       xlink:href="#path5-1"
       style="fill:none;stroke:#eeeeec;stroke-width:1.41555619000000021;stroke-miterlimit:4;stroke-dasharray:none"
       id="path11703"
       inkscape:href="#path5-1"
       d="m -73.90625,21.1875 c -22.898905,0 -42.0625,19.136044 -42.0625,42.03125 0,22.896558 19.164629,42.0625 42.0625,42.0625 22.897898,0 42.03125,-19.164185 42.03125,-42.0625 0,-22.898319 -19.132273,-42.03125 -42.03125,-42.03125 z m 0,36.03125 c 1.861843,2.13e-4 3.414608,0.752388 4.40625,1.90625 0.991642,1.153862 1.46875,2.663331 1.46875,4.125 0,1.461669 -0.477071,2.939959 -1.46875,4.09375 -0.991679,1.153791 -2.544407,1.90625 -4.40625,1.90625 -1.861864,0 -3.414585,-0.752401 -4.40625,-1.90625 -0.991665,-1.153849 -1.46875,-2.632047 -1.46875,-4.09375 0,-1.461703 0.477085,-2.971151 1.46875,-4.125 0.991665,-1.153849 2.544386,-1.90625 4.40625,-1.90625 z" />
    <path
       d="m -73.916233,19.970884 c -23.578477,0 -43.262007,19.686828 -43.262007,43.262671 0,23.577157 19.68353,43.264625 43.262007,43.264625 23.578481,0 43.265962,-19.68681 43.265962,-43.264625 0,-23.577819 -19.687481,-43.262671 -43.265962,-43.262671 m 0.0021,48.058727 c -6.183949,0 -6.183949,-9.588821 0,-9.588821 6.18396,7.07e-4 6.18396,9.588821 0,9.588821"
       id="path5-1"
       style="fill:none;stroke:#555753;stroke-width:1.41555619;stroke-miterlimit:4;stroke-dasharray:none" />
  </g>
</svg>
