<?xml version="1.0" encoding="UTF-8" standalone="no"?>
<!-- Created with Inkscape (http://www.inkscape.org/) -->

<svg
   xmlns:dc="http://purl.org/dc/elements/1.1/"
   xmlns:cc="http://creativecommons.org/ns#"
   xmlns:rdf="http://www.w3.org/1999/02/22-rdf-syntax-ns#"
   xmlns:svg="http://www.w3.org/2000/svg"
   xmlns="http://www.w3.org/2000/svg"
   xmlns:xlink="http://www.w3.org/1999/xlink"
   xmlns:sodipodi="http://sodipodi.sourceforge.net/DTD/sodipodi-0.dtd"
   xmlns:inkscape="http://www.inkscape.org/namespaces/inkscape"
   id="svg2"
   sodipodi:version="0.32"
   inkscape:version="0.47 r22583"
   width="180"
   height="120"
   version="1.0"
   sodipodi:docname="no-artist.svg"
   inkscape:output_extension="org.inkscape.output.svg.inkscape">
  <metadata
     id="metadata7">
    <rdf:RDF>
      <cc:Work
         rdf:about="">
        <dc:format>image/svg+xml</dc:format>
        <dc:type
           rdf:resource="http://purl.org/dc/dcmitype/StillImage" />
        <dc:title />
      </cc:Work>
    </rdf:RDF>
  </metadata>
  <defs
     id="defs5">
    <linearGradient
       id="linearGradient4436">
      <stop
         style="stop-color:#ffffff;stop-opacity:1;"
         offset="0"
         id="stop4438" />
      <stop
         style="stop-color:#ffffff;stop-opacity:0;"
         offset="1"
         id="stop4440" />
    </linearGradient>
    <inkscape:perspective
       sodipodi:type="inkscape:persp3d"
       inkscape:vp_x="0 : 526.18109 : 1"
       inkscape:vp_y="0 : 1000 : 0"
       inkscape:vp_z="744.09448 : 526.18109 : 1"
       inkscape:persp3d-origin="372.04724 : 350.78739 : 1"
       id="perspective9" />
    <linearGradient
       inkscape:collect="always"
       xlink:href="#linearGradient4436"
       id="linearGradient2406"
       gradientUnits="userSpaceOnUse"
       gradientTransform="matrix(0.2110212,0,0,0.2110212,-97.491506,-75.888535)"
       x1="-139.32234"
       y1="-70.973091"
       x2="428.66336"
       y2="407.2095" />
    <inkscape:perspective
       id="perspective3626"
       inkscape:persp3d-origin="0.5 : 0.33333333 : 1"
       inkscape:vp_z="1 : 0.5 : 1"
       inkscape:vp_y="0 : 1000 : 0"
       inkscape:vp_x="0 : 0.5 : 1"
       sodipodi:type="inkscape:persp3d" />
    <clipPath
       clipPathUnits="userSpaceOnUse"
       id="clipPath608">
      <path
         d="m 2610.66,3005.65 c -5.01,-17 -19.77,-28.38 -21.49,-34.4 -1.72,-6.01 -18.92,-24.07 -18.92,-35.25 0,-11.18 2.59,-25.8 2.59,-31.81 0,-6.02 -4.3,-20.64 -12.05,-26.66 -7.73,-6.01 -35.24,-28.37 -40.41,-32.67 -5.16,-4.29 -13.76,-16.33 -13.76,-26.65 0,-10.32 1.73,-25.8 -4.29,-35.25 -6.01,-9.46 -16.32,-25.79 -16.32,-29.24 0,-3.44 1.71,-7.73 -1.74,-17.19 -3.44,-9.46 -7.74,-25.79 -8.61,-31.82 -0.84,-6.01 -6,-28.37 9.48,-39.54 15.48,-11.19 49.01,-35.26 49.01,-37.83 0,-2.58 -18.93,-10.32 -24.08,-20.64 -5.15,-10.32 -18.92,-33.53 -6.02,-74.8 12.89,-41.27 16.33,-30.95 16.33,-52.45 0,-21.49 10.32,-61.9 13.77,-73.94 3.43,-12.04 8.59,-48.15 12.89,-55.89 4.3,-7.74 23.21,-60.18 23.21,-60.18 l 125.68,0.86 c 0,0 0.88,39.54 0,45.57 -0.85,6.01 8.45,49 2.43,60.18 -6.01,11.18 -11.17,42.13 -11.17,49.87 0,7.74 10.32,48.15 12.04,53.31 1.72,5.16 15.48,35.25 13.75,42.99 -1.72,7.74 -3.43,34.39 -4.31,43.85 -0.85,9.46 -4.29,35.25 -4.29,35.25 0,0 6.88,6.02 6.88,15.48 0,9.45 11.18,19.77 12.9,17.18 1.71,-2.56 9.44,-12.88 16.33,-12.88 6.88,0 12.9,5.15 20.63,11.17 7.75,6.02 18.93,18.91 10.33,24.07 -8.6,5.16 89.41,67.93 95.43,72.22 6.02,4.3 20.65,1.72 24.08,0 3.42,-1.71 61.9,24.94 64.49,25.8 2.57,0.86 -8.6,31.82 -18.06,31.82 -9.45,0 -63.63,-25.8 -64.49,-29.24 -0.86,-3.44 -3.44,-2.58 -3.44,-5.16 0,-2.58 -100.59,-64.49 -100.59,-64.49 0,0 -10.32,31.82 -13.75,35.26 -3.45,3.44 -5.16,30.09 -0.86,43.84 4.29,13.77 5.15,35.26 -6.89,48.16 -12.03,12.89 -17.19,17.19 -23.21,24.93 -6.02,7.74 -17.31,80.65 -18.07,87.7 -1.71,16.33 -2.56,21.5 -2.56,21.5 0,0 0,12.03 -12.03,25.79 -12.05,13.75 -29.25,24.07 -39.56,23.21 -10.32,-0.86 -36.97,2.58 -41.28,-12.03 z"
         id="path610" />
    </clipPath>
    <filter
       inkscape:collect="always"
       id="filter3706">
      <feGaussianBlur
         inkscape:collect="always"
         stdDeviation="9.0746264"
         id="feGaussianBlur3708" />
    </filter>
    <filter
       inkscape:collect="always"
       id="filter3796">
      <feGaussianBlur
         inkscape:collect="always"
         stdDeviation="1.181982"
         id="feGaussianBlur3798" />
    </filter>
  </defs>
  <sodipodi:namedview
     inkscape:window-height="994"
     inkscape:window-width="1680"
     inkscape:pageshadow="2"
     inkscape:pageopacity="0.0"
     guidetolerance="10.0"
     gridtolerance="10.0"
     objecttolerance="10.0"
     borderopacity="1.0"
     bordercolor="#666666"
     pagecolor="#ffffff"
     id="base"
     showgrid="false"
     inkscape:zoom="2.8284271"
     inkscape:cx="9.9615553"
     inkscape:cy="67.970091"
     inkscape:window-x="0"
     inkscape:window-y="0"
     inkscape:current-layer="svg2"
     inkscape:window-maximized="1">
    <inkscape:grid
       type="xygrid"
       id="grid2390"
       visible="true"
       enabled="true" />
  </sodipodi:namedview>
  <path
     sodipodi:nodetypes="cscccccccsccccssccscccccccsccc"
     id="path3710"
     d="m 142.49083,112.36218 c 0.009,-0.0388 0,-12.27797 0,-15.78596 0,-7.015984 0,-8.769977 1.75399,-10.523972 3.50799,-1.753998 5.26199,-1.753998 3.50799,-5.261989 0,-3.507993 5.26199,-3.507993 7.01599,-7.015983 10.52398,-10.523975 21.04795,-31.571927 19.29394,-47.35789 -1.75398,-10.523975 -7.01597,-12.277972 -21.04794,-19.2939547 -5.26199,-1.7539961 -12.27795,0 -15.78597,3.5079927 -1.75398,3.50799 -3.24088,5.087458 -5.26199,7.015984 7.016,1.753995 21.04796,10.523974 21.04796,10.523974 -1.75398,1.753997 -19.29395,-8.769979 -21.04796,-8.769979 -1.75399,1.753996 0,3.507993 -1.75399,5.261989 0,0 19.27643,7.015983 19.27643,8.769978 0,1.753996 -19.27643,-7.015984 -19.27643,-7.015984 -1.75398,1.753996 0,3.507993 -1.75398,5.261989 0,0 19.29394,7.015984 19.29394,8.769978 0,1.753996 -19.29394,-7.015983 -19.29394,-7.015983 -1.75401,1.753996 0,3.507993 -1.75401,5.261989 0,0 21.04795,7.015983 21.04795,8.769978 0,1.753997 -21.04795,-7.015984 -21.04795,-7.015984 0,1.753996 -0.55988,4.197354 -1.75398,5.261989 0,0 19.77838,6.10029 19.29394,8.769978 -1.26956,0.838305 -19.29394,-7.015983 -19.29394,-7.015983 -1.46387,1.030021 0,3.507993 -1.75401,5.261989 -1.75399,10.523975 0,10.523975 8.76997,15.785964 1.75401,1.753993 -3.05002,7.733337 -3.50797,10.523974 -0.11241,1.181403 0.73191,2.485938 1.75398,3.50799 1.75399,1.753996 0,1.753996 -0.0114,5.98286 l 0.0114,23.835066 c 4.0381,-0.014 8.24038,-0.0127 12.27798,0 z"
     style="fill:#990000;fill-opacity:1;filter:url(#filter3796)" />
  <rect
     style="color:#000000;fill:none;fill-opacity:1;fill-rule:evenodd;stroke:#000000;stroke-width:0.99991804;stroke-linecap:butt;stroke-linejoin:miter;marker:none;marker-start:none;marker-mid:none;marker-end:none;stroke-miterlimit:4;stroke-dasharray:none;stroke-dashoffset:0;stroke-opacity:1;visibility:visible;display:inline;overflow:visible;enable-background:accumulate"
     id="rect4547"
     width="178.99883"
     height="118.99623"
     x="-179.4995"
     y="0.50457346"
     transform="scale(-1,1)" />
  <path
     style="fill:#990000;fill-opacity:1"
     d="m 142.84438,110.24086 c 0.009,-0.0388 0,-12.277974 0,-15.78596 0,-7.015984 0,-8.769977 1.75399,-10.523972 3.50799,-1.753998 5.26199,-1.753998 3.50799,-5.261989 0,-3.507993 5.26199,-3.507993 7.01599,-7.015983 10.52398,-10.523975 21.04795,-31.571927 19.29394,-47.35789 -1.75398,-10.523975 -7.01597,-12.277972 -21.04794,-19.293955 -5.26199,-1.7539961 -12.27795,0 -15.78597,3.5079931 -1.75398,3.5079899 -3.24088,5.0874579 -5.26199,7.0159839 7.016,1.753995 21.04796,10.523974 21.04796,10.523974 -1.75398,1.753997 -19.29395,-8.769979 -21.04796,-8.769979 -1.75399,1.753996 0,3.507993 -1.75399,5.261989 0,0 19.27643,7.015983 19.27643,8.769978 0,1.753996 -19.27643,-7.015984 -19.27643,-7.015984 -1.75398,1.753996 0,3.507993 -1.75398,5.261989 0,0 19.29394,7.015984 19.29394,8.769978 0,1.753996 -19.29394,-7.015983 -19.29394,-7.015983 -1.75401,1.753996 0,3.507993 -1.75401,5.261989 0,0 21.04795,7.015983 21.04795,8.769978 0,1.753997 -21.04795,-7.015984 -21.04795,-7.015984 0,1.753996 -0.55988,4.197354 -1.75398,5.261989 0,0 19.77838,6.10029 19.29394,8.769978 -1.26956,0.838305 -19.29394,-7.015983 -19.29394,-7.015983 -1.46387,1.030021 0,3.507993 -1.75401,5.261989 -1.75399,10.523975 0,10.523975 8.76997,15.785964 1.75401,1.753993 -3.05002,7.733337 -3.50797,10.523974 -0.11241,1.181403 0.73191,2.485938 1.75398,3.50799 1.75399,1.753996 0,1.753996 -0.0114,5.98286 l 0.0114,23.835066 c 4.0381,-0.014 8.24038,-0.0127 12.27798,0 z"
     id="path3633"
     sodipodi:nodetypes="cscccccccsccccssccscccccccsccc" />
  <g
     style="fill:#004455;fill-opacity:1;filter:url(#filter3706)"
     id="g2824"
     transform="matrix(0.14983012,0,0,-0.14983012,-355.16911,454.65446)">
    <g
       transform="translate(-40.114816,-2.3596951)"
       style="fill:#004455;fill-opacity:1"
       clip-path="url(#clipPath608)"
       id="g2826">
      <path
         id="path2828"
         style="fill:#004455;fill-opacity:1;fill-rule:nonzero;stroke:none"
         d="m 2610.66,3005.65 c -5.01,-17 -19.77,-28.38 -21.49,-34.4 -1.72,-6.01 -18.92,-24.07 -18.92,-35.25 0,-11.18 2.59,-25.8 2.59,-31.81 0,-6.02 -4.3,-20.64 -12.05,-26.66 -7.73,-6.01 -35.24,-28.37 -40.41,-32.67 -5.16,-4.29 -13.76,-16.33 -13.76,-26.65 0,-10.32 1.73,-25.8 -4.29,-35.25 -6.01,-9.46 -16.32,-25.79 -16.32,-29.24 0,-3.44 1.71,-7.73 -1.74,-17.19 -3.44,-9.46 -7.74,-25.79 -8.61,-31.82 -0.84,-6.01 -6,-28.37 9.48,-39.54 15.48,-11.19 49.01,-35.26 49.01,-37.83 0,-2.58 -18.93,-10.32 -24.08,-20.64 -5.15,-10.32 -18.92,-33.53 -6.02,-74.8 12.89,-41.27 16.33,-30.95 16.33,-52.45 0,-21.49 10.32,-61.9 13.77,-73.94 3.43,-12.04 8.59,-48.15 12.89,-55.89 4.3,-7.74 23.21,-60.18 23.21,-60.18 l 125.68,0.86 c 0,0 0.88,39.54 0,45.57 -0.85,6.01 8.45,49 2.43,60.18 -6.01,11.18 -11.17,42.13 -11.17,49.87 0,7.74 10.32,48.15 12.04,53.31 1.72,5.16 15.48,35.25 13.75,42.99 -1.72,7.74 -3.43,34.39 -4.31,43.85 -0.85,9.46 -4.29,35.25 -4.29,35.25 0,0 6.88,6.02 6.88,15.48 0,9.45 11.18,19.77 12.9,17.18 1.71,-2.56 9.44,-12.88 16.33,-12.88 6.88,0 12.9,5.15 20.63,11.17 7.75,6.02 18.93,18.91 10.33,24.07 -8.6,5.16 89.41,67.93 95.43,72.22 6.02,4.3 20.65,1.72 24.08,0 3.42,-1.71 61.9,24.94 64.49,25.8 2.57,0.86 -8.6,31.82 -18.06,31.82 -9.45,0 -63.63,-25.8 -64.49,-29.24 -0.86,-3.44 -3.44,-2.58 -3.44,-5.16 0,-2.58 -100.59,-64.49 -100.59,-64.49 0,0 -10.32,31.82 -13.75,35.26 -3.45,3.44 -5.16,30.09 -0.86,43.84 4.29,13.77 5.15,35.26 -6.89,48.16 -12.03,12.89 -17.19,17.19 -23.21,24.93 -6.02,7.74 -17.31,80.65 -18.07,87.7 -1.71,16.33 -2.56,21.5 -2.56,21.5 0,0 0,12.03 -12.03,25.79 -12.05,13.75 -29.25,24.07 -39.56,23.21 -10.32,-0.86 -36.97,2.58 -41.28,-12.03" />
    </g>
  </g>
  <g
     transform="matrix(0.14983012,0,0,-0.14983012,-356.22977,453.94735)"
     id="g604"
     style="fill:#606060;fill-opacity:1">
    <g
       id="g606"
       clip-path="url(#clipPath608)"
       style="fill:#7590ae;fill-opacity:1"
       transform="translate(-40.114816,-2.3596951)">
      <path
         d="m 2610.66,3005.65 c -5.01,-17 -19.77,-28.38 -21.49,-34.4 -1.72,-6.01 -18.92,-24.07 -18.92,-35.25 0,-11.18 2.59,-25.8 2.59,-31.81 0,-6.02 -4.3,-20.64 -12.05,-26.66 -7.73,-6.01 -35.24,-28.37 -40.41,-32.67 -5.16,-4.29 -13.76,-16.33 -13.76,-26.65 0,-10.32 1.73,-25.8 -4.29,-35.25 -6.01,-9.46 -16.32,-25.79 -16.32,-29.24 0,-3.44 1.71,-7.73 -1.74,-17.19 -3.44,-9.46 -7.74,-25.79 -8.61,-31.82 -0.84,-6.01 -6,-28.37 9.48,-39.54 15.48,-11.19 49.01,-35.26 49.01,-37.83 0,-2.58 -18.93,-10.32 -24.08,-20.64 -5.15,-10.32 -18.92,-33.53 -6.02,-74.8 12.89,-41.27 16.33,-30.95 16.33,-52.45 0,-21.49 10.32,-61.9 13.77,-73.94 3.43,-12.04 8.59,-48.15 12.89,-55.89 4.3,-7.74 23.21,-60.18 23.21,-60.18 l 125.68,0.86 c 0,0 0.88,39.54 0,45.57 -0.85,6.01 8.45,49 2.43,60.18 -6.01,11.18 -11.17,42.13 -11.17,49.87 0,7.74 10.32,48.15 12.04,53.31 1.72,5.16 15.48,35.25 13.75,42.99 -1.72,7.74 -3.43,34.39 -4.31,43.85 -0.85,9.46 -4.29,35.25 -4.29,35.25 0,0 6.88,6.02 6.88,15.48 0,9.45 11.18,19.77 12.9,17.18 1.71,-2.56 9.44,-12.88 16.33,-12.88 6.88,0 12.9,5.15 20.63,11.17 7.75,6.02 18.93,18.91 10.33,24.07 -8.6,5.16 89.41,67.93 95.43,72.22 6.02,4.3 20.65,1.72 24.08,0 3.42,-1.71 61.9,24.94 64.49,25.8 2.57,0.86 -8.6,31.82 -18.06,31.82 -9.45,0 -63.63,-25.8 -64.49,-29.24 -0.86,-3.44 -3.44,-2.58 -3.44,-5.16 0,-2.58 -100.59,-64.49 -100.59,-64.49 0,0 -10.32,31.82 -13.75,35.26 -3.45,3.44 -5.16,30.09 -0.86,43.84 4.29,13.77 5.15,35.26 -6.89,48.16 -12.03,12.89 -17.19,17.19 -23.21,24.93 -6.02,7.74 -17.31,80.65 -18.07,87.7 -1.71,16.33 -2.56,21.5 -2.56,21.5 0,0 0,12.03 -12.03,25.79 -12.05,13.75 -29.25,24.07 -39.56,23.21 -10.32,-0.86 -36.97,2.58 -41.28,-12.03"
         style="fill:#7590ae;fill-opacity:1;fill-rule:nonzero;stroke:none"
         id="path618" />
    </g>
  </g>
</svg>
