<?xml version="1.0" encoding="UTF-8" standalone="no"?>
<!-- Created with Inkscape (http://www.inkscape.org/) -->

<svg
   xmlns:dc="http://purl.org/dc/elements/1.1/"
   xmlns:cc="http://creativecommons.org/ns#"
   xmlns:rdf="http://www.w3.org/1999/02/22-rdf-syntax-ns#"
   xmlns:svg="http://www.w3.org/2000/svg"
   xmlns="http://www.w3.org/2000/svg"
   xmlns:sodipodi="http://sodipodi.sourceforge.net/DTD/sodipodi-0.dtd"
   xmlns:inkscape="http://www.inkscape.org/namespaces/inkscape"
   width="256"
   height="256"
   id="svg2846"
   version="1.1"
   inkscape:version="0.47pre4 r22446"
   sodipodi:docname="gmpc-tray.svg"
   inkscape:export-filename="/home/zeltak/ThemeDB/2)PNG Database/$Workshop/humanity tray/gmpc2/humanity small/128x128/gmpc-tray.png"
   inkscape:export-xdpi="480"
   inkscape:export-ydpi="480">
  <defs
     id="defs2848">
    <inkscape:perspective
       sodipodi:type="inkscape:persp3d"
       inkscape:vp_x="0 : 526.18109 : 1"
       inkscape:vp_y="0 : 1000 : 0"
       inkscape:vp_z="744.09448 : 526.18109 : 1"
       inkscape:persp3d-origin="372.04724 : 350.78739 : 1"
       id="perspective2854" />
    <inkscape:perspective
       id="perspective2839"
       inkscape:persp3d-origin="0.5 : 0.33333333 : 1"
       inkscape:vp_z="1 : 0.5 : 1"
       inkscape:vp_y="0 : 1000 : 0"
       inkscape:vp_x="0 : 0.5 : 1"
       sodipodi:type="inkscape:persp3d" />
    <inkscape:perspective
       id="perspective2865"
       inkscape:persp3d-origin="0.5 : 0.33333333 : 1"
       inkscape:vp_z="1 : 0.5 : 1"
       inkscape:vp_y="0 : 1000 : 0"
       inkscape:vp_x="0 : 0.5 : 1"
       sodipodi:type="inkscape:persp3d" />
    <inkscape:perspective
       id="perspective2852"
       inkscape:persp3d-origin="0.5 : 0.33333333 : 1"
       inkscape:vp_z="1 : 0.5 : 1"
       inkscape:vp_y="0 : 1000 : 0"
       inkscape:vp_x="0 : 0.5 : 1"
       sodipodi:type="inkscape:persp3d" />
    <inkscape:perspective
       id="perspective2828"
       inkscape:persp3d-origin="0.5 : 0.33333333 : 1"
       inkscape:vp_z="1 : 0.5 : 1"
       inkscape:vp_y="0 : 1000 : 0"
       inkscape:vp_x="0 : 0.5 : 1"
       sodipodi:type="inkscape:persp3d" />
    <inkscape:perspective
       id="perspective2878"
       inkscape:persp3d-origin="0.5 : 0.33333333 : 1"
       inkscape:vp_z="1 : 0.5 : 1"
       inkscape:vp_y="0 : 1000 : 0"
       inkscape:vp_x="0 : 0.5 : 1"
       sodipodi:type="inkscape:persp3d" />
    <inkscape:perspective
       id="perspective2862"
       inkscape:persp3d-origin="0.5 : 0.33333333 : 1"
       inkscape:vp_z="1 : 0.5 : 1"
       inkscape:vp_y="0 : 1000 : 0"
       inkscape:vp_x="0 : 0.5 : 1"
       sodipodi:type="inkscape:persp3d" />
    <inkscape:perspective
       id="perspective2874"
       inkscape:persp3d-origin="0.5 : 0.33333333 : 1"
       inkscape:vp_z="1 : 0.5 : 1"
       inkscape:vp_y="0 : 1000 : 0"
       inkscape:vp_x="0 : 0.5 : 1"
       sodipodi:type="inkscape:persp3d" />
  </defs>
  <sodipodi:namedview
     id="base"
     pagecolor="#ffffff"
     bordercolor="#666666"
     borderopacity="1.0"
     inkscape:pageopacity="0.0"
     inkscape:pageshadow="2"
     inkscape:zoom="2.8284271"
     inkscape:cx="15.126277"
     inkscape:cy="123.63339"
     inkscape:document-units="px"
     inkscape:current-layer="g3636"
     showgrid="false"
     inkscape:window-width="1680"
     inkscape:window-height="996"
     inkscape:window-x="0"
     inkscape:window-y="0"
     inkscape:window-maximized="1" />
  <metadata
     id="metadata2851">
    <rdf:RDF>
      <cc:Work
         rdf:about="">
        <dc:format>image/svg+xml</dc:format>
        <dc:type
           rdf:resource="http://purl.org/dc/dcmitype/StillImage" />
        <dc:title></dc:title>
      </cc:Work>
    </rdf:RDF>
  </metadata>
  <g
     inkscape:label="Layer 1"
     inkscape:groupmode="layer"
     id="layer1"
     transform="translate(-298.07268,-375.53146)">
    <g
       id="g11223"
       transform="matrix(0.15557991,0,0,0.15557991,326.38597,601.6653)"
       style="fill:#606060;fill-opacity:1" />
    <g
       id="g3636"
       transform="matrix(0.75630028,0,0,0.87862403,75.351585,75.337105)">
      <path
         id="path2818"
         d="m 407.89727,606.06068 c -15.41181,-1.82759 -33.08456,-8.01972 -42.18959,-14.78204 -14.89091,-11.05971 -12.26167,-27.10118 6.44271,-39.31037 14.27993,-9.32111 33.04448,-13.31105 56.37296,-11.98745 5.03613,0.28722 16.38495,1.32301 25.21955,2.3049 18.80071,2.08964 24.18778,2.26564 25.36269,0.82858 2.353,-2.87876 2.23562,-54.50399 -0.32978,-145.22683 -0.4598,-16.25269 -0.75411,-29.62367 -0.65601,-29.71374 0.19739,-0.17729 -0.0117,-0.29431 15.36513,8.25306 38.46653,21.36943 54.97914,26.95496 87.12804,29.47119 10.29731,0.80612 24.39084,1.47431 38.98176,1.84817 5.64238,0.14539 11.02496,0.36878 11.96181,0.49762 l 1.70313,0.23522 -2.38704,1.32773 c -9.69261,5.39109 -15.97007,7.62045 -28.37513,10.07805 -11.63355,2.30455 -25.2797,3.72412 -48.89812,5.08638 -16.86083,0.9716 -23.14751,1.71826 -25.98809,3.08217 -4.86746,2.33751 -0.3546,6.26163 10.00336,8.6989 11.36478,2.67404 25.84104,3.77318 57.31217,4.35106 23.84122,0.43851 27.74547,0.64182 27.74547,1.45314 0,1.61047 -17.22629,9.64402 -25.53703,11.90896 -12.01546,3.27497 -24.12349,4.88401 -39.77465,5.28624 -11.72742,0.3026 -21.26105,-0.21276 -38.29799,-2.06553 -6.39436,-0.69502 -11.77989,-1.17136 -11.96795,-1.05671 -0.18912,0.11939 -0.53899,24.62017 -0.78012,54.45777 -0.47753,58.94593 -0.39124,57.60354 -4.40671,66.78635 -2.47511,5.65704 -4.48887,7.84302 -11.88096,12.89629 -14.17415,9.6893 -25.7193,13.79473 -43.11297,15.33061 -9.22654,0.81439 -32.00066,0.79076 -39.01498,-0.0355 z"
         style="fill:#606060;fill-opacity:1;stroke:#969696;stroke-width:3.85714126;stroke-miterlimit:4;stroke-opacity:0.93333333;stroke-dasharray:none" />
      <path
         id="path5350"
         d="m 385.36808,498.4764 c -1.13058,-0.26475 -2.05807,-0.71315 -2.05807,-0.99593 0,-0.28276 2.38132,-8.40515 5.29171,-18.04966 5.49112,-18.19456 5.99782,-20.78767 4.25181,-21.75384 -1.76378,-0.97678 -28.67264,-6.99115 -29.19278,-6.52529 -0.26743,0.23996 -3.27894,9.37389 -6.68835,20.29509 -6.27019,20.08478 -7.38137,21.96262 -11.63716,19.66422 -1.28906,-0.69622 -0.52613,-4.38203 3.99572,-19.2913 3.07422,-10.13686 5.62704,-19.48172 5.6728,-20.76638 0.087,-2.51661 -3.52221,-3.74224 -31.09937,-10.55304 -10.32536,-2.55004 -11.72671,-3.16925 -11.35147,-5.01551 0.23632,-1.15849 0.81342,-2.47302 1.28245,-2.92106 0.46889,-0.44952 9.87537,1.3303 20.90112,3.9493 11.0256,2.6205 20.87112,4.76443 21.87907,4.76443 1.84202,0 2.81936,-2.38154 7.45949,-18.17193 1.88567,-6.41771 1.91252,-7.27257 0.27114,-8.74188 -1,-0.89453 -11.21803,-3.94189 -22.70593,-6.76933 -11.48818,-2.82731 -21.11491,-5.34439 -21.39291,-5.59314 -0.27736,-0.2501 0.0125,-1.67627 0.65049,-3.1715 l 1.15296,-2.71884 10.34431,2.51131 c 5.68934,1.38155 16.23512,3.91236 23.43476,5.62491 l 13.09037,3.11384 5.72507,-18.94703 c 3.14873,-10.42099 6.03352,-19.39587 6.41063,-19.94405 0.42909,-0.62528 1.80681,-0.61514 3.69123,0.0339 l 3.00606,1.02297 -5.71895,19.75718 c -3.14548,10.86643 -5.60031,19.83928 -5.45566,19.93945 1.74762,1.20827 30.94825,7.33215 31.27001,6.5576 0.23756,-0.57117 3.18094,-9.87638 6.54122,-20.67927 5.83462,-18.75618 6.236,-19.62863 8.90387,-19.35553 1.53691,0.15658 3.03915,0.50586 3.33914,0.77621 0.29974,0.26928 -1.92336,8.90764 -4.94084,19.19794 -5.80119,19.78498 -6.18479,21.86762 -4.22511,22.95211 0.67661,0.37402 10.06917,2.9376 20.87327,5.69667 19.8235,5.06172 21.90594,6.12142 19.42872,9.88594 -0.78729,1.1977 -4.77729,0.53741 -22.12843,-3.65988 -18.5203,-4.48016 -21.33147,-4.92101 -22.47909,-3.52616 -1.3806,1.67662 -7.1085,19.20952 -7.732,23.6631 -0.35322,2.52167 0.33086,2.77652 22.58231,8.43117 20.61815,5.23884 22.90307,6.04356 22.52299,7.93131 -0.23259,1.15556 -0.8296,2.48687 -1.3256,2.95869 -0.49752,0.47204 -8.7795,-1.04435 -18.40713,-3.36969 -28.92576,-6.98471 -27.43945,-6.836 -29.24166,-2.926 -0.84329,1.83242 -3.80556,10.5591 -6.57953,19.3926 -2.77459,8.83382 -5.60963,16.00634 -6.29968,15.93907 -0.69028,-0.0789 -2.18144,-0.33684 -3.31326,-0.60383 z m 15.44879,-59.56891 c 3.88219,-12.55781 4.29174,-15.06079 2.61626,-15.98788 -0.57337,-0.31769 -7.05674,-1.97292 -14.40554,-3.67745 -10.23194,-2.37342 -13.66923,-2.80762 -14.67655,-1.85395 -1.32734,1.25505 -9.24293,25.90212 -8.49469,26.44378 0.98012,0.70977 26.52868,6.79378 28.78561,6.85541 2.2134,0.0563 2.94698,-1.33942 6.17491,-11.77991 z"
         style="fill:#606060;fill-opacity:1;stroke:#969696;stroke-width:4.74901676;stroke-miterlimit:4;stroke-opacity:0.93333333;stroke-dasharray:none" />
    </g>
  </g>
</svg>
