<?xml version="1.0" encoding="UTF-8" standalone="no"?>
<!-- Created with Inkscape (http://www.inkscape.org/) -->

<svg
   xmlns:dc="http://purl.org/dc/elements/1.1/"
   xmlns:cc="http://creativecommons.org/ns#"
   xmlns:rdf="http://www.w3.org/1999/02/22-rdf-syntax-ns#"
   xmlns:svg="http://www.w3.org/2000/svg"
   xmlns="http://www.w3.org/2000/svg"
   xmlns:sodipodi="http://sodipodi.sourceforge.net/DTD/sodipodi-0.dtd"
   xmlns:inkscape="http://www.inkscape.org/namespaces/inkscape"
   width="23.548794"
   height="24"
   id="svg2846"
   version="1.1"
   inkscape:version="0.47pre4 r22446"
   sodipodi:docname="gmpc-tray-disconnected.svg">
  <defs
     id="defs2848">
    <inkscape:perspective
       sodipodi:type="inkscape:persp3d"
       inkscape:vp_x="0 : 526.18109 : 1"
       inkscape:vp_y="0 : 1000 : 0"
       inkscape:vp_z="744.09448 : 526.18109 : 1"
       inkscape:persp3d-origin="372.04724 : 350.78739 : 1"
       id="perspective2854" />
    <inkscape:perspective
       id="perspective2839"
       inkscape:persp3d-origin="0.5 : 0.33333333 : 1"
       inkscape:vp_z="1 : 0.5 : 1"
       inkscape:vp_y="0 : 1000 : 0"
       inkscape:vp_x="0 : 0.5 : 1"
       sodipodi:type="inkscape:persp3d" />
    <inkscape:perspective
       id="perspective2865"
       inkscape:persp3d-origin="0.5 : 0.33333333 : 1"
       inkscape:vp_z="1 : 0.5 : 1"
       inkscape:vp_y="0 : 1000 : 0"
       inkscape:vp_x="0 : 0.5 : 1"
       sodipodi:type="inkscape:persp3d" />
    <inkscape:perspective
       id="perspective2852"
       inkscape:persp3d-origin="0.5 : 0.33333333 : 1"
       inkscape:vp_z="1 : 0.5 : 1"
       inkscape:vp_y="0 : 1000 : 0"
       inkscape:vp_x="0 : 0.5 : 1"
       sodipodi:type="inkscape:persp3d" />
    <inkscape:perspective
       id="perspective2828"
       inkscape:persp3d-origin="0.5 : 0.33333333 : 1"
       inkscape:vp_z="1 : 0.5 : 1"
       inkscape:vp_y="0 : 1000 : 0"
       inkscape:vp_x="0 : 0.5 : 1"
       sodipodi:type="inkscape:persp3d" />
    <inkscape:perspective
       id="perspective2878"
       inkscape:persp3d-origin="0.5 : 0.33333333 : 1"
       inkscape:vp_z="1 : 0.5 : 1"
       inkscape:vp_y="0 : 1000 : 0"
       inkscape:vp_x="0 : 0.5 : 1"
       sodipodi:type="inkscape:persp3d" />
    <inkscape:perspective
       id="perspective2862"
       inkscape:persp3d-origin="0.5 : 0.33333333 : 1"
       inkscape:vp_z="1 : 0.5 : 1"
       inkscape:vp_y="0 : 1000 : 0"
       inkscape:vp_x="0 : 0.5 : 1"
       sodipodi:type="inkscape:persp3d" />
  </defs>
  <sodipodi:namedview
     id="base"
     pagecolor="#ffffff"
     bordercolor="#666666"
     borderopacity="1.0"
     inkscape:pageopacity="0.0"
     inkscape:pageshadow="2"
     inkscape:zoom="11.2"
     inkscape:cx="-6.0313913"
     inkscape:cy="17.641961"
     inkscape:document-units="px"
     inkscape:current-layer="layer1"
     showgrid="false"
     inkscape:window-width="1680"
     inkscape:window-height="996"
     inkscape:window-x="0"
     inkscape:window-y="0"
     inkscape:window-maximized="1" />
  <metadata
     id="metadata2851">
    <rdf:RDF>
      <cc:Work
         rdf:about="">
        <dc:format>image/svg+xml</dc:format>
        <dc:type
           rdf:resource="http://purl.org/dc/dcmitype/StillImage" />
        <dc:title></dc:title>
      </cc:Work>
    </rdf:RDF>
  </metadata>
  <g
     inkscape:label="Layer 1"
     inkscape:groupmode="layer"
     id="layer1"
     transform="translate(-298.26354,-607.53426)">
    <g
       id="g11223"
       transform="matrix(0.15557991,0,0,0.15557991,326.38597,601.6653)"
       style="fill:#606060;fill-opacity:1" />
    <g
       id="g4131"
       transform="matrix(0.80376767,0,0,1,60.514876,-0.33585964)">
      <path
         id="path2818"
         d="m 305.45589,629.82746 c -1.09664,-0.15337 -2.35419,-0.67304 -3.00205,-1.24057 -1.05959,-0.92815 -0.87251,-2.27441 0.45843,-3.29905 1.01611,-0.78226 2.35133,-1.11711 4.0113,-1.00603 0.35836,0.024 1.16589,0.11104 1.79453,0.19344 1.33781,0.17538 1.72112,0.19014 1.80473,0.0695 0.16743,-0.24158 0.15908,-4.57416 -0.0235,-12.18796 -0.0328,-1.36396 -0.0536,-2.48611 -0.0465,-2.49365 0.014,-0.015 -8.4e-4,-0.0246 1.09332,0.69262 2.73714,1.79341 3.91213,2.26215 6.19972,2.47332 0.73274,0.0676 1.73557,0.12372 2.77382,0.15511 0.40148,0.0122 0.78448,0.031 0.85116,0.0419 l 0.12119,0.0198 -0.16986,0.11142 c -0.68968,0.45243 -1.13638,0.63955 -2.01907,0.8458 -0.82781,0.1934 -1.79882,0.31254 -3.47943,0.42688 -1.19976,0.0816 -1.64708,0.14417 -1.84921,0.25865 -0.34635,0.19617 -0.0253,0.5255 0.71179,0.73003 0.80868,0.22442 1.83876,0.31665 4.07815,0.36517 1.69645,0.0368 1.97427,0.0539 1.97427,0.12194 0,0.13516 -1.22576,0.80936 -1.81713,0.99946 -0.85499,0.27482 -1.71655,0.40988 -2.83022,0.44364 -0.83448,0.0254 -1.51286,-0.0179 -2.72515,-0.17335 -0.455,-0.0584 -0.83822,-0.0982 -0.85162,-0.0887 -0.0134,0.01 -0.0384,2.06621 -0.0556,4.57028 -0.0341,4.94694 -0.0277,4.8343 -0.31359,5.60494 -0.17612,0.47477 -0.31941,0.65822 -0.84541,1.0823 -1.00858,0.81317 -1.83009,1.1577 -3.06776,1.2866 -0.65652,0.0684 -2.27706,0.0663 -2.77618,-0.003 z"
         style="fill:#606060;fill-opacity:1;stroke:#969696;stroke-width:0.30000001;stroke-miterlimit:4;stroke-opacity:0.93333333;stroke-dasharray:none" />
      <path
         id="path4580"
         d="m 299.95132,616.96994 -0.50181,-0.38949 1.98142,-1.5294 c 1.0898,-0.84116 1.98144,-1.55056 1.98144,-1.57643 0,-0.026 -0.77481,-0.6456 -1.72181,-1.37715 l -1.72179,-1.33008 0.48603,-0.37749 0.48604,-0.3775 1.75409,1.35383 1.75411,1.35384 1.76843,-1.36487 1.76842,-1.36487 0.50269,0.38817 0.5027,0.38814 -1.76766,1.3655 -1.76766,1.36547 1.99732,1.54273 1.9973,1.54274 -0.48905,0.3754 -0.48905,0.37539 -1.99626,-1.54138 -1.99623,-1.54137 -2.01344,1.55415 -2.01345,1.55414 -0.50178,-0.38947 0,0 z"
         style="fill:#606060;fill-opacity:1;stroke:#969696;stroke-width:0.40400189;stroke-miterlimit:4;stroke-opacity:0.93333333;stroke-dasharray:none" />
    </g>
  </g>
</svg>
