<?xml version="1.0" encoding="UTF-8" standalone="no"?>
<!-- Created with Inkscape (http://www.inkscape.org/) -->
<svg
   xmlns:dc="http://purl.org/dc/elements/1.1/"
   xmlns:cc="http://creativecommons.org/ns#"
   xmlns:rdf="http://www.w3.org/1999/02/22-rdf-syntax-ns#"
   xmlns:svg="http://www.w3.org/2000/svg"
   xmlns="http://www.w3.org/2000/svg"
   xmlns:xlink="http://www.w3.org/1999/xlink"
   xmlns:sodipodi="http://sodipodi.sourceforge.net/DTD/sodipodi-0.dtd"
   xmlns:inkscape="http://www.inkscape.org/namespaces/inkscape"
   id="svg2"
   sodipodi:version="0.32"
   inkscape:version="0.46"
   width="803.15167"
   height="569.37354"
   version="1.0"
   sodipodi:docname="na-d.svg"
   inkscape:output_extension="org.inkscape.output.svg.inkscape">
  <metadata
     id="metadata7">
    <rdf:RDF>
      <cc:Work
         rdf:about="">
        <dc:format>image/svg+xml</dc:format>
        <dc:type
           rdf:resource="http://purl.org/dc/dcmitype/StillImage" />
      </cc:Work>
    </rdf:RDF>
  </metadata>
  <defs
     id="defs5">
    <linearGradient
       id="linearGradient4436">
      <stop
         style="stop-color:#ffffff;stop-opacity:1;"
         offset="0"
         id="stop4438" />
      <stop
         style="stop-color:#ffffff;stop-opacity:0;"
         offset="1"
         id="stop4440" />
    </linearGradient>
    <inkscape:perspective
       sodipodi:type="inkscape:persp3d"
       inkscape:vp_x="0 : 526.18109 : 1"
       inkscape:vp_y="0 : 1000 : 0"
       inkscape:vp_z="744.09448 : 526.18109 : 1"
       inkscape:persp3d-origin="372.04724 : 350.78739 : 1"
       id="perspective9" />
    <linearGradient
       inkscape:collect="always"
       xlink:href="#linearGradient4436"
       id="linearGradient4545"
       gradientUnits="userSpaceOnUse"
       gradientTransform="translate(-5.2232176,-78.763954)"
       x1="-139.32234"
       y1="-70.973091"
       x2="428.66336"
       y2="407.2095" />
  </defs>
  <sodipodi:namedview
     inkscape:window-height="1000"
     inkscape:window-width="1280"
     inkscape:pageshadow="2"
     inkscape:pageopacity="0.0"
     guidetolerance="10.0"
     gridtolerance="10.0"
     objecttolerance="10.0"
     borderopacity="1.0"
     bordercolor="#666666"
     pagecolor="#ffffff"
     id="base"
     showgrid="false"
     inkscape:zoom="0.42347839"
     inkscape:cx="1.3883897"
     inkscape:cy="691.5452"
     inkscape:window-x="0"
     inkscape:window-y="0"
     inkscape:current-layer="svg2" />
  <g
     id="g4538"
     transform="matrix(-1,0,0,1,901.72638,-63.736124)">
    <path
       sodipodi:nodetypes="csccccsssssssssssssssssccccsssssczssssssssccccssscccc"
       id="path3633"
       d="M 194.10801,628.81597 C 194.08276,628.71112 194.85603,601.27762 194.49902,593.0722 C 193.64013,573.33109 192.56216,569.44171 187.67896,568.46509 C 180.35432,565.45683 176.52061,558.35742 176.17205,550.79877 C 176.51909,542.84457 167.84063,537.52727 162.76494,531.97212 C 153.74344,525.87435 145.30212,520.15431 138.80736,510.8086 C 136.85085,507.72335 136.16017,505.76729 136.11471,503.18297 C 136.06177,500.17374 135.77177,499.57048 133.95516,498.69055 C 131.24821,497.37924 129.83368,494.47167 131.13809,492.89994 C 132.30408,491.49499 131.57448,490.17492 129.63201,490.17492 C 127.40455,490.17492 125.57248,486.82169 126.08257,483.6784 C 126.38387,481.82164 126.22395,481.02415 125.55031,481.02415 C 125.02066,481.02415 123.78401,480.16908 122.80218,479.12399 C 121.1546,477.37017 120.63061,474.73955 121.36486,471.90807 C 121.52307,471.29802 121.1785,470.7833 120.59918,470.76423 C 118.79407,470.70483 116.79748,465.9417 117.00877,462.1988 C 117.17387,459.27414 116.94689,458.64404 115.48885,457.97977 C 112.74267,456.72847 111.94175,451.57179 114.15053,449.36302 C 115.19506,448.31854 115.235,447.9824 114.37759,447.45249 C 113.80533,447.09881 113.08178,446.96727 112.76968,447.16013 C 111.48136,447.95632 108.30764,441.76429 108.30764,438.45446 C 108.30764,436.26309 107.77757,434.45573 106.7528,433.15297 C 105.62291,431.71652 105.33103,430.57046 105.68485,428.95955 C 106.07596,427.17881 105.74497,426.29728 104.0024,424.47842 C 99.510646,418.43487 101.90839,408.07713 104.09977,401.35846 C 115.64083,373.72061 137.09226,357.17937 163.6658,348.3014 C 176.55575,343.71654 195.84514,346.6124 205.9163,355.70517 C 212.16588,361.49118 212.6821,362.57583 214.0721,372.84139 C 214.33506,374.78348 215.33778,376.45564 217.42588,378.43433 C 219.85536,380.73644 164.70898,400.35165 166.28939,405.11936 C 167.70107,409.37804 216.95701,383.16482 218.31271,384.43846 C 220.47434,386.46917 226.60346,398.5234 225.82852,399.77729 C 225.54214,400.2407 173.54713,419.21658 174.3861,421.98743 C 176.07619,429.10367 225.20378,401.26771 228.48781,404.66105 C 231.92193,408.20942 231.05647,416.55141 231.33062,417.96208 C 231.33062,417.96208 179.49938,438.22821 180.81309,440.61557 C 184.05256,446.50249 230.17253,419.75113 231.6648,421.5565 C 233.13725,423.33792 236.1269,431.7638 235.93081,434.94804 C 235.74912,437.89856 186.92864,455.17719 189.46656,459.30487 C 192.98584,465.0286 237.62936,436.02562 237.63562,437.74513 C 237.65069,441.88364 241.2239,451.88253 242.82116,452.38948 C 244.47677,452.91497 193.34753,470.79458 194.97476,474.82595 C 196.34539,478.22165 243.07192,455.42091 244.326,455.9923 C 248.28103,458.77516 247.91365,463.79117 249.9151,467.67927 C 252.89975,496.35367 242.77987,503.17016 222.0991,515.00172 C 219.6776,518.0891 228.85539,535.78055 230.09272,543.32015 C 230.39659,546.51202 230.07861,548.13414 228.45305,551.68487 C 226.45627,556.04635 226.44068,556.21763 226.87147,569.07683 C 227.11074,576.21976 227.45473,584.12282 227.63586,586.63928 C 227.817,589.15575 227.11422,615.7094 227.4015,620.42777 L 227.92382,629.00662 L 211.03888,629.00662 C 201.75215,629.00662 194.13327,628.92083 194.10801,628.81597 z"
       style="fill:#000000" />
    <path
       sodipodi:nodetypes="ccccsccccccccccccssssssscssscccscscccscccccccccccccccscccc"
       id="path3511"
       d="M 631.3289,103.91155 C 631.3289,103.91155 573.81317,152.97464 507.65625,152.71875 C 504.60365,155.81705 512.84592,157.19228 518,166.6875 C 528.12322,180.5788 541.66166,202.80036 558.875,198.46875 C 561.59075,187.98831 566.40624,200.53126 566.40625,200.53125 C 581.24427,242.96578 550.01238,265.91179 506.78125,246.34375 C 473.96925,236.37866 485.91557,199.97917 522.09375,206.09375 C 522.09375,206.09375 531.11064,180.20049 473.84375,190.96875 C 469.27901,208.48454 437.66589,190.32277 428.875,174.5 C 374.97814,177.01066 335.4005,180.97814 340.96875,226.3125 C 347.05738,231.90011 346.23061,240.64547 349.46875,247.6875 C 314.58946,263.42525 293.13462,236.07275 281.03125,247.8125 C 274.73157,231.07343 300.93225,229.05843 305,214.8125 C 289.12113,215.68901 321.35608,190.43407 310.09375,217.75 C 312.73034,213.75558 322.59581,198.57433 319.3125,194.28125 C 307.40473,196.31336 281.23123,222.42209 277,212.09375 C 277.2834,210.37733 283.45899,203.11212 272.875,211.3125 C 270.56232,213.5125 267.70024,215.31251 266.5,215.3125 C 265.29977,215.3125 263.48506,216.25198 262.46875,217.375 C 260.67153,219.3609 260.66293,219.56231 262.46875,224.875 C 263.48995,227.8793 266.50871,233.54825 269.1875,237.5 C 272.35036,242.16586 273.82627,245.23643 273.375,246.25 C 272.28111,248.7068 272.12445,253.95971 273.03125,258.0625 C 273.86516,261.83551 280.77325,269.11284 287.25,273.0625 C 289.53029,274.45307 290,275.44344 290,278.84375 C 287.46949,289.37446 290.02162,300.12413 293.21875,308.21875 C 296.41587,316.31337 300.68749,322.50002 300.6875,322.5 C 297.3387,300.01039 301.78124,295.71874 301.78125,295.71875 C 300.70059,306.8868 302.27632,322.35517 316.34375,336.0625 C 315.38256,322.04438 306.88538,290.40572 321.3125,282.46875 C 349.23381,280.33628 390.77931,275.13686 412,294.40625 C 430.95846,322.34748 422.31023,356.03988 420.65625,379 C 419.00227,401.96012 393.28839,396.71493 411,374.40625 C 411,368.51185 409.19876,366.90404 403.375,367.59375 C 389.96784,369.18165 383.96009,377.00751 384.03125,388.6875 C 385.29149,401.85292 389.62502,409.07008 402.46875,418.25 C 395.10155,416.78209 386.57523,413.51137 376.9375,401.375 C 376.9375,401.375 379.72416,412.76314 383.4375,417.40625 C 387.15084,422.04937 394.37225,429.31977 404.3125,432.3125 C 427.88969,447.41667 445.56679,480.29792 473.375,438.3125 C 476.30743,432.1293 477.70184,430.80871 483.625,428.5625 C 492.06904,424.61301 506.08879,415.5004 513.56314,409.99936 C 506.14686,423.03365 515.14675,441.66503 518.28933,447.58015 C 560.63403,492.19877 539.41235,514.85788 558.77509,517.36076 C 579.73483,478.93247 575.63521,524.104 575.84375,533.09375 C 564.27695,577.49097 591.55286,579.16886 580.96875,629.13212 L 741,629.3125 L 900.03125,629.3125 L 900,545.21875 C 899.30191,464.22104 909.04408,423.76235 877.90625,474.75 C 837.70774,459.17544 773.42665,476.90914 786.03125,415.375 C 714.43184,381.40149 652.44274,456.75541 639,407.5 C 702.45851,381.68056 713.62687,331.44796 641,288.96875 C 639.69988,304.25189 626.37323,292.95908 621.65625,279.09375 C 616.93923,265.22843 627.80068,256.48253 625.09375,237.21875 C 623.69582,234.57961 620.01836,231.66422 622.46875,223.96875 C 667.90565,177.52107 654.73116,112.15199 654.73116,112.15199 C 653.07625,98.121617 647.88002,93.79919 631.3289,103.91155 z"
       style="fill:#000000" />
    <path
       sodipodi:nodetypes="cssc"
       id="path3638"
       d="M 276.81202,212.39459 C 276.81202,212.39459 325.84044,183.09871 343.77864,162.17081 C 368.57329,133.24372 402.22318,126.15953 441.1862,132.06302 C 480.14923,137.96651 518.52191,160.99012 518.52191,160.99012"
       style="fill:none;fill-rule:evenodd;stroke:#000000;stroke-width:7;stroke-linecap:round;stroke-linejoin:miter;stroke-miterlimit:4;stroke-dasharray:none;stroke-opacity:1" />
    <path
       sodipodi:nodetypes="ccs"
       id="path3640"
       d="M 618.10567,223.63258 C 634.29823,279.1124 692.62668,327.93473 738.72205,362.44663 C 783.29339,390.34063 872.73126,418.38224 898.11625,457.34524"
       style="fill:none;fill-rule:evenodd;stroke:#000000;stroke-width:7;stroke-linecap:butt;stroke-linejoin:miter;stroke-miterlimit:4;stroke-dasharray:none;stroke-opacity:1" />
    <path
       sodipodi:nodetypes="cs"
       id="path4412"
       d="M 475.88126,430.55102 C 502.17996,414.68831 552.02819,531.18365 575.82226,630.11686"
       style="fill:none;fill-rule:evenodd;stroke:#000000;stroke-width:7;stroke-linecap:butt;stroke-linejoin:miter;stroke-miterlimit:4;stroke-dasharray:none;stroke-opacity:1" />
  </g>
  <path
     style="fill:url(#linearGradient4545);fill-opacity:1;fill-rule:evenodd;stroke:none;stroke-width:1px;stroke-linecap:butt;stroke-linejoin:miter;stroke-opacity:1"
     d="M 6.5836824,565.19285 C 6.5836824,565.19285 399.8485,-6.6700297 795.3594,84.229306 L 798.97097,4.3961593 L 5.6954524,2.918793 C 5.6954524,2.918793 6.5836824,565.19285 6.5836824,565.19285 z"
     id="path4488"
     sodipodi:nodetypes="ccccc" />
  <rect
     style="opacity:1;color:#000000;fill:none;fill-opacity:1;fill-rule:evenodd;stroke:#000000;stroke-width:5;stroke-linecap:butt;stroke-linejoin:miter;marker:none;marker-start:none;marker-mid:none;marker-end:none;stroke-miterlimit:4;stroke-dasharray:none;stroke-dashoffset:0;stroke-opacity:1;visibility:visible;display:inline;overflow:visible;enable-background:accumulate"
     id="rect4547"
     width="798.15167"
     height="564.37354"
     x="-800.65167"
     y="2.5"
     transform="scale(-1,1)" />
</svg>
